M48
; DRILL file {KiCad (5.1.9)-1} date 05/05/21 00:17:11
; FORMAT={-:-/ absolute / inch / decimal}
; #@! TF.CreationDate,2021-05-05T00:17:11+02:00
; #@! TF.GenerationSoftware,Kicad,Pcbnew,(5.1.9)-1
; #@! TF.FileFunction,Plated,1,2,PTH
FMAT,2
INCH
T1C0.0236
T2C0.0276
T3C0.0315
T4C0.0354
T5C0.0362
T6C0.0394
T7C0.0917
%
G90
G05
T1
X4.474Y-2.654
X4.474Y-2.7327
T2
X4.878Y-3.632
X4.878Y-3.932
X4.992Y-3.632
X4.992Y-3.932
X5.104Y-3.632
X5.104Y-3.932
X5.224Y-3.632
X5.224Y-3.932
X5.338Y-3.632
X5.338Y-3.932
X5.71Y-2.4
X5.71Y-2.7
X5.816Y-2.4
X5.816Y-2.7
X5.926Y-2.4
X5.926Y-2.7
X6.034Y-2.4
X6.034Y-2.7
T3
X3.946Y-2.808
X3.946Y-3.0049
X3.946Y-3.1031
X3.946Y-3.3
X4.158Y-2.9579
X4.158Y-3.15
X4.42Y-2.92
X4.42Y-3.22
X4.52Y-2.92
X4.52Y-3.22
X4.62Y-2.92
X4.62Y-3.22
X4.72Y-2.92
X4.72Y-3.22
X4.82Y-2.92
X4.82Y-3.22
X4.92Y-2.92
X4.92Y-3.22
X4.9716Y-2.796
X4.978Y-3.34
X4.994Y-4.374
X4.994Y-5.004
X5.02Y-2.92
X5.02Y-3.22
X5.07Y-2.796
X5.0764Y-3.34
X5.094Y-4.594
X5.094Y-4.7861
X5.12Y-2.92
X5.12Y-3.22
X5.1909Y-4.374
X5.1909Y-5.004
X5.22Y-2.92
X5.22Y-3.22
X5.32Y-2.92
X5.32Y-3.22
X5.42Y-2.92
X5.42Y-3.22
X5.464Y-2.404
X5.464Y-2.704
X5.52Y-2.92
X5.52Y-3.22
X5.592Y-2.404
X5.592Y-2.704
X5.62Y-2.92
X5.62Y-3.22
X5.72Y-2.92
X5.72Y-3.22
T4
X5.598Y-3.548
X5.698Y-3.548
X5.934Y-3.548
X6.034Y-3.548
T5
X4.942Y-2.4693
X4.942Y-2.548
X5.0404Y-2.4693
X5.0404Y-2.548
T6
X3.974Y-3.68
X3.974Y-3.78
X3.974Y-3.88
X3.974Y-3.98
X3.974Y-4.08
X3.974Y-4.18
X3.974Y-4.28
X3.974Y-4.38
X3.974Y-4.48
X3.974Y-4.58
X3.974Y-4.68
X3.974Y-4.78
X3.974Y-4.88
X3.974Y-4.98
X3.974Y-5.08
X3.974Y-5.18
X3.974Y-5.28
X3.974Y-5.38
X3.974Y-5.48
X3.974Y-5.58
X4.368Y-2.462
X4.568Y-2.4624
X4.574Y-3.68
X4.574Y-3.78
X4.574Y-3.88
X4.574Y-3.98
X4.574Y-4.08
X4.574Y-4.18
X4.574Y-4.28
X4.574Y-4.38
X4.574Y-4.48
X4.574Y-4.58
X4.574Y-4.68
X4.574Y-4.78
X4.574Y-4.88
X4.574Y-4.98
X4.574Y-5.08
X4.574Y-5.18
X4.574Y-5.28
X4.574Y-5.38
X4.574Y-5.48
X4.574Y-5.58
X4.904Y-5.636
X4.904Y-5.736
X5.004Y-5.636
X5.004Y-5.736
X5.104Y-5.636
X5.104Y-5.736
X5.204Y-5.636
X5.204Y-5.736
X5.304Y-5.636
X5.304Y-5.736
X5.616Y-4.162
X5.616Y-4.262
X5.616Y-4.362
X5.616Y-4.462
X5.616Y-4.562
X5.616Y-4.662
X5.616Y-4.762
X5.616Y-4.862
X5.616Y-4.962
X5.616Y-5.062
X5.616Y-5.162
X5.616Y-5.262
X5.616Y-5.362
X5.616Y-5.462
X5.946Y-2.97
X5.948Y-3.144
X6.016Y-4.162
X6.016Y-4.262
X6.016Y-4.362
X6.016Y-4.462
X6.016Y-4.562
X6.016Y-4.662
X6.016Y-4.762
X6.016Y-4.862
X6.016Y-4.962
X6.016Y-5.062
X6.016Y-5.162
X6.016Y-5.262
X6.016Y-5.362
X6.016Y-5.462
X6.046Y-2.97
X6.048Y-3.144
T7
X4.7542Y-2.3626
X5.2282Y-2.3626
T0
M30
