%TF.GenerationSoftware,KiCad,Pcbnew,(5.1.9)-1*%
%TF.CreationDate,2021-05-05T00:19:16+02:00*%
%TF.ProjectId,flashpad,666c6173-6870-4616-942e-6b696361645f,rev?*%
%TF.SameCoordinates,Original*%
%TF.FileFunction,Legend,Top*%
%TF.FilePolarity,Positive*%
%FSLAX46Y46*%
G04 Gerber Fmt 4.6, Leading zero omitted, Abs format (unit mm)*
G04 Created by KiCad (PCBNEW (5.1.9)-1) date 2021-05-05 00:19:16*
%MOMM*%
%LPD*%
G01*
G04 APERTURE LIST*
%ADD10C,0.120000*%
%ADD11C,0.010000*%
%ADD12C,0.150000*%
G04 APERTURE END LIST*
D10*
%TO.C,USB1*%
X120616800Y-62059200D02*
X120616800Y-66319200D01*
X120616800Y-66319200D02*
X132936800Y-66319200D01*
X132936800Y-66319200D02*
X132936800Y-62059200D01*
X120616800Y-57959200D02*
X120616800Y-49599200D01*
X120616800Y-49599200D02*
X132936800Y-49599200D01*
X132936800Y-49599200D02*
X132936800Y-57959200D01*
X125526800Y-66539200D02*
X125026800Y-67039200D01*
X125026800Y-67039200D02*
X126026800Y-67039200D01*
X126026800Y-67039200D02*
X125526800Y-66539200D01*
D11*
%TO.C,G\u002A\u002A\u002A*%
G36*
X100617495Y-66001020D02*
G01*
X100684937Y-66013922D01*
X100739972Y-66038003D01*
X100782429Y-66073193D01*
X100808363Y-66111513D01*
X100829533Y-66153392D01*
X100829533Y-66675000D01*
X100694066Y-66675000D01*
X100694066Y-66622695D01*
X100668404Y-66644289D01*
X100630471Y-66666356D01*
X100582193Y-66679578D01*
X100527919Y-66683525D01*
X100471999Y-66677765D01*
X100433697Y-66667551D01*
X100379325Y-66641177D01*
X100338318Y-66604459D01*
X100310993Y-66557838D01*
X100297666Y-66501756D01*
X100296319Y-66475711D01*
X100296817Y-66471800D01*
X100423133Y-66471800D01*
X100430945Y-66504353D01*
X100452954Y-66530099D01*
X100487016Y-66546680D01*
X100492430Y-66548090D01*
X100534102Y-66554116D01*
X100580505Y-66554983D01*
X100622921Y-66550718D01*
X100636667Y-66547624D01*
X100664037Y-66536189D01*
X100681568Y-66518064D01*
X100690993Y-66490137D01*
X100694045Y-66449294D01*
X100694066Y-66444516D01*
X100694066Y-66387134D01*
X100615750Y-66387502D01*
X100550112Y-66389812D01*
X100499665Y-66396435D01*
X100463083Y-66407951D01*
X100439042Y-66424939D01*
X100426214Y-66447982D01*
X100423133Y-66471800D01*
X100296817Y-66471800D01*
X100303630Y-66418359D01*
X100325317Y-66369319D01*
X100360350Y-66329878D01*
X100407697Y-66301327D01*
X100445777Y-66288936D01*
X100474873Y-66284161D01*
X100515030Y-66280314D01*
X100560381Y-66277855D01*
X100594970Y-66277199D01*
X100694840Y-66277067D01*
X100692337Y-66220787D01*
X100688280Y-66183592D01*
X100678266Y-66157679D01*
X100659717Y-66140937D01*
X100630057Y-66131253D01*
X100586709Y-66126518D01*
X100576652Y-66126001D01*
X100525852Y-66126699D01*
X100485559Y-66134897D01*
X100450529Y-66151880D01*
X100439248Y-66159618D01*
X100429552Y-66163137D01*
X100416368Y-66159372D01*
X100396221Y-66146836D01*
X100377865Y-66133371D01*
X100354258Y-66114779D01*
X100337159Y-66099849D01*
X100330035Y-66091621D01*
X100330000Y-66091367D01*
X100336855Y-66079096D01*
X100354709Y-66062267D01*
X100379498Y-66044054D01*
X100407157Y-66027634D01*
X100418900Y-66021924D01*
X100453418Y-66009947D01*
X100495238Y-66002598D01*
X100537815Y-65999370D01*
X100617495Y-66001020D01*
G37*
X100617495Y-66001020D02*
X100684937Y-66013922D01*
X100739972Y-66038003D01*
X100782429Y-66073193D01*
X100808363Y-66111513D01*
X100829533Y-66153392D01*
X100829533Y-66675000D01*
X100694066Y-66675000D01*
X100694066Y-66622695D01*
X100668404Y-66644289D01*
X100630471Y-66666356D01*
X100582193Y-66679578D01*
X100527919Y-66683525D01*
X100471999Y-66677765D01*
X100433697Y-66667551D01*
X100379325Y-66641177D01*
X100338318Y-66604459D01*
X100310993Y-66557838D01*
X100297666Y-66501756D01*
X100296319Y-66475711D01*
X100296817Y-66471800D01*
X100423133Y-66471800D01*
X100430945Y-66504353D01*
X100452954Y-66530099D01*
X100487016Y-66546680D01*
X100492430Y-66548090D01*
X100534102Y-66554116D01*
X100580505Y-66554983D01*
X100622921Y-66550718D01*
X100636667Y-66547624D01*
X100664037Y-66536189D01*
X100681568Y-66518064D01*
X100690993Y-66490137D01*
X100694045Y-66449294D01*
X100694066Y-66444516D01*
X100694066Y-66387134D01*
X100615750Y-66387502D01*
X100550112Y-66389812D01*
X100499665Y-66396435D01*
X100463083Y-66407951D01*
X100439042Y-66424939D01*
X100426214Y-66447982D01*
X100423133Y-66471800D01*
X100296817Y-66471800D01*
X100303630Y-66418359D01*
X100325317Y-66369319D01*
X100360350Y-66329878D01*
X100407697Y-66301327D01*
X100445777Y-66288936D01*
X100474873Y-66284161D01*
X100515030Y-66280314D01*
X100560381Y-66277855D01*
X100594970Y-66277199D01*
X100694840Y-66277067D01*
X100692337Y-66220787D01*
X100688280Y-66183592D01*
X100678266Y-66157679D01*
X100659717Y-66140937D01*
X100630057Y-66131253D01*
X100586709Y-66126518D01*
X100576652Y-66126001D01*
X100525852Y-66126699D01*
X100485559Y-66134897D01*
X100450529Y-66151880D01*
X100439248Y-66159618D01*
X100429552Y-66163137D01*
X100416368Y-66159372D01*
X100396221Y-66146836D01*
X100377865Y-66133371D01*
X100354258Y-66114779D01*
X100337159Y-66099849D01*
X100330035Y-66091621D01*
X100330000Y-66091367D01*
X100336855Y-66079096D01*
X100354709Y-66062267D01*
X100379498Y-66044054D01*
X100407157Y-66027634D01*
X100418900Y-66021924D01*
X100453418Y-66009947D01*
X100495238Y-66002598D01*
X100537815Y-65999370D01*
X100617495Y-66001020D01*
G36*
X101972533Y-66675000D02*
G01*
X101837067Y-66675000D01*
X101837067Y-66606469D01*
X101804370Y-66632744D01*
X101752775Y-66663755D01*
X101695278Y-66679451D01*
X101633892Y-66679490D01*
X101588486Y-66669650D01*
X101549375Y-66650890D01*
X101511353Y-66621101D01*
X101479166Y-66584936D01*
X101457566Y-66547047D01*
X101454545Y-66538415D01*
X101449793Y-66513349D01*
X101446243Y-66475850D01*
X101443875Y-66429266D01*
X101442665Y-66376947D01*
X101442617Y-66340567D01*
X101578833Y-66340567D01*
X101579109Y-66389259D01*
X101580198Y-66424372D01*
X101582488Y-66449255D01*
X101586368Y-66467255D01*
X101592228Y-66481723D01*
X101596055Y-66488733D01*
X101623469Y-66519917D01*
X101661283Y-66540448D01*
X101705134Y-66547972D01*
X101705833Y-66547974D01*
X101736684Y-66543995D01*
X101766433Y-66534302D01*
X101768752Y-66533170D01*
X101792123Y-66518038D01*
X101809320Y-66498202D01*
X101821162Y-66471138D01*
X101828472Y-66434323D01*
X101832072Y-66385232D01*
X101832833Y-66336334D01*
X101831951Y-66279708D01*
X101828715Y-66237085D01*
X101822241Y-66205598D01*
X101811644Y-66182380D01*
X101796041Y-66164564D01*
X101775272Y-66149724D01*
X101736037Y-66134669D01*
X101693721Y-66132949D01*
X101652756Y-66143478D01*
X101617570Y-66165169D01*
X101594061Y-66194142D01*
X101587726Y-66208550D01*
X101583372Y-66226682D01*
X101580663Y-66251768D01*
X101579262Y-66287042D01*
X101578835Y-66335733D01*
X101578833Y-66340567D01*
X101442617Y-66340567D01*
X101442592Y-66322239D01*
X101443635Y-66268492D01*
X101445772Y-66219055D01*
X101448982Y-66177275D01*
X101453241Y-66146500D01*
X101457175Y-66132518D01*
X101488975Y-66081012D01*
X101530745Y-66041380D01*
X101579849Y-66014220D01*
X101633654Y-66000132D01*
X101689526Y-65999717D01*
X101744829Y-66013574D01*
X101796930Y-66042303D01*
X101809613Y-66052272D01*
X101837067Y-66075372D01*
X101837067Y-65735200D01*
X101972533Y-65735200D01*
X101972533Y-66675000D01*
G37*
X101972533Y-66675000D02*
X101837067Y-66675000D01*
X101837067Y-66606469D01*
X101804370Y-66632744D01*
X101752775Y-66663755D01*
X101695278Y-66679451D01*
X101633892Y-66679490D01*
X101588486Y-66669650D01*
X101549375Y-66650890D01*
X101511353Y-66621101D01*
X101479166Y-66584936D01*
X101457566Y-66547047D01*
X101454545Y-66538415D01*
X101449793Y-66513349D01*
X101446243Y-66475850D01*
X101443875Y-66429266D01*
X101442665Y-66376947D01*
X101442617Y-66340567D01*
X101578833Y-66340567D01*
X101579109Y-66389259D01*
X101580198Y-66424372D01*
X101582488Y-66449255D01*
X101586368Y-66467255D01*
X101592228Y-66481723D01*
X101596055Y-66488733D01*
X101623469Y-66519917D01*
X101661283Y-66540448D01*
X101705134Y-66547972D01*
X101705833Y-66547974D01*
X101736684Y-66543995D01*
X101766433Y-66534302D01*
X101768752Y-66533170D01*
X101792123Y-66518038D01*
X101809320Y-66498202D01*
X101821162Y-66471138D01*
X101828472Y-66434323D01*
X101832072Y-66385232D01*
X101832833Y-66336334D01*
X101831951Y-66279708D01*
X101828715Y-66237085D01*
X101822241Y-66205598D01*
X101811644Y-66182380D01*
X101796041Y-66164564D01*
X101775272Y-66149724D01*
X101736037Y-66134669D01*
X101693721Y-66132949D01*
X101652756Y-66143478D01*
X101617570Y-66165169D01*
X101594061Y-66194142D01*
X101587726Y-66208550D01*
X101583372Y-66226682D01*
X101580663Y-66251768D01*
X101579262Y-66287042D01*
X101578835Y-66335733D01*
X101578833Y-66340567D01*
X101442617Y-66340567D01*
X101442592Y-66322239D01*
X101443635Y-66268492D01*
X101445772Y-66219055D01*
X101448982Y-66177275D01*
X101453241Y-66146500D01*
X101457175Y-66132518D01*
X101488975Y-66081012D01*
X101530745Y-66041380D01*
X101579849Y-66014220D01*
X101633654Y-66000132D01*
X101689526Y-65999717D01*
X101744829Y-66013574D01*
X101796930Y-66042303D01*
X101809613Y-66052272D01*
X101837067Y-66075372D01*
X101837067Y-65735200D01*
X101972533Y-65735200D01*
X101972533Y-66675000D01*
G36*
X103324116Y-66000678D02*
G01*
X103378115Y-66008446D01*
X103422584Y-66021084D01*
X103427051Y-66022939D01*
X103471763Y-66049790D01*
X103508508Y-66086392D01*
X103533339Y-66128549D01*
X103537507Y-66140402D01*
X103540941Y-66161494D01*
X103543646Y-66199303D01*
X103545617Y-66253626D01*
X103546846Y-66324262D01*
X103547326Y-66411010D01*
X103547333Y-66424099D01*
X103547333Y-66675000D01*
X103411867Y-66675000D01*
X103411867Y-66617406D01*
X103386714Y-66640903D01*
X103351854Y-66663190D01*
X103306211Y-66677373D01*
X103254130Y-66682952D01*
X103199956Y-66679429D01*
X103152215Y-66667794D01*
X103096214Y-66641221D01*
X103054148Y-66605122D01*
X103026164Y-66559696D01*
X103012412Y-66505146D01*
X103010907Y-66476431D01*
X103011487Y-66472058D01*
X103137264Y-66472058D01*
X103143149Y-66497755D01*
X103144923Y-66502156D01*
X103153374Y-66520945D01*
X103158968Y-66530780D01*
X103159551Y-66531194D01*
X103168287Y-66533964D01*
X103187200Y-66540769D01*
X103195967Y-66544031D01*
X103224705Y-66550708D01*
X103261783Y-66553806D01*
X103301595Y-66553480D01*
X103338533Y-66549885D01*
X103366989Y-66543177D01*
X103375732Y-66539060D01*
X103395858Y-66517351D01*
X103407807Y-66482219D01*
X103411864Y-66432820D01*
X103411867Y-66431294D01*
X103411867Y-66384847D01*
X103308150Y-66388873D01*
X103251703Y-66392199D01*
X103209732Y-66397730D01*
X103179834Y-66406305D01*
X103159607Y-66418762D01*
X103146650Y-66435940D01*
X103142040Y-66446866D01*
X103137264Y-66472058D01*
X103011487Y-66472058D01*
X103018528Y-66418984D01*
X103041162Y-66369270D01*
X103070308Y-66334666D01*
X103092642Y-66315990D01*
X103116729Y-66302109D01*
X103145648Y-66292233D01*
X103182474Y-66285568D01*
X103230285Y-66281321D01*
X103286983Y-66278857D01*
X103411867Y-66274971D01*
X103411867Y-66228896D01*
X103410219Y-66199521D01*
X103406008Y-66174971D01*
X103402718Y-66165727D01*
X103383844Y-66146903D01*
X103353100Y-66133682D01*
X103314622Y-66126142D01*
X103272545Y-66124355D01*
X103231004Y-66128398D01*
X103194135Y-66138345D01*
X103166073Y-66154272D01*
X103159073Y-66161302D01*
X103151944Y-66167422D01*
X103142925Y-66167210D01*
X103128624Y-66159266D01*
X103105653Y-66142192D01*
X103097690Y-66135965D01*
X103073680Y-66116287D01*
X103055997Y-66100242D01*
X103047967Y-66090879D01*
X103047800Y-66090211D01*
X103054819Y-66077765D01*
X103073167Y-66061042D01*
X103098783Y-66042822D01*
X103127604Y-66025886D01*
X103155568Y-66013015D01*
X103165461Y-66009669D01*
X103211737Y-66000983D01*
X103266640Y-65998088D01*
X103324116Y-66000678D01*
G37*
X103324116Y-66000678D02*
X103378115Y-66008446D01*
X103422584Y-66021084D01*
X103427051Y-66022939D01*
X103471763Y-66049790D01*
X103508508Y-66086392D01*
X103533339Y-66128549D01*
X103537507Y-66140402D01*
X103540941Y-66161494D01*
X103543646Y-66199303D01*
X103545617Y-66253626D01*
X103546846Y-66324262D01*
X103547326Y-66411010D01*
X103547333Y-66424099D01*
X103547333Y-66675000D01*
X103411867Y-66675000D01*
X103411867Y-66617406D01*
X103386714Y-66640903D01*
X103351854Y-66663190D01*
X103306211Y-66677373D01*
X103254130Y-66682952D01*
X103199956Y-66679429D01*
X103152215Y-66667794D01*
X103096214Y-66641221D01*
X103054148Y-66605122D01*
X103026164Y-66559696D01*
X103012412Y-66505146D01*
X103010907Y-66476431D01*
X103011487Y-66472058D01*
X103137264Y-66472058D01*
X103143149Y-66497755D01*
X103144923Y-66502156D01*
X103153374Y-66520945D01*
X103158968Y-66530780D01*
X103159551Y-66531194D01*
X103168287Y-66533964D01*
X103187200Y-66540769D01*
X103195967Y-66544031D01*
X103224705Y-66550708D01*
X103261783Y-66553806D01*
X103301595Y-66553480D01*
X103338533Y-66549885D01*
X103366989Y-66543177D01*
X103375732Y-66539060D01*
X103395858Y-66517351D01*
X103407807Y-66482219D01*
X103411864Y-66432820D01*
X103411867Y-66431294D01*
X103411867Y-66384847D01*
X103308150Y-66388873D01*
X103251703Y-66392199D01*
X103209732Y-66397730D01*
X103179834Y-66406305D01*
X103159607Y-66418762D01*
X103146650Y-66435940D01*
X103142040Y-66446866D01*
X103137264Y-66472058D01*
X103011487Y-66472058D01*
X103018528Y-66418984D01*
X103041162Y-66369270D01*
X103070308Y-66334666D01*
X103092642Y-66315990D01*
X103116729Y-66302109D01*
X103145648Y-66292233D01*
X103182474Y-66285568D01*
X103230285Y-66281321D01*
X103286983Y-66278857D01*
X103411867Y-66274971D01*
X103411867Y-66228896D01*
X103410219Y-66199521D01*
X103406008Y-66174971D01*
X103402718Y-66165727D01*
X103383844Y-66146903D01*
X103353100Y-66133682D01*
X103314622Y-66126142D01*
X103272545Y-66124355D01*
X103231004Y-66128398D01*
X103194135Y-66138345D01*
X103166073Y-66154272D01*
X103159073Y-66161302D01*
X103151944Y-66167422D01*
X103142925Y-66167210D01*
X103128624Y-66159266D01*
X103105653Y-66142192D01*
X103097690Y-66135965D01*
X103073680Y-66116287D01*
X103055997Y-66100242D01*
X103047967Y-66090879D01*
X103047800Y-66090211D01*
X103054819Y-66077765D01*
X103073167Y-66061042D01*
X103098783Y-66042822D01*
X103127604Y-66025886D01*
X103155568Y-66013015D01*
X103165461Y-66009669D01*
X103211737Y-66000983D01*
X103266640Y-65998088D01*
X103324116Y-66000678D01*
G36*
X104476096Y-66002300D02*
G01*
X104535793Y-66019022D01*
X104590806Y-66048536D01*
X104626493Y-66078324D01*
X104662399Y-66123712D01*
X104687440Y-66177991D01*
X104702199Y-66242933D01*
X104707258Y-66320310D01*
X104707267Y-66324050D01*
X104707267Y-66387134D01*
X104292400Y-66387134D01*
X104292400Y-66417731D01*
X104299434Y-66454602D01*
X104317950Y-66491714D01*
X104344065Y-66522189D01*
X104356595Y-66531496D01*
X104401734Y-66549867D01*
X104452111Y-66554128D01*
X104504004Y-66544537D01*
X104553688Y-66521351D01*
X104559663Y-66517438D01*
X104578164Y-66506056D01*
X104593259Y-66501780D01*
X104608753Y-66505704D01*
X104628451Y-66518924D01*
X104656157Y-66542531D01*
X104660581Y-66546452D01*
X104692217Y-66574537D01*
X104672740Y-66595270D01*
X104631237Y-66628696D01*
X104578400Y-66655120D01*
X104518814Y-66673316D01*
X104457061Y-66682060D01*
X104397726Y-66680128D01*
X104372833Y-66675399D01*
X104309440Y-66651907D01*
X104254734Y-66614637D01*
X104250388Y-66610784D01*
X104212304Y-66568035D01*
X104184692Y-66517186D01*
X104166890Y-66456318D01*
X104158238Y-66383513D01*
X104157134Y-66340567D01*
X104161570Y-66259615D01*
X104162631Y-66254340D01*
X104292400Y-66254340D01*
X104292400Y-66277067D01*
X104573917Y-66277067D01*
X104568449Y-66249728D01*
X104555167Y-66208902D01*
X104534083Y-66172174D01*
X104510187Y-66147039D01*
X104477036Y-66131498D01*
X104436316Y-66125649D01*
X104394491Y-66129704D01*
X104360920Y-66142176D01*
X104330321Y-66167303D01*
X104306681Y-66201698D01*
X104293743Y-66239235D01*
X104292400Y-66254340D01*
X104162631Y-66254340D01*
X104175341Y-66191185D01*
X104199146Y-66133231D01*
X104233683Y-66083712D01*
X104251058Y-66065419D01*
X104299195Y-66029930D01*
X104354767Y-66007650D01*
X104414744Y-65998475D01*
X104476096Y-66002300D01*
G37*
X104476096Y-66002300D02*
X104535793Y-66019022D01*
X104590806Y-66048536D01*
X104626493Y-66078324D01*
X104662399Y-66123712D01*
X104687440Y-66177991D01*
X104702199Y-66242933D01*
X104707258Y-66320310D01*
X104707267Y-66324050D01*
X104707267Y-66387134D01*
X104292400Y-66387134D01*
X104292400Y-66417731D01*
X104299434Y-66454602D01*
X104317950Y-66491714D01*
X104344065Y-66522189D01*
X104356595Y-66531496D01*
X104401734Y-66549867D01*
X104452111Y-66554128D01*
X104504004Y-66544537D01*
X104553688Y-66521351D01*
X104559663Y-66517438D01*
X104578164Y-66506056D01*
X104593259Y-66501780D01*
X104608753Y-66505704D01*
X104628451Y-66518924D01*
X104656157Y-66542531D01*
X104660581Y-66546452D01*
X104692217Y-66574537D01*
X104672740Y-66595270D01*
X104631237Y-66628696D01*
X104578400Y-66655120D01*
X104518814Y-66673316D01*
X104457061Y-66682060D01*
X104397726Y-66680128D01*
X104372833Y-66675399D01*
X104309440Y-66651907D01*
X104254734Y-66614637D01*
X104250388Y-66610784D01*
X104212304Y-66568035D01*
X104184692Y-66517186D01*
X104166890Y-66456318D01*
X104158238Y-66383513D01*
X104157134Y-66340567D01*
X104161570Y-66259615D01*
X104162631Y-66254340D01*
X104292400Y-66254340D01*
X104292400Y-66277067D01*
X104573917Y-66277067D01*
X104568449Y-66249728D01*
X104555167Y-66208902D01*
X104534083Y-66172174D01*
X104510187Y-66147039D01*
X104477036Y-66131498D01*
X104436316Y-66125649D01*
X104394491Y-66129704D01*
X104360920Y-66142176D01*
X104330321Y-66167303D01*
X104306681Y-66201698D01*
X104293743Y-66239235D01*
X104292400Y-66254340D01*
X104162631Y-66254340D01*
X104175341Y-66191185D01*
X104199146Y-66133231D01*
X104233683Y-66083712D01*
X104251058Y-66065419D01*
X104299195Y-66029930D01*
X104354767Y-66007650D01*
X104414744Y-65998475D01*
X104476096Y-66002300D01*
G36*
X100031782Y-64945744D02*
G01*
X100084794Y-64966951D01*
X100129423Y-65000097D01*
X100163307Y-65043383D01*
X100184087Y-65095010D01*
X100185287Y-65100253D01*
X100189142Y-65128497D01*
X100191923Y-65169505D01*
X100193628Y-65219140D01*
X100194258Y-65273266D01*
X100193813Y-65327749D01*
X100192293Y-65378452D01*
X100189697Y-65421239D01*
X100186027Y-65451975D01*
X100185287Y-65455747D01*
X100166253Y-65507380D01*
X100134802Y-65550402D01*
X100093628Y-65583846D01*
X100045425Y-65606743D01*
X99992887Y-65618125D01*
X99938707Y-65617023D01*
X99885580Y-65602469D01*
X99843166Y-65578730D01*
X99823367Y-65564826D01*
X99808408Y-65554925D01*
X99807183Y-65554184D01*
X99804124Y-65555627D01*
X99801678Y-65564901D01*
X99799788Y-65583423D01*
X99798396Y-65612609D01*
X99797443Y-65653878D01*
X99796871Y-65708647D01*
X99796622Y-65778333D01*
X99796600Y-65812485D01*
X99796600Y-66077035D01*
X99819883Y-66054783D01*
X99865992Y-66021491D01*
X99917458Y-66002499D01*
X99971544Y-65997233D01*
X100025511Y-66005123D01*
X100076620Y-66025594D01*
X100122134Y-66058075D01*
X100159313Y-66101992D01*
X100174321Y-66128900D01*
X100180046Y-66141451D01*
X100184563Y-66153572D01*
X100188016Y-66167366D01*
X100190549Y-66184935D01*
X100192305Y-66208382D01*
X100193429Y-66239810D01*
X100194064Y-66281320D01*
X100194354Y-66335016D01*
X100194443Y-66403001D01*
X100194450Y-66423117D01*
X100194533Y-66675000D01*
X100059067Y-66675000D01*
X100059053Y-66452750D01*
X100058933Y-66384119D01*
X100058497Y-66330268D01*
X100057619Y-66289048D01*
X100056172Y-66258306D01*
X100054029Y-66235892D01*
X100051064Y-66219654D01*
X100047151Y-66207441D01*
X100044237Y-66201036D01*
X100018481Y-66166466D01*
X99984318Y-66143869D01*
X99945281Y-66133253D01*
X99904903Y-66134625D01*
X99866716Y-66147992D01*
X99834253Y-66173362D01*
X99815650Y-66200544D01*
X99809838Y-66212764D01*
X99805346Y-66225054D01*
X99802003Y-66239690D01*
X99799641Y-66258951D01*
X99798089Y-66285114D01*
X99797180Y-66320457D01*
X99796742Y-66367257D01*
X99796607Y-66427793D01*
X99796600Y-66456661D01*
X99796600Y-66675000D01*
X99661133Y-66675000D01*
X99661133Y-65257853D01*
X99798055Y-65257853D01*
X99798898Y-65329934D01*
X99807706Y-65387537D01*
X99824729Y-65431257D01*
X99850213Y-65461689D01*
X99884408Y-65479427D01*
X99891297Y-65481268D01*
X99935439Y-65484393D01*
X99981382Y-65475535D01*
X100002582Y-65466807D01*
X100024030Y-65451177D01*
X100039732Y-65427726D01*
X100050316Y-65394335D01*
X100056413Y-65348885D01*
X100058652Y-65289258D01*
X100058695Y-65278000D01*
X100056514Y-65211883D01*
X100049297Y-65160664D01*
X100036032Y-65122794D01*
X100015707Y-65096724D01*
X99987309Y-65080905D01*
X99949829Y-65073785D01*
X99924831Y-65073018D01*
X99883200Y-65078135D01*
X99850874Y-65093483D01*
X99826994Y-65120317D01*
X99810700Y-65159889D01*
X99801132Y-65213453D01*
X99798055Y-65257853D01*
X99661133Y-65257853D01*
X99661133Y-64939334D01*
X99796600Y-64939334D01*
X99796600Y-65007929D01*
X99824572Y-64986593D01*
X99873037Y-64957274D01*
X99925349Y-64941802D01*
X99972747Y-64938275D01*
X100031782Y-64945744D01*
G37*
X100031782Y-64945744D02*
X100084794Y-64966951D01*
X100129423Y-65000097D01*
X100163307Y-65043383D01*
X100184087Y-65095010D01*
X100185287Y-65100253D01*
X100189142Y-65128497D01*
X100191923Y-65169505D01*
X100193628Y-65219140D01*
X100194258Y-65273266D01*
X100193813Y-65327749D01*
X100192293Y-65378452D01*
X100189697Y-65421239D01*
X100186027Y-65451975D01*
X100185287Y-65455747D01*
X100166253Y-65507380D01*
X100134802Y-65550402D01*
X100093628Y-65583846D01*
X100045425Y-65606743D01*
X99992887Y-65618125D01*
X99938707Y-65617023D01*
X99885580Y-65602469D01*
X99843166Y-65578730D01*
X99823367Y-65564826D01*
X99808408Y-65554925D01*
X99807183Y-65554184D01*
X99804124Y-65555627D01*
X99801678Y-65564901D01*
X99799788Y-65583423D01*
X99798396Y-65612609D01*
X99797443Y-65653878D01*
X99796871Y-65708647D01*
X99796622Y-65778333D01*
X99796600Y-65812485D01*
X99796600Y-66077035D01*
X99819883Y-66054783D01*
X99865992Y-66021491D01*
X99917458Y-66002499D01*
X99971544Y-65997233D01*
X100025511Y-66005123D01*
X100076620Y-66025594D01*
X100122134Y-66058075D01*
X100159313Y-66101992D01*
X100174321Y-66128900D01*
X100180046Y-66141451D01*
X100184563Y-66153572D01*
X100188016Y-66167366D01*
X100190549Y-66184935D01*
X100192305Y-66208382D01*
X100193429Y-66239810D01*
X100194064Y-66281320D01*
X100194354Y-66335016D01*
X100194443Y-66403001D01*
X100194450Y-66423117D01*
X100194533Y-66675000D01*
X100059067Y-66675000D01*
X100059053Y-66452750D01*
X100058933Y-66384119D01*
X100058497Y-66330268D01*
X100057619Y-66289048D01*
X100056172Y-66258306D01*
X100054029Y-66235892D01*
X100051064Y-66219654D01*
X100047151Y-66207441D01*
X100044237Y-66201036D01*
X100018481Y-66166466D01*
X99984318Y-66143869D01*
X99945281Y-66133253D01*
X99904903Y-66134625D01*
X99866716Y-66147992D01*
X99834253Y-66173362D01*
X99815650Y-66200544D01*
X99809838Y-66212764D01*
X99805346Y-66225054D01*
X99802003Y-66239690D01*
X99799641Y-66258951D01*
X99798089Y-66285114D01*
X99797180Y-66320457D01*
X99796742Y-66367257D01*
X99796607Y-66427793D01*
X99796600Y-66456661D01*
X99796600Y-66675000D01*
X99661133Y-66675000D01*
X99661133Y-65257853D01*
X99798055Y-65257853D01*
X99798898Y-65329934D01*
X99807706Y-65387537D01*
X99824729Y-65431257D01*
X99850213Y-65461689D01*
X99884408Y-65479427D01*
X99891297Y-65481268D01*
X99935439Y-65484393D01*
X99981382Y-65475535D01*
X100002582Y-65466807D01*
X100024030Y-65451177D01*
X100039732Y-65427726D01*
X100050316Y-65394335D01*
X100056413Y-65348885D01*
X100058652Y-65289258D01*
X100058695Y-65278000D01*
X100056514Y-65211883D01*
X100049297Y-65160664D01*
X100036032Y-65122794D01*
X100015707Y-65096724D01*
X99987309Y-65080905D01*
X99949829Y-65073785D01*
X99924831Y-65073018D01*
X99883200Y-65078135D01*
X99850874Y-65093483D01*
X99826994Y-65120317D01*
X99810700Y-65159889D01*
X99801132Y-65213453D01*
X99798055Y-65257853D01*
X99661133Y-65257853D01*
X99661133Y-64939334D01*
X99796600Y-64939334D01*
X99796600Y-65007929D01*
X99824572Y-64986593D01*
X99873037Y-64957274D01*
X99925349Y-64941802D01*
X99972747Y-64938275D01*
X100031782Y-64945744D01*
G36*
X101351856Y-66006491D02*
G01*
X101405473Y-66028574D01*
X101421516Y-66038684D01*
X101425570Y-66045247D01*
X101422170Y-66056519D01*
X101409965Y-66075105D01*
X101388288Y-66102769D01*
X101366656Y-66128156D01*
X101348273Y-66147415D01*
X101336161Y-66157464D01*
X101333938Y-66158233D01*
X101320406Y-66154101D01*
X101303667Y-66145834D01*
X101270203Y-66134985D01*
X101230902Y-66134276D01*
X101193199Y-66143328D01*
X101175802Y-66152352D01*
X101159347Y-66164110D01*
X101146308Y-66176297D01*
X101136289Y-66190951D01*
X101128894Y-66210111D01*
X101123727Y-66235814D01*
X101120391Y-66270098D01*
X101118492Y-66315002D01*
X101117631Y-66372562D01*
X101117415Y-66444817D01*
X101117413Y-66452750D01*
X101117400Y-66675000D01*
X100981933Y-66675000D01*
X100981933Y-66006134D01*
X101117400Y-66006134D01*
X101117400Y-66077035D01*
X101140683Y-66054783D01*
X101186019Y-66022615D01*
X101238647Y-66003711D01*
X101295086Y-65998270D01*
X101351856Y-66006491D01*
G37*
X101351856Y-66006491D02*
X101405473Y-66028574D01*
X101421516Y-66038684D01*
X101425570Y-66045247D01*
X101422170Y-66056519D01*
X101409965Y-66075105D01*
X101388288Y-66102769D01*
X101366656Y-66128156D01*
X101348273Y-66147415D01*
X101336161Y-66157464D01*
X101333938Y-66158233D01*
X101320406Y-66154101D01*
X101303667Y-66145834D01*
X101270203Y-66134985D01*
X101230902Y-66134276D01*
X101193199Y-66143328D01*
X101175802Y-66152352D01*
X101159347Y-66164110D01*
X101146308Y-66176297D01*
X101136289Y-66190951D01*
X101128894Y-66210111D01*
X101123727Y-66235814D01*
X101120391Y-66270098D01*
X101118492Y-66315002D01*
X101117631Y-66372562D01*
X101117415Y-66444817D01*
X101117413Y-66452750D01*
X101117400Y-66675000D01*
X100981933Y-66675000D01*
X100981933Y-66006134D01*
X101117400Y-66006134D01*
X101117400Y-66077035D01*
X101140683Y-66054783D01*
X101186019Y-66022615D01*
X101238647Y-66003711D01*
X101295086Y-65998270D01*
X101351856Y-66006491D01*
G36*
X102252245Y-66234734D02*
G01*
X102268500Y-66293981D01*
X102283509Y-66347521D01*
X102296664Y-66393281D01*
X102307359Y-66429191D01*
X102314987Y-66453177D01*
X102318943Y-66463169D01*
X102319172Y-66463333D01*
X102322928Y-66455607D01*
X102331143Y-66433781D01*
X102343114Y-66399882D01*
X102358142Y-66355938D01*
X102375524Y-66303976D01*
X102394559Y-66246026D01*
X102398231Y-66234734D01*
X102472440Y-66006134D01*
X102571911Y-66006134D01*
X102636761Y-66207217D01*
X102655270Y-66264587D01*
X102672640Y-66318384D01*
X102688006Y-66365936D01*
X102700505Y-66404571D01*
X102709273Y-66431617D01*
X102712711Y-66442167D01*
X102723810Y-66476033D01*
X102737370Y-66429467D01*
X102743611Y-66407514D01*
X102753425Y-66372358D01*
X102765943Y-66327137D01*
X102780300Y-66274987D01*
X102795625Y-66219047D01*
X102801386Y-66197951D01*
X102816042Y-66144657D01*
X102829360Y-66097039D01*
X102840660Y-66057464D01*
X102849262Y-66028295D01*
X102854486Y-66011897D01*
X102855636Y-66009208D01*
X102865288Y-66007728D01*
X102887560Y-66007162D01*
X102918162Y-66007588D01*
X102927516Y-66007891D01*
X102995602Y-66010367D01*
X102903151Y-66298234D01*
X102881123Y-66366907D01*
X102860215Y-66432252D01*
X102841126Y-66492073D01*
X102824555Y-66544174D01*
X102811199Y-66586358D01*
X102801758Y-66616429D01*
X102797416Y-66630550D01*
X102784132Y-66675000D01*
X102662566Y-66674920D01*
X102599719Y-66461177D01*
X102582481Y-66402754D01*
X102566443Y-66348789D01*
X102552332Y-66301694D01*
X102540872Y-66263877D01*
X102532790Y-66237751D01*
X102529019Y-66226267D01*
X102526071Y-66222202D01*
X102522002Y-66224782D01*
X102516284Y-66235441D01*
X102508391Y-66255614D01*
X102497794Y-66286734D01*
X102483967Y-66330237D01*
X102466380Y-66387555D01*
X102451171Y-66437933D01*
X102381176Y-66670767D01*
X102321266Y-66673245D01*
X102261357Y-66675723D01*
X102200920Y-66486978D01*
X102165178Y-66375330D01*
X102134246Y-66278655D01*
X102108185Y-66197140D01*
X102087054Y-66130973D01*
X102070913Y-66080342D01*
X102059822Y-66045434D01*
X102053842Y-66026437D01*
X102053454Y-66025184D01*
X102051322Y-66015929D01*
X102053975Y-66010294D01*
X102064498Y-66007382D01*
X102085973Y-66006294D01*
X102118880Y-66006134D01*
X102190168Y-66006134D01*
X102252245Y-66234734D01*
G37*
X102252245Y-66234734D02*
X102268500Y-66293981D01*
X102283509Y-66347521D01*
X102296664Y-66393281D01*
X102307359Y-66429191D01*
X102314987Y-66453177D01*
X102318943Y-66463169D01*
X102319172Y-66463333D01*
X102322928Y-66455607D01*
X102331143Y-66433781D01*
X102343114Y-66399882D01*
X102358142Y-66355938D01*
X102375524Y-66303976D01*
X102394559Y-66246026D01*
X102398231Y-66234734D01*
X102472440Y-66006134D01*
X102571911Y-66006134D01*
X102636761Y-66207217D01*
X102655270Y-66264587D01*
X102672640Y-66318384D01*
X102688006Y-66365936D01*
X102700505Y-66404571D01*
X102709273Y-66431617D01*
X102712711Y-66442167D01*
X102723810Y-66476033D01*
X102737370Y-66429467D01*
X102743611Y-66407514D01*
X102753425Y-66372358D01*
X102765943Y-66327137D01*
X102780300Y-66274987D01*
X102795625Y-66219047D01*
X102801386Y-66197951D01*
X102816042Y-66144657D01*
X102829360Y-66097039D01*
X102840660Y-66057464D01*
X102849262Y-66028295D01*
X102854486Y-66011897D01*
X102855636Y-66009208D01*
X102865288Y-66007728D01*
X102887560Y-66007162D01*
X102918162Y-66007588D01*
X102927516Y-66007891D01*
X102995602Y-66010367D01*
X102903151Y-66298234D01*
X102881123Y-66366907D01*
X102860215Y-66432252D01*
X102841126Y-66492073D01*
X102824555Y-66544174D01*
X102811199Y-66586358D01*
X102801758Y-66616429D01*
X102797416Y-66630550D01*
X102784132Y-66675000D01*
X102662566Y-66674920D01*
X102599719Y-66461177D01*
X102582481Y-66402754D01*
X102566443Y-66348789D01*
X102552332Y-66301694D01*
X102540872Y-66263877D01*
X102532790Y-66237751D01*
X102529019Y-66226267D01*
X102526071Y-66222202D01*
X102522002Y-66224782D01*
X102516284Y-66235441D01*
X102508391Y-66255614D01*
X102497794Y-66286734D01*
X102483967Y-66330237D01*
X102466380Y-66387555D01*
X102451171Y-66437933D01*
X102381176Y-66670767D01*
X102321266Y-66673245D01*
X102261357Y-66675723D01*
X102200920Y-66486978D01*
X102165178Y-66375330D01*
X102134246Y-66278655D01*
X102108185Y-66197140D01*
X102087054Y-66130973D01*
X102070913Y-66080342D01*
X102059822Y-66045434D01*
X102053842Y-66026437D01*
X102053454Y-66025184D01*
X102051322Y-66015929D01*
X102053975Y-66010294D01*
X102064498Y-66007382D01*
X102085973Y-66006294D01*
X102118880Y-66006134D01*
X102190168Y-66006134D01*
X102252245Y-66234734D01*
G36*
X104083934Y-66011331D02*
G01*
X104137801Y-66037952D01*
X104139341Y-66038974D01*
X104143337Y-66045489D01*
X104139551Y-66056782D01*
X104126604Y-66075393D01*
X104105837Y-66100668D01*
X104084620Y-66125719D01*
X104067989Y-66145480D01*
X104058691Y-66156681D01*
X104057706Y-66157934D01*
X104049257Y-66156992D01*
X104031416Y-66150163D01*
X104025306Y-66147351D01*
X103980510Y-66134253D01*
X103935991Y-66136035D01*
X103895315Y-66151725D01*
X103862051Y-66180356D01*
X103852087Y-66194439D01*
X103847022Y-66203738D01*
X103843085Y-66214433D01*
X103840135Y-66228658D01*
X103838031Y-66248544D01*
X103836631Y-66276225D01*
X103835793Y-66313832D01*
X103835376Y-66363498D01*
X103835239Y-66427354D01*
X103835231Y-66448517D01*
X103835200Y-66675000D01*
X103699733Y-66675000D01*
X103699733Y-66006134D01*
X103835200Y-66006134D01*
X103835200Y-66075186D01*
X103869421Y-66045894D01*
X103916481Y-66016262D01*
X103970062Y-66000569D01*
X104026950Y-65998898D01*
X104083934Y-66011331D01*
G37*
X104083934Y-66011331D02*
X104137801Y-66037952D01*
X104139341Y-66038974D01*
X104143337Y-66045489D01*
X104139551Y-66056782D01*
X104126604Y-66075393D01*
X104105837Y-66100668D01*
X104084620Y-66125719D01*
X104067989Y-66145480D01*
X104058691Y-66156681D01*
X104057706Y-66157934D01*
X104049257Y-66156992D01*
X104031416Y-66150163D01*
X104025306Y-66147351D01*
X103980510Y-66134253D01*
X103935991Y-66136035D01*
X103895315Y-66151725D01*
X103862051Y-66180356D01*
X103852087Y-66194439D01*
X103847022Y-66203738D01*
X103843085Y-66214433D01*
X103840135Y-66228658D01*
X103838031Y-66248544D01*
X103836631Y-66276225D01*
X103835793Y-66313832D01*
X103835376Y-66363498D01*
X103835239Y-66427354D01*
X103835231Y-66448517D01*
X103835200Y-66675000D01*
X103699733Y-66675000D01*
X103699733Y-66006134D01*
X103835200Y-66006134D01*
X103835200Y-66075186D01*
X103869421Y-66045894D01*
X103916481Y-66016262D01*
X103970062Y-66000569D01*
X104026950Y-65998898D01*
X104083934Y-66011331D01*
G36*
X99305188Y-64937761D02*
G01*
X99367765Y-64952890D01*
X99424258Y-64981692D01*
X99472587Y-65023295D01*
X99510674Y-65076825D01*
X99521948Y-65099926D01*
X99528235Y-65116622D01*
X99532716Y-65135225D01*
X99535679Y-65158872D01*
X99537415Y-65190698D01*
X99538211Y-65233838D01*
X99538367Y-65278000D01*
X99538108Y-65332301D01*
X99537138Y-65372809D01*
X99535169Y-65402660D01*
X99531912Y-65424989D01*
X99527076Y-65442933D01*
X99521948Y-65456074D01*
X99488929Y-65514324D01*
X99445778Y-65559403D01*
X99396328Y-65590161D01*
X99340802Y-65611062D01*
X99285325Y-65619321D01*
X99223451Y-65615946D01*
X99163301Y-65600057D01*
X99108625Y-65570273D01*
X99062324Y-65529000D01*
X99027299Y-65478643D01*
X99011273Y-65440019D01*
X99003127Y-65401406D01*
X98997951Y-65351167D01*
X98995734Y-65294342D01*
X98996228Y-65254916D01*
X99128367Y-65254916D01*
X99128515Y-65304377D01*
X99131628Y-65350388D01*
X99137324Y-65384791D01*
X99155651Y-65426463D01*
X99185258Y-65457859D01*
X99223148Y-65477809D01*
X99266327Y-65485147D01*
X99311800Y-65478703D01*
X99343633Y-65465235D01*
X99362876Y-65449056D01*
X99381738Y-65424670D01*
X99388083Y-65413596D01*
X99396590Y-65394656D01*
X99402137Y-65375197D01*
X99405315Y-65350979D01*
X99406715Y-65317762D01*
X99406947Y-65278323D01*
X99406219Y-65230926D01*
X99403914Y-65196375D01*
X99399537Y-65170616D01*
X99392596Y-65149596D01*
X99390723Y-65145310D01*
X99366346Y-65109344D01*
X99333534Y-65085379D01*
X99295445Y-65073078D01*
X99255241Y-65072103D01*
X99216081Y-65082115D01*
X99181125Y-65102776D01*
X99153534Y-65133749D01*
X99137009Y-65172463D01*
X99131195Y-65208709D01*
X99128367Y-65254916D01*
X98996228Y-65254916D01*
X98996466Y-65235973D01*
X99000138Y-65181104D01*
X99006738Y-65134775D01*
X99011928Y-65113728D01*
X99034627Y-65065234D01*
X99069907Y-65019754D01*
X99113503Y-64981649D01*
X99161149Y-64955278D01*
X99170097Y-64952023D01*
X99238605Y-64937181D01*
X99305188Y-64937761D01*
G37*
X99305188Y-64937761D02*
X99367765Y-64952890D01*
X99424258Y-64981692D01*
X99472587Y-65023295D01*
X99510674Y-65076825D01*
X99521948Y-65099926D01*
X99528235Y-65116622D01*
X99532716Y-65135225D01*
X99535679Y-65158872D01*
X99537415Y-65190698D01*
X99538211Y-65233838D01*
X99538367Y-65278000D01*
X99538108Y-65332301D01*
X99537138Y-65372809D01*
X99535169Y-65402660D01*
X99531912Y-65424989D01*
X99527076Y-65442933D01*
X99521948Y-65456074D01*
X99488929Y-65514324D01*
X99445778Y-65559403D01*
X99396328Y-65590161D01*
X99340802Y-65611062D01*
X99285325Y-65619321D01*
X99223451Y-65615946D01*
X99163301Y-65600057D01*
X99108625Y-65570273D01*
X99062324Y-65529000D01*
X99027299Y-65478643D01*
X99011273Y-65440019D01*
X99003127Y-65401406D01*
X98997951Y-65351167D01*
X98995734Y-65294342D01*
X98996228Y-65254916D01*
X99128367Y-65254916D01*
X99128515Y-65304377D01*
X99131628Y-65350388D01*
X99137324Y-65384791D01*
X99155651Y-65426463D01*
X99185258Y-65457859D01*
X99223148Y-65477809D01*
X99266327Y-65485147D01*
X99311800Y-65478703D01*
X99343633Y-65465235D01*
X99362876Y-65449056D01*
X99381738Y-65424670D01*
X99388083Y-65413596D01*
X99396590Y-65394656D01*
X99402137Y-65375197D01*
X99405315Y-65350979D01*
X99406715Y-65317762D01*
X99406947Y-65278323D01*
X99406219Y-65230926D01*
X99403914Y-65196375D01*
X99399537Y-65170616D01*
X99392596Y-65149596D01*
X99390723Y-65145310D01*
X99366346Y-65109344D01*
X99333534Y-65085379D01*
X99295445Y-65073078D01*
X99255241Y-65072103D01*
X99216081Y-65082115D01*
X99181125Y-65102776D01*
X99153534Y-65133749D01*
X99137009Y-65172463D01*
X99131195Y-65208709D01*
X99128367Y-65254916D01*
X98996228Y-65254916D01*
X98996466Y-65235973D01*
X99000138Y-65181104D01*
X99006738Y-65134775D01*
X99011928Y-65113728D01*
X99034627Y-65065234D01*
X99069907Y-65019754D01*
X99113503Y-64981649D01*
X99161149Y-64955278D01*
X99170097Y-64952023D01*
X99238605Y-64937181D01*
X99305188Y-64937761D01*
G36*
X100611430Y-64940400D02*
G01*
X100614453Y-64940861D01*
X100672621Y-64956010D01*
X100722713Y-64983139D01*
X100766566Y-65021689D01*
X100796375Y-65058655D01*
X100817968Y-65100219D01*
X100832565Y-65149850D01*
X100841388Y-65211018D01*
X100843639Y-65240537D01*
X100849040Y-65328800D01*
X100421249Y-65328800D01*
X100426975Y-65360550D01*
X100443327Y-65410976D01*
X100470881Y-65450111D01*
X100507589Y-65477206D01*
X100551404Y-65491514D01*
X100600276Y-65492284D01*
X100652158Y-65478770D01*
X100693337Y-65457869D01*
X100734147Y-65432500D01*
X100781250Y-65472695D01*
X100828353Y-65512889D01*
X100801426Y-65538048D01*
X100744802Y-65579679D01*
X100680229Y-65607214D01*
X100610093Y-65619971D01*
X100536781Y-65617268D01*
X100528681Y-65616007D01*
X100462476Y-65597246D01*
X100406290Y-65565335D01*
X100360609Y-65521118D01*
X100325922Y-65465441D01*
X100302713Y-65399148D01*
X100291470Y-65323083D01*
X100292679Y-65238093D01*
X100294721Y-65218734D01*
X100421249Y-65218734D01*
X100708726Y-65218734D01*
X100702825Y-65186984D01*
X100687363Y-65136803D01*
X100661756Y-65099904D01*
X100625355Y-65075547D01*
X100596891Y-65066377D01*
X100550044Y-65063689D01*
X100507176Y-65076112D01*
X100470758Y-65101892D01*
X100443260Y-65139274D01*
X100427152Y-65186503D01*
X100427064Y-65186984D01*
X100421249Y-65218734D01*
X100294721Y-65218734D01*
X100295523Y-65211132D01*
X100311669Y-65134528D01*
X100338943Y-65069324D01*
X100376464Y-65016266D01*
X100423354Y-64976098D01*
X100478731Y-64949568D01*
X100541716Y-64937420D01*
X100611430Y-64940400D01*
G37*
X100611430Y-64940400D02*
X100614453Y-64940861D01*
X100672621Y-64956010D01*
X100722713Y-64983139D01*
X100766566Y-65021689D01*
X100796375Y-65058655D01*
X100817968Y-65100219D01*
X100832565Y-65149850D01*
X100841388Y-65211018D01*
X100843639Y-65240537D01*
X100849040Y-65328800D01*
X100421249Y-65328800D01*
X100426975Y-65360550D01*
X100443327Y-65410976D01*
X100470881Y-65450111D01*
X100507589Y-65477206D01*
X100551404Y-65491514D01*
X100600276Y-65492284D01*
X100652158Y-65478770D01*
X100693337Y-65457869D01*
X100734147Y-65432500D01*
X100781250Y-65472695D01*
X100828353Y-65512889D01*
X100801426Y-65538048D01*
X100744802Y-65579679D01*
X100680229Y-65607214D01*
X100610093Y-65619971D01*
X100536781Y-65617268D01*
X100528681Y-65616007D01*
X100462476Y-65597246D01*
X100406290Y-65565335D01*
X100360609Y-65521118D01*
X100325922Y-65465441D01*
X100302713Y-65399148D01*
X100291470Y-65323083D01*
X100292679Y-65238093D01*
X100294721Y-65218734D01*
X100421249Y-65218734D01*
X100708726Y-65218734D01*
X100702825Y-65186984D01*
X100687363Y-65136803D01*
X100661756Y-65099904D01*
X100625355Y-65075547D01*
X100596891Y-65066377D01*
X100550044Y-65063689D01*
X100507176Y-65076112D01*
X100470758Y-65101892D01*
X100443260Y-65139274D01*
X100427152Y-65186503D01*
X100427064Y-65186984D01*
X100421249Y-65218734D01*
X100294721Y-65218734D01*
X100295523Y-65211132D01*
X100311669Y-65134528D01*
X100338943Y-65069324D01*
X100376464Y-65016266D01*
X100423354Y-64976098D01*
X100478731Y-64949568D01*
X100541716Y-64937420D01*
X100611430Y-64940400D01*
G36*
X102192642Y-64939648D02*
G01*
X102239995Y-64944220D01*
X102275997Y-64951267D01*
X102302923Y-64960598D01*
X102333473Y-64974154D01*
X102363685Y-64989760D01*
X102389597Y-65005241D01*
X102407248Y-65018422D01*
X102412800Y-65026354D01*
X102407633Y-65035942D01*
X102394058Y-65054260D01*
X102374963Y-65077422D01*
X102374079Y-65078448D01*
X102335357Y-65123299D01*
X102291370Y-65099474D01*
X102244458Y-65079124D01*
X102197185Y-65067521D01*
X102152042Y-65064245D01*
X102111516Y-65068877D01*
X102078097Y-65080998D01*
X102054273Y-65100191D01*
X102042534Y-65126036D01*
X102041982Y-65141428D01*
X102046534Y-65163489D01*
X102057347Y-65179996D01*
X102076706Y-65192033D01*
X102106898Y-65200688D01*
X102150208Y-65207045D01*
X102187462Y-65210540D01*
X102248215Y-65217078D01*
X102295294Y-65226217D01*
X102331886Y-65239034D01*
X102361182Y-65256606D01*
X102383229Y-65276613D01*
X102407460Y-65308755D01*
X102421994Y-65345584D01*
X102428439Y-65391836D01*
X102429089Y-65411771D01*
X102425314Y-65460895D01*
X102411158Y-65501179D01*
X102384384Y-65538627D01*
X102380083Y-65543359D01*
X102340539Y-65574769D01*
X102288934Y-65598668D01*
X102228805Y-65614136D01*
X102163688Y-65620251D01*
X102099533Y-65616434D01*
X102027403Y-65599737D01*
X101958672Y-65571259D01*
X101898958Y-65533425D01*
X101889702Y-65525894D01*
X101861904Y-65502344D01*
X101907745Y-65457072D01*
X101953586Y-65411801D01*
X101997708Y-65442151D01*
X102049090Y-65471152D01*
X102102279Y-65487086D01*
X102158828Y-65491914D01*
X102212696Y-65487877D01*
X102253391Y-65474831D01*
X102280381Y-65453101D01*
X102293134Y-65423012D01*
X102294137Y-65409466D01*
X102292080Y-65387729D01*
X102284651Y-65371422D01*
X102269587Y-65359415D01*
X102244626Y-65350580D01*
X102207505Y-65343789D01*
X102155961Y-65337911D01*
X102149443Y-65337284D01*
X102075247Y-65326484D01*
X102015947Y-65309154D01*
X101970520Y-65284534D01*
X101937942Y-65251863D01*
X101917188Y-65210380D01*
X101907235Y-65159326D01*
X101907060Y-65157245D01*
X101909883Y-65098396D01*
X101927682Y-65046630D01*
X101959528Y-65003214D01*
X102004496Y-64969414D01*
X102061303Y-64946593D01*
X102096986Y-64940698D01*
X102142869Y-64938429D01*
X102192642Y-64939648D01*
G37*
X102192642Y-64939648D02*
X102239995Y-64944220D01*
X102275997Y-64951267D01*
X102302923Y-64960598D01*
X102333473Y-64974154D01*
X102363685Y-64989760D01*
X102389597Y-65005241D01*
X102407248Y-65018422D01*
X102412800Y-65026354D01*
X102407633Y-65035942D01*
X102394058Y-65054260D01*
X102374963Y-65077422D01*
X102374079Y-65078448D01*
X102335357Y-65123299D01*
X102291370Y-65099474D01*
X102244458Y-65079124D01*
X102197185Y-65067521D01*
X102152042Y-65064245D01*
X102111516Y-65068877D01*
X102078097Y-65080998D01*
X102054273Y-65100191D01*
X102042534Y-65126036D01*
X102041982Y-65141428D01*
X102046534Y-65163489D01*
X102057347Y-65179996D01*
X102076706Y-65192033D01*
X102106898Y-65200688D01*
X102150208Y-65207045D01*
X102187462Y-65210540D01*
X102248215Y-65217078D01*
X102295294Y-65226217D01*
X102331886Y-65239034D01*
X102361182Y-65256606D01*
X102383229Y-65276613D01*
X102407460Y-65308755D01*
X102421994Y-65345584D01*
X102428439Y-65391836D01*
X102429089Y-65411771D01*
X102425314Y-65460895D01*
X102411158Y-65501179D01*
X102384384Y-65538627D01*
X102380083Y-65543359D01*
X102340539Y-65574769D01*
X102288934Y-65598668D01*
X102228805Y-65614136D01*
X102163688Y-65620251D01*
X102099533Y-65616434D01*
X102027403Y-65599737D01*
X101958672Y-65571259D01*
X101898958Y-65533425D01*
X101889702Y-65525894D01*
X101861904Y-65502344D01*
X101907745Y-65457072D01*
X101953586Y-65411801D01*
X101997708Y-65442151D01*
X102049090Y-65471152D01*
X102102279Y-65487086D01*
X102158828Y-65491914D01*
X102212696Y-65487877D01*
X102253391Y-65474831D01*
X102280381Y-65453101D01*
X102293134Y-65423012D01*
X102294137Y-65409466D01*
X102292080Y-65387729D01*
X102284651Y-65371422D01*
X102269587Y-65359415D01*
X102244626Y-65350580D01*
X102207505Y-65343789D01*
X102155961Y-65337911D01*
X102149443Y-65337284D01*
X102075247Y-65326484D01*
X102015947Y-65309154D01*
X101970520Y-65284534D01*
X101937942Y-65251863D01*
X101917188Y-65210380D01*
X101907235Y-65159326D01*
X101907060Y-65157245D01*
X101909883Y-65098396D01*
X101927682Y-65046630D01*
X101959528Y-65003214D01*
X102004496Y-64969414D01*
X102061303Y-64946593D01*
X102096986Y-64940698D01*
X102142869Y-64938429D01*
X102192642Y-64939648D01*
G36*
X102843268Y-64941123D02*
G01*
X102895972Y-64955502D01*
X102942476Y-64981754D01*
X102980411Y-65014773D01*
X103008782Y-65046207D01*
X103029812Y-65077609D01*
X103044500Y-65112256D01*
X103053843Y-65153425D01*
X103058837Y-65204396D01*
X103060480Y-65268444D01*
X103060500Y-65278000D01*
X103059222Y-65344010D01*
X103054725Y-65396510D01*
X103046011Y-65438780D01*
X103032082Y-65474096D01*
X103011941Y-65505737D01*
X102984591Y-65536981D01*
X102980411Y-65541228D01*
X102929381Y-65582299D01*
X102872534Y-65608195D01*
X102808659Y-65619289D01*
X102737588Y-65616096D01*
X102678259Y-65599948D01*
X102623995Y-65569349D01*
X102577788Y-65526656D01*
X102542623Y-65474224D01*
X102534202Y-65455800D01*
X102528144Y-65438256D01*
X102523840Y-65417927D01*
X102521015Y-65391690D01*
X102519397Y-65356423D01*
X102518712Y-65309002D01*
X102518633Y-65278000D01*
X102649866Y-65278000D01*
X102650313Y-65325475D01*
X102651929Y-65359603D01*
X102655128Y-65383951D01*
X102660323Y-65402089D01*
X102665542Y-65413326D01*
X102694309Y-65450779D01*
X102732068Y-65474743D01*
X102776764Y-65484561D01*
X102826346Y-65479580D01*
X102850121Y-65472180D01*
X102881952Y-65452276D01*
X102905430Y-65419341D01*
X102920805Y-65372757D01*
X102928326Y-65311905D01*
X102929219Y-65276368D01*
X102927217Y-65221344D01*
X102920619Y-65179048D01*
X102908417Y-65145654D01*
X102889600Y-65117341D01*
X102886133Y-65113282D01*
X102853498Y-65088104D01*
X102812913Y-65074486D01*
X102769166Y-65072832D01*
X102727044Y-65083545D01*
X102702181Y-65097794D01*
X102681774Y-65116044D01*
X102667249Y-65137534D01*
X102657714Y-65165330D01*
X102652281Y-65202498D01*
X102650057Y-65252104D01*
X102649866Y-65278000D01*
X102518633Y-65278000D01*
X102518936Y-65222902D01*
X102520028Y-65181607D01*
X102522182Y-65150992D01*
X102525671Y-65127932D01*
X102530768Y-65109307D01*
X102534202Y-65100200D01*
X102566241Y-65043075D01*
X102610218Y-64996846D01*
X102664075Y-64962878D01*
X102725754Y-64942539D01*
X102780178Y-64936991D01*
X102843268Y-64941123D01*
G37*
X102843268Y-64941123D02*
X102895972Y-64955502D01*
X102942476Y-64981754D01*
X102980411Y-65014773D01*
X103008782Y-65046207D01*
X103029812Y-65077609D01*
X103044500Y-65112256D01*
X103053843Y-65153425D01*
X103058837Y-65204396D01*
X103060480Y-65268444D01*
X103060500Y-65278000D01*
X103059222Y-65344010D01*
X103054725Y-65396510D01*
X103046011Y-65438780D01*
X103032082Y-65474096D01*
X103011941Y-65505737D01*
X102984591Y-65536981D01*
X102980411Y-65541228D01*
X102929381Y-65582299D01*
X102872534Y-65608195D01*
X102808659Y-65619289D01*
X102737588Y-65616096D01*
X102678259Y-65599948D01*
X102623995Y-65569349D01*
X102577788Y-65526656D01*
X102542623Y-65474224D01*
X102534202Y-65455800D01*
X102528144Y-65438256D01*
X102523840Y-65417927D01*
X102521015Y-65391690D01*
X102519397Y-65356423D01*
X102518712Y-65309002D01*
X102518633Y-65278000D01*
X102649866Y-65278000D01*
X102650313Y-65325475D01*
X102651929Y-65359603D01*
X102655128Y-65383951D01*
X102660323Y-65402089D01*
X102665542Y-65413326D01*
X102694309Y-65450779D01*
X102732068Y-65474743D01*
X102776764Y-65484561D01*
X102826346Y-65479580D01*
X102850121Y-65472180D01*
X102881952Y-65452276D01*
X102905430Y-65419341D01*
X102920805Y-65372757D01*
X102928326Y-65311905D01*
X102929219Y-65276368D01*
X102927217Y-65221344D01*
X102920619Y-65179048D01*
X102908417Y-65145654D01*
X102889600Y-65117341D01*
X102886133Y-65113282D01*
X102853498Y-65088104D01*
X102812913Y-65074486D01*
X102769166Y-65072832D01*
X102727044Y-65083545D01*
X102702181Y-65097794D01*
X102681774Y-65116044D01*
X102667249Y-65137534D01*
X102657714Y-65165330D01*
X102652281Y-65202498D01*
X102650057Y-65252104D01*
X102649866Y-65278000D01*
X102518633Y-65278000D01*
X102518936Y-65222902D01*
X102520028Y-65181607D01*
X102522182Y-65150992D01*
X102525671Y-65127932D01*
X102530768Y-65109307D01*
X102534202Y-65100200D01*
X102566241Y-65043075D01*
X102610218Y-64996846D01*
X102664075Y-64962878D01*
X102725754Y-64942539D01*
X102780178Y-64936991D01*
X102843268Y-64941123D01*
G36*
X103314500Y-64943567D02*
G01*
X103318733Y-65172167D01*
X103320114Y-65241386D01*
X103321504Y-65295767D01*
X103323067Y-65337404D01*
X103324971Y-65368393D01*
X103327382Y-65390828D01*
X103330464Y-65406804D01*
X103334384Y-65418414D01*
X103338931Y-65427136D01*
X103367479Y-65459678D01*
X103405707Y-65478584D01*
X103452742Y-65484139D01*
X103494071Y-65478803D01*
X103525619Y-65462490D01*
X103551094Y-65432798D01*
X103562150Y-65413294D01*
X103567961Y-65401233D01*
X103572453Y-65389083D01*
X103575795Y-65374570D01*
X103578158Y-65355422D01*
X103579709Y-65329366D01*
X103580619Y-65294129D01*
X103581057Y-65247438D01*
X103581192Y-65187022D01*
X103581200Y-65157673D01*
X103581200Y-64939334D01*
X103716667Y-64939334D01*
X103716667Y-65616667D01*
X103581200Y-65616667D01*
X103581200Y-65538496D01*
X103548440Y-65568093D01*
X103501648Y-65599325D01*
X103447255Y-65616795D01*
X103388639Y-65619633D01*
X103362309Y-65616008D01*
X103315476Y-65600595D01*
X103270746Y-65574928D01*
X103234817Y-65543029D01*
X103229128Y-65536062D01*
X103216902Y-65519252D01*
X103207104Y-65502930D01*
X103199461Y-65485038D01*
X103193704Y-65463522D01*
X103189562Y-65436324D01*
X103186763Y-65401390D01*
X103185036Y-65356663D01*
X103184112Y-65300086D01*
X103183717Y-65229605D01*
X103183638Y-65190861D01*
X103183266Y-64938621D01*
X103314500Y-64943567D01*
G37*
X103314500Y-64943567D02*
X103318733Y-65172167D01*
X103320114Y-65241386D01*
X103321504Y-65295767D01*
X103323067Y-65337404D01*
X103324971Y-65368393D01*
X103327382Y-65390828D01*
X103330464Y-65406804D01*
X103334384Y-65418414D01*
X103338931Y-65427136D01*
X103367479Y-65459678D01*
X103405707Y-65478584D01*
X103452742Y-65484139D01*
X103494071Y-65478803D01*
X103525619Y-65462490D01*
X103551094Y-65432798D01*
X103562150Y-65413294D01*
X103567961Y-65401233D01*
X103572453Y-65389083D01*
X103575795Y-65374570D01*
X103578158Y-65355422D01*
X103579709Y-65329366D01*
X103580619Y-65294129D01*
X103581057Y-65247438D01*
X103581192Y-65187022D01*
X103581200Y-65157673D01*
X103581200Y-64939334D01*
X103716667Y-64939334D01*
X103716667Y-65616667D01*
X103581200Y-65616667D01*
X103581200Y-65538496D01*
X103548440Y-65568093D01*
X103501648Y-65599325D01*
X103447255Y-65616795D01*
X103388639Y-65619633D01*
X103362309Y-65616008D01*
X103315476Y-65600595D01*
X103270746Y-65574928D01*
X103234817Y-65543029D01*
X103229128Y-65536062D01*
X103216902Y-65519252D01*
X103207104Y-65502930D01*
X103199461Y-65485038D01*
X103193704Y-65463522D01*
X103189562Y-65436324D01*
X103186763Y-65401390D01*
X103185036Y-65356663D01*
X103184112Y-65300086D01*
X103183717Y-65229605D01*
X103183638Y-65190861D01*
X103183266Y-64938621D01*
X103314500Y-64943567D01*
G36*
X104693247Y-64948808D02*
G01*
X104753091Y-64973502D01*
X104770767Y-64984324D01*
X104794857Y-65001995D01*
X104817467Y-65021122D01*
X104834683Y-65038116D01*
X104842591Y-65049387D01*
X104842733Y-65050330D01*
X104836750Y-65058509D01*
X104821003Y-65074186D01*
X104798797Y-65094088D01*
X104796938Y-65095682D01*
X104751143Y-65134806D01*
X104713811Y-65108492D01*
X104665250Y-65082749D01*
X104615534Y-65071578D01*
X104567331Y-65074483D01*
X104523312Y-65090967D01*
X104486147Y-65120534D01*
X104462102Y-65155266D01*
X104451603Y-65177963D01*
X104445147Y-65199730D01*
X104441800Y-65225875D01*
X104440633Y-65261708D01*
X104440567Y-65278000D01*
X104441178Y-65318620D01*
X104443632Y-65347641D01*
X104448862Y-65370372D01*
X104457799Y-65392122D01*
X104462102Y-65400734D01*
X104491674Y-65441591D01*
X104530134Y-65469420D01*
X104574980Y-65483718D01*
X104623707Y-65483986D01*
X104673813Y-65469722D01*
X104709308Y-65450193D01*
X104751696Y-65421668D01*
X104797215Y-65460555D01*
X104819702Y-65480585D01*
X104835970Y-65496636D01*
X104842704Y-65505424D01*
X104842733Y-65505671D01*
X104837064Y-65514941D01*
X104823066Y-65529890D01*
X104819450Y-65533287D01*
X104759296Y-65577908D01*
X104693607Y-65606865D01*
X104623675Y-65619765D01*
X104550791Y-65616215D01*
X104548315Y-65615807D01*
X104482488Y-65596525D01*
X104424877Y-65562869D01*
X104377007Y-65516021D01*
X104340407Y-65457166D01*
X104338681Y-65453450D01*
X104316001Y-65387141D01*
X104304955Y-65315920D01*
X104305120Y-65243189D01*
X104316075Y-65172352D01*
X104337397Y-65106814D01*
X104368663Y-65049978D01*
X104392326Y-65021152D01*
X104441653Y-64981653D01*
X104499734Y-64954346D01*
X104563244Y-64939554D01*
X104628857Y-64937600D01*
X104693247Y-64948808D01*
G37*
X104693247Y-64948808D02*
X104753091Y-64973502D01*
X104770767Y-64984324D01*
X104794857Y-65001995D01*
X104817467Y-65021122D01*
X104834683Y-65038116D01*
X104842591Y-65049387D01*
X104842733Y-65050330D01*
X104836750Y-65058509D01*
X104821003Y-65074186D01*
X104798797Y-65094088D01*
X104796938Y-65095682D01*
X104751143Y-65134806D01*
X104713811Y-65108492D01*
X104665250Y-65082749D01*
X104615534Y-65071578D01*
X104567331Y-65074483D01*
X104523312Y-65090967D01*
X104486147Y-65120534D01*
X104462102Y-65155266D01*
X104451603Y-65177963D01*
X104445147Y-65199730D01*
X104441800Y-65225875D01*
X104440633Y-65261708D01*
X104440567Y-65278000D01*
X104441178Y-65318620D01*
X104443632Y-65347641D01*
X104448862Y-65370372D01*
X104457799Y-65392122D01*
X104462102Y-65400734D01*
X104491674Y-65441591D01*
X104530134Y-65469420D01*
X104574980Y-65483718D01*
X104623707Y-65483986D01*
X104673813Y-65469722D01*
X104709308Y-65450193D01*
X104751696Y-65421668D01*
X104797215Y-65460555D01*
X104819702Y-65480585D01*
X104835970Y-65496636D01*
X104842704Y-65505424D01*
X104842733Y-65505671D01*
X104837064Y-65514941D01*
X104823066Y-65529890D01*
X104819450Y-65533287D01*
X104759296Y-65577908D01*
X104693607Y-65606865D01*
X104623675Y-65619765D01*
X104550791Y-65616215D01*
X104548315Y-65615807D01*
X104482488Y-65596525D01*
X104424877Y-65562869D01*
X104377007Y-65516021D01*
X104340407Y-65457166D01*
X104338681Y-65453450D01*
X104316001Y-65387141D01*
X104304955Y-65315920D01*
X104305120Y-65243189D01*
X104316075Y-65172352D01*
X104337397Y-65106814D01*
X104368663Y-65049978D01*
X104392326Y-65021152D01*
X104441653Y-64981653D01*
X104499734Y-64954346D01*
X104563244Y-64939554D01*
X104628857Y-64937600D01*
X104693247Y-64948808D01*
G36*
X105248299Y-64951180D02*
G01*
X105306212Y-64978134D01*
X105341923Y-65003844D01*
X105382851Y-65049324D01*
X105412078Y-65107031D01*
X105429597Y-65176945D01*
X105435400Y-65258612D01*
X105435400Y-65328800D01*
X105018331Y-65328800D01*
X105022734Y-65367867D01*
X105035237Y-65412081D01*
X105060094Y-65447584D01*
X105094661Y-65473518D01*
X105136289Y-65489025D01*
X105182332Y-65493247D01*
X105230143Y-65485325D01*
X105277076Y-65464401D01*
X105291312Y-65454939D01*
X105325881Y-65429897D01*
X105372174Y-65469863D01*
X105394814Y-65490145D01*
X105411308Y-65506323D01*
X105418400Y-65515184D01*
X105418467Y-65515549D01*
X105412312Y-65523409D01*
X105396364Y-65537909D01*
X105379195Y-65551864D01*
X105317667Y-65589270D01*
X105248785Y-65611962D01*
X105174284Y-65619513D01*
X105120360Y-65615650D01*
X105054386Y-65599045D01*
X104998947Y-65569312D01*
X104954246Y-65526734D01*
X104920482Y-65471595D01*
X104897854Y-65404180D01*
X104886565Y-65324771D01*
X104885232Y-65282234D01*
X104887980Y-65214332D01*
X104890995Y-65195127D01*
X105020533Y-65195127D01*
X105020533Y-65218734D01*
X105160233Y-65218734D01*
X105211774Y-65218645D01*
X105248784Y-65218181D01*
X105273664Y-65217048D01*
X105288816Y-65214948D01*
X105296642Y-65211586D01*
X105299544Y-65206666D01*
X105299933Y-65201528D01*
X105295423Y-65177309D01*
X105284097Y-65147303D01*
X105269256Y-65119298D01*
X105259414Y-65105993D01*
X105227141Y-65081927D01*
X105186250Y-65068003D01*
X105142242Y-65065019D01*
X105100617Y-65073768D01*
X105085639Y-65080863D01*
X105062292Y-65101440D01*
X105041102Y-65132121D01*
X105025910Y-65166164D01*
X105020533Y-65195127D01*
X104890995Y-65195127D01*
X104896898Y-65157531D01*
X104913090Y-65106772D01*
X104932370Y-65066481D01*
X104968686Y-65016210D01*
X105014893Y-64977847D01*
X105068475Y-64951777D01*
X105126914Y-64938387D01*
X105187694Y-64938059D01*
X105248299Y-64951180D01*
G37*
X105248299Y-64951180D02*
X105306212Y-64978134D01*
X105341923Y-65003844D01*
X105382851Y-65049324D01*
X105412078Y-65107031D01*
X105429597Y-65176945D01*
X105435400Y-65258612D01*
X105435400Y-65328800D01*
X105018331Y-65328800D01*
X105022734Y-65367867D01*
X105035237Y-65412081D01*
X105060094Y-65447584D01*
X105094661Y-65473518D01*
X105136289Y-65489025D01*
X105182332Y-65493247D01*
X105230143Y-65485325D01*
X105277076Y-65464401D01*
X105291312Y-65454939D01*
X105325881Y-65429897D01*
X105372174Y-65469863D01*
X105394814Y-65490145D01*
X105411308Y-65506323D01*
X105418400Y-65515184D01*
X105418467Y-65515549D01*
X105412312Y-65523409D01*
X105396364Y-65537909D01*
X105379195Y-65551864D01*
X105317667Y-65589270D01*
X105248785Y-65611962D01*
X105174284Y-65619513D01*
X105120360Y-65615650D01*
X105054386Y-65599045D01*
X104998947Y-65569312D01*
X104954246Y-65526734D01*
X104920482Y-65471595D01*
X104897854Y-65404180D01*
X104886565Y-65324771D01*
X104885232Y-65282234D01*
X104887980Y-65214332D01*
X104890995Y-65195127D01*
X105020533Y-65195127D01*
X105020533Y-65218734D01*
X105160233Y-65218734D01*
X105211774Y-65218645D01*
X105248784Y-65218181D01*
X105273664Y-65217048D01*
X105288816Y-65214948D01*
X105296642Y-65211586D01*
X105299544Y-65206666D01*
X105299933Y-65201528D01*
X105295423Y-65177309D01*
X105284097Y-65147303D01*
X105269256Y-65119298D01*
X105259414Y-65105993D01*
X105227141Y-65081927D01*
X105186250Y-65068003D01*
X105142242Y-65065019D01*
X105100617Y-65073768D01*
X105085639Y-65080863D01*
X105062292Y-65101440D01*
X105041102Y-65132121D01*
X105025910Y-65166164D01*
X105020533Y-65195127D01*
X104890995Y-65195127D01*
X104896898Y-65157531D01*
X104913090Y-65106772D01*
X104932370Y-65066481D01*
X104968686Y-65016210D01*
X105014893Y-64977847D01*
X105068475Y-64951777D01*
X105126914Y-64938387D01*
X105187694Y-64938059D01*
X105248299Y-64951180D01*
G36*
X101326996Y-64945152D02*
G01*
X101382062Y-64967190D01*
X101428614Y-65002499D01*
X101464476Y-65049715D01*
X101473915Y-65068389D01*
X101479648Y-65081658D01*
X101484166Y-65094431D01*
X101487616Y-65108841D01*
X101490142Y-65127020D01*
X101491890Y-65151100D01*
X101493007Y-65183213D01*
X101493638Y-65225493D01*
X101493930Y-65280072D01*
X101494027Y-65349082D01*
X101494034Y-65362667D01*
X101494167Y-65612434D01*
X101429176Y-65614895D01*
X101364186Y-65617357D01*
X101361443Y-65394762D01*
X101360526Y-65326957D01*
X101359530Y-65273869D01*
X101358275Y-65233280D01*
X101356586Y-65202973D01*
X101354285Y-65180730D01*
X101351195Y-65164336D01*
X101347138Y-65151572D01*
X101341937Y-65140222D01*
X101340941Y-65138300D01*
X101314495Y-65104152D01*
X101279633Y-65082028D01*
X101239926Y-65071991D01*
X101198943Y-65074102D01*
X101160252Y-65088422D01*
X101127423Y-65115014D01*
X101113466Y-65134366D01*
X101108260Y-65144261D01*
X101104172Y-65155559D01*
X101101037Y-65170407D01*
X101098688Y-65190955D01*
X101096957Y-65219351D01*
X101095679Y-65257742D01*
X101094686Y-65308279D01*
X101093812Y-65373108D01*
X101093612Y-65390184D01*
X101090990Y-65616667D01*
X100956533Y-65616667D01*
X100956533Y-64939334D01*
X101092000Y-64939334D01*
X101092000Y-65017288D01*
X101123134Y-64989951D01*
X101164370Y-64960330D01*
X101208106Y-64943661D01*
X101260145Y-64937817D01*
X101265590Y-64937749D01*
X101326996Y-64945152D01*
G37*
X101326996Y-64945152D02*
X101382062Y-64967190D01*
X101428614Y-65002499D01*
X101464476Y-65049715D01*
X101473915Y-65068389D01*
X101479648Y-65081658D01*
X101484166Y-65094431D01*
X101487616Y-65108841D01*
X101490142Y-65127020D01*
X101491890Y-65151100D01*
X101493007Y-65183213D01*
X101493638Y-65225493D01*
X101493930Y-65280072D01*
X101494027Y-65349082D01*
X101494034Y-65362667D01*
X101494167Y-65612434D01*
X101429176Y-65614895D01*
X101364186Y-65617357D01*
X101361443Y-65394762D01*
X101360526Y-65326957D01*
X101359530Y-65273869D01*
X101358275Y-65233280D01*
X101356586Y-65202973D01*
X101354285Y-65180730D01*
X101351195Y-65164336D01*
X101347138Y-65151572D01*
X101341937Y-65140222D01*
X101340941Y-65138300D01*
X101314495Y-65104152D01*
X101279633Y-65082028D01*
X101239926Y-65071991D01*
X101198943Y-65074102D01*
X101160252Y-65088422D01*
X101127423Y-65115014D01*
X101113466Y-65134366D01*
X101108260Y-65144261D01*
X101104172Y-65155559D01*
X101101037Y-65170407D01*
X101098688Y-65190955D01*
X101096957Y-65219351D01*
X101095679Y-65257742D01*
X101094686Y-65308279D01*
X101093812Y-65373108D01*
X101093612Y-65390184D01*
X101090990Y-65616667D01*
X100956533Y-65616667D01*
X100956533Y-64939334D01*
X101092000Y-64939334D01*
X101092000Y-65017288D01*
X101123134Y-64989951D01*
X101164370Y-64960330D01*
X101208106Y-64943661D01*
X101260145Y-64937817D01*
X101265590Y-64937749D01*
X101326996Y-64945152D01*
G36*
X104219540Y-64941599D02*
G01*
X104260702Y-64955213D01*
X104271691Y-64960353D01*
X104318114Y-64983066D01*
X104293180Y-65014117D01*
X104271113Y-65041213D01*
X104247993Y-65069056D01*
X104243440Y-65074454D01*
X104218633Y-65103742D01*
X104194133Y-65087662D01*
X104157491Y-65073041D01*
X104116871Y-65071949D01*
X104076700Y-65083214D01*
X104041406Y-65105666D01*
X104017533Y-65134366D01*
X104012324Y-65144274D01*
X104008231Y-65155608D01*
X104005086Y-65170515D01*
X104002720Y-65191143D01*
X104000964Y-65219642D01*
X103999650Y-65258159D01*
X103998609Y-65308842D01*
X103997674Y-65373840D01*
X103997466Y-65390184D01*
X103994633Y-65616667D01*
X103931584Y-65616667D01*
X103893228Y-65615291D01*
X103870966Y-65611099D01*
X103864465Y-65606060D01*
X103863613Y-65595475D01*
X103862936Y-65569865D01*
X103862443Y-65531135D01*
X103862145Y-65481194D01*
X103862052Y-65421948D01*
X103862175Y-65355303D01*
X103862525Y-65283167D01*
X103862614Y-65269510D01*
X103864833Y-64943567D01*
X103996067Y-64938621D01*
X103996067Y-64972844D01*
X103997992Y-64997307D01*
X104004513Y-65005894D01*
X104016740Y-64999300D01*
X104024991Y-64990916D01*
X104051393Y-64970892D01*
X104088926Y-64953978D01*
X104131822Y-64942215D01*
X104174310Y-64937645D01*
X104175588Y-64937640D01*
X104219540Y-64941599D01*
G37*
X104219540Y-64941599D02*
X104260702Y-64955213D01*
X104271691Y-64960353D01*
X104318114Y-64983066D01*
X104293180Y-65014117D01*
X104271113Y-65041213D01*
X104247993Y-65069056D01*
X104243440Y-65074454D01*
X104218633Y-65103742D01*
X104194133Y-65087662D01*
X104157491Y-65073041D01*
X104116871Y-65071949D01*
X104076700Y-65083214D01*
X104041406Y-65105666D01*
X104017533Y-65134366D01*
X104012324Y-65144274D01*
X104008231Y-65155608D01*
X104005086Y-65170515D01*
X104002720Y-65191143D01*
X104000964Y-65219642D01*
X103999650Y-65258159D01*
X103998609Y-65308842D01*
X103997674Y-65373840D01*
X103997466Y-65390184D01*
X103994633Y-65616667D01*
X103931584Y-65616667D01*
X103893228Y-65615291D01*
X103870966Y-65611099D01*
X103864465Y-65606060D01*
X103863613Y-65595475D01*
X103862936Y-65569865D01*
X103862443Y-65531135D01*
X103862145Y-65481194D01*
X103862052Y-65421948D01*
X103862175Y-65355303D01*
X103862525Y-65283167D01*
X103862614Y-65269510D01*
X103864833Y-64943567D01*
X103996067Y-64938621D01*
X103996067Y-64972844D01*
X103997992Y-64997307D01*
X104004513Y-65005894D01*
X104016740Y-64999300D01*
X104024991Y-64990916D01*
X104051393Y-64970892D01*
X104088926Y-64953978D01*
X104131822Y-64942215D01*
X104174310Y-64937645D01*
X104175588Y-64937640D01*
X104219540Y-64941599D01*
G36*
X102297725Y-59910203D02*
G01*
X102366281Y-59910452D01*
X102421097Y-59910944D01*
X102463770Y-59911742D01*
X102495897Y-59912908D01*
X102519075Y-59914506D01*
X102534901Y-59916599D01*
X102544970Y-59919248D01*
X102550881Y-59922517D01*
X102551895Y-59923438D01*
X102562530Y-59936538D01*
X102565200Y-59942891D01*
X102566702Y-59952323D01*
X102570981Y-59976545D01*
X102577698Y-60013705D01*
X102586516Y-60061949D01*
X102597093Y-60119423D01*
X102609093Y-60184275D01*
X102622175Y-60254651D01*
X102624227Y-60265662D01*
X102640697Y-60353069D01*
X102654655Y-60424971D01*
X102666369Y-60482565D01*
X102676109Y-60527052D01*
X102684141Y-60559628D01*
X102690734Y-60581493D01*
X102696157Y-60593844D01*
X102698311Y-60596641D01*
X102709878Y-60603478D01*
X102735013Y-60615612D01*
X102771547Y-60632086D01*
X102817311Y-60651945D01*
X102870136Y-60674234D01*
X102927854Y-60697997D01*
X102934944Y-60700878D01*
X103002495Y-60728085D01*
X103056161Y-60749201D01*
X103097624Y-60764797D01*
X103128565Y-60775446D01*
X103150667Y-60781721D01*
X103165611Y-60784194D01*
X103175079Y-60783438D01*
X103176244Y-60783038D01*
X103187498Y-60776614D01*
X103211012Y-60761659D01*
X103245129Y-60739279D01*
X103288186Y-60710583D01*
X103338523Y-60676677D01*
X103394481Y-60638669D01*
X103454398Y-60597667D01*
X103461930Y-60592492D01*
X103521844Y-60551534D01*
X103577715Y-60513775D01*
X103627940Y-60480266D01*
X103670913Y-60452060D01*
X103705031Y-60430208D01*
X103728688Y-60415761D01*
X103740280Y-60409771D01*
X103740871Y-60409667D01*
X103749566Y-60415469D01*
X103768797Y-60432011D01*
X103797192Y-60457993D01*
X103833378Y-60492119D01*
X103875980Y-60533090D01*
X103923627Y-60579608D01*
X103974944Y-60630374D01*
X103986187Y-60641581D01*
X104046287Y-60701729D01*
X104095297Y-60751193D01*
X104134247Y-60791110D01*
X104164170Y-60822618D01*
X104186097Y-60846856D01*
X104201061Y-60864962D01*
X104210093Y-60878073D01*
X104214225Y-60887327D01*
X104214577Y-60893465D01*
X104209001Y-60904789D01*
X104194842Y-60928339D01*
X104173191Y-60962444D01*
X104145139Y-61005433D01*
X104111778Y-61055634D01*
X104074200Y-61111376D01*
X104033495Y-61170989D01*
X104030151Y-61175854D01*
X103975806Y-61255436D01*
X103931420Y-61321675D01*
X103896840Y-61374813D01*
X103871912Y-61415091D01*
X103856485Y-61442748D01*
X103850406Y-61458027D01*
X103850293Y-61459487D01*
X103853806Y-61473304D01*
X103863255Y-61500042D01*
X103877579Y-61537212D01*
X103895714Y-61582329D01*
X103916598Y-61632907D01*
X103939169Y-61686459D01*
X103962363Y-61740498D01*
X103985118Y-61792538D01*
X104006372Y-61840094D01*
X104025062Y-61880677D01*
X104040125Y-61911803D01*
X104050499Y-61930984D01*
X104053676Y-61935400D01*
X104063414Y-61940559D01*
X104084318Y-61947195D01*
X104117324Y-61955515D01*
X104163365Y-61965729D01*
X104223376Y-61978044D01*
X104298292Y-61992668D01*
X104382891Y-62008659D01*
X104453899Y-62022025D01*
X104519779Y-62034617D01*
X104578648Y-62046060D01*
X104628624Y-62055980D01*
X104667823Y-62064004D01*
X104694364Y-62069756D01*
X104706363Y-62072862D01*
X104706741Y-62073042D01*
X104709353Y-62082459D01*
X104711507Y-62107373D01*
X104713212Y-62148046D01*
X104714473Y-62204742D01*
X104715298Y-62277725D01*
X104715693Y-62367257D01*
X104715733Y-62411496D01*
X104715644Y-62497667D01*
X104715344Y-62568383D01*
X104714780Y-62625123D01*
X104713901Y-62669364D01*
X104712658Y-62702585D01*
X104710997Y-62726264D01*
X104708868Y-62741879D01*
X104706220Y-62750907D01*
X104703848Y-62754257D01*
X104693043Y-62758024D01*
X104667515Y-62764409D01*
X104629200Y-62773002D01*
X104580037Y-62783394D01*
X104521963Y-62795175D01*
X104456915Y-62807937D01*
X104386830Y-62821268D01*
X104386169Y-62821392D01*
X104302699Y-62837299D01*
X104230202Y-62851677D01*
X104169741Y-62864293D01*
X104122375Y-62874915D01*
X104089167Y-62883312D01*
X104071177Y-62889250D01*
X104068484Y-62890882D01*
X104061551Y-62902683D01*
X104049699Y-62927929D01*
X104033885Y-62964187D01*
X104015071Y-63009024D01*
X103994216Y-63060004D01*
X103972281Y-63114695D01*
X103950223Y-63170663D01*
X103929005Y-63225473D01*
X103909585Y-63276692D01*
X103892923Y-63321885D01*
X103879980Y-63358621D01*
X103871714Y-63384463D01*
X103869067Y-63396538D01*
X103872656Y-63408667D01*
X103883728Y-63430417D01*
X103902736Y-63462512D01*
X103930134Y-63505675D01*
X103966376Y-63560629D01*
X104011916Y-63628097D01*
X104042633Y-63673052D01*
X104082487Y-63731534D01*
X104119118Y-63785987D01*
X104151447Y-63834757D01*
X104178397Y-63876185D01*
X104198890Y-63908617D01*
X104211849Y-63930395D01*
X104216200Y-63939764D01*
X104210383Y-63948570D01*
X104193793Y-63967893D01*
X104167723Y-63996370D01*
X104133466Y-64032637D01*
X104092313Y-64075330D01*
X104045556Y-64123086D01*
X103994489Y-64174539D01*
X103980602Y-64188417D01*
X103919164Y-64249524D01*
X103868491Y-64299453D01*
X103827537Y-64339157D01*
X103795254Y-64369592D01*
X103770593Y-64391709D01*
X103752508Y-64406463D01*
X103739950Y-64414807D01*
X103731873Y-64417695D01*
X103729086Y-64417354D01*
X103718563Y-64411253D01*
X103695827Y-64396666D01*
X103662593Y-64374739D01*
X103620575Y-64346618D01*
X103571487Y-64313449D01*
X103517045Y-64276379D01*
X103469048Y-64243490D01*
X103411459Y-64204253D01*
X103357707Y-64168274D01*
X103309513Y-64136656D01*
X103268599Y-64110503D01*
X103236686Y-64090919D01*
X103215497Y-64079005D01*
X103207267Y-64075733D01*
X103193792Y-64079562D01*
X103168587Y-64090097D01*
X103134777Y-64105912D01*
X103095485Y-64125581D01*
X103077433Y-64135000D01*
X103037189Y-64155829D01*
X103001567Y-64173456D01*
X102973540Y-64186469D01*
X102956081Y-64193461D01*
X102952450Y-64194267D01*
X102944298Y-64186766D01*
X102931143Y-64164101D01*
X102912863Y-64126026D01*
X102889339Y-64072295D01*
X102873928Y-64035517D01*
X102856902Y-63994393D01*
X102834400Y-63940061D01*
X102807432Y-63874953D01*
X102777005Y-63801505D01*
X102744127Y-63722150D01*
X102709808Y-63639322D01*
X102675056Y-63555456D01*
X102648609Y-63491636D01*
X102617019Y-63415118D01*
X102587506Y-63343063D01*
X102560694Y-63277036D01*
X102537210Y-63218606D01*
X102517678Y-63169339D01*
X102502724Y-63130801D01*
X102492973Y-63104560D01*
X102489049Y-63092182D01*
X102489000Y-63091693D01*
X102495714Y-63078772D01*
X102512831Y-63062645D01*
X102524407Y-63054528D01*
X102623730Y-62984906D01*
X102707260Y-62910982D01*
X102775848Y-62831580D01*
X102830342Y-62745524D01*
X102871593Y-62651635D01*
X102900451Y-62548738D01*
X102904607Y-62528051D01*
X102910144Y-62478784D01*
X102911034Y-62419286D01*
X102907629Y-62355506D01*
X102900280Y-62293391D01*
X102889339Y-62238890D01*
X102887010Y-62230328D01*
X102849629Y-62129089D01*
X102798607Y-62036707D01*
X102735289Y-61954193D01*
X102661017Y-61882564D01*
X102577134Y-61822834D01*
X102484986Y-61776016D01*
X102385914Y-61743127D01*
X102281262Y-61725179D01*
X102213833Y-61722000D01*
X102106385Y-61730125D01*
X102003678Y-61753825D01*
X101907059Y-61792084D01*
X101817868Y-61843888D01*
X101737451Y-61908223D01*
X101667150Y-61984074D01*
X101608309Y-62070427D01*
X101562272Y-62166267D01*
X101540657Y-62230328D01*
X101529105Y-62282821D01*
X101521082Y-62344002D01*
X101516939Y-62407921D01*
X101517028Y-62468632D01*
X101521701Y-62520185D01*
X101523060Y-62528051D01*
X101549656Y-62632795D01*
X101588485Y-62728306D01*
X101640395Y-62815762D01*
X101706237Y-62896339D01*
X101786860Y-62971214D01*
X101883114Y-63041563D01*
X101903260Y-63054528D01*
X101924011Y-63070437D01*
X101936732Y-63085628D01*
X101938667Y-63091693D01*
X101935505Y-63102252D01*
X101926439Y-63126868D01*
X101912093Y-63163974D01*
X101893092Y-63212002D01*
X101870061Y-63269387D01*
X101843626Y-63334561D01*
X101814412Y-63405958D01*
X101783045Y-63482010D01*
X101779058Y-63491636D01*
X101744660Y-63574642D01*
X101709917Y-63658486D01*
X101675840Y-63740733D01*
X101643435Y-63818949D01*
X101613712Y-63890700D01*
X101587678Y-63953553D01*
X101566342Y-64005073D01*
X101553738Y-64035517D01*
X101527241Y-64098068D01*
X101506057Y-64144826D01*
X101490065Y-64176038D01*
X101479144Y-64191949D01*
X101475216Y-64194267D01*
X101463522Y-64190467D01*
X101439913Y-64180006D01*
X101407363Y-64164294D01*
X101368844Y-64144741D01*
X101350233Y-64135000D01*
X101309528Y-64114096D01*
X101272944Y-64096426D01*
X101243604Y-64083414D01*
X101224631Y-64076487D01*
X101220399Y-64075733D01*
X101209481Y-64080398D01*
X101186402Y-64093654D01*
X101152884Y-64114400D01*
X101110649Y-64141531D01*
X101061418Y-64173945D01*
X101006913Y-64210539D01*
X100958618Y-64243490D01*
X100901034Y-64282926D01*
X100847384Y-64319412D01*
X100799380Y-64351801D01*
X100758739Y-64378947D01*
X100727173Y-64399704D01*
X100706398Y-64412925D01*
X100698580Y-64417354D01*
X100692424Y-64416935D01*
X100682335Y-64411557D01*
X100667265Y-64400267D01*
X100646167Y-64382111D01*
X100617992Y-64356136D01*
X100581693Y-64321388D01*
X100536223Y-64276914D01*
X100480534Y-64221759D01*
X100447064Y-64188417D01*
X100395083Y-64136222D01*
X100347077Y-64087369D01*
X100304335Y-64043222D01*
X100268152Y-64005145D01*
X100239819Y-63974502D01*
X100220629Y-63952657D01*
X100211874Y-63940973D01*
X100211467Y-63939764D01*
X100216114Y-63929862D01*
X100229339Y-63907705D01*
X100250063Y-63874950D01*
X100277208Y-63833252D01*
X100309697Y-63784269D01*
X100346451Y-63729655D01*
X100385033Y-63673052D01*
X100436150Y-63598026D01*
X100477707Y-63535931D01*
X100510158Y-63486046D01*
X100533956Y-63447646D01*
X100549557Y-63420009D01*
X100557413Y-63402412D01*
X100558600Y-63396538D01*
X100555498Y-63382897D01*
X100546834Y-63356118D01*
X100533566Y-63318637D01*
X100516655Y-63272886D01*
X100497060Y-63221300D01*
X100475742Y-63166312D01*
X100453660Y-63110357D01*
X100431774Y-63055867D01*
X100411043Y-63005278D01*
X100392429Y-62961023D01*
X100376890Y-62925535D01*
X100365386Y-62901249D01*
X100359183Y-62890882D01*
X100347563Y-62885989D01*
X100320301Y-62878546D01*
X100278458Y-62868784D01*
X100223096Y-62856936D01*
X100155275Y-62843234D01*
X100076057Y-62827909D01*
X100041498Y-62821392D01*
X99971376Y-62808057D01*
X99906272Y-62795289D01*
X99848125Y-62783497D01*
X99798872Y-62773090D01*
X99760449Y-62764479D01*
X99734794Y-62758072D01*
X99723845Y-62754279D01*
X99723818Y-62754257D01*
X99720744Y-62749217D01*
X99718229Y-62738706D01*
X99716220Y-62721245D01*
X99714666Y-62695356D01*
X99713517Y-62659562D01*
X99712721Y-62612384D01*
X99712226Y-62552344D01*
X99711982Y-62477964D01*
X99711933Y-62411496D01*
X99712144Y-62314673D01*
X99712781Y-62234514D01*
X99713851Y-62170756D01*
X99715362Y-62123136D01*
X99717319Y-62091391D01*
X99719731Y-62075256D01*
X99720925Y-62073042D01*
X99731022Y-62070284D01*
X99755889Y-62064835D01*
X99793644Y-62057069D01*
X99842406Y-62047360D01*
X99900290Y-62036082D01*
X99965416Y-62023610D01*
X100035899Y-62010319D01*
X100044775Y-62008659D01*
X100134512Y-61991682D01*
X100208469Y-61977209D01*
X100267579Y-61965031D01*
X100312778Y-61954942D01*
X100345000Y-61946733D01*
X100365179Y-61940195D01*
X100373990Y-61935400D01*
X100381522Y-61923374D01*
X100394292Y-61898117D01*
X100411238Y-61862116D01*
X100431298Y-61817857D01*
X100453410Y-61767827D01*
X100476509Y-61714511D01*
X100499535Y-61660397D01*
X100521424Y-61607970D01*
X100541114Y-61559717D01*
X100557542Y-61518125D01*
X100569646Y-61485680D01*
X100576363Y-61464869D01*
X100577373Y-61459487D01*
X100572959Y-61446399D01*
X100559209Y-61420943D01*
X100535973Y-61382883D01*
X100503104Y-61331986D01*
X100460451Y-61268014D01*
X100407866Y-61190733D01*
X100397652Y-61175854D01*
X100356815Y-61116179D01*
X100318997Y-61060438D01*
X100285288Y-61010270D01*
X100256776Y-60967316D01*
X100234548Y-60933215D01*
X100219694Y-60909609D01*
X100213300Y-60898138D01*
X100213179Y-60897766D01*
X100217964Y-60888062D01*
X100233454Y-60868274D01*
X100258079Y-60839984D01*
X100290267Y-60804771D01*
X100328448Y-60764216D01*
X100371051Y-60719901D01*
X100416506Y-60673405D01*
X100463242Y-60626309D01*
X100509688Y-60580193D01*
X100554273Y-60536639D01*
X100595428Y-60497226D01*
X100631581Y-60463536D01*
X100661162Y-60437149D01*
X100682599Y-60419644D01*
X100694323Y-60412604D01*
X100695327Y-60412581D01*
X100705259Y-60418023D01*
X100727512Y-60432003D01*
X100760465Y-60453448D01*
X100802499Y-60481284D01*
X100851992Y-60514437D01*
X100907327Y-60551833D01*
X100966881Y-60592399D01*
X100974727Y-60597766D01*
X101034797Y-60638749D01*
X101090921Y-60676794D01*
X101141466Y-60710812D01*
X101184798Y-60739715D01*
X101219284Y-60762412D01*
X101243290Y-60777816D01*
X101255181Y-60784838D01*
X101255723Y-60785068D01*
X101267342Y-60783420D01*
X101292069Y-60776044D01*
X101327462Y-60763913D01*
X101371077Y-60747998D01*
X101420470Y-60729273D01*
X101473200Y-60708708D01*
X101526823Y-60687277D01*
X101578895Y-60665951D01*
X101626974Y-60645702D01*
X101668617Y-60627502D01*
X101701380Y-60612325D01*
X101722820Y-60601141D01*
X101729411Y-60596585D01*
X101734390Y-60588217D01*
X101740395Y-60570997D01*
X101747696Y-60543714D01*
X101756566Y-60505155D01*
X101767275Y-60454109D01*
X101780095Y-60389363D01*
X101795299Y-60309706D01*
X101803494Y-60265971D01*
X101816708Y-60194952D01*
X101828890Y-60129161D01*
X101839700Y-60070457D01*
X101848799Y-60020697D01*
X101855847Y-59981737D01*
X101860505Y-59955435D01*
X101862434Y-59943650D01*
X101862467Y-59943255D01*
X101867815Y-59932696D01*
X101875771Y-59923438D01*
X101880892Y-59920004D01*
X101889773Y-59917206D01*
X101904011Y-59914980D01*
X101925203Y-59913265D01*
X101954945Y-59911996D01*
X101994834Y-59911112D01*
X102046467Y-59910550D01*
X102111441Y-59910246D01*
X102191352Y-59910137D01*
X102213833Y-59910134D01*
X102297725Y-59910203D01*
G37*
X102297725Y-59910203D02*
X102366281Y-59910452D01*
X102421097Y-59910944D01*
X102463770Y-59911742D01*
X102495897Y-59912908D01*
X102519075Y-59914506D01*
X102534901Y-59916599D01*
X102544970Y-59919248D01*
X102550881Y-59922517D01*
X102551895Y-59923438D01*
X102562530Y-59936538D01*
X102565200Y-59942891D01*
X102566702Y-59952323D01*
X102570981Y-59976545D01*
X102577698Y-60013705D01*
X102586516Y-60061949D01*
X102597093Y-60119423D01*
X102609093Y-60184275D01*
X102622175Y-60254651D01*
X102624227Y-60265662D01*
X102640697Y-60353069D01*
X102654655Y-60424971D01*
X102666369Y-60482565D01*
X102676109Y-60527052D01*
X102684141Y-60559628D01*
X102690734Y-60581493D01*
X102696157Y-60593844D01*
X102698311Y-60596641D01*
X102709878Y-60603478D01*
X102735013Y-60615612D01*
X102771547Y-60632086D01*
X102817311Y-60651945D01*
X102870136Y-60674234D01*
X102927854Y-60697997D01*
X102934944Y-60700878D01*
X103002495Y-60728085D01*
X103056161Y-60749201D01*
X103097624Y-60764797D01*
X103128565Y-60775446D01*
X103150667Y-60781721D01*
X103165611Y-60784194D01*
X103175079Y-60783438D01*
X103176244Y-60783038D01*
X103187498Y-60776614D01*
X103211012Y-60761659D01*
X103245129Y-60739279D01*
X103288186Y-60710583D01*
X103338523Y-60676677D01*
X103394481Y-60638669D01*
X103454398Y-60597667D01*
X103461930Y-60592492D01*
X103521844Y-60551534D01*
X103577715Y-60513775D01*
X103627940Y-60480266D01*
X103670913Y-60452060D01*
X103705031Y-60430208D01*
X103728688Y-60415761D01*
X103740280Y-60409771D01*
X103740871Y-60409667D01*
X103749566Y-60415469D01*
X103768797Y-60432011D01*
X103797192Y-60457993D01*
X103833378Y-60492119D01*
X103875980Y-60533090D01*
X103923627Y-60579608D01*
X103974944Y-60630374D01*
X103986187Y-60641581D01*
X104046287Y-60701729D01*
X104095297Y-60751193D01*
X104134247Y-60791110D01*
X104164170Y-60822618D01*
X104186097Y-60846856D01*
X104201061Y-60864962D01*
X104210093Y-60878073D01*
X104214225Y-60887327D01*
X104214577Y-60893465D01*
X104209001Y-60904789D01*
X104194842Y-60928339D01*
X104173191Y-60962444D01*
X104145139Y-61005433D01*
X104111778Y-61055634D01*
X104074200Y-61111376D01*
X104033495Y-61170989D01*
X104030151Y-61175854D01*
X103975806Y-61255436D01*
X103931420Y-61321675D01*
X103896840Y-61374813D01*
X103871912Y-61415091D01*
X103856485Y-61442748D01*
X103850406Y-61458027D01*
X103850293Y-61459487D01*
X103853806Y-61473304D01*
X103863255Y-61500042D01*
X103877579Y-61537212D01*
X103895714Y-61582329D01*
X103916598Y-61632907D01*
X103939169Y-61686459D01*
X103962363Y-61740498D01*
X103985118Y-61792538D01*
X104006372Y-61840094D01*
X104025062Y-61880677D01*
X104040125Y-61911803D01*
X104050499Y-61930984D01*
X104053676Y-61935400D01*
X104063414Y-61940559D01*
X104084318Y-61947195D01*
X104117324Y-61955515D01*
X104163365Y-61965729D01*
X104223376Y-61978044D01*
X104298292Y-61992668D01*
X104382891Y-62008659D01*
X104453899Y-62022025D01*
X104519779Y-62034617D01*
X104578648Y-62046060D01*
X104628624Y-62055980D01*
X104667823Y-62064004D01*
X104694364Y-62069756D01*
X104706363Y-62072862D01*
X104706741Y-62073042D01*
X104709353Y-62082459D01*
X104711507Y-62107373D01*
X104713212Y-62148046D01*
X104714473Y-62204742D01*
X104715298Y-62277725D01*
X104715693Y-62367257D01*
X104715733Y-62411496D01*
X104715644Y-62497667D01*
X104715344Y-62568383D01*
X104714780Y-62625123D01*
X104713901Y-62669364D01*
X104712658Y-62702585D01*
X104710997Y-62726264D01*
X104708868Y-62741879D01*
X104706220Y-62750907D01*
X104703848Y-62754257D01*
X104693043Y-62758024D01*
X104667515Y-62764409D01*
X104629200Y-62773002D01*
X104580037Y-62783394D01*
X104521963Y-62795175D01*
X104456915Y-62807937D01*
X104386830Y-62821268D01*
X104386169Y-62821392D01*
X104302699Y-62837299D01*
X104230202Y-62851677D01*
X104169741Y-62864293D01*
X104122375Y-62874915D01*
X104089167Y-62883312D01*
X104071177Y-62889250D01*
X104068484Y-62890882D01*
X104061551Y-62902683D01*
X104049699Y-62927929D01*
X104033885Y-62964187D01*
X104015071Y-63009024D01*
X103994216Y-63060004D01*
X103972281Y-63114695D01*
X103950223Y-63170663D01*
X103929005Y-63225473D01*
X103909585Y-63276692D01*
X103892923Y-63321885D01*
X103879980Y-63358621D01*
X103871714Y-63384463D01*
X103869067Y-63396538D01*
X103872656Y-63408667D01*
X103883728Y-63430417D01*
X103902736Y-63462512D01*
X103930134Y-63505675D01*
X103966376Y-63560629D01*
X104011916Y-63628097D01*
X104042633Y-63673052D01*
X104082487Y-63731534D01*
X104119118Y-63785987D01*
X104151447Y-63834757D01*
X104178397Y-63876185D01*
X104198890Y-63908617D01*
X104211849Y-63930395D01*
X104216200Y-63939764D01*
X104210383Y-63948570D01*
X104193793Y-63967893D01*
X104167723Y-63996370D01*
X104133466Y-64032637D01*
X104092313Y-64075330D01*
X104045556Y-64123086D01*
X103994489Y-64174539D01*
X103980602Y-64188417D01*
X103919164Y-64249524D01*
X103868491Y-64299453D01*
X103827537Y-64339157D01*
X103795254Y-64369592D01*
X103770593Y-64391709D01*
X103752508Y-64406463D01*
X103739950Y-64414807D01*
X103731873Y-64417695D01*
X103729086Y-64417354D01*
X103718563Y-64411253D01*
X103695827Y-64396666D01*
X103662593Y-64374739D01*
X103620575Y-64346618D01*
X103571487Y-64313449D01*
X103517045Y-64276379D01*
X103469048Y-64243490D01*
X103411459Y-64204253D01*
X103357707Y-64168274D01*
X103309513Y-64136656D01*
X103268599Y-64110503D01*
X103236686Y-64090919D01*
X103215497Y-64079005D01*
X103207267Y-64075733D01*
X103193792Y-64079562D01*
X103168587Y-64090097D01*
X103134777Y-64105912D01*
X103095485Y-64125581D01*
X103077433Y-64135000D01*
X103037189Y-64155829D01*
X103001567Y-64173456D01*
X102973540Y-64186469D01*
X102956081Y-64193461D01*
X102952450Y-64194267D01*
X102944298Y-64186766D01*
X102931143Y-64164101D01*
X102912863Y-64126026D01*
X102889339Y-64072295D01*
X102873928Y-64035517D01*
X102856902Y-63994393D01*
X102834400Y-63940061D01*
X102807432Y-63874953D01*
X102777005Y-63801505D01*
X102744127Y-63722150D01*
X102709808Y-63639322D01*
X102675056Y-63555456D01*
X102648609Y-63491636D01*
X102617019Y-63415118D01*
X102587506Y-63343063D01*
X102560694Y-63277036D01*
X102537210Y-63218606D01*
X102517678Y-63169339D01*
X102502724Y-63130801D01*
X102492973Y-63104560D01*
X102489049Y-63092182D01*
X102489000Y-63091693D01*
X102495714Y-63078772D01*
X102512831Y-63062645D01*
X102524407Y-63054528D01*
X102623730Y-62984906D01*
X102707260Y-62910982D01*
X102775848Y-62831580D01*
X102830342Y-62745524D01*
X102871593Y-62651635D01*
X102900451Y-62548738D01*
X102904607Y-62528051D01*
X102910144Y-62478784D01*
X102911034Y-62419286D01*
X102907629Y-62355506D01*
X102900280Y-62293391D01*
X102889339Y-62238890D01*
X102887010Y-62230328D01*
X102849629Y-62129089D01*
X102798607Y-62036707D01*
X102735289Y-61954193D01*
X102661017Y-61882564D01*
X102577134Y-61822834D01*
X102484986Y-61776016D01*
X102385914Y-61743127D01*
X102281262Y-61725179D01*
X102213833Y-61722000D01*
X102106385Y-61730125D01*
X102003678Y-61753825D01*
X101907059Y-61792084D01*
X101817868Y-61843888D01*
X101737451Y-61908223D01*
X101667150Y-61984074D01*
X101608309Y-62070427D01*
X101562272Y-62166267D01*
X101540657Y-62230328D01*
X101529105Y-62282821D01*
X101521082Y-62344002D01*
X101516939Y-62407921D01*
X101517028Y-62468632D01*
X101521701Y-62520185D01*
X101523060Y-62528051D01*
X101549656Y-62632795D01*
X101588485Y-62728306D01*
X101640395Y-62815762D01*
X101706237Y-62896339D01*
X101786860Y-62971214D01*
X101883114Y-63041563D01*
X101903260Y-63054528D01*
X101924011Y-63070437D01*
X101936732Y-63085628D01*
X101938667Y-63091693D01*
X101935505Y-63102252D01*
X101926439Y-63126868D01*
X101912093Y-63163974D01*
X101893092Y-63212002D01*
X101870061Y-63269387D01*
X101843626Y-63334561D01*
X101814412Y-63405958D01*
X101783045Y-63482010D01*
X101779058Y-63491636D01*
X101744660Y-63574642D01*
X101709917Y-63658486D01*
X101675840Y-63740733D01*
X101643435Y-63818949D01*
X101613712Y-63890700D01*
X101587678Y-63953553D01*
X101566342Y-64005073D01*
X101553738Y-64035517D01*
X101527241Y-64098068D01*
X101506057Y-64144826D01*
X101490065Y-64176038D01*
X101479144Y-64191949D01*
X101475216Y-64194267D01*
X101463522Y-64190467D01*
X101439913Y-64180006D01*
X101407363Y-64164294D01*
X101368844Y-64144741D01*
X101350233Y-64135000D01*
X101309528Y-64114096D01*
X101272944Y-64096426D01*
X101243604Y-64083414D01*
X101224631Y-64076487D01*
X101220399Y-64075733D01*
X101209481Y-64080398D01*
X101186402Y-64093654D01*
X101152884Y-64114400D01*
X101110649Y-64141531D01*
X101061418Y-64173945D01*
X101006913Y-64210539D01*
X100958618Y-64243490D01*
X100901034Y-64282926D01*
X100847384Y-64319412D01*
X100799380Y-64351801D01*
X100758739Y-64378947D01*
X100727173Y-64399704D01*
X100706398Y-64412925D01*
X100698580Y-64417354D01*
X100692424Y-64416935D01*
X100682335Y-64411557D01*
X100667265Y-64400267D01*
X100646167Y-64382111D01*
X100617992Y-64356136D01*
X100581693Y-64321388D01*
X100536223Y-64276914D01*
X100480534Y-64221759D01*
X100447064Y-64188417D01*
X100395083Y-64136222D01*
X100347077Y-64087369D01*
X100304335Y-64043222D01*
X100268152Y-64005145D01*
X100239819Y-63974502D01*
X100220629Y-63952657D01*
X100211874Y-63940973D01*
X100211467Y-63939764D01*
X100216114Y-63929862D01*
X100229339Y-63907705D01*
X100250063Y-63874950D01*
X100277208Y-63833252D01*
X100309697Y-63784269D01*
X100346451Y-63729655D01*
X100385033Y-63673052D01*
X100436150Y-63598026D01*
X100477707Y-63535931D01*
X100510158Y-63486046D01*
X100533956Y-63447646D01*
X100549557Y-63420009D01*
X100557413Y-63402412D01*
X100558600Y-63396538D01*
X100555498Y-63382897D01*
X100546834Y-63356118D01*
X100533566Y-63318637D01*
X100516655Y-63272886D01*
X100497060Y-63221300D01*
X100475742Y-63166312D01*
X100453660Y-63110357D01*
X100431774Y-63055867D01*
X100411043Y-63005278D01*
X100392429Y-62961023D01*
X100376890Y-62925535D01*
X100365386Y-62901249D01*
X100359183Y-62890882D01*
X100347563Y-62885989D01*
X100320301Y-62878546D01*
X100278458Y-62868784D01*
X100223096Y-62856936D01*
X100155275Y-62843234D01*
X100076057Y-62827909D01*
X100041498Y-62821392D01*
X99971376Y-62808057D01*
X99906272Y-62795289D01*
X99848125Y-62783497D01*
X99798872Y-62773090D01*
X99760449Y-62764479D01*
X99734794Y-62758072D01*
X99723845Y-62754279D01*
X99723818Y-62754257D01*
X99720744Y-62749217D01*
X99718229Y-62738706D01*
X99716220Y-62721245D01*
X99714666Y-62695356D01*
X99713517Y-62659562D01*
X99712721Y-62612384D01*
X99712226Y-62552344D01*
X99711982Y-62477964D01*
X99711933Y-62411496D01*
X99712144Y-62314673D01*
X99712781Y-62234514D01*
X99713851Y-62170756D01*
X99715362Y-62123136D01*
X99717319Y-62091391D01*
X99719731Y-62075256D01*
X99720925Y-62073042D01*
X99731022Y-62070284D01*
X99755889Y-62064835D01*
X99793644Y-62057069D01*
X99842406Y-62047360D01*
X99900290Y-62036082D01*
X99965416Y-62023610D01*
X100035899Y-62010319D01*
X100044775Y-62008659D01*
X100134512Y-61991682D01*
X100208469Y-61977209D01*
X100267579Y-61965031D01*
X100312778Y-61954942D01*
X100345000Y-61946733D01*
X100365179Y-61940195D01*
X100373990Y-61935400D01*
X100381522Y-61923374D01*
X100394292Y-61898117D01*
X100411238Y-61862116D01*
X100431298Y-61817857D01*
X100453410Y-61767827D01*
X100476509Y-61714511D01*
X100499535Y-61660397D01*
X100521424Y-61607970D01*
X100541114Y-61559717D01*
X100557542Y-61518125D01*
X100569646Y-61485680D01*
X100576363Y-61464869D01*
X100577373Y-61459487D01*
X100572959Y-61446399D01*
X100559209Y-61420943D01*
X100535973Y-61382883D01*
X100503104Y-61331986D01*
X100460451Y-61268014D01*
X100407866Y-61190733D01*
X100397652Y-61175854D01*
X100356815Y-61116179D01*
X100318997Y-61060438D01*
X100285288Y-61010270D01*
X100256776Y-60967316D01*
X100234548Y-60933215D01*
X100219694Y-60909609D01*
X100213300Y-60898138D01*
X100213179Y-60897766D01*
X100217964Y-60888062D01*
X100233454Y-60868274D01*
X100258079Y-60839984D01*
X100290267Y-60804771D01*
X100328448Y-60764216D01*
X100371051Y-60719901D01*
X100416506Y-60673405D01*
X100463242Y-60626309D01*
X100509688Y-60580193D01*
X100554273Y-60536639D01*
X100595428Y-60497226D01*
X100631581Y-60463536D01*
X100661162Y-60437149D01*
X100682599Y-60419644D01*
X100694323Y-60412604D01*
X100695327Y-60412581D01*
X100705259Y-60418023D01*
X100727512Y-60432003D01*
X100760465Y-60453448D01*
X100802499Y-60481284D01*
X100851992Y-60514437D01*
X100907327Y-60551833D01*
X100966881Y-60592399D01*
X100974727Y-60597766D01*
X101034797Y-60638749D01*
X101090921Y-60676794D01*
X101141466Y-60710812D01*
X101184798Y-60739715D01*
X101219284Y-60762412D01*
X101243290Y-60777816D01*
X101255181Y-60784838D01*
X101255723Y-60785068D01*
X101267342Y-60783420D01*
X101292069Y-60776044D01*
X101327462Y-60763913D01*
X101371077Y-60747998D01*
X101420470Y-60729273D01*
X101473200Y-60708708D01*
X101526823Y-60687277D01*
X101578895Y-60665951D01*
X101626974Y-60645702D01*
X101668617Y-60627502D01*
X101701380Y-60612325D01*
X101722820Y-60601141D01*
X101729411Y-60596585D01*
X101734390Y-60588217D01*
X101740395Y-60570997D01*
X101747696Y-60543714D01*
X101756566Y-60505155D01*
X101767275Y-60454109D01*
X101780095Y-60389363D01*
X101795299Y-60309706D01*
X101803494Y-60265971D01*
X101816708Y-60194952D01*
X101828890Y-60129161D01*
X101839700Y-60070457D01*
X101848799Y-60020697D01*
X101855847Y-59981737D01*
X101860505Y-59955435D01*
X101862434Y-59943650D01*
X101862467Y-59943255D01*
X101867815Y-59932696D01*
X101875771Y-59923438D01*
X101880892Y-59920004D01*
X101889773Y-59917206D01*
X101904011Y-59914980D01*
X101925203Y-59913265D01*
X101954945Y-59911996D01*
X101994834Y-59911112D01*
X102046467Y-59910550D01*
X102111441Y-59910246D01*
X102191352Y-59910137D01*
X102213833Y-59910134D01*
X102297725Y-59910203D01*
D10*
%TO.C,U3*%
X157756400Y-137464800D02*
X157756400Y-140004800D01*
X154456400Y-149394800D02*
X154456400Y-147134800D01*
X156726400Y-149394800D02*
X156726400Y-147534800D01*
X138726400Y-149394800D02*
X156726400Y-149394800D01*
X138726400Y-98694800D02*
X138726400Y-149394800D01*
X156726400Y-98694800D02*
X138726400Y-98694800D01*
X156726400Y-142634800D02*
X156726400Y-98694800D01*
X156906400Y-145084800D02*
G75*
G03*
X156906400Y-145084800I-900000J0D01*
G01*
X158556400Y-145084800D02*
G75*
G03*
X158556400Y-145084800I-2550000J0D01*
G01*
%TO.C,X1*%
X108138200Y-74370000D02*
G75*
G03*
X103088200Y-74370000I-2525000J0D01*
G01*
X108138200Y-80770000D02*
G75*
G02*
X103088200Y-80770000I-2525000J0D01*
G01*
X103088200Y-80770000D02*
X103088200Y-74370000D01*
X108138200Y-80770000D02*
X108138200Y-74370000D01*
%TO.C,U1*%
X146618000Y-78978000D02*
G75*
G02*
X146618000Y-76978000I0J1000000D01*
G01*
X146618000Y-76978000D02*
X146618000Y-75328000D01*
X146618000Y-75328000D02*
X110938000Y-75328000D01*
X110938000Y-75328000D02*
X110938000Y-80628000D01*
X110938000Y-80628000D02*
X146618000Y-80628000D01*
X146618000Y-80628000D02*
X146618000Y-78978000D01*
%TO.C,U2*%
X121929600Y-148082000D02*
G75*
G03*
X121929600Y-148082000I-2550000J0D01*
G01*
X120279600Y-148082000D02*
G75*
G03*
X120279600Y-148082000I-900000J0D01*
G01*
X120109600Y-145632000D02*
X120109600Y-86592000D01*
X120109600Y-86592000D02*
X97009600Y-86592000D01*
X97009600Y-86592000D02*
X97009600Y-152392000D01*
X97009600Y-152392000D02*
X120109600Y-152392000D01*
X120109600Y-152392000D02*
X120109600Y-150532000D01*
X117829600Y-152392000D02*
X117829600Y-150132000D01*
X121129600Y-140462000D02*
X121129600Y-143002000D01*
%TO.C,R10*%
X136505200Y-94142800D02*
X134665200Y-94142800D01*
X134665200Y-94142800D02*
X134665200Y-97982800D01*
X134665200Y-97982800D02*
X136505200Y-97982800D01*
X136505200Y-97982800D02*
X136505200Y-94142800D01*
X135585200Y-93192800D02*
X135585200Y-94142800D01*
X135585200Y-98932800D02*
X135585200Y-97982800D01*
%TO.C,ACT*%
X154983600Y-90118738D02*
G75*
G02*
X149433600Y-91664030I-2990000J-462D01*
G01*
X154983600Y-90119662D02*
G75*
G03*
X149433600Y-88574370I-2990000J462D01*
G01*
X154493600Y-90119200D02*
G75*
G03*
X154493600Y-90119200I-2500000J0D01*
G01*
X149433600Y-88574200D02*
X149433600Y-91664200D01*
%TO.C,AVR*%
X123231600Y-141824400D02*
X123231600Y-147024400D01*
X133451600Y-141824400D02*
X123231600Y-141824400D01*
X136051600Y-147024400D02*
X123231600Y-147024400D01*
X133451600Y-141824400D02*
X133451600Y-144424400D01*
X133451600Y-144424400D02*
X136051600Y-144424400D01*
X136051600Y-144424400D02*
X136051600Y-147024400D01*
X134721600Y-141824400D02*
X136051600Y-141824400D01*
X136051600Y-141824400D02*
X136051600Y-143154400D01*
%TO.C,PWR*%
X146449200Y-90118738D02*
G75*
G02*
X140899200Y-91664030I-2990000J-462D01*
G01*
X146449200Y-90119662D02*
G75*
G03*
X140899200Y-88574370I-2990000J462D01*
G01*
X145959200Y-90119200D02*
G75*
G03*
X145959200Y-90119200I-2500000J0D01*
G01*
X140899200Y-88574200D02*
X140899200Y-91664200D01*
%TO.C,JP2*%
X154898400Y-76768000D02*
X154898400Y-74108000D01*
X152298400Y-76768000D02*
X154898400Y-76768000D01*
X152298400Y-74108000D02*
X154898400Y-74108000D01*
X152298400Y-76768000D02*
X152298400Y-74108000D01*
X151028400Y-76768000D02*
X149698400Y-76768000D01*
X149698400Y-76768000D02*
X149698400Y-75438000D01*
%TO.C,JP1*%
X154949200Y-81187600D02*
X154949200Y-78527600D01*
X152349200Y-81187600D02*
X154949200Y-81187600D01*
X152349200Y-78527600D02*
X154949200Y-78527600D01*
X152349200Y-81187600D02*
X152349200Y-78527600D01*
X151079200Y-81187600D02*
X149749200Y-81187600D01*
X149749200Y-81187600D02*
X149749200Y-79857600D01*
%TO.C,R9*%
X132689600Y-98932800D02*
X132689600Y-97982800D01*
X132689600Y-93192800D02*
X132689600Y-94142800D01*
X133609600Y-97982800D02*
X133609600Y-94142800D01*
X131769600Y-97982800D02*
X133609600Y-97982800D01*
X131769600Y-94142800D02*
X131769600Y-97982800D01*
X133609600Y-94142800D02*
X131769600Y-94142800D01*
%TO.C,R4*%
X126796800Y-98932800D02*
X126796800Y-97982800D01*
X126796800Y-93192800D02*
X126796800Y-94142800D01*
X127716800Y-97982800D02*
X127716800Y-94142800D01*
X125876800Y-97982800D02*
X127716800Y-97982800D01*
X125876800Y-94142800D02*
X125876800Y-97982800D01*
X127716800Y-94142800D02*
X125876800Y-94142800D01*
%TO.C,R3*%
X129641600Y-98932800D02*
X129641600Y-97982800D01*
X129641600Y-93192800D02*
X129641600Y-94142800D01*
X130561600Y-97982800D02*
X130561600Y-94142800D01*
X128721600Y-97982800D02*
X130561600Y-97982800D01*
X128721600Y-94142800D02*
X128721600Y-97982800D01*
X130561600Y-94142800D02*
X128721600Y-94142800D01*
%TO.C,R2*%
X123901200Y-98932800D02*
X123901200Y-97982800D01*
X123901200Y-93192800D02*
X123901200Y-94142800D01*
X124821200Y-97982800D02*
X124821200Y-94142800D01*
X122981200Y-97982800D02*
X124821200Y-97982800D01*
X122981200Y-94142800D02*
X122981200Y-97982800D01*
X124821200Y-94142800D02*
X122981200Y-94142800D01*
%TO.C,R1*%
X153263600Y-67640000D02*
X153263600Y-66690000D01*
X153263600Y-61900000D02*
X153263600Y-62850000D01*
X154183600Y-66690000D02*
X154183600Y-62850000D01*
X152343600Y-66690000D02*
X154183600Y-66690000D01*
X152343600Y-62850000D02*
X152343600Y-66690000D01*
X154183600Y-62850000D02*
X152343600Y-62850000D01*
%TO.C,C9*%
X130311200Y-83466000D02*
X130311200Y-86206000D01*
X125071200Y-83466000D02*
X125071200Y-86206000D01*
X125071200Y-86206000D02*
X130311200Y-86206000D01*
X125071200Y-83466000D02*
X130311200Y-83466000D01*
%TO.C,C8*%
X124908000Y-72388400D02*
X124908000Y-69648400D01*
X130148000Y-72388400D02*
X130148000Y-69648400D01*
X130148000Y-69648400D02*
X124908000Y-69648400D01*
X130148000Y-72388400D02*
X124908000Y-72388400D01*
%TO.C,C2*%
X101598400Y-71203200D02*
X101598400Y-76443200D01*
X98858400Y-71203200D02*
X98858400Y-76443200D01*
X101598400Y-71203200D02*
X101283400Y-71203200D01*
X99173400Y-71203200D02*
X98858400Y-71203200D01*
X101598400Y-76443200D02*
X101283400Y-76443200D01*
X99173400Y-76443200D02*
X98858400Y-76443200D01*
%TO.C,C1*%
X98858400Y-83940000D02*
X98858400Y-78700000D01*
X101598400Y-83940000D02*
X101598400Y-78700000D01*
X98858400Y-83940000D02*
X99173400Y-83940000D01*
X101283400Y-83940000D02*
X101598400Y-83940000D01*
X98858400Y-78700000D02*
X99173400Y-78700000D01*
X101283400Y-78700000D02*
X101598400Y-78700000D01*
%TO.C,X2*%
X131912600Y-115927600D02*
X131912600Y-122327600D01*
X126862600Y-115927600D02*
X126862600Y-122327600D01*
X126862600Y-122327600D02*
G75*
G03*
X131912600Y-122327600I2525000J0D01*
G01*
X126862600Y-115927600D02*
G75*
G02*
X131912600Y-115927600I2525000J0D01*
G01*
%TO.C,R7*%
X148646400Y-62850000D02*
X146806400Y-62850000D01*
X146806400Y-62850000D02*
X146806400Y-66690000D01*
X146806400Y-66690000D02*
X148646400Y-66690000D01*
X148646400Y-66690000D02*
X148646400Y-62850000D01*
X147726400Y-61900000D02*
X147726400Y-62850000D01*
X147726400Y-67640000D02*
X147726400Y-66690000D01*
%TO.C,R6*%
X151440400Y-62850000D02*
X149600400Y-62850000D01*
X149600400Y-62850000D02*
X149600400Y-66690000D01*
X149600400Y-66690000D02*
X151440400Y-66690000D01*
X151440400Y-66690000D02*
X151440400Y-62850000D01*
X150520400Y-61900000D02*
X150520400Y-62850000D01*
X150520400Y-67640000D02*
X150520400Y-66690000D01*
%TO.C,R5*%
X144114000Y-66690000D02*
X145954000Y-66690000D01*
X145954000Y-66690000D02*
X145954000Y-62850000D01*
X145954000Y-62850000D02*
X144114000Y-62850000D01*
X144114000Y-62850000D02*
X144114000Y-66690000D01*
X145034000Y-67640000D02*
X145034000Y-66690000D01*
X145034000Y-61900000D02*
X145034000Y-62850000D01*
%TO.C,F1*%
X109117200Y-60414800D02*
X117857200Y-60414800D01*
X109117200Y-60414800D02*
X109117200Y-64654800D01*
X117857200Y-64654800D02*
X117857200Y-60414800D01*
X117857200Y-64654800D02*
X109117200Y-64654800D01*
%TO.C,D2*%
X140916800Y-66991600D02*
X143156800Y-66991600D01*
X143156800Y-66991600D02*
X143156800Y-62751600D01*
X143156800Y-62751600D02*
X140916800Y-62751600D01*
X140916800Y-62751600D02*
X140916800Y-66991600D01*
X142036800Y-67641600D02*
X142036800Y-66991600D01*
X142036800Y-62101600D02*
X142036800Y-62751600D01*
X140916800Y-66271600D02*
X143156800Y-66271600D01*
X140916800Y-66151600D02*
X143156800Y-66151600D01*
X140916800Y-66391600D02*
X143156800Y-66391600D01*
%TO.C,D1*%
X137665600Y-66991600D02*
X139905600Y-66991600D01*
X139905600Y-66991600D02*
X139905600Y-62751600D01*
X139905600Y-62751600D02*
X137665600Y-62751600D01*
X137665600Y-62751600D02*
X137665600Y-66991600D01*
X138785600Y-67641600D02*
X138785600Y-66991600D01*
X138785600Y-62101600D02*
X138785600Y-62751600D01*
X137665600Y-66271600D02*
X139905600Y-66271600D01*
X137665600Y-66151600D02*
X139905600Y-66151600D01*
X137665600Y-66391600D02*
X139905600Y-66391600D01*
%TO.C,C11*%
X126727600Y-125731600D02*
X131967600Y-125731600D01*
X126727600Y-128471600D02*
X131967600Y-128471600D01*
X126727600Y-125731600D02*
X126727600Y-126046600D01*
X126727600Y-128156600D02*
X126727600Y-128471600D01*
X131967600Y-125731600D02*
X131967600Y-126046600D01*
X131967600Y-128156600D02*
X131967600Y-128471600D01*
%TO.C,C10*%
X126727600Y-109729600D02*
X131967600Y-109729600D01*
X126727600Y-112469600D02*
X131967600Y-112469600D01*
X126727600Y-109729600D02*
X126727600Y-110044600D01*
X126727600Y-112154600D02*
X126727600Y-112469600D01*
X131967600Y-109729600D02*
X131967600Y-110044600D01*
X131967600Y-112154600D02*
X131967600Y-112469600D01*
%TO.C,C3*%
X115759600Y-68411600D02*
G75*
G03*
X115759600Y-68411600I-2120000J0D01*
G01*
X115719600Y-68411600D02*
X111559600Y-68411600D01*
X115719600Y-68451600D02*
X111559600Y-68451600D01*
X115718600Y-68491600D02*
X111560600Y-68491600D01*
X115716600Y-68531600D02*
X111562600Y-68531600D01*
X115713600Y-68571600D02*
X111565600Y-68571600D01*
X115710600Y-68611600D02*
X114479600Y-68611600D01*
X112799600Y-68611600D02*
X111568600Y-68611600D01*
X115706600Y-68651600D02*
X114479600Y-68651600D01*
X112799600Y-68651600D02*
X111572600Y-68651600D01*
X115701600Y-68691600D02*
X114479600Y-68691600D01*
X112799600Y-68691600D02*
X111577600Y-68691600D01*
X115695600Y-68731600D02*
X114479600Y-68731600D01*
X112799600Y-68731600D02*
X111583600Y-68731600D01*
X115689600Y-68771600D02*
X114479600Y-68771600D01*
X112799600Y-68771600D02*
X111589600Y-68771600D01*
X115681600Y-68811600D02*
X114479600Y-68811600D01*
X112799600Y-68811600D02*
X111597600Y-68811600D01*
X115673600Y-68851600D02*
X114479600Y-68851600D01*
X112799600Y-68851600D02*
X111605600Y-68851600D01*
X115664600Y-68891600D02*
X114479600Y-68891600D01*
X112799600Y-68891600D02*
X111614600Y-68891600D01*
X115655600Y-68931600D02*
X114479600Y-68931600D01*
X112799600Y-68931600D02*
X111623600Y-68931600D01*
X115644600Y-68971600D02*
X114479600Y-68971600D01*
X112799600Y-68971600D02*
X111634600Y-68971600D01*
X115633600Y-69011600D02*
X114479600Y-69011600D01*
X112799600Y-69011600D02*
X111645600Y-69011600D01*
X115621600Y-69051600D02*
X114479600Y-69051600D01*
X112799600Y-69051600D02*
X111657600Y-69051600D01*
X115607600Y-69091600D02*
X114479600Y-69091600D01*
X112799600Y-69091600D02*
X111671600Y-69091600D01*
X115593600Y-69132600D02*
X114479600Y-69132600D01*
X112799600Y-69132600D02*
X111685600Y-69132600D01*
X115579600Y-69172600D02*
X114479600Y-69172600D01*
X112799600Y-69172600D02*
X111699600Y-69172600D01*
X115563600Y-69212600D02*
X114479600Y-69212600D01*
X112799600Y-69212600D02*
X111715600Y-69212600D01*
X115546600Y-69252600D02*
X114479600Y-69252600D01*
X112799600Y-69252600D02*
X111732600Y-69252600D01*
X115528600Y-69292600D02*
X114479600Y-69292600D01*
X112799600Y-69292600D02*
X111750600Y-69292600D01*
X115509600Y-69332600D02*
X114479600Y-69332600D01*
X112799600Y-69332600D02*
X111769600Y-69332600D01*
X115490600Y-69372600D02*
X114479600Y-69372600D01*
X112799600Y-69372600D02*
X111788600Y-69372600D01*
X115469600Y-69412600D02*
X114479600Y-69412600D01*
X112799600Y-69412600D02*
X111809600Y-69412600D01*
X115447600Y-69452600D02*
X114479600Y-69452600D01*
X112799600Y-69452600D02*
X111831600Y-69452600D01*
X115424600Y-69492600D02*
X114479600Y-69492600D01*
X112799600Y-69492600D02*
X111854600Y-69492600D01*
X115399600Y-69532600D02*
X114479600Y-69532600D01*
X112799600Y-69532600D02*
X111879600Y-69532600D01*
X115374600Y-69572600D02*
X114479600Y-69572600D01*
X112799600Y-69572600D02*
X111904600Y-69572600D01*
X115347600Y-69612600D02*
X114479600Y-69612600D01*
X112799600Y-69612600D02*
X111931600Y-69612600D01*
X115319600Y-69652600D02*
X114479600Y-69652600D01*
X112799600Y-69652600D02*
X111959600Y-69652600D01*
X115289600Y-69692600D02*
X114479600Y-69692600D01*
X112799600Y-69692600D02*
X111989600Y-69692600D01*
X115258600Y-69732600D02*
X114479600Y-69732600D01*
X112799600Y-69732600D02*
X112020600Y-69732600D01*
X115226600Y-69772600D02*
X114479600Y-69772600D01*
X112799600Y-69772600D02*
X112052600Y-69772600D01*
X115191600Y-69812600D02*
X114479600Y-69812600D01*
X112799600Y-69812600D02*
X112087600Y-69812600D01*
X115155600Y-69852600D02*
X114479600Y-69852600D01*
X112799600Y-69852600D02*
X112123600Y-69852600D01*
X115117600Y-69892600D02*
X114479600Y-69892600D01*
X112799600Y-69892600D02*
X112161600Y-69892600D01*
X115077600Y-69932600D02*
X114479600Y-69932600D01*
X112799600Y-69932600D02*
X112201600Y-69932600D01*
X115035600Y-69972600D02*
X114479600Y-69972600D01*
X112799600Y-69972600D02*
X112243600Y-69972600D01*
X114990600Y-70012600D02*
X114479600Y-70012600D01*
X112799600Y-70012600D02*
X112288600Y-70012600D01*
X114943600Y-70052600D02*
X114479600Y-70052600D01*
X112799600Y-70052600D02*
X112335600Y-70052600D01*
X114893600Y-70092600D02*
X114479600Y-70092600D01*
X112799600Y-70092600D02*
X112385600Y-70092600D01*
X114839600Y-70132600D02*
X114479600Y-70132600D01*
X112799600Y-70132600D02*
X112439600Y-70132600D01*
X114781600Y-70172600D02*
X114479600Y-70172600D01*
X112799600Y-70172600D02*
X112497600Y-70172600D01*
X114719600Y-70212600D02*
X114479600Y-70212600D01*
X112799600Y-70212600D02*
X112559600Y-70212600D01*
X114652600Y-70252600D02*
X112626600Y-70252600D01*
X114579600Y-70292600D02*
X112699600Y-70292600D01*
X114498600Y-70332600D02*
X112780600Y-70332600D01*
X114407600Y-70372600D02*
X112871600Y-70372600D01*
X114303600Y-70412600D02*
X112975600Y-70412600D01*
X114176600Y-70452600D02*
X113102600Y-70452600D01*
X114009600Y-70492600D02*
X113269600Y-70492600D01*
X114834600Y-66141799D02*
X114834600Y-66541799D01*
X115034600Y-66341799D02*
X114634600Y-66341799D01*
%TO.C,USB1*%
D12*
X125160304Y-56602380D02*
X125160304Y-57411904D01*
X125207923Y-57507142D01*
X125255542Y-57554761D01*
X125350780Y-57602380D01*
X125541257Y-57602380D01*
X125636495Y-57554761D01*
X125684114Y-57507142D01*
X125731733Y-57411904D01*
X125731733Y-56602380D01*
X126160304Y-57554761D02*
X126303161Y-57602380D01*
X126541257Y-57602380D01*
X126636495Y-57554761D01*
X126684114Y-57507142D01*
X126731733Y-57411904D01*
X126731733Y-57316666D01*
X126684114Y-57221428D01*
X126636495Y-57173809D01*
X126541257Y-57126190D01*
X126350780Y-57078571D01*
X126255542Y-57030952D01*
X126207923Y-56983333D01*
X126160304Y-56888095D01*
X126160304Y-56792857D01*
X126207923Y-56697619D01*
X126255542Y-56650000D01*
X126350780Y-56602380D01*
X126588876Y-56602380D01*
X126731733Y-56650000D01*
X127493638Y-57078571D02*
X127636495Y-57126190D01*
X127684114Y-57173809D01*
X127731733Y-57269047D01*
X127731733Y-57411904D01*
X127684114Y-57507142D01*
X127636495Y-57554761D01*
X127541257Y-57602380D01*
X127160304Y-57602380D01*
X127160304Y-56602380D01*
X127493638Y-56602380D01*
X127588876Y-56650000D01*
X127636495Y-56697619D01*
X127684114Y-56792857D01*
X127684114Y-56888095D01*
X127636495Y-56983333D01*
X127588876Y-57030952D01*
X127493638Y-57078571D01*
X127160304Y-57078571D01*
X128684114Y-57602380D02*
X128112685Y-57602380D01*
X128398400Y-57602380D02*
X128398400Y-56602380D01*
X128303161Y-56745238D01*
X128207923Y-56840476D01*
X128112685Y-56888095D01*
%TO.C,U3*%
X147015295Y-119899180D02*
X147015295Y-120708704D01*
X147062914Y-120803942D01*
X147110533Y-120851561D01*
X147205771Y-120899180D01*
X147396247Y-120899180D01*
X147491485Y-120851561D01*
X147539104Y-120803942D01*
X147586723Y-120708704D01*
X147586723Y-119899180D01*
X147967676Y-119899180D02*
X148586723Y-119899180D01*
X148253390Y-120280133D01*
X148396247Y-120280133D01*
X148491485Y-120327752D01*
X148539104Y-120375371D01*
X148586723Y-120470609D01*
X148586723Y-120708704D01*
X148539104Y-120803942D01*
X148491485Y-120851561D01*
X148396247Y-120899180D01*
X148110533Y-120899180D01*
X148015295Y-120851561D01*
X147967676Y-120803942D01*
%TO.C,X1*%
X105014780Y-78379523D02*
X106014780Y-77712857D01*
X105014780Y-77712857D02*
X106014780Y-78379523D01*
X106014780Y-76808095D02*
X106014780Y-77379523D01*
X106014780Y-77093809D02*
X105014780Y-77093809D01*
X105157638Y-77189047D01*
X105252876Y-77284285D01*
X105300495Y-77379523D01*
%TO.C,U1*%
X143673580Y-78841504D02*
X144483104Y-78841504D01*
X144578342Y-78793885D01*
X144625961Y-78746266D01*
X144673580Y-78651028D01*
X144673580Y-78460552D01*
X144625961Y-78365314D01*
X144578342Y-78317695D01*
X144483104Y-78270076D01*
X143673580Y-78270076D01*
X144673580Y-77270076D02*
X144673580Y-77841504D01*
X144673580Y-77555790D02*
X143673580Y-77555790D01*
X143816438Y-77651028D01*
X143911676Y-77746266D01*
X143959295Y-77841504D01*
%TO.C,U2*%
X107797695Y-118883180D02*
X107797695Y-119692704D01*
X107845314Y-119787942D01*
X107892933Y-119835561D01*
X107988171Y-119883180D01*
X108178647Y-119883180D01*
X108273885Y-119835561D01*
X108321504Y-119787942D01*
X108369123Y-119692704D01*
X108369123Y-118883180D01*
X108797695Y-118978419D02*
X108845314Y-118930800D01*
X108940552Y-118883180D01*
X109178647Y-118883180D01*
X109273885Y-118930800D01*
X109321504Y-118978419D01*
X109369123Y-119073657D01*
X109369123Y-119168895D01*
X109321504Y-119311752D01*
X108750076Y-119883180D01*
X109369123Y-119883180D01*
%TO.C,R10*%
X135986780Y-96705657D02*
X135510590Y-97038990D01*
X135986780Y-97277085D02*
X134986780Y-97277085D01*
X134986780Y-96896133D01*
X135034400Y-96800895D01*
X135082019Y-96753276D01*
X135177257Y-96705657D01*
X135320114Y-96705657D01*
X135415352Y-96753276D01*
X135462971Y-96800895D01*
X135510590Y-96896133D01*
X135510590Y-97277085D01*
X135986780Y-95753276D02*
X135986780Y-96324704D01*
X135986780Y-96038990D02*
X134986780Y-96038990D01*
X135129638Y-96134228D01*
X135224876Y-96229466D01*
X135272495Y-96324704D01*
X134986780Y-95134228D02*
X134986780Y-95038990D01*
X135034400Y-94943752D01*
X135082019Y-94896133D01*
X135177257Y-94848514D01*
X135367733Y-94800895D01*
X135605828Y-94800895D01*
X135796304Y-94848514D01*
X135891542Y-94896133D01*
X135939161Y-94943752D01*
X135986780Y-95038990D01*
X135986780Y-95134228D01*
X135939161Y-95229466D01*
X135891542Y-95277085D01*
X135796304Y-95324704D01*
X135605828Y-95372323D01*
X135367733Y-95372323D01*
X135177257Y-95324704D01*
X135082019Y-95277085D01*
X135034400Y-95229466D01*
X134986780Y-95134228D01*
%TO.C,ACT*%
X151026952Y-94756266D02*
X151503142Y-94756266D01*
X150931714Y-95041980D02*
X151265047Y-94041980D01*
X151598380Y-95041980D01*
X152503142Y-94946742D02*
X152455523Y-94994361D01*
X152312666Y-95041980D01*
X152217428Y-95041980D01*
X152074571Y-94994361D01*
X151979333Y-94899123D01*
X151931714Y-94803885D01*
X151884095Y-94613409D01*
X151884095Y-94470552D01*
X151931714Y-94280076D01*
X151979333Y-94184838D01*
X152074571Y-94089600D01*
X152217428Y-94041980D01*
X152312666Y-94041980D01*
X152455523Y-94089600D01*
X152503142Y-94137219D01*
X152788857Y-94041980D02*
X153360285Y-94041980D01*
X153074571Y-95041980D02*
X153074571Y-94041980D01*
%TO.C,AVR*%
X128525733Y-140933466D02*
X129001923Y-140933466D01*
X128430495Y-141219180D02*
X128763828Y-140219180D01*
X129097161Y-141219180D01*
X129287638Y-140219180D02*
X129620971Y-141219180D01*
X129954304Y-140219180D01*
X130859066Y-141219180D02*
X130525733Y-140742990D01*
X130287638Y-141219180D02*
X130287638Y-140219180D01*
X130668590Y-140219180D01*
X130763828Y-140266800D01*
X130811447Y-140314419D01*
X130859066Y-140409657D01*
X130859066Y-140552514D01*
X130811447Y-140647752D01*
X130763828Y-140695371D01*
X130668590Y-140742990D01*
X130287638Y-140742990D01*
%TO.C,PWR*%
X142227466Y-95194380D02*
X142227466Y-94194380D01*
X142608419Y-94194380D01*
X142703657Y-94242000D01*
X142751276Y-94289619D01*
X142798895Y-94384857D01*
X142798895Y-94527714D01*
X142751276Y-94622952D01*
X142703657Y-94670571D01*
X142608419Y-94718190D01*
X142227466Y-94718190D01*
X143132228Y-94194380D02*
X143370323Y-95194380D01*
X143560800Y-94480095D01*
X143751276Y-95194380D01*
X143989371Y-94194380D01*
X144941752Y-95194380D02*
X144608419Y-94718190D01*
X144370323Y-95194380D02*
X144370323Y-94194380D01*
X144751276Y-94194380D01*
X144846514Y-94242000D01*
X144894133Y-94289619D01*
X144941752Y-94384857D01*
X144941752Y-94527714D01*
X144894133Y-94622952D01*
X144846514Y-94670571D01*
X144751276Y-94718190D01*
X144370323Y-94718190D01*
%TO.C,JP2*%
X148093180Y-76271333D02*
X148807466Y-76271333D01*
X148950323Y-76318952D01*
X149045561Y-76414190D01*
X149093180Y-76557047D01*
X149093180Y-76652285D01*
X149093180Y-75795142D02*
X148093180Y-75795142D01*
X148093180Y-75414190D01*
X148140800Y-75318952D01*
X148188419Y-75271333D01*
X148283657Y-75223714D01*
X148426514Y-75223714D01*
X148521752Y-75271333D01*
X148569371Y-75318952D01*
X148616990Y-75414190D01*
X148616990Y-75795142D01*
X148188419Y-74842761D02*
X148140800Y-74795142D01*
X148093180Y-74699904D01*
X148093180Y-74461809D01*
X148140800Y-74366571D01*
X148188419Y-74318952D01*
X148283657Y-74271333D01*
X148378895Y-74271333D01*
X148521752Y-74318952D01*
X149093180Y-74890380D01*
X149093180Y-74271333D01*
%TO.C,JP1*%
X148143980Y-80690933D02*
X148858266Y-80690933D01*
X149001123Y-80738552D01*
X149096361Y-80833790D01*
X149143980Y-80976647D01*
X149143980Y-81071885D01*
X149143980Y-80214742D02*
X148143980Y-80214742D01*
X148143980Y-79833790D01*
X148191600Y-79738552D01*
X148239219Y-79690933D01*
X148334457Y-79643314D01*
X148477314Y-79643314D01*
X148572552Y-79690933D01*
X148620171Y-79738552D01*
X148667790Y-79833790D01*
X148667790Y-80214742D01*
X149143980Y-78690933D02*
X149143980Y-79262361D01*
X149143980Y-78976647D02*
X148143980Y-78976647D01*
X148286838Y-79071885D01*
X148382076Y-79167123D01*
X148429695Y-79262361D01*
%TO.C,R9*%
X133192780Y-96178666D02*
X132716590Y-96512000D01*
X133192780Y-96750095D02*
X132192780Y-96750095D01*
X132192780Y-96369142D01*
X132240400Y-96273904D01*
X132288019Y-96226285D01*
X132383257Y-96178666D01*
X132526114Y-96178666D01*
X132621352Y-96226285D01*
X132668971Y-96273904D01*
X132716590Y-96369142D01*
X132716590Y-96750095D01*
X133192780Y-95702476D02*
X133192780Y-95512000D01*
X133145161Y-95416761D01*
X133097542Y-95369142D01*
X132954685Y-95273904D01*
X132764209Y-95226285D01*
X132383257Y-95226285D01*
X132288019Y-95273904D01*
X132240400Y-95321523D01*
X132192780Y-95416761D01*
X132192780Y-95607238D01*
X132240400Y-95702476D01*
X132288019Y-95750095D01*
X132383257Y-95797714D01*
X132621352Y-95797714D01*
X132716590Y-95750095D01*
X132764209Y-95702476D01*
X132811828Y-95607238D01*
X132811828Y-95416761D01*
X132764209Y-95321523D01*
X132716590Y-95273904D01*
X132621352Y-95226285D01*
%TO.C,R4*%
X127350780Y-96229466D02*
X126874590Y-96562800D01*
X127350780Y-96800895D02*
X126350780Y-96800895D01*
X126350780Y-96419942D01*
X126398400Y-96324704D01*
X126446019Y-96277085D01*
X126541257Y-96229466D01*
X126684114Y-96229466D01*
X126779352Y-96277085D01*
X126826971Y-96324704D01*
X126874590Y-96419942D01*
X126874590Y-96800895D01*
X126684114Y-95372323D02*
X127350780Y-95372323D01*
X126303161Y-95610419D02*
X127017447Y-95848514D01*
X127017447Y-95229466D01*
%TO.C,R3*%
X130144780Y-96331066D02*
X129668590Y-96664400D01*
X130144780Y-96902495D02*
X129144780Y-96902495D01*
X129144780Y-96521542D01*
X129192400Y-96426304D01*
X129240019Y-96378685D01*
X129335257Y-96331066D01*
X129478114Y-96331066D01*
X129573352Y-96378685D01*
X129620971Y-96426304D01*
X129668590Y-96521542D01*
X129668590Y-96902495D01*
X129144780Y-95997733D02*
X129144780Y-95378685D01*
X129525733Y-95712019D01*
X129525733Y-95569161D01*
X129573352Y-95473923D01*
X129620971Y-95426304D01*
X129716209Y-95378685D01*
X129954304Y-95378685D01*
X130049542Y-95426304D01*
X130097161Y-95473923D01*
X130144780Y-95569161D01*
X130144780Y-95854876D01*
X130097161Y-95950114D01*
X130049542Y-95997733D01*
%TO.C,R2*%
X124353580Y-96229466D02*
X123877390Y-96562800D01*
X124353580Y-96800895D02*
X123353580Y-96800895D01*
X123353580Y-96419942D01*
X123401200Y-96324704D01*
X123448819Y-96277085D01*
X123544057Y-96229466D01*
X123686914Y-96229466D01*
X123782152Y-96277085D01*
X123829771Y-96324704D01*
X123877390Y-96419942D01*
X123877390Y-96800895D01*
X123448819Y-95848514D02*
X123401200Y-95800895D01*
X123353580Y-95705657D01*
X123353580Y-95467561D01*
X123401200Y-95372323D01*
X123448819Y-95324704D01*
X123544057Y-95277085D01*
X123639295Y-95277085D01*
X123782152Y-95324704D01*
X124353580Y-95896133D01*
X124353580Y-95277085D01*
%TO.C,R1*%
X153715980Y-64936666D02*
X153239790Y-65270000D01*
X153715980Y-65508095D02*
X152715980Y-65508095D01*
X152715980Y-65127142D01*
X152763600Y-65031904D01*
X152811219Y-64984285D01*
X152906457Y-64936666D01*
X153049314Y-64936666D01*
X153144552Y-64984285D01*
X153192171Y-65031904D01*
X153239790Y-65127142D01*
X153239790Y-65508095D01*
X153715980Y-63984285D02*
X153715980Y-64555714D01*
X153715980Y-64270000D02*
X152715980Y-64270000D01*
X152858838Y-64365238D01*
X152954076Y-64460476D01*
X153001695Y-64555714D01*
%TO.C,C9*%
X131608533Y-85142342D02*
X131560914Y-85189961D01*
X131418057Y-85237580D01*
X131322819Y-85237580D01*
X131179961Y-85189961D01*
X131084723Y-85094723D01*
X131037104Y-84999485D01*
X130989485Y-84809009D01*
X130989485Y-84666152D01*
X131037104Y-84475676D01*
X131084723Y-84380438D01*
X131179961Y-84285200D01*
X131322819Y-84237580D01*
X131418057Y-84237580D01*
X131560914Y-84285200D01*
X131608533Y-84332819D01*
X132084723Y-85237580D02*
X132275200Y-85237580D01*
X132370438Y-85189961D01*
X132418057Y-85142342D01*
X132513295Y-84999485D01*
X132560914Y-84809009D01*
X132560914Y-84428057D01*
X132513295Y-84332819D01*
X132465676Y-84285200D01*
X132370438Y-84237580D01*
X132179961Y-84237580D01*
X132084723Y-84285200D01*
X132037104Y-84332819D01*
X131989485Y-84428057D01*
X131989485Y-84666152D01*
X132037104Y-84761390D01*
X132084723Y-84809009D01*
X132179961Y-84856628D01*
X132370438Y-84856628D01*
X132465676Y-84809009D01*
X132513295Y-84761390D01*
X132560914Y-84666152D01*
%TO.C,C8*%
X131506933Y-71375542D02*
X131459314Y-71423161D01*
X131316457Y-71470780D01*
X131221219Y-71470780D01*
X131078361Y-71423161D01*
X130983123Y-71327923D01*
X130935504Y-71232685D01*
X130887885Y-71042209D01*
X130887885Y-70899352D01*
X130935504Y-70708876D01*
X130983123Y-70613638D01*
X131078361Y-70518400D01*
X131221219Y-70470780D01*
X131316457Y-70470780D01*
X131459314Y-70518400D01*
X131506933Y-70566019D01*
X132078361Y-70899352D02*
X131983123Y-70851733D01*
X131935504Y-70804114D01*
X131887885Y-70708876D01*
X131887885Y-70661257D01*
X131935504Y-70566019D01*
X131983123Y-70518400D01*
X132078361Y-70470780D01*
X132268838Y-70470780D01*
X132364076Y-70518400D01*
X132411695Y-70566019D01*
X132459314Y-70661257D01*
X132459314Y-70708876D01*
X132411695Y-70804114D01*
X132364076Y-70851733D01*
X132268838Y-70899352D01*
X132078361Y-70899352D01*
X131983123Y-70946971D01*
X131935504Y-70994590D01*
X131887885Y-71089828D01*
X131887885Y-71280304D01*
X131935504Y-71375542D01*
X131983123Y-71423161D01*
X132078361Y-71470780D01*
X132268838Y-71470780D01*
X132364076Y-71423161D01*
X132411695Y-71375542D01*
X132459314Y-71280304D01*
X132459314Y-71089828D01*
X132411695Y-70994590D01*
X132364076Y-70946971D01*
X132268838Y-70899352D01*
%TO.C,C2*%
X100585542Y-73979066D02*
X100633161Y-74026685D01*
X100680780Y-74169542D01*
X100680780Y-74264780D01*
X100633161Y-74407638D01*
X100537923Y-74502876D01*
X100442685Y-74550495D01*
X100252209Y-74598114D01*
X100109352Y-74598114D01*
X99918876Y-74550495D01*
X99823638Y-74502876D01*
X99728400Y-74407638D01*
X99680780Y-74264780D01*
X99680780Y-74169542D01*
X99728400Y-74026685D01*
X99776019Y-73979066D01*
X99776019Y-73598114D02*
X99728400Y-73550495D01*
X99680780Y-73455257D01*
X99680780Y-73217161D01*
X99728400Y-73121923D01*
X99776019Y-73074304D01*
X99871257Y-73026685D01*
X99966495Y-73026685D01*
X100109352Y-73074304D01*
X100680780Y-73645733D01*
X100680780Y-73026685D01*
%TO.C,C1*%
X100636342Y-81497466D02*
X100683961Y-81545085D01*
X100731580Y-81687942D01*
X100731580Y-81783180D01*
X100683961Y-81926038D01*
X100588723Y-82021276D01*
X100493485Y-82068895D01*
X100303009Y-82116514D01*
X100160152Y-82116514D01*
X99969676Y-82068895D01*
X99874438Y-82021276D01*
X99779200Y-81926038D01*
X99731580Y-81783180D01*
X99731580Y-81687942D01*
X99779200Y-81545085D01*
X99826819Y-81497466D01*
X100731580Y-80545085D02*
X100731580Y-81116514D01*
X100731580Y-80830800D02*
X99731580Y-80830800D01*
X99874438Y-80926038D01*
X99969676Y-81021276D01*
X100017295Y-81116514D01*
%TO.C,X2*%
X128839980Y-119937123D02*
X129839980Y-119270457D01*
X128839980Y-119270457D02*
X129839980Y-119937123D01*
X128935219Y-118937123D02*
X128887600Y-118889504D01*
X128839980Y-118794266D01*
X128839980Y-118556171D01*
X128887600Y-118460933D01*
X128935219Y-118413314D01*
X129030457Y-118365695D01*
X129125695Y-118365695D01*
X129268552Y-118413314D01*
X129839980Y-118984742D01*
X129839980Y-118365695D01*
%TO.C,R7*%
X148178780Y-64936666D02*
X147702590Y-65270000D01*
X148178780Y-65508095D02*
X147178780Y-65508095D01*
X147178780Y-65127142D01*
X147226400Y-65031904D01*
X147274019Y-64984285D01*
X147369257Y-64936666D01*
X147512114Y-64936666D01*
X147607352Y-64984285D01*
X147654971Y-65031904D01*
X147702590Y-65127142D01*
X147702590Y-65508095D01*
X147178780Y-64603333D02*
X147178780Y-63936666D01*
X148178780Y-64365238D01*
%TO.C,R6*%
X150972780Y-64936666D02*
X150496590Y-65270000D01*
X150972780Y-65508095D02*
X149972780Y-65508095D01*
X149972780Y-65127142D01*
X150020400Y-65031904D01*
X150068019Y-64984285D01*
X150163257Y-64936666D01*
X150306114Y-64936666D01*
X150401352Y-64984285D01*
X150448971Y-65031904D01*
X150496590Y-65127142D01*
X150496590Y-65508095D01*
X149972780Y-64079523D02*
X149972780Y-64270000D01*
X150020400Y-64365238D01*
X150068019Y-64412857D01*
X150210876Y-64508095D01*
X150401352Y-64555714D01*
X150782304Y-64555714D01*
X150877542Y-64508095D01*
X150925161Y-64460476D01*
X150972780Y-64365238D01*
X150972780Y-64174761D01*
X150925161Y-64079523D01*
X150877542Y-64031904D01*
X150782304Y-63984285D01*
X150544209Y-63984285D01*
X150448971Y-64031904D01*
X150401352Y-64079523D01*
X150353733Y-64174761D01*
X150353733Y-64365238D01*
X150401352Y-64460476D01*
X150448971Y-64508095D01*
X150544209Y-64555714D01*
%TO.C,R5*%
X145486380Y-64936666D02*
X145010190Y-65270000D01*
X145486380Y-65508095D02*
X144486380Y-65508095D01*
X144486380Y-65127142D01*
X144534000Y-65031904D01*
X144581619Y-64984285D01*
X144676857Y-64936666D01*
X144819714Y-64936666D01*
X144914952Y-64984285D01*
X144962571Y-65031904D01*
X145010190Y-65127142D01*
X145010190Y-65508095D01*
X144486380Y-64031904D02*
X144486380Y-64508095D01*
X144962571Y-64555714D01*
X144914952Y-64508095D01*
X144867333Y-64412857D01*
X144867333Y-64174761D01*
X144914952Y-64079523D01*
X144962571Y-64031904D01*
X145057809Y-63984285D01*
X145295904Y-63984285D01*
X145391142Y-64031904D01*
X145438761Y-64079523D01*
X145486380Y-64174761D01*
X145486380Y-64412857D01*
X145438761Y-64508095D01*
X145391142Y-64555714D01*
%TO.C,F1*%
X113153866Y-62463371D02*
X112820533Y-62463371D01*
X112820533Y-62987180D02*
X112820533Y-61987180D01*
X113296723Y-61987180D01*
X114201485Y-62987180D02*
X113630057Y-62987180D01*
X113915771Y-62987180D02*
X113915771Y-61987180D01*
X113820533Y-62130038D01*
X113725295Y-62225276D01*
X113630057Y-62272895D01*
%TO.C,D2*%
X142489180Y-65609695D02*
X141489180Y-65609695D01*
X141489180Y-65371600D01*
X141536800Y-65228742D01*
X141632038Y-65133504D01*
X141727276Y-65085885D01*
X141917752Y-65038266D01*
X142060609Y-65038266D01*
X142251085Y-65085885D01*
X142346323Y-65133504D01*
X142441561Y-65228742D01*
X142489180Y-65371600D01*
X142489180Y-65609695D01*
X141584419Y-64657314D02*
X141536800Y-64609695D01*
X141489180Y-64514457D01*
X141489180Y-64276361D01*
X141536800Y-64181123D01*
X141584419Y-64133504D01*
X141679657Y-64085885D01*
X141774895Y-64085885D01*
X141917752Y-64133504D01*
X142489180Y-64704933D01*
X142489180Y-64085885D01*
%TO.C,D1*%
X139237980Y-65609695D02*
X138237980Y-65609695D01*
X138237980Y-65371600D01*
X138285600Y-65228742D01*
X138380838Y-65133504D01*
X138476076Y-65085885D01*
X138666552Y-65038266D01*
X138809409Y-65038266D01*
X138999885Y-65085885D01*
X139095123Y-65133504D01*
X139190361Y-65228742D01*
X139237980Y-65371600D01*
X139237980Y-65609695D01*
X139237980Y-64085885D02*
X139237980Y-64657314D01*
X139237980Y-64371600D02*
X138237980Y-64371600D01*
X138380838Y-64466838D01*
X138476076Y-64562076D01*
X138523695Y-64657314D01*
%TO.C,C11*%
X128744742Y-127458742D02*
X128697123Y-127506361D01*
X128554266Y-127553980D01*
X128459028Y-127553980D01*
X128316171Y-127506361D01*
X128220933Y-127411123D01*
X128173314Y-127315885D01*
X128125695Y-127125409D01*
X128125695Y-126982552D01*
X128173314Y-126792076D01*
X128220933Y-126696838D01*
X128316171Y-126601600D01*
X128459028Y-126553980D01*
X128554266Y-126553980D01*
X128697123Y-126601600D01*
X128744742Y-126649219D01*
X129697123Y-127553980D02*
X129125695Y-127553980D01*
X129411409Y-127553980D02*
X129411409Y-126553980D01*
X129316171Y-126696838D01*
X129220933Y-126792076D01*
X129125695Y-126839695D01*
X130649504Y-127553980D02*
X130078076Y-127553980D01*
X130363790Y-127553980D02*
X130363790Y-126553980D01*
X130268552Y-126696838D01*
X130173314Y-126792076D01*
X130078076Y-126839695D01*
%TO.C,C10*%
X128704742Y-111456742D02*
X128657123Y-111504361D01*
X128514266Y-111551980D01*
X128419028Y-111551980D01*
X128276171Y-111504361D01*
X128180933Y-111409123D01*
X128133314Y-111313885D01*
X128085695Y-111123409D01*
X128085695Y-110980552D01*
X128133314Y-110790076D01*
X128180933Y-110694838D01*
X128276171Y-110599600D01*
X128419028Y-110551980D01*
X128514266Y-110551980D01*
X128657123Y-110599600D01*
X128704742Y-110647219D01*
X129657123Y-111551980D02*
X129085695Y-111551980D01*
X129371409Y-111551980D02*
X129371409Y-110551980D01*
X129276171Y-110694838D01*
X129180933Y-110790076D01*
X129085695Y-110837695D01*
X130276171Y-110551980D02*
X130371409Y-110551980D01*
X130466647Y-110599600D01*
X130514266Y-110647219D01*
X130561885Y-110742457D01*
X130609504Y-110932933D01*
X130609504Y-111171028D01*
X130561885Y-111361504D01*
X130514266Y-111456742D01*
X130466647Y-111504361D01*
X130371409Y-111551980D01*
X130276171Y-111551980D01*
X130180933Y-111504361D01*
X130133314Y-111456742D01*
X130085695Y-111361504D01*
X130038076Y-111171028D01*
X130038076Y-110932933D01*
X130085695Y-110742457D01*
X130133314Y-110647219D01*
X130180933Y-110599600D01*
X130276171Y-110551980D01*
%TO.C,C3*%
X117246742Y-68578266D02*
X117294361Y-68625885D01*
X117341980Y-68768742D01*
X117341980Y-68863980D01*
X117294361Y-69006838D01*
X117199123Y-69102076D01*
X117103885Y-69149695D01*
X116913409Y-69197314D01*
X116770552Y-69197314D01*
X116580076Y-69149695D01*
X116484838Y-69102076D01*
X116389600Y-69006838D01*
X116341980Y-68863980D01*
X116341980Y-68768742D01*
X116389600Y-68625885D01*
X116437219Y-68578266D01*
X116341980Y-68244933D02*
X116341980Y-67625885D01*
X116722933Y-67959219D01*
X116722933Y-67816361D01*
X116770552Y-67721123D01*
X116818171Y-67673504D01*
X116913409Y-67625885D01*
X117151504Y-67625885D01*
X117246742Y-67673504D01*
X117294361Y-67721123D01*
X117341980Y-67816361D01*
X117341980Y-68102076D01*
X117294361Y-68197314D01*
X117246742Y-68244933D01*
%TD*%
M02*
