%TF.GenerationSoftware,KiCad,Pcbnew,(5.1.9)-1*%
%TF.CreationDate,2021-05-29T15:55:51+02:00*%
%TF.ProjectId,flashpad,666c6173-6870-4616-942e-6b696361645f,rev?*%
%TF.SameCoordinates,Original*%
%TF.FileFunction,Legend,Bot*%
%TF.FilePolarity,Positive*%
%FSLAX46Y46*%
G04 Gerber Fmt 4.6, Leading zero omitted, Abs format (unit mm)*
G04 Created by KiCad (PCBNEW (5.1.9)-1) date 2021-05-29 15:55:51*
%MOMM*%
%LPD*%
G01*
G04 APERTURE LIST*
%ADD10C,0.300000*%
%ADD11C,0.010000*%
G04 APERTURE END LIST*
D10*
X115477000Y-144943857D02*
X115477000Y-145915285D01*
X115419857Y-146029571D01*
X115362714Y-146086714D01*
X115248428Y-146143857D01*
X115019857Y-146143857D01*
X114905571Y-146086714D01*
X114848428Y-146029571D01*
X114791285Y-145915285D01*
X114791285Y-144943857D01*
X114277000Y-146086714D02*
X114105571Y-146143857D01*
X113819857Y-146143857D01*
X113705571Y-146086714D01*
X113648428Y-146029571D01*
X113591285Y-145915285D01*
X113591285Y-145801000D01*
X113648428Y-145686714D01*
X113705571Y-145629571D01*
X113819857Y-145572428D01*
X114048428Y-145515285D01*
X114162714Y-145458142D01*
X114219857Y-145401000D01*
X114277000Y-145286714D01*
X114277000Y-145172428D01*
X114219857Y-145058142D01*
X114162714Y-145001000D01*
X114048428Y-144943857D01*
X113762714Y-144943857D01*
X113591285Y-145001000D01*
X112677000Y-145515285D02*
X112505571Y-145572428D01*
X112448428Y-145629571D01*
X112391285Y-145743857D01*
X112391285Y-145915285D01*
X112448428Y-146029571D01*
X112505571Y-146086714D01*
X112619857Y-146143857D01*
X113077000Y-146143857D01*
X113077000Y-144943857D01*
X112677000Y-144943857D01*
X112562714Y-145001000D01*
X112505571Y-145058142D01*
X112448428Y-145172428D01*
X112448428Y-145286714D01*
X112505571Y-145401000D01*
X112562714Y-145458142D01*
X112677000Y-145515285D01*
X113077000Y-145515285D01*
X111362714Y-146143857D02*
X111362714Y-145515285D01*
X111419857Y-145401000D01*
X111534142Y-145343857D01*
X111762714Y-145343857D01*
X111877000Y-145401000D01*
X111362714Y-146086714D02*
X111477000Y-146143857D01*
X111762714Y-146143857D01*
X111877000Y-146086714D01*
X111934142Y-145972428D01*
X111934142Y-145858142D01*
X111877000Y-145743857D01*
X111762714Y-145686714D01*
X111477000Y-145686714D01*
X111362714Y-145629571D01*
X110848428Y-146086714D02*
X110734142Y-146143857D01*
X110505571Y-146143857D01*
X110391285Y-146086714D01*
X110334142Y-145972428D01*
X110334142Y-145915285D01*
X110391285Y-145801000D01*
X110505571Y-145743857D01*
X110677000Y-145743857D01*
X110791285Y-145686714D01*
X110848428Y-145572428D01*
X110848428Y-145515285D01*
X110791285Y-145401000D01*
X110677000Y-145343857D01*
X110505571Y-145343857D01*
X110391285Y-145401000D01*
X109819857Y-145343857D02*
X109819857Y-146543857D01*
X109819857Y-145401000D02*
X109705571Y-145343857D01*
X109477000Y-145343857D01*
X109362714Y-145401000D01*
X109305571Y-145458142D01*
X109248428Y-145572428D01*
X109248428Y-145915285D01*
X109305571Y-146029571D01*
X109362714Y-146086714D01*
X109477000Y-146143857D01*
X109705571Y-146143857D01*
X109819857Y-146086714D01*
X107819857Y-146143857D02*
X107819857Y-144943857D01*
X107419857Y-145801000D01*
X107019857Y-144943857D01*
X107019857Y-146143857D01*
X105934142Y-145343857D02*
X105934142Y-146143857D01*
X106448428Y-145343857D02*
X106448428Y-145972428D01*
X106391285Y-146086714D01*
X106277000Y-146143857D01*
X106105571Y-146143857D01*
X105991285Y-146086714D01*
X105934142Y-146029571D01*
X105191285Y-146143857D02*
X105305571Y-146086714D01*
X105362714Y-145972428D01*
X105362714Y-144943857D01*
X104905571Y-145343857D02*
X104448428Y-145343857D01*
X104734142Y-144943857D02*
X104734142Y-145972428D01*
X104677000Y-146086714D01*
X104562714Y-146143857D01*
X104448428Y-146143857D01*
X104048428Y-146143857D02*
X104048428Y-145343857D01*
X104048428Y-144943857D02*
X104105571Y-145001000D01*
X104048428Y-145058142D01*
X103991285Y-145001000D01*
X104048428Y-144943857D01*
X104048428Y-145058142D01*
X103477000Y-146143857D02*
X103477000Y-144943857D01*
X103019857Y-144943857D01*
X102905571Y-145001000D01*
X102848428Y-145058142D01*
X102791285Y-145172428D01*
X102791285Y-145343857D01*
X102848428Y-145458142D01*
X102905571Y-145515285D01*
X103019857Y-145572428D01*
X103477000Y-145572428D01*
X101762714Y-146143857D02*
X101762714Y-145515285D01*
X101819857Y-145401000D01*
X101934142Y-145343857D01*
X102162714Y-145343857D01*
X102277000Y-145401000D01*
X101762714Y-146086714D02*
X101877000Y-146143857D01*
X102162714Y-146143857D01*
X102277000Y-146086714D01*
X102334142Y-145972428D01*
X102334142Y-145858142D01*
X102277000Y-145743857D01*
X102162714Y-145686714D01*
X101877000Y-145686714D01*
X101762714Y-145629571D01*
X100677000Y-146143857D02*
X100677000Y-144943857D01*
X100677000Y-146086714D02*
X100791285Y-146143857D01*
X101019857Y-146143857D01*
X101134142Y-146086714D01*
X101191285Y-146029571D01*
X101248428Y-145915285D01*
X101248428Y-145572428D01*
X101191285Y-145458142D01*
X101134142Y-145401000D01*
X101019857Y-145343857D01*
X100791285Y-145343857D01*
X100677000Y-145401000D01*
X113191285Y-148243857D02*
X113191285Y-147043857D01*
X113191285Y-147501000D02*
X113077000Y-147443857D01*
X112848428Y-147443857D01*
X112734142Y-147501000D01*
X112677000Y-147558142D01*
X112619857Y-147672428D01*
X112619857Y-148015285D01*
X112677000Y-148129571D01*
X112734142Y-148186714D01*
X112848428Y-148243857D01*
X113077000Y-148243857D01*
X113191285Y-148186714D01*
X112219857Y-147443857D02*
X111934142Y-148243857D01*
X111648428Y-147443857D02*
X111934142Y-148243857D01*
X112048428Y-148529571D01*
X112105571Y-148586714D01*
X112219857Y-148643857D01*
X110277000Y-148243857D02*
X110277000Y-147043857D01*
X110162714Y-147786714D02*
X109819857Y-148243857D01*
X109819857Y-147443857D02*
X110277000Y-147901000D01*
X109305571Y-148243857D02*
X109305571Y-147043857D01*
X109305571Y-147501000D02*
X109191285Y-147443857D01*
X108962714Y-147443857D01*
X108848428Y-147501000D01*
X108791285Y-147558142D01*
X108734142Y-147672428D01*
X108734142Y-148015285D01*
X108791285Y-148129571D01*
X108848428Y-148186714D01*
X108962714Y-148243857D01*
X109191285Y-148243857D01*
X109305571Y-148186714D01*
X108219857Y-147786714D02*
X107305571Y-147786714D01*
X106277000Y-148186714D02*
X106391285Y-148243857D01*
X106619857Y-148243857D01*
X106734142Y-148186714D01*
X106791285Y-148072428D01*
X106791285Y-147615285D01*
X106734142Y-147501000D01*
X106619857Y-147443857D01*
X106391285Y-147443857D01*
X106277000Y-147501000D01*
X106219857Y-147615285D01*
X106219857Y-147729571D01*
X106791285Y-147843857D01*
X105534142Y-148243857D02*
X105648428Y-148186714D01*
X105705571Y-148072428D01*
X105705571Y-147043857D01*
X105077000Y-148243857D02*
X105077000Y-147443857D01*
X105077000Y-147558142D02*
X105019857Y-147501000D01*
X104905571Y-147443857D01*
X104734142Y-147443857D01*
X104619857Y-147501000D01*
X104562714Y-147615285D01*
X104562714Y-148243857D01*
X104562714Y-147615285D02*
X104505571Y-147501000D01*
X104391285Y-147443857D01*
X104219857Y-147443857D01*
X104105571Y-147501000D01*
X104048428Y-147615285D01*
X104048428Y-148243857D01*
X103305571Y-148243857D02*
X103419857Y-148186714D01*
X103477000Y-148129571D01*
X103534142Y-148015285D01*
X103534142Y-147672428D01*
X103477000Y-147558142D01*
X103419857Y-147501000D01*
X103305571Y-147443857D01*
X103134142Y-147443857D01*
X103019857Y-147501000D01*
X102962714Y-147558142D01*
X102905571Y-147672428D01*
X102905571Y-148015285D01*
X102962714Y-148129571D01*
X103019857Y-148186714D01*
X103134142Y-148243857D01*
X103305571Y-148243857D01*
X116791285Y-149543857D02*
X116791285Y-150515285D01*
X116848428Y-150629571D01*
X116905571Y-150686714D01*
X117019857Y-150743857D01*
X117191285Y-150743857D01*
X117305571Y-150686714D01*
X116791285Y-150286714D02*
X116905571Y-150343857D01*
X117134142Y-150343857D01*
X117248428Y-150286714D01*
X117305571Y-150229571D01*
X117362714Y-150115285D01*
X117362714Y-149772428D01*
X117305571Y-149658142D01*
X117248428Y-149601000D01*
X117134142Y-149543857D01*
X116905571Y-149543857D01*
X116791285Y-149601000D01*
X116219857Y-150343857D02*
X116219857Y-149543857D01*
X116219857Y-149143857D02*
X116277000Y-149201000D01*
X116219857Y-149258142D01*
X116162714Y-149201000D01*
X116219857Y-149143857D01*
X116219857Y-149258142D01*
X115819857Y-149543857D02*
X115362714Y-149543857D01*
X115648428Y-149143857D02*
X115648428Y-150172428D01*
X115591285Y-150286714D01*
X115477000Y-150343857D01*
X115362714Y-150343857D01*
X114962714Y-150343857D02*
X114962714Y-149143857D01*
X114448428Y-150343857D02*
X114448428Y-149715285D01*
X114505571Y-149601000D01*
X114619857Y-149543857D01*
X114791285Y-149543857D01*
X114905571Y-149601000D01*
X114962714Y-149658142D01*
X113362714Y-149543857D02*
X113362714Y-150343857D01*
X113877000Y-149543857D02*
X113877000Y-150172428D01*
X113819857Y-150286714D01*
X113705571Y-150343857D01*
X113534142Y-150343857D01*
X113419857Y-150286714D01*
X113362714Y-150229571D01*
X112791285Y-150343857D02*
X112791285Y-149143857D01*
X112791285Y-149601000D02*
X112677000Y-149543857D01*
X112448428Y-149543857D01*
X112334142Y-149601000D01*
X112277000Y-149658142D01*
X112219857Y-149772428D01*
X112219857Y-150115285D01*
X112277000Y-150229571D01*
X112334142Y-150286714D01*
X112448428Y-150343857D01*
X112677000Y-150343857D01*
X112791285Y-150286714D01*
X111705571Y-150229571D02*
X111648428Y-150286714D01*
X111705571Y-150343857D01*
X111762714Y-150286714D01*
X111705571Y-150229571D01*
X111705571Y-150343857D01*
X110619857Y-150286714D02*
X110734142Y-150343857D01*
X110962714Y-150343857D01*
X111077000Y-150286714D01*
X111134142Y-150229571D01*
X111191285Y-150115285D01*
X111191285Y-149772428D01*
X111134142Y-149658142D01*
X111077000Y-149601000D01*
X110962714Y-149543857D01*
X110734142Y-149543857D01*
X110619857Y-149601000D01*
X109934142Y-150343857D02*
X110048428Y-150286714D01*
X110105571Y-150229571D01*
X110162714Y-150115285D01*
X110162714Y-149772428D01*
X110105571Y-149658142D01*
X110048428Y-149601000D01*
X109934142Y-149543857D01*
X109762714Y-149543857D01*
X109648428Y-149601000D01*
X109591285Y-149658142D01*
X109534142Y-149772428D01*
X109534142Y-150115285D01*
X109591285Y-150229571D01*
X109648428Y-150286714D01*
X109762714Y-150343857D01*
X109934142Y-150343857D01*
X109019857Y-150343857D02*
X109019857Y-149543857D01*
X109019857Y-149658142D02*
X108962714Y-149601000D01*
X108848428Y-149543857D01*
X108677000Y-149543857D01*
X108562714Y-149601000D01*
X108505571Y-149715285D01*
X108505571Y-150343857D01*
X108505571Y-149715285D02*
X108448428Y-149601000D01*
X108334142Y-149543857D01*
X108162714Y-149543857D01*
X108048428Y-149601000D01*
X107991285Y-149715285D01*
X107991285Y-150343857D01*
X106562714Y-149086714D02*
X107591285Y-150629571D01*
X106162714Y-150343857D02*
X106162714Y-149143857D01*
X106048428Y-149886714D02*
X105705571Y-150343857D01*
X105705571Y-149543857D02*
X106162714Y-150001000D01*
X105191285Y-150343857D02*
X105191285Y-149143857D01*
X105191285Y-149601000D02*
X105077000Y-149543857D01*
X104848428Y-149543857D01*
X104734142Y-149601000D01*
X104677000Y-149658142D01*
X104619857Y-149772428D01*
X104619857Y-150115285D01*
X104677000Y-150229571D01*
X104734142Y-150286714D01*
X104848428Y-150343857D01*
X105077000Y-150343857D01*
X105191285Y-150286714D01*
X104105571Y-149886714D02*
X103191285Y-149886714D01*
X102162714Y-150286714D02*
X102277000Y-150343857D01*
X102505571Y-150343857D01*
X102619857Y-150286714D01*
X102677000Y-150172428D01*
X102677000Y-149715285D01*
X102619857Y-149601000D01*
X102505571Y-149543857D01*
X102277000Y-149543857D01*
X102162714Y-149601000D01*
X102105571Y-149715285D01*
X102105571Y-149829571D01*
X102677000Y-149943857D01*
X101419857Y-150343857D02*
X101534142Y-150286714D01*
X101591285Y-150172428D01*
X101591285Y-149143857D01*
X100962714Y-150343857D02*
X100962714Y-149543857D01*
X100962714Y-149658142D02*
X100905571Y-149601000D01*
X100791285Y-149543857D01*
X100619857Y-149543857D01*
X100505571Y-149601000D01*
X100448428Y-149715285D01*
X100448428Y-150343857D01*
X100448428Y-149715285D02*
X100391285Y-149601000D01*
X100277000Y-149543857D01*
X100105571Y-149543857D01*
X99991285Y-149601000D01*
X99934142Y-149715285D01*
X99934142Y-150343857D01*
X99191285Y-150343857D02*
X99305571Y-150286714D01*
X99362714Y-150229571D01*
X99419857Y-150115285D01*
X99419857Y-149772428D01*
X99362714Y-149658142D01*
X99305571Y-149601000D01*
X99191285Y-149543857D01*
X99019857Y-149543857D01*
X98905571Y-149601000D01*
X98848428Y-149658142D01*
X98791285Y-149772428D01*
X98791285Y-150115285D01*
X98848428Y-150229571D01*
X98905571Y-150286714D01*
X99019857Y-150343857D01*
X99191285Y-150343857D01*
D11*
%TO.C,G\u002A\u002A\u002A*%
G36*
X99061815Y-61011258D02*
G01*
X98997508Y-61112470D01*
X98995644Y-61116133D01*
X98963456Y-61182476D01*
X98933617Y-61248045D01*
X98915041Y-61292514D01*
X98893122Y-61345811D01*
X98871856Y-61391951D01*
X98867405Y-61400536D01*
X98852978Y-61434808D01*
X98841468Y-61481999D01*
X98831528Y-61549202D01*
X98822307Y-61638084D01*
X98816009Y-61696562D01*
X98809017Y-61747625D01*
X98806599Y-61761555D01*
X98804337Y-61800600D01*
X98806319Y-61862660D01*
X98811683Y-61937266D01*
X98819567Y-62013956D01*
X98829108Y-62082260D01*
X98835978Y-62118037D01*
X98889615Y-62292498D01*
X98968444Y-62465438D01*
X99066512Y-62624970D01*
X99132364Y-62709609D01*
X99178095Y-62762931D01*
X99205181Y-62800386D01*
X99213338Y-62830684D01*
X99202287Y-62862542D01*
X99171744Y-62904671D01*
X99124177Y-62962438D01*
X99068601Y-63031899D01*
X99005641Y-63113510D01*
X98941098Y-63199455D01*
X98880774Y-63281917D01*
X98830470Y-63353079D01*
X98797736Y-63402312D01*
X98713746Y-63509007D01*
X98601479Y-63608489D01*
X98480629Y-63687861D01*
X98416421Y-63724763D01*
X98356971Y-63759605D01*
X98313824Y-63785610D01*
X98309597Y-63788251D01*
X98264647Y-63815577D01*
X98226499Y-63837235D01*
X98225229Y-63837906D01*
X98202512Y-63861286D01*
X98193049Y-63905304D01*
X98192293Y-63930694D01*
X98197927Y-63987739D01*
X98219782Y-64032768D01*
X98246151Y-64064259D01*
X98318846Y-64137686D01*
X98378553Y-64186120D01*
X98430286Y-64213256D01*
X98458503Y-64220673D01*
X98495560Y-64228165D01*
X98512124Y-64234042D01*
X98512134Y-64234617D01*
X98502888Y-64250254D01*
X98480755Y-64288591D01*
X98449611Y-64342897D01*
X98430577Y-64376204D01*
X98387992Y-64450642D01*
X98344349Y-64526665D01*
X98307473Y-64590646D01*
X98299530Y-64604368D01*
X98270841Y-64658097D01*
X98250412Y-64704327D01*
X98243595Y-64728039D01*
X98234580Y-64765295D01*
X98216803Y-64812944D01*
X98214340Y-64818519D01*
X98186136Y-64902886D01*
X98169935Y-64998692D01*
X98165230Y-65098696D01*
X98171513Y-65195659D01*
X98188278Y-65282338D01*
X98215014Y-65351492D01*
X98251215Y-65395881D01*
X98255015Y-65398475D01*
X98296562Y-65417693D01*
X98329557Y-65423118D01*
X98361075Y-65425418D01*
X98371100Y-65430278D01*
X98374993Y-65450354D01*
X98377714Y-65496879D01*
X98378970Y-65562448D01*
X98378727Y-65623498D01*
X98376618Y-65708321D01*
X98371268Y-65770486D01*
X98360121Y-65821199D01*
X98340620Y-65871662D01*
X98310209Y-65933080D01*
X98306424Y-65940341D01*
X98270649Y-66016025D01*
X98246817Y-66081417D01*
X98238109Y-66127707D01*
X98238131Y-66129481D01*
X98255728Y-66190696D01*
X98300656Y-66243943D01*
X98366387Y-66281928D01*
X98378352Y-66286088D01*
X98439888Y-66301358D01*
X98515539Y-66314223D01*
X98591420Y-66322856D01*
X98653642Y-66325437D01*
X98670659Y-66324467D01*
X98693005Y-66323291D01*
X98706617Y-66329882D01*
X98713714Y-66350767D01*
X98716515Y-66392471D01*
X98717238Y-66461477D01*
X98727527Y-66607099D01*
X98755318Y-66749365D01*
X98798163Y-66879986D01*
X98853613Y-66990676D01*
X98887951Y-67039265D01*
X98944913Y-67094717D01*
X99000991Y-67117429D01*
X99059338Y-67108282D01*
X99085886Y-67094791D01*
X99124587Y-67075000D01*
X99146836Y-67075932D01*
X99160127Y-67092392D01*
X99213249Y-67185248D01*
X99258554Y-67256171D01*
X99302316Y-67314025D01*
X99350802Y-67367675D01*
X99365011Y-67382085D01*
X99452140Y-67457949D01*
X99544731Y-67519138D01*
X99633634Y-67560083D01*
X99676944Y-67571828D01*
X99721029Y-67583287D01*
X99781039Y-67602781D01*
X99826147Y-67619305D01*
X99885459Y-67639612D01*
X99928272Y-67643451D01*
X99967848Y-67628712D01*
X100017446Y-67593283D01*
X100024437Y-67587752D01*
X100042939Y-67575915D01*
X100061335Y-67575964D01*
X100086869Y-67591236D01*
X100126789Y-67625068D01*
X100149033Y-67645110D01*
X100215328Y-67714486D01*
X100270841Y-67790208D01*
X100310038Y-67863549D01*
X100327379Y-67925790D01*
X100327404Y-67926094D01*
X100337748Y-67985368D01*
X100357364Y-68051982D01*
X100381835Y-68113691D01*
X100406748Y-68158250D01*
X100414303Y-68167094D01*
X100467692Y-68197085D01*
X100535502Y-68203210D01*
X100610231Y-68187414D01*
X100684378Y-68151649D01*
X100750444Y-68097860D01*
X100770768Y-68074506D01*
X100803496Y-68032145D01*
X100828135Y-67998763D01*
X100834295Y-67989702D01*
X100851620Y-67983659D01*
X100886342Y-67998084D01*
X100932410Y-68027534D01*
X100981972Y-68060857D01*
X101022898Y-68086760D01*
X101042064Y-68097486D01*
X101072318Y-68112253D01*
X101116900Y-68135001D01*
X101129631Y-68141628D01*
X101233083Y-68187525D01*
X101356380Y-68229573D01*
X101485505Y-68263734D01*
X101606436Y-68285970D01*
X101645860Y-68290329D01*
X101721175Y-68292758D01*
X101806211Y-68289300D01*
X101890678Y-68281031D01*
X101964288Y-68269026D01*
X102016752Y-68254363D01*
X102024868Y-68250666D01*
X102058216Y-68244750D01*
X102111731Y-68246528D01*
X102162225Y-68253629D01*
X102291486Y-68271003D01*
X102435166Y-68278064D01*
X102588016Y-68275615D01*
X102744790Y-68264464D01*
X102900238Y-68245411D01*
X103049114Y-68219261D01*
X103186169Y-68186820D01*
X103306155Y-68148890D01*
X103403826Y-68106278D01*
X103473932Y-68059785D01*
X103483057Y-68051228D01*
X103522796Y-68027996D01*
X103571831Y-68018028D01*
X103679571Y-68009769D01*
X103790442Y-67989512D01*
X103897168Y-67959697D01*
X103992472Y-67922759D01*
X104069080Y-67881137D01*
X104119718Y-67837266D01*
X104122586Y-67833518D01*
X104158244Y-67796205D01*
X104206663Y-67768847D01*
X104275584Y-67747981D01*
X104342895Y-67734922D01*
X104396155Y-67724797D01*
X104434375Y-67715307D01*
X104446733Y-67710182D01*
X104466541Y-67701810D01*
X104509699Y-67688540D01*
X104563196Y-67674196D01*
X104648462Y-67646444D01*
X104752425Y-67602857D01*
X104866457Y-67547602D01*
X104981932Y-67484848D01*
X105085567Y-67421788D01*
X105169130Y-67359024D01*
X105258435Y-67277533D01*
X105345266Y-67186083D01*
X105421404Y-67093440D01*
X105478633Y-67008372D01*
X105486672Y-66993824D01*
X105513641Y-66945386D01*
X105536671Y-66917081D01*
X105567160Y-66898845D01*
X105613853Y-66881531D01*
X105688957Y-66843511D01*
X105771495Y-66781396D01*
X105854287Y-66701643D01*
X105930152Y-66610707D01*
X105956292Y-66573634D01*
X106000610Y-66504377D01*
X106047045Y-66427362D01*
X106071999Y-66383617D01*
X106101983Y-66331229D01*
X106122655Y-66302609D01*
X106140027Y-66291329D01*
X106158783Y-66290796D01*
X106217877Y-66281458D01*
X106282299Y-66243171D01*
X106349464Y-66179913D01*
X106416788Y-66095665D01*
X106481686Y-65994408D01*
X106541575Y-65880119D01*
X106593868Y-65756779D01*
X106635983Y-65628368D01*
X106662394Y-65515291D01*
X106673704Y-65464401D01*
X106685120Y-65428173D01*
X106690329Y-65418692D01*
X106698282Y-65393112D01*
X106697152Y-65381936D01*
X106694583Y-65346929D01*
X106696942Y-65297848D01*
X106702914Y-65243871D01*
X106711182Y-65194176D01*
X106720429Y-65157943D01*
X106729338Y-65144349D01*
X106731099Y-65145285D01*
X106769390Y-65161609D01*
X106819257Y-65150242D01*
X106875318Y-65112811D01*
X106892988Y-65096296D01*
X106945962Y-65028834D01*
X106997685Y-64937188D01*
X107043917Y-64830908D01*
X107080423Y-64719543D01*
X107100533Y-64628667D01*
X107105545Y-64580220D01*
X107108816Y-64511897D01*
X107110440Y-64430765D01*
X107110506Y-64343895D01*
X107109106Y-64258354D01*
X107106330Y-64181212D01*
X107102271Y-64119539D01*
X107097020Y-64080402D01*
X107093332Y-64070677D01*
X107093907Y-64057630D01*
X107120165Y-64039344D01*
X107175386Y-64013575D01*
X107179012Y-64012032D01*
X107278574Y-63958172D01*
X107380448Y-63882055D01*
X107385962Y-63877304D01*
X107440448Y-63828462D01*
X107474500Y-63789829D01*
X107487426Y-63755323D01*
X107478531Y-63718867D01*
X107447125Y-63674380D01*
X107392511Y-63615782D01*
X107351439Y-63574442D01*
X107291778Y-63513800D01*
X107251199Y-63468780D01*
X107224236Y-63431677D01*
X107205422Y-63394781D01*
X107189292Y-63350386D01*
X107186552Y-63341943D01*
X107165882Y-63278168D01*
X107146437Y-63218996D01*
X107136287Y-63188657D01*
X107121319Y-63142273D01*
X107110965Y-63106216D01*
X107096767Y-63057635D01*
X107075411Y-62994385D01*
X107050950Y-62927449D01*
X107027436Y-62867813D01*
X107008926Y-62826457D01*
X107005234Y-62819722D01*
X106988634Y-62778859D01*
X106985315Y-62750969D01*
X106979880Y-62716476D01*
X106972382Y-62704465D01*
X106960238Y-62676435D01*
X106978374Y-62653143D01*
X107011012Y-62642019D01*
X107065800Y-62619586D01*
X107104043Y-62579536D01*
X107117090Y-62530936D01*
X107117087Y-62530861D01*
X107109071Y-62498168D01*
X107089290Y-62444455D01*
X107061283Y-62378918D01*
X107045809Y-62345653D01*
X107013532Y-62281018D01*
X106982497Y-62227481D01*
X106946728Y-62176734D01*
X106900249Y-62120470D01*
X106837084Y-62050379D01*
X106820595Y-62032536D01*
X106729654Y-61937874D01*
X106649746Y-61863046D01*
X106572298Y-61800268D01*
X106534513Y-61772856D01*
X106475727Y-61731060D01*
X106426791Y-61695324D01*
X106394892Y-61670940D01*
X106387562Y-61664646D01*
X106384492Y-61640753D01*
X106396503Y-61600154D01*
X106405528Y-61580835D01*
X106426934Y-61506789D01*
X106415690Y-61434352D01*
X106372896Y-61367963D01*
X106346888Y-61343848D01*
X106286238Y-61304153D01*
X106116824Y-61473568D01*
X106121015Y-61479026D01*
X106105401Y-61500397D01*
X106062891Y-61514858D01*
X105999975Y-61521154D01*
X105923148Y-61518036D01*
X105920259Y-61517737D01*
X105840191Y-61512965D01*
X105788258Y-61519897D01*
X105760244Y-61540229D01*
X105751932Y-61575656D01*
X105752297Y-61585215D01*
X105768471Y-61642882D01*
X105810203Y-61696528D01*
X105880008Y-61748393D01*
X105980410Y-61800717D01*
X106009001Y-61813445D01*
X106176539Y-61890843D01*
X106318994Y-61967791D01*
X106444684Y-62049435D01*
X106561927Y-62140917D01*
X106617301Y-62189521D01*
X106680419Y-62248405D01*
X106735985Y-62303242D01*
X106778074Y-62347983D01*
X106800758Y-62376582D01*
X106801005Y-62377001D01*
X106826423Y-62420890D01*
X106774598Y-62400872D01*
X106729933Y-62379286D01*
X106697705Y-62356866D01*
X106667744Y-62343401D01*
X106616778Y-62333853D01*
X106573991Y-62330910D01*
X106502461Y-62333525D01*
X106459726Y-62346209D01*
X106445475Y-62371074D01*
X106459399Y-62410230D01*
X106501185Y-62465790D01*
X106546841Y-62515566D01*
X106618605Y-62599963D01*
X106683144Y-62697565D01*
X106742384Y-62812547D01*
X106798248Y-62949081D01*
X106852662Y-63111340D01*
X106903779Y-63289454D01*
X106938368Y-63410342D01*
X106970629Y-63504844D01*
X107003681Y-63579997D01*
X107040647Y-63642842D01*
X107084648Y-63700417D01*
X107087444Y-63703698D01*
X107169932Y-63800040D01*
X107115875Y-63788670D01*
X107072470Y-63772487D01*
X107033798Y-63738904D01*
X107012220Y-63712530D01*
X106956965Y-63654653D01*
X106900160Y-63619828D01*
X106847499Y-63610268D01*
X106804671Y-63628181D01*
X106801852Y-63630854D01*
X106784344Y-63654899D01*
X106777284Y-63686999D01*
X106779925Y-63736048D01*
X106788296Y-63792139D01*
X106817252Y-63995468D01*
X106834204Y-64186802D01*
X106838917Y-64360632D01*
X106831151Y-64511449D01*
X106822278Y-64577913D01*
X106808806Y-64647844D01*
X106792765Y-64716656D01*
X106776542Y-64775386D01*
X106762526Y-64815071D01*
X106756226Y-64825953D01*
X106744454Y-64816023D01*
X106717391Y-64786462D01*
X106684525Y-64747983D01*
X106645477Y-64703002D01*
X106617335Y-64678789D01*
X106590288Y-64669321D01*
X106555095Y-64668554D01*
X106493670Y-64670792D01*
X106467041Y-64756609D01*
X106452849Y-64820708D01*
X106443236Y-64899309D01*
X106440530Y-64960260D01*
X106438610Y-65048919D01*
X106433222Y-65146620D01*
X106425177Y-65244985D01*
X106415285Y-65335636D01*
X106404352Y-65410194D01*
X106393190Y-65460281D01*
X106391866Y-65464266D01*
X106376894Y-65517101D01*
X106364165Y-65578690D01*
X106362455Y-65589516D01*
X106353559Y-65636291D01*
X106343981Y-65667390D01*
X106341013Y-65672219D01*
X106328417Y-65694302D01*
X106312104Y-65733773D01*
X106310332Y-65738662D01*
X106289512Y-65787094D01*
X106259692Y-65845593D01*
X106245294Y-65871063D01*
X106200104Y-65947854D01*
X106185430Y-65901151D01*
X106164610Y-65852469D01*
X106134062Y-65826306D01*
X106090339Y-65813153D01*
X106051089Y-65810823D01*
X106024353Y-65829873D01*
X106011794Y-65847724D01*
X105988915Y-65894628D01*
X105969802Y-65951915D01*
X105967460Y-65961536D01*
X105952209Y-66016070D01*
X105934464Y-66062725D01*
X105931109Y-66069504D01*
X105912253Y-66109541D01*
X105889596Y-66163608D01*
X105881549Y-66184233D01*
X105860730Y-66226590D01*
X105824794Y-66287966D01*
X105779049Y-66360369D01*
X105728807Y-66435806D01*
X105679379Y-66506286D01*
X105636076Y-66563819D01*
X105606466Y-66598186D01*
X105572195Y-66612431D01*
X105550791Y-66606124D01*
X105517498Y-66600455D01*
X105499837Y-66609185D01*
X105483129Y-66629625D01*
X105452905Y-66669834D01*
X105413681Y-66723472D01*
X105369979Y-66784203D01*
X105326313Y-66845689D01*
X105287204Y-66901591D01*
X105257167Y-66945573D01*
X105240722Y-66971295D01*
X105238954Y-66975154D01*
X105227269Y-66989662D01*
X105195768Y-67021843D01*
X105149783Y-67066688D01*
X105094644Y-67119188D01*
X105035684Y-67174333D01*
X104978232Y-67227110D01*
X104927620Y-67272512D01*
X104889180Y-67305528D01*
X104877498Y-67314838D01*
X104801996Y-67363142D01*
X104701759Y-67414187D01*
X104585289Y-67464827D01*
X104461086Y-67511914D01*
X104337650Y-67552299D01*
X104223481Y-67582835D01*
X104127082Y-67600375D01*
X104099823Y-67602820D01*
X104031307Y-67611579D01*
X103961263Y-67628266D01*
X103901174Y-67649487D01*
X103862521Y-67671849D01*
X103860819Y-67673467D01*
X103841036Y-67707666D01*
X103839792Y-67733327D01*
X103840548Y-67750657D01*
X103826651Y-67763455D01*
X103791480Y-67775344D01*
X103741485Y-67787091D01*
X103682547Y-67796109D01*
X103600504Y-67803416D01*
X103506100Y-67808281D01*
X103410082Y-67809964D01*
X103407724Y-67809959D01*
X103264991Y-67812423D01*
X103151857Y-67820562D01*
X103069372Y-67834224D01*
X103018581Y-67853252D01*
X103002394Y-67869798D01*
X103005259Y-67899302D01*
X103028634Y-67931916D01*
X103062325Y-67956463D01*
X103087284Y-67962865D01*
X103111666Y-67969628D01*
X103115622Y-67976613D01*
X103099830Y-67989773D01*
X103056952Y-68003345D01*
X102993734Y-68016246D01*
X102916925Y-68027393D01*
X102833273Y-68035702D01*
X102749524Y-68040091D01*
X102717583Y-68040507D01*
X102633081Y-68039203D01*
X102547647Y-68035689D01*
X102468493Y-68030516D01*
X102402835Y-68024236D01*
X102357884Y-68017401D01*
X102341511Y-68011744D01*
X102323119Y-68005670D01*
X102281340Y-67995820D01*
X102237593Y-67986793D01*
X102156667Y-67963293D01*
X102061594Y-67923842D01*
X101964358Y-67874034D01*
X101876937Y-67819466D01*
X101872121Y-67816061D01*
X101820390Y-67791627D01*
X101764790Y-67782070D01*
X101763193Y-67782106D01*
X101720803Y-67789713D01*
X101699046Y-67812217D01*
X101696673Y-67854117D01*
X101712440Y-67919909D01*
X101719176Y-67940936D01*
X101749171Y-68031539D01*
X101693751Y-68035248D01*
X101571137Y-68029168D01*
X101439083Y-67994725D01*
X101296399Y-67931374D01*
X101141898Y-67838568D01*
X100974390Y-67715761D01*
X100942358Y-67690097D01*
X100876310Y-67638656D01*
X100813873Y-67593771D01*
X100763000Y-67560957D01*
X100736233Y-67547200D01*
X100682165Y-67539145D01*
X100643207Y-67560694D01*
X100620584Y-67610554D01*
X100615120Y-67674295D01*
X100613192Y-67740141D01*
X100606427Y-67805344D01*
X100596325Y-67861348D01*
X100584385Y-67899598D01*
X100573526Y-67911776D01*
X100559740Y-67897263D01*
X100549180Y-67865870D01*
X100537758Y-67827416D01*
X100516900Y-67770281D01*
X100491067Y-67706663D01*
X100490411Y-67705132D01*
X100471759Y-67662647D01*
X100454260Y-67628165D01*
X100433644Y-67596530D01*
X100405635Y-67562588D01*
X100365959Y-67521184D01*
X100310344Y-67467161D01*
X100234513Y-67395366D01*
X100230277Y-67391371D01*
X100124449Y-67294305D01*
X100037703Y-67221549D01*
X99967160Y-67171635D01*
X99909940Y-67143092D01*
X99863163Y-67134450D01*
X99823951Y-67144240D01*
X99792457Y-67167884D01*
X99771246Y-67198079D01*
X99771944Y-67232926D01*
X99782178Y-67261979D01*
X99795459Y-67302776D01*
X99797649Y-67329042D01*
X99796218Y-67331754D01*
X99778211Y-67327684D01*
X99741013Y-67305924D01*
X99690889Y-67271122D01*
X99634109Y-67227921D01*
X99576941Y-67180967D01*
X99525651Y-67134902D01*
X99510243Y-67119844D01*
X99442513Y-67039260D01*
X99374334Y-66936040D01*
X99312024Y-66820734D01*
X99263276Y-66707610D01*
X99231788Y-66629713D01*
X99204664Y-66580557D01*
X99178449Y-66555934D01*
X99149690Y-66551636D01*
X99137580Y-66554394D01*
X99107447Y-66566183D01*
X99089203Y-66584270D01*
X99079767Y-66616436D01*
X99076058Y-66670461D01*
X99075351Y-66711571D01*
X99071066Y-66788511D01*
X99060645Y-66838854D01*
X99044913Y-66860117D01*
X99028123Y-66853617D01*
X99013958Y-66822331D01*
X99002583Y-66763808D01*
X98994205Y-66684582D01*
X98989030Y-66591183D01*
X98987264Y-66490144D01*
X98989118Y-66387996D01*
X98994794Y-66291271D01*
X99004501Y-66206502D01*
X99007128Y-66190509D01*
X99021802Y-66091727D01*
X99025773Y-66020389D01*
X99018942Y-65971779D01*
X99001822Y-65941797D01*
X98976634Y-65928947D01*
X98941597Y-65936213D01*
X98892299Y-65965394D01*
X98834164Y-66010182D01*
X98756999Y-66062499D01*
X98680677Y-66094815D01*
X98613061Y-66104288D01*
X98585799Y-66099827D01*
X98567422Y-66088926D01*
X98564468Y-66066390D01*
X98576463Y-66023617D01*
X98580904Y-66011073D01*
X98599223Y-65963477D01*
X98614075Y-65930482D01*
X98618934Y-65922725D01*
X98632993Y-65893495D01*
X98646199Y-65840571D01*
X98657078Y-65774118D01*
X98664155Y-65704304D01*
X98665955Y-65641295D01*
X98664012Y-65611977D01*
X98655877Y-65520640D01*
X98652031Y-65421302D01*
X98652331Y-65323000D01*
X98656630Y-65234770D01*
X98664786Y-65165649D01*
X98671611Y-65136671D01*
X98695111Y-65048499D01*
X98704895Y-64973892D01*
X98701432Y-64917005D01*
X98685190Y-64881994D01*
X98656640Y-64873016D01*
X98642393Y-64877413D01*
X98617402Y-64899595D01*
X98581745Y-64945627D01*
X98539838Y-65009034D01*
X98496098Y-65083341D01*
X98474060Y-65124208D01*
X98450897Y-65165391D01*
X98433646Y-65190335D01*
X98429221Y-65193753D01*
X98425268Y-65178488D01*
X98424158Y-65139197D01*
X98425282Y-65102958D01*
X98437340Y-65019574D01*
X98463848Y-64918479D01*
X98501091Y-64810551D01*
X98545357Y-64706664D01*
X98588405Y-64625153D01*
X98620768Y-64568738D01*
X98646475Y-64519718D01*
X98659726Y-64489314D01*
X98666359Y-64472808D01*
X98679165Y-64448960D01*
X98700197Y-64414673D01*
X98731502Y-64366852D01*
X98775133Y-64302400D01*
X98833139Y-64218222D01*
X98907570Y-64111221D01*
X98956145Y-64041672D01*
X99005593Y-63969464D01*
X99047114Y-63906018D01*
X99077165Y-63856964D01*
X99092202Y-63827936D01*
X99093265Y-63823698D01*
X99081071Y-63797959D01*
X99055944Y-63772397D01*
X99016878Y-63757138D01*
X98968070Y-63767324D01*
X98907174Y-63804071D01*
X98831847Y-63868495D01*
X98810213Y-63889322D01*
X98760584Y-63935144D01*
X98715998Y-63971341D01*
X98684979Y-63991077D01*
X98681806Y-63992262D01*
X98648755Y-63994394D01*
X98600620Y-63989790D01*
X98551891Y-63980740D01*
X98517056Y-63969532D01*
X98510505Y-63965212D01*
X98520338Y-63954678D01*
X98552486Y-63934728D01*
X98579359Y-63920316D01*
X98639513Y-63881394D01*
X98712001Y-63822265D01*
X98789467Y-63750272D01*
X98864552Y-63672762D01*
X98929900Y-63597079D01*
X98978152Y-63530569D01*
X98989785Y-63510544D01*
X99045271Y-63418917D01*
X99123435Y-63309789D01*
X99221046Y-63187462D01*
X99310785Y-63083189D01*
X99420538Y-62959456D01*
X99451831Y-62990749D01*
X99504762Y-63029270D01*
X99584070Y-63068757D01*
X99682420Y-63106984D01*
X99792470Y-63141727D01*
X99906884Y-63170758D01*
X100018324Y-63191851D01*
X100119451Y-63202781D01*
X100154258Y-63203808D01*
X100252231Y-63200598D01*
X100355439Y-63191605D01*
X100451941Y-63178249D01*
X100529796Y-63161953D01*
X100546224Y-63157183D01*
X100592994Y-63144433D01*
X100624803Y-63139593D01*
X100631749Y-63140931D01*
X100637896Y-63161350D01*
X100643893Y-63203402D01*
X100645993Y-63226044D01*
X100651215Y-63274026D01*
X100657421Y-63306007D01*
X100659976Y-63311870D01*
X100667699Y-63332562D01*
X100677940Y-63374412D01*
X100682411Y-63396398D01*
X100716046Y-63523444D01*
X100769562Y-63665636D01*
X100838819Y-63814242D01*
X100919680Y-63960531D01*
X101008007Y-64095770D01*
X101024747Y-64118762D01*
X101164517Y-64281807D01*
X101327468Y-64427918D01*
X101508036Y-64553609D01*
X101700654Y-64655398D01*
X101899757Y-64729800D01*
X102061166Y-64767465D01*
X102162482Y-64779879D01*
X102273501Y-64785779D01*
X102386460Y-64785512D01*
X102493593Y-64779425D01*
X102587143Y-64767864D01*
X102659343Y-64751178D01*
X102688072Y-64739451D01*
X102731567Y-64722647D01*
X102759089Y-64717359D01*
X102799248Y-64705906D01*
X102859202Y-64678131D01*
X102931835Y-64638270D01*
X103010028Y-64590559D01*
X103086666Y-64539234D01*
X103154631Y-64488532D01*
X103182377Y-64465404D01*
X103293901Y-64354246D01*
X103397625Y-64225460D01*
X103482486Y-64092995D01*
X103492679Y-64074100D01*
X103531775Y-63988533D01*
X103571448Y-63882943D01*
X103607268Y-63770801D01*
X103634800Y-63665577D01*
X103646036Y-63608023D01*
X103660662Y-63460805D01*
X103661860Y-63300720D01*
X103650369Y-63139801D01*
X103626926Y-62990087D01*
X103602328Y-62893628D01*
X103583161Y-62830540D01*
X103568232Y-62778466D01*
X103560321Y-62747163D01*
X103559860Y-62744516D01*
X103550116Y-62714617D01*
X103527966Y-62662773D01*
X103497174Y-62596793D01*
X103461504Y-62524490D01*
X103424719Y-62453674D01*
X103390583Y-62392159D01*
X103387707Y-62387240D01*
X103353862Y-62336753D01*
X103304082Y-62271239D01*
X103245802Y-62200184D01*
X103200954Y-62148927D01*
X103139079Y-62078140D01*
X103098576Y-62026580D01*
X103093700Y-62018226D01*
X102927431Y-62184495D01*
X103016419Y-62276512D01*
X103097965Y-62372047D01*
X103163931Y-62462501D01*
X103181736Y-62491205D01*
X103225638Y-62569993D01*
X103266149Y-62649577D01*
X103299752Y-62722368D01*
X103322936Y-62780778D01*
X103332098Y-62815919D01*
X103341578Y-62852057D01*
X103350634Y-62866398D01*
X103365341Y-62894493D01*
X103381553Y-62945816D01*
X103396477Y-63010003D01*
X103407325Y-63076690D01*
X103407394Y-63077254D01*
X103413713Y-63129860D01*
X103421315Y-63193871D01*
X103423800Y-63214959D01*
X103431386Y-63406275D01*
X103410614Y-63596474D01*
X103363240Y-63780085D01*
X103291015Y-63951636D01*
X103195693Y-64105656D01*
X103104148Y-64212410D01*
X103040409Y-64272670D01*
X102970137Y-64333313D01*
X102906915Y-64382700D01*
X102897771Y-64389192D01*
X102763700Y-64464257D01*
X102608982Y-64519877D01*
X102441876Y-64554255D01*
X102270637Y-64565599D01*
X102129923Y-64556050D01*
X101999616Y-64527044D01*
X101854484Y-64474503D01*
X101701092Y-64401150D01*
X101565690Y-64322301D01*
X101491233Y-64267663D01*
X101407689Y-64194155D01*
X101321949Y-64109098D01*
X101240913Y-64019815D01*
X101171477Y-63933625D01*
X101120536Y-63857851D01*
X101110102Y-63838662D01*
X101079895Y-63782216D01*
X101052083Y-63735852D01*
X101033715Y-63710838D01*
X101012147Y-63675502D01*
X101001748Y-63641880D01*
X100989240Y-63597587D01*
X100968125Y-63543897D01*
X100962523Y-63531758D01*
X100922399Y-63421691D01*
X100894212Y-63289527D01*
X100877958Y-63143241D01*
X100873629Y-62990807D01*
X100881222Y-62840204D01*
X100900727Y-62699409D01*
X100932141Y-62576395D01*
X100963317Y-62500982D01*
X100989664Y-62444884D01*
X101016861Y-62379931D01*
X101024426Y-62360188D01*
X101055994Y-62301781D01*
X101109015Y-62231776D01*
X101177435Y-62155827D01*
X101255192Y-62079591D01*
X101336231Y-62008720D01*
X101414493Y-61948872D01*
X101483921Y-61905700D01*
X101532230Y-61886151D01*
X101573003Y-61873649D01*
X101586375Y-61868454D01*
X101696419Y-61827652D01*
X101802780Y-61802869D01*
X101919404Y-61791462D01*
X102000507Y-61789939D01*
X102085877Y-61792050D01*
X102165678Y-61797351D01*
X102229734Y-61804984D01*
X102262224Y-61812006D01*
X102322500Y-61830945D01*
X102381231Y-61848976D01*
X102387783Y-61850948D01*
X102451365Y-61875479D01*
X102535051Y-61915863D01*
X102631419Y-61968219D01*
X102733049Y-62028668D01*
X102759681Y-62045399D01*
X102839139Y-62104592D01*
X102927431Y-62184495D01*
X103093700Y-62018226D01*
X103080661Y-61995877D01*
X103080956Y-61988394D01*
X103100005Y-61973141D01*
X103139274Y-61943285D01*
X103191646Y-61904212D01*
X103215151Y-61886852D01*
X103368607Y-61753182D01*
X103499587Y-61596061D01*
X103604440Y-61420189D01*
X103641636Y-61337401D01*
X103695168Y-61188867D01*
X103728994Y-61056372D01*
X103738940Y-60989101D01*
X103748677Y-60890350D01*
X103895324Y-60877004D01*
X103959556Y-60873005D01*
X104049276Y-60869973D01*
X104156117Y-60868059D01*
X104271711Y-60867417D01*
X104384135Y-60868149D01*
X104501729Y-60869357D01*
X104590591Y-60869139D01*
X104655842Y-60866998D01*
X104702601Y-60862436D01*
X104735990Y-60854954D01*
X104761131Y-60844055D01*
X104782977Y-60829369D01*
X104828749Y-60798881D01*
X104853912Y-60791815D01*
X104856711Y-60807659D01*
X104836157Y-60844799D01*
X104793197Y-60892017D01*
X104726528Y-60946329D01*
X104643770Y-61001985D01*
X104576135Y-61040933D01*
X104521146Y-61077634D01*
X104498828Y-61112404D01*
X104508225Y-61147371D01*
X104521585Y-61162808D01*
X104555515Y-61182793D01*
X104607691Y-61190015D01*
X104658394Y-61188396D01*
X104953684Y-61183826D01*
X105255337Y-61210817D01*
X105559077Y-61268780D01*
X105847274Y-61352540D01*
X105911912Y-61376339D01*
X105978652Y-61403791D01*
X106040028Y-61431447D01*
X106088574Y-61455855D01*
X106116824Y-61473568D01*
X106286238Y-61304153D01*
X106285989Y-61303990D01*
X106197704Y-61259577D01*
X106087821Y-61212879D01*
X105962127Y-61166159D01*
X105826407Y-61121687D01*
X105686448Y-61081729D01*
X105660715Y-61075054D01*
X105589368Y-61056239D01*
X105531003Y-61039698D01*
X105492971Y-61027583D01*
X105482355Y-61022859D01*
X105459983Y-61016739D01*
X105440511Y-61016936D01*
X105404731Y-61011604D01*
X105390831Y-61003177D01*
X105367215Y-60994027D01*
X105318712Y-60984113D01*
X105254213Y-60975115D01*
X105227372Y-60972288D01*
X105080728Y-60958212D01*
X105103216Y-60913986D01*
X105132840Y-60831650D01*
X105143731Y-60744757D01*
X105136533Y-60662161D01*
X105111891Y-60592718D01*
X105076743Y-60549880D01*
X105053318Y-60538277D01*
X105019940Y-60535683D01*
X104971649Y-60542964D01*
X104903488Y-60560989D01*
X104810495Y-60590623D01*
X104774791Y-60602663D01*
X104706033Y-60622467D01*
X104629228Y-60636828D01*
X104538222Y-60646357D01*
X104426857Y-60651657D01*
X104288980Y-60653339D01*
X104261772Y-60653307D01*
X104161180Y-60653761D01*
X104059921Y-60655482D01*
X103969066Y-60658204D01*
X103899690Y-60661666D01*
X103893407Y-60662112D01*
X103830647Y-60665162D01*
X103781540Y-60664536D01*
X103755372Y-60660410D01*
X103753937Y-60659440D01*
X103746203Y-60637274D01*
X103738314Y-60591857D01*
X103732884Y-60542598D01*
X103725556Y-60484607D01*
X103715525Y-60439855D01*
X103706788Y-60420712D01*
X103692045Y-60392377D01*
X103682540Y-60353466D01*
X103669284Y-60306927D01*
X103641853Y-60240471D01*
X103604486Y-60162606D01*
X103561424Y-60081837D01*
X103516906Y-60006670D01*
X103488113Y-59963310D01*
X103419232Y-59879533D01*
X103329089Y-59789980D01*
X103316611Y-59779360D01*
X103165617Y-59930353D01*
X103233583Y-60001224D01*
X103296636Y-60071215D01*
X103341666Y-60126054D01*
X103374691Y-60174441D01*
X103401733Y-60225074D01*
X103425285Y-60278217D01*
X103490174Y-60452855D01*
X103530611Y-60612928D01*
X103547756Y-60766032D01*
X103542764Y-60919763D01*
X103533776Y-60990069D01*
X103490683Y-61163370D01*
X103417622Y-61331835D01*
X103318465Y-61489321D01*
X103197086Y-61629682D01*
X103057356Y-61746775D01*
X103056326Y-61747495D01*
X102980263Y-61798788D01*
X102925440Y-61830526D01*
X102886921Y-61844645D01*
X102859769Y-61843078D01*
X102842374Y-61831297D01*
X102812045Y-61809112D01*
X102759113Y-61777837D01*
X102692075Y-61741802D01*
X102619422Y-61705337D01*
X102549649Y-61672767D01*
X102491251Y-61648423D01*
X102467446Y-61640224D01*
X102405126Y-61624005D01*
X102341539Y-61610915D01*
X102340424Y-61610728D01*
X102296667Y-61601680D01*
X102269466Y-61592800D01*
X102266872Y-61591057D01*
X102244323Y-61583770D01*
X102196175Y-61576418D01*
X102130685Y-61569781D01*
X102056108Y-61564636D01*
X101980703Y-61561761D01*
X101952312Y-61561421D01*
X101854297Y-61565414D01*
X101755783Y-61576773D01*
X101668690Y-61593738D01*
X101611136Y-61611833D01*
X101570018Y-61623776D01*
X101551083Y-61612894D01*
X101549067Y-61579699D01*
X101546451Y-61546935D01*
X101540815Y-61535526D01*
X101531285Y-61512806D01*
X101521725Y-61470497D01*
X101519675Y-61457820D01*
X101502105Y-61391489D01*
X101468304Y-61306703D01*
X101422539Y-61211976D01*
X101369073Y-61115817D01*
X101312166Y-61026738D01*
X101284813Y-60988906D01*
X101239303Y-60926612D01*
X101211527Y-60880790D01*
X101197099Y-60842267D01*
X101194947Y-60826367D01*
X101022091Y-60999222D01*
X101143025Y-61150602D01*
X101242402Y-61325459D01*
X101318709Y-61522317D01*
X101347128Y-61625980D01*
X101351023Y-61674682D01*
X101332214Y-61706706D01*
X101329037Y-61709357D01*
X101263685Y-61764110D01*
X101189780Y-61830512D01*
X101113134Y-61902849D01*
X101039555Y-61975405D01*
X100974853Y-62042463D01*
X100924839Y-62098309D01*
X100897260Y-62134144D01*
X100834456Y-62238687D01*
X100778777Y-62346033D01*
X100735473Y-62445476D01*
X100715013Y-62505775D01*
X100698868Y-62562349D01*
X100684804Y-62610621D01*
X100679975Y-62626732D01*
X100665234Y-62686389D01*
X100652610Y-62756936D01*
X100644879Y-62821390D01*
X100643721Y-62848508D01*
X100639723Y-62882945D01*
X100623193Y-62908598D01*
X100588442Y-62929319D01*
X100529779Y-62948961D01*
X100473865Y-62963536D01*
X100279595Y-62994870D01*
X100086402Y-62994124D01*
X99898048Y-62962439D01*
X99718291Y-62900955D01*
X99550896Y-62810811D01*
X99399619Y-62693149D01*
X99322161Y-62614332D01*
X99245048Y-62523488D01*
X99187036Y-62442665D01*
X99141286Y-62360116D01*
X99100955Y-62264095D01*
X99074377Y-62188803D01*
X99027428Y-61998218D01*
X99012686Y-61804572D01*
X99029866Y-61612281D01*
X99078688Y-61425760D01*
X99131424Y-61301218D01*
X99160902Y-61244153D01*
X99189032Y-61197103D01*
X99221456Y-61152770D01*
X99263819Y-61103852D01*
X99321763Y-61043052D01*
X99364548Y-60999653D01*
X99432093Y-60932076D01*
X99483165Y-60883392D01*
X99524935Y-60848251D01*
X99564577Y-60821301D01*
X99609264Y-60797192D01*
X99666168Y-60770571D01*
X99680000Y-60764316D01*
X99755058Y-60732535D01*
X99828518Y-60704988D01*
X99888394Y-60686043D01*
X99906218Y-60681781D01*
X99960662Y-60670548D01*
X100005456Y-60660677D01*
X100016690Y-60657975D01*
X100094457Y-60646671D01*
X100194665Y-60644784D01*
X100307226Y-60652317D01*
X100353044Y-60657912D01*
X100545078Y-60700661D01*
X100721605Y-60772778D01*
X100881113Y-60872789D01*
X101022091Y-60999222D01*
X101194947Y-60826367D01*
X101191632Y-60801871D01*
X101191246Y-60793256D01*
X101193939Y-60730546D01*
X101204081Y-60647202D01*
X101219586Y-60555084D01*
X101238373Y-60466056D01*
X101258358Y-60391983D01*
X101265260Y-60371760D01*
X101319491Y-60256804D01*
X101396046Y-60138108D01*
X101489086Y-60021868D01*
X101592774Y-59914278D01*
X101701267Y-59821534D01*
X101808729Y-59749832D01*
X101885848Y-59713324D01*
X102096619Y-59649456D01*
X102299533Y-59618523D01*
X102494617Y-59620526D01*
X102681893Y-59655462D01*
X102746395Y-59675749D01*
X102871778Y-59724710D01*
X102976812Y-59779035D01*
X103071444Y-59845368D01*
X103165617Y-59930353D01*
X103316611Y-59779360D01*
X103227113Y-59703191D01*
X103122732Y-59627709D01*
X103105193Y-59616468D01*
X103035664Y-59576628D01*
X102955454Y-59536512D01*
X102873461Y-59499969D01*
X102798588Y-59470852D01*
X102739732Y-59453012D01*
X102719433Y-59449553D01*
X102686606Y-59442854D01*
X102675078Y-59436897D01*
X102649452Y-59428043D01*
X102597237Y-59421336D01*
X102525644Y-59416767D01*
X102441882Y-59414331D01*
X102353160Y-59414018D01*
X102266688Y-59415825D01*
X102189677Y-59419742D01*
X102129335Y-59425763D01*
X102092873Y-59433881D01*
X102086826Y-59437466D01*
X102065917Y-59445235D01*
X102024971Y-59453614D01*
X102013337Y-59455395D01*
X101967570Y-59467516D01*
X101902287Y-59491757D01*
X101825984Y-59524162D01*
X101747163Y-59560777D01*
X101674323Y-59597651D01*
X101615963Y-59630827D01*
X101580584Y-59656351D01*
X101579890Y-59657034D01*
X101539732Y-59688940D01*
X101496163Y-59714659D01*
X101453981Y-59744687D01*
X101399710Y-59797175D01*
X101338660Y-59865527D01*
X101276140Y-59943145D01*
X101217460Y-60023434D01*
X101167931Y-60099799D01*
X101132861Y-60165642D01*
X101132533Y-60166379D01*
X101076340Y-60301829D01*
X101036446Y-60420160D01*
X101009473Y-60531814D01*
X101003352Y-60565833D01*
X100984767Y-60677321D01*
X100831530Y-60599164D01*
X100627596Y-60512682D01*
X100420846Y-60459891D01*
X100211103Y-60440782D01*
X99998189Y-60455354D01*
X99781927Y-60503602D01*
X99603198Y-60567776D01*
X99489841Y-60626257D01*
X99371754Y-60706407D01*
X99256208Y-60801665D01*
X99150472Y-60905469D01*
X99061815Y-61011258D01*
G37*
X99061815Y-61011258D02*
X98997508Y-61112470D01*
X98995644Y-61116133D01*
X98963456Y-61182476D01*
X98933617Y-61248045D01*
X98915041Y-61292514D01*
X98893122Y-61345811D01*
X98871856Y-61391951D01*
X98867405Y-61400536D01*
X98852978Y-61434808D01*
X98841468Y-61481999D01*
X98831528Y-61549202D01*
X98822307Y-61638084D01*
X98816009Y-61696562D01*
X98809017Y-61747625D01*
X98806599Y-61761555D01*
X98804337Y-61800600D01*
X98806319Y-61862660D01*
X98811683Y-61937266D01*
X98819567Y-62013956D01*
X98829108Y-62082260D01*
X98835978Y-62118037D01*
X98889615Y-62292498D01*
X98968444Y-62465438D01*
X99066512Y-62624970D01*
X99132364Y-62709609D01*
X99178095Y-62762931D01*
X99205181Y-62800386D01*
X99213338Y-62830684D01*
X99202287Y-62862542D01*
X99171744Y-62904671D01*
X99124177Y-62962438D01*
X99068601Y-63031899D01*
X99005641Y-63113510D01*
X98941098Y-63199455D01*
X98880774Y-63281917D01*
X98830470Y-63353079D01*
X98797736Y-63402312D01*
X98713746Y-63509007D01*
X98601479Y-63608489D01*
X98480629Y-63687861D01*
X98416421Y-63724763D01*
X98356971Y-63759605D01*
X98313824Y-63785610D01*
X98309597Y-63788251D01*
X98264647Y-63815577D01*
X98226499Y-63837235D01*
X98225229Y-63837906D01*
X98202512Y-63861286D01*
X98193049Y-63905304D01*
X98192293Y-63930694D01*
X98197927Y-63987739D01*
X98219782Y-64032768D01*
X98246151Y-64064259D01*
X98318846Y-64137686D01*
X98378553Y-64186120D01*
X98430286Y-64213256D01*
X98458503Y-64220673D01*
X98495560Y-64228165D01*
X98512124Y-64234042D01*
X98512134Y-64234617D01*
X98502888Y-64250254D01*
X98480755Y-64288591D01*
X98449611Y-64342897D01*
X98430577Y-64376204D01*
X98387992Y-64450642D01*
X98344349Y-64526665D01*
X98307473Y-64590646D01*
X98299530Y-64604368D01*
X98270841Y-64658097D01*
X98250412Y-64704327D01*
X98243595Y-64728039D01*
X98234580Y-64765295D01*
X98216803Y-64812944D01*
X98214340Y-64818519D01*
X98186136Y-64902886D01*
X98169935Y-64998692D01*
X98165230Y-65098696D01*
X98171513Y-65195659D01*
X98188278Y-65282338D01*
X98215014Y-65351492D01*
X98251215Y-65395881D01*
X98255015Y-65398475D01*
X98296562Y-65417693D01*
X98329557Y-65423118D01*
X98361075Y-65425418D01*
X98371100Y-65430278D01*
X98374993Y-65450354D01*
X98377714Y-65496879D01*
X98378970Y-65562448D01*
X98378727Y-65623498D01*
X98376618Y-65708321D01*
X98371268Y-65770486D01*
X98360121Y-65821199D01*
X98340620Y-65871662D01*
X98310209Y-65933080D01*
X98306424Y-65940341D01*
X98270649Y-66016025D01*
X98246817Y-66081417D01*
X98238109Y-66127707D01*
X98238131Y-66129481D01*
X98255728Y-66190696D01*
X98300656Y-66243943D01*
X98366387Y-66281928D01*
X98378352Y-66286088D01*
X98439888Y-66301358D01*
X98515539Y-66314223D01*
X98591420Y-66322856D01*
X98653642Y-66325437D01*
X98670659Y-66324467D01*
X98693005Y-66323291D01*
X98706617Y-66329882D01*
X98713714Y-66350767D01*
X98716515Y-66392471D01*
X98717238Y-66461477D01*
X98727527Y-66607099D01*
X98755318Y-66749365D01*
X98798163Y-66879986D01*
X98853613Y-66990676D01*
X98887951Y-67039265D01*
X98944913Y-67094717D01*
X99000991Y-67117429D01*
X99059338Y-67108282D01*
X99085886Y-67094791D01*
X99124587Y-67075000D01*
X99146836Y-67075932D01*
X99160127Y-67092392D01*
X99213249Y-67185248D01*
X99258554Y-67256171D01*
X99302316Y-67314025D01*
X99350802Y-67367675D01*
X99365011Y-67382085D01*
X99452140Y-67457949D01*
X99544731Y-67519138D01*
X99633634Y-67560083D01*
X99676944Y-67571828D01*
X99721029Y-67583287D01*
X99781039Y-67602781D01*
X99826147Y-67619305D01*
X99885459Y-67639612D01*
X99928272Y-67643451D01*
X99967848Y-67628712D01*
X100017446Y-67593283D01*
X100024437Y-67587752D01*
X100042939Y-67575915D01*
X100061335Y-67575964D01*
X100086869Y-67591236D01*
X100126789Y-67625068D01*
X100149033Y-67645110D01*
X100215328Y-67714486D01*
X100270841Y-67790208D01*
X100310038Y-67863549D01*
X100327379Y-67925790D01*
X100327404Y-67926094D01*
X100337748Y-67985368D01*
X100357364Y-68051982D01*
X100381835Y-68113691D01*
X100406748Y-68158250D01*
X100414303Y-68167094D01*
X100467692Y-68197085D01*
X100535502Y-68203210D01*
X100610231Y-68187414D01*
X100684378Y-68151649D01*
X100750444Y-68097860D01*
X100770768Y-68074506D01*
X100803496Y-68032145D01*
X100828135Y-67998763D01*
X100834295Y-67989702D01*
X100851620Y-67983659D01*
X100886342Y-67998084D01*
X100932410Y-68027534D01*
X100981972Y-68060857D01*
X101022898Y-68086760D01*
X101042064Y-68097486D01*
X101072318Y-68112253D01*
X101116900Y-68135001D01*
X101129631Y-68141628D01*
X101233083Y-68187525D01*
X101356380Y-68229573D01*
X101485505Y-68263734D01*
X101606436Y-68285970D01*
X101645860Y-68290329D01*
X101721175Y-68292758D01*
X101806211Y-68289300D01*
X101890678Y-68281031D01*
X101964288Y-68269026D01*
X102016752Y-68254363D01*
X102024868Y-68250666D01*
X102058216Y-68244750D01*
X102111731Y-68246528D01*
X102162225Y-68253629D01*
X102291486Y-68271003D01*
X102435166Y-68278064D01*
X102588016Y-68275615D01*
X102744790Y-68264464D01*
X102900238Y-68245411D01*
X103049114Y-68219261D01*
X103186169Y-68186820D01*
X103306155Y-68148890D01*
X103403826Y-68106278D01*
X103473932Y-68059785D01*
X103483057Y-68051228D01*
X103522796Y-68027996D01*
X103571831Y-68018028D01*
X103679571Y-68009769D01*
X103790442Y-67989512D01*
X103897168Y-67959697D01*
X103992472Y-67922759D01*
X104069080Y-67881137D01*
X104119718Y-67837266D01*
X104122586Y-67833518D01*
X104158244Y-67796205D01*
X104206663Y-67768847D01*
X104275584Y-67747981D01*
X104342895Y-67734922D01*
X104396155Y-67724797D01*
X104434375Y-67715307D01*
X104446733Y-67710182D01*
X104466541Y-67701810D01*
X104509699Y-67688540D01*
X104563196Y-67674196D01*
X104648462Y-67646444D01*
X104752425Y-67602857D01*
X104866457Y-67547602D01*
X104981932Y-67484848D01*
X105085567Y-67421788D01*
X105169130Y-67359024D01*
X105258435Y-67277533D01*
X105345266Y-67186083D01*
X105421404Y-67093440D01*
X105478633Y-67008372D01*
X105486672Y-66993824D01*
X105513641Y-66945386D01*
X105536671Y-66917081D01*
X105567160Y-66898845D01*
X105613853Y-66881531D01*
X105688957Y-66843511D01*
X105771495Y-66781396D01*
X105854287Y-66701643D01*
X105930152Y-66610707D01*
X105956292Y-66573634D01*
X106000610Y-66504377D01*
X106047045Y-66427362D01*
X106071999Y-66383617D01*
X106101983Y-66331229D01*
X106122655Y-66302609D01*
X106140027Y-66291329D01*
X106158783Y-66290796D01*
X106217877Y-66281458D01*
X106282299Y-66243171D01*
X106349464Y-66179913D01*
X106416788Y-66095665D01*
X106481686Y-65994408D01*
X106541575Y-65880119D01*
X106593868Y-65756779D01*
X106635983Y-65628368D01*
X106662394Y-65515291D01*
X106673704Y-65464401D01*
X106685120Y-65428173D01*
X106690329Y-65418692D01*
X106698282Y-65393112D01*
X106697152Y-65381936D01*
X106694583Y-65346929D01*
X106696942Y-65297848D01*
X106702914Y-65243871D01*
X106711182Y-65194176D01*
X106720429Y-65157943D01*
X106729338Y-65144349D01*
X106731099Y-65145285D01*
X106769390Y-65161609D01*
X106819257Y-65150242D01*
X106875318Y-65112811D01*
X106892988Y-65096296D01*
X106945962Y-65028834D01*
X106997685Y-64937188D01*
X107043917Y-64830908D01*
X107080423Y-64719543D01*
X107100533Y-64628667D01*
X107105545Y-64580220D01*
X107108816Y-64511897D01*
X107110440Y-64430765D01*
X107110506Y-64343895D01*
X107109106Y-64258354D01*
X107106330Y-64181212D01*
X107102271Y-64119539D01*
X107097020Y-64080402D01*
X107093332Y-64070677D01*
X107093907Y-64057630D01*
X107120165Y-64039344D01*
X107175386Y-64013575D01*
X107179012Y-64012032D01*
X107278574Y-63958172D01*
X107380448Y-63882055D01*
X107385962Y-63877304D01*
X107440448Y-63828462D01*
X107474500Y-63789829D01*
X107487426Y-63755323D01*
X107478531Y-63718867D01*
X107447125Y-63674380D01*
X107392511Y-63615782D01*
X107351439Y-63574442D01*
X107291778Y-63513800D01*
X107251199Y-63468780D01*
X107224236Y-63431677D01*
X107205422Y-63394781D01*
X107189292Y-63350386D01*
X107186552Y-63341943D01*
X107165882Y-63278168D01*
X107146437Y-63218996D01*
X107136287Y-63188657D01*
X107121319Y-63142273D01*
X107110965Y-63106216D01*
X107096767Y-63057635D01*
X107075411Y-62994385D01*
X107050950Y-62927449D01*
X107027436Y-62867813D01*
X107008926Y-62826457D01*
X107005234Y-62819722D01*
X106988634Y-62778859D01*
X106985315Y-62750969D01*
X106979880Y-62716476D01*
X106972382Y-62704465D01*
X106960238Y-62676435D01*
X106978374Y-62653143D01*
X107011012Y-62642019D01*
X107065800Y-62619586D01*
X107104043Y-62579536D01*
X107117090Y-62530936D01*
X107117087Y-62530861D01*
X107109071Y-62498168D01*
X107089290Y-62444455D01*
X107061283Y-62378918D01*
X107045809Y-62345653D01*
X107013532Y-62281018D01*
X106982497Y-62227481D01*
X106946728Y-62176734D01*
X106900249Y-62120470D01*
X106837084Y-62050379D01*
X106820595Y-62032536D01*
X106729654Y-61937874D01*
X106649746Y-61863046D01*
X106572298Y-61800268D01*
X106534513Y-61772856D01*
X106475727Y-61731060D01*
X106426791Y-61695324D01*
X106394892Y-61670940D01*
X106387562Y-61664646D01*
X106384492Y-61640753D01*
X106396503Y-61600154D01*
X106405528Y-61580835D01*
X106426934Y-61506789D01*
X106415690Y-61434352D01*
X106372896Y-61367963D01*
X106346888Y-61343848D01*
X106286238Y-61304153D01*
X106116824Y-61473568D01*
X106121015Y-61479026D01*
X106105401Y-61500397D01*
X106062891Y-61514858D01*
X105999975Y-61521154D01*
X105923148Y-61518036D01*
X105920259Y-61517737D01*
X105840191Y-61512965D01*
X105788258Y-61519897D01*
X105760244Y-61540229D01*
X105751932Y-61575656D01*
X105752297Y-61585215D01*
X105768471Y-61642882D01*
X105810203Y-61696528D01*
X105880008Y-61748393D01*
X105980410Y-61800717D01*
X106009001Y-61813445D01*
X106176539Y-61890843D01*
X106318994Y-61967791D01*
X106444684Y-62049435D01*
X106561927Y-62140917D01*
X106617301Y-62189521D01*
X106680419Y-62248405D01*
X106735985Y-62303242D01*
X106778074Y-62347983D01*
X106800758Y-62376582D01*
X106801005Y-62377001D01*
X106826423Y-62420890D01*
X106774598Y-62400872D01*
X106729933Y-62379286D01*
X106697705Y-62356866D01*
X106667744Y-62343401D01*
X106616778Y-62333853D01*
X106573991Y-62330910D01*
X106502461Y-62333525D01*
X106459726Y-62346209D01*
X106445475Y-62371074D01*
X106459399Y-62410230D01*
X106501185Y-62465790D01*
X106546841Y-62515566D01*
X106618605Y-62599963D01*
X106683144Y-62697565D01*
X106742384Y-62812547D01*
X106798248Y-62949081D01*
X106852662Y-63111340D01*
X106903779Y-63289454D01*
X106938368Y-63410342D01*
X106970629Y-63504844D01*
X107003681Y-63579997D01*
X107040647Y-63642842D01*
X107084648Y-63700417D01*
X107087444Y-63703698D01*
X107169932Y-63800040D01*
X107115875Y-63788670D01*
X107072470Y-63772487D01*
X107033798Y-63738904D01*
X107012220Y-63712530D01*
X106956965Y-63654653D01*
X106900160Y-63619828D01*
X106847499Y-63610268D01*
X106804671Y-63628181D01*
X106801852Y-63630854D01*
X106784344Y-63654899D01*
X106777284Y-63686999D01*
X106779925Y-63736048D01*
X106788296Y-63792139D01*
X106817252Y-63995468D01*
X106834204Y-64186802D01*
X106838917Y-64360632D01*
X106831151Y-64511449D01*
X106822278Y-64577913D01*
X106808806Y-64647844D01*
X106792765Y-64716656D01*
X106776542Y-64775386D01*
X106762526Y-64815071D01*
X106756226Y-64825953D01*
X106744454Y-64816023D01*
X106717391Y-64786462D01*
X106684525Y-64747983D01*
X106645477Y-64703002D01*
X106617335Y-64678789D01*
X106590288Y-64669321D01*
X106555095Y-64668554D01*
X106493670Y-64670792D01*
X106467041Y-64756609D01*
X106452849Y-64820708D01*
X106443236Y-64899309D01*
X106440530Y-64960260D01*
X106438610Y-65048919D01*
X106433222Y-65146620D01*
X106425177Y-65244985D01*
X106415285Y-65335636D01*
X106404352Y-65410194D01*
X106393190Y-65460281D01*
X106391866Y-65464266D01*
X106376894Y-65517101D01*
X106364165Y-65578690D01*
X106362455Y-65589516D01*
X106353559Y-65636291D01*
X106343981Y-65667390D01*
X106341013Y-65672219D01*
X106328417Y-65694302D01*
X106312104Y-65733773D01*
X106310332Y-65738662D01*
X106289512Y-65787094D01*
X106259692Y-65845593D01*
X106245294Y-65871063D01*
X106200104Y-65947854D01*
X106185430Y-65901151D01*
X106164610Y-65852469D01*
X106134062Y-65826306D01*
X106090339Y-65813153D01*
X106051089Y-65810823D01*
X106024353Y-65829873D01*
X106011794Y-65847724D01*
X105988915Y-65894628D01*
X105969802Y-65951915D01*
X105967460Y-65961536D01*
X105952209Y-66016070D01*
X105934464Y-66062725D01*
X105931109Y-66069504D01*
X105912253Y-66109541D01*
X105889596Y-66163608D01*
X105881549Y-66184233D01*
X105860730Y-66226590D01*
X105824794Y-66287966D01*
X105779049Y-66360369D01*
X105728807Y-66435806D01*
X105679379Y-66506286D01*
X105636076Y-66563819D01*
X105606466Y-66598186D01*
X105572195Y-66612431D01*
X105550791Y-66606124D01*
X105517498Y-66600455D01*
X105499837Y-66609185D01*
X105483129Y-66629625D01*
X105452905Y-66669834D01*
X105413681Y-66723472D01*
X105369979Y-66784203D01*
X105326313Y-66845689D01*
X105287204Y-66901591D01*
X105257167Y-66945573D01*
X105240722Y-66971295D01*
X105238954Y-66975154D01*
X105227269Y-66989662D01*
X105195768Y-67021843D01*
X105149783Y-67066688D01*
X105094644Y-67119188D01*
X105035684Y-67174333D01*
X104978232Y-67227110D01*
X104927620Y-67272512D01*
X104889180Y-67305528D01*
X104877498Y-67314838D01*
X104801996Y-67363142D01*
X104701759Y-67414187D01*
X104585289Y-67464827D01*
X104461086Y-67511914D01*
X104337650Y-67552299D01*
X104223481Y-67582835D01*
X104127082Y-67600375D01*
X104099823Y-67602820D01*
X104031307Y-67611579D01*
X103961263Y-67628266D01*
X103901174Y-67649487D01*
X103862521Y-67671849D01*
X103860819Y-67673467D01*
X103841036Y-67707666D01*
X103839792Y-67733327D01*
X103840548Y-67750657D01*
X103826651Y-67763455D01*
X103791480Y-67775344D01*
X103741485Y-67787091D01*
X103682547Y-67796109D01*
X103600504Y-67803416D01*
X103506100Y-67808281D01*
X103410082Y-67809964D01*
X103407724Y-67809959D01*
X103264991Y-67812423D01*
X103151857Y-67820562D01*
X103069372Y-67834224D01*
X103018581Y-67853252D01*
X103002394Y-67869798D01*
X103005259Y-67899302D01*
X103028634Y-67931916D01*
X103062325Y-67956463D01*
X103087284Y-67962865D01*
X103111666Y-67969628D01*
X103115622Y-67976613D01*
X103099830Y-67989773D01*
X103056952Y-68003345D01*
X102993734Y-68016246D01*
X102916925Y-68027393D01*
X102833273Y-68035702D01*
X102749524Y-68040091D01*
X102717583Y-68040507D01*
X102633081Y-68039203D01*
X102547647Y-68035689D01*
X102468493Y-68030516D01*
X102402835Y-68024236D01*
X102357884Y-68017401D01*
X102341511Y-68011744D01*
X102323119Y-68005670D01*
X102281340Y-67995820D01*
X102237593Y-67986793D01*
X102156667Y-67963293D01*
X102061594Y-67923842D01*
X101964358Y-67874034D01*
X101876937Y-67819466D01*
X101872121Y-67816061D01*
X101820390Y-67791627D01*
X101764790Y-67782070D01*
X101763193Y-67782106D01*
X101720803Y-67789713D01*
X101699046Y-67812217D01*
X101696673Y-67854117D01*
X101712440Y-67919909D01*
X101719176Y-67940936D01*
X101749171Y-68031539D01*
X101693751Y-68035248D01*
X101571137Y-68029168D01*
X101439083Y-67994725D01*
X101296399Y-67931374D01*
X101141898Y-67838568D01*
X100974390Y-67715761D01*
X100942358Y-67690097D01*
X100876310Y-67638656D01*
X100813873Y-67593771D01*
X100763000Y-67560957D01*
X100736233Y-67547200D01*
X100682165Y-67539145D01*
X100643207Y-67560694D01*
X100620584Y-67610554D01*
X100615120Y-67674295D01*
X100613192Y-67740141D01*
X100606427Y-67805344D01*
X100596325Y-67861348D01*
X100584385Y-67899598D01*
X100573526Y-67911776D01*
X100559740Y-67897263D01*
X100549180Y-67865870D01*
X100537758Y-67827416D01*
X100516900Y-67770281D01*
X100491067Y-67706663D01*
X100490411Y-67705132D01*
X100471759Y-67662647D01*
X100454260Y-67628165D01*
X100433644Y-67596530D01*
X100405635Y-67562588D01*
X100365959Y-67521184D01*
X100310344Y-67467161D01*
X100234513Y-67395366D01*
X100230277Y-67391371D01*
X100124449Y-67294305D01*
X100037703Y-67221549D01*
X99967160Y-67171635D01*
X99909940Y-67143092D01*
X99863163Y-67134450D01*
X99823951Y-67144240D01*
X99792457Y-67167884D01*
X99771246Y-67198079D01*
X99771944Y-67232926D01*
X99782178Y-67261979D01*
X99795459Y-67302776D01*
X99797649Y-67329042D01*
X99796218Y-67331754D01*
X99778211Y-67327684D01*
X99741013Y-67305924D01*
X99690889Y-67271122D01*
X99634109Y-67227921D01*
X99576941Y-67180967D01*
X99525651Y-67134902D01*
X99510243Y-67119844D01*
X99442513Y-67039260D01*
X99374334Y-66936040D01*
X99312024Y-66820734D01*
X99263276Y-66707610D01*
X99231788Y-66629713D01*
X99204664Y-66580557D01*
X99178449Y-66555934D01*
X99149690Y-66551636D01*
X99137580Y-66554394D01*
X99107447Y-66566183D01*
X99089203Y-66584270D01*
X99079767Y-66616436D01*
X99076058Y-66670461D01*
X99075351Y-66711571D01*
X99071066Y-66788511D01*
X99060645Y-66838854D01*
X99044913Y-66860117D01*
X99028123Y-66853617D01*
X99013958Y-66822331D01*
X99002583Y-66763808D01*
X98994205Y-66684582D01*
X98989030Y-66591183D01*
X98987264Y-66490144D01*
X98989118Y-66387996D01*
X98994794Y-66291271D01*
X99004501Y-66206502D01*
X99007128Y-66190509D01*
X99021802Y-66091727D01*
X99025773Y-66020389D01*
X99018942Y-65971779D01*
X99001822Y-65941797D01*
X98976634Y-65928947D01*
X98941597Y-65936213D01*
X98892299Y-65965394D01*
X98834164Y-66010182D01*
X98756999Y-66062499D01*
X98680677Y-66094815D01*
X98613061Y-66104288D01*
X98585799Y-66099827D01*
X98567422Y-66088926D01*
X98564468Y-66066390D01*
X98576463Y-66023617D01*
X98580904Y-66011073D01*
X98599223Y-65963477D01*
X98614075Y-65930482D01*
X98618934Y-65922725D01*
X98632993Y-65893495D01*
X98646199Y-65840571D01*
X98657078Y-65774118D01*
X98664155Y-65704304D01*
X98665955Y-65641295D01*
X98664012Y-65611977D01*
X98655877Y-65520640D01*
X98652031Y-65421302D01*
X98652331Y-65323000D01*
X98656630Y-65234770D01*
X98664786Y-65165649D01*
X98671611Y-65136671D01*
X98695111Y-65048499D01*
X98704895Y-64973892D01*
X98701432Y-64917005D01*
X98685190Y-64881994D01*
X98656640Y-64873016D01*
X98642393Y-64877413D01*
X98617402Y-64899595D01*
X98581745Y-64945627D01*
X98539838Y-65009034D01*
X98496098Y-65083341D01*
X98474060Y-65124208D01*
X98450897Y-65165391D01*
X98433646Y-65190335D01*
X98429221Y-65193753D01*
X98425268Y-65178488D01*
X98424158Y-65139197D01*
X98425282Y-65102958D01*
X98437340Y-65019574D01*
X98463848Y-64918479D01*
X98501091Y-64810551D01*
X98545357Y-64706664D01*
X98588405Y-64625153D01*
X98620768Y-64568738D01*
X98646475Y-64519718D01*
X98659726Y-64489314D01*
X98666359Y-64472808D01*
X98679165Y-64448960D01*
X98700197Y-64414673D01*
X98731502Y-64366852D01*
X98775133Y-64302400D01*
X98833139Y-64218222D01*
X98907570Y-64111221D01*
X98956145Y-64041672D01*
X99005593Y-63969464D01*
X99047114Y-63906018D01*
X99077165Y-63856964D01*
X99092202Y-63827936D01*
X99093265Y-63823698D01*
X99081071Y-63797959D01*
X99055944Y-63772397D01*
X99016878Y-63757138D01*
X98968070Y-63767324D01*
X98907174Y-63804071D01*
X98831847Y-63868495D01*
X98810213Y-63889322D01*
X98760584Y-63935144D01*
X98715998Y-63971341D01*
X98684979Y-63991077D01*
X98681806Y-63992262D01*
X98648755Y-63994394D01*
X98600620Y-63989790D01*
X98551891Y-63980740D01*
X98517056Y-63969532D01*
X98510505Y-63965212D01*
X98520338Y-63954678D01*
X98552486Y-63934728D01*
X98579359Y-63920316D01*
X98639513Y-63881394D01*
X98712001Y-63822265D01*
X98789467Y-63750272D01*
X98864552Y-63672762D01*
X98929900Y-63597079D01*
X98978152Y-63530569D01*
X98989785Y-63510544D01*
X99045271Y-63418917D01*
X99123435Y-63309789D01*
X99221046Y-63187462D01*
X99310785Y-63083189D01*
X99420538Y-62959456D01*
X99451831Y-62990749D01*
X99504762Y-63029270D01*
X99584070Y-63068757D01*
X99682420Y-63106984D01*
X99792470Y-63141727D01*
X99906884Y-63170758D01*
X100018324Y-63191851D01*
X100119451Y-63202781D01*
X100154258Y-63203808D01*
X100252231Y-63200598D01*
X100355439Y-63191605D01*
X100451941Y-63178249D01*
X100529796Y-63161953D01*
X100546224Y-63157183D01*
X100592994Y-63144433D01*
X100624803Y-63139593D01*
X100631749Y-63140931D01*
X100637896Y-63161350D01*
X100643893Y-63203402D01*
X100645993Y-63226044D01*
X100651215Y-63274026D01*
X100657421Y-63306007D01*
X100659976Y-63311870D01*
X100667699Y-63332562D01*
X100677940Y-63374412D01*
X100682411Y-63396398D01*
X100716046Y-63523444D01*
X100769562Y-63665636D01*
X100838819Y-63814242D01*
X100919680Y-63960531D01*
X101008007Y-64095770D01*
X101024747Y-64118762D01*
X101164517Y-64281807D01*
X101327468Y-64427918D01*
X101508036Y-64553609D01*
X101700654Y-64655398D01*
X101899757Y-64729800D01*
X102061166Y-64767465D01*
X102162482Y-64779879D01*
X102273501Y-64785779D01*
X102386460Y-64785512D01*
X102493593Y-64779425D01*
X102587143Y-64767864D01*
X102659343Y-64751178D01*
X102688072Y-64739451D01*
X102731567Y-64722647D01*
X102759089Y-64717359D01*
X102799248Y-64705906D01*
X102859202Y-64678131D01*
X102931835Y-64638270D01*
X103010028Y-64590559D01*
X103086666Y-64539234D01*
X103154631Y-64488532D01*
X103182377Y-64465404D01*
X103293901Y-64354246D01*
X103397625Y-64225460D01*
X103482486Y-64092995D01*
X103492679Y-64074100D01*
X103531775Y-63988533D01*
X103571448Y-63882943D01*
X103607268Y-63770801D01*
X103634800Y-63665577D01*
X103646036Y-63608023D01*
X103660662Y-63460805D01*
X103661860Y-63300720D01*
X103650369Y-63139801D01*
X103626926Y-62990087D01*
X103602328Y-62893628D01*
X103583161Y-62830540D01*
X103568232Y-62778466D01*
X103560321Y-62747163D01*
X103559860Y-62744516D01*
X103550116Y-62714617D01*
X103527966Y-62662773D01*
X103497174Y-62596793D01*
X103461504Y-62524490D01*
X103424719Y-62453674D01*
X103390583Y-62392159D01*
X103387707Y-62387240D01*
X103353862Y-62336753D01*
X103304082Y-62271239D01*
X103245802Y-62200184D01*
X103200954Y-62148927D01*
X103139079Y-62078140D01*
X103098576Y-62026580D01*
X103093700Y-62018226D01*
X102927431Y-62184495D01*
X103016419Y-62276512D01*
X103097965Y-62372047D01*
X103163931Y-62462501D01*
X103181736Y-62491205D01*
X103225638Y-62569993D01*
X103266149Y-62649577D01*
X103299752Y-62722368D01*
X103322936Y-62780778D01*
X103332098Y-62815919D01*
X103341578Y-62852057D01*
X103350634Y-62866398D01*
X103365341Y-62894493D01*
X103381553Y-62945816D01*
X103396477Y-63010003D01*
X103407325Y-63076690D01*
X103407394Y-63077254D01*
X103413713Y-63129860D01*
X103421315Y-63193871D01*
X103423800Y-63214959D01*
X103431386Y-63406275D01*
X103410614Y-63596474D01*
X103363240Y-63780085D01*
X103291015Y-63951636D01*
X103195693Y-64105656D01*
X103104148Y-64212410D01*
X103040409Y-64272670D01*
X102970137Y-64333313D01*
X102906915Y-64382700D01*
X102897771Y-64389192D01*
X102763700Y-64464257D01*
X102608982Y-64519877D01*
X102441876Y-64554255D01*
X102270637Y-64565599D01*
X102129923Y-64556050D01*
X101999616Y-64527044D01*
X101854484Y-64474503D01*
X101701092Y-64401150D01*
X101565690Y-64322301D01*
X101491233Y-64267663D01*
X101407689Y-64194155D01*
X101321949Y-64109098D01*
X101240913Y-64019815D01*
X101171477Y-63933625D01*
X101120536Y-63857851D01*
X101110102Y-63838662D01*
X101079895Y-63782216D01*
X101052083Y-63735852D01*
X101033715Y-63710838D01*
X101012147Y-63675502D01*
X101001748Y-63641880D01*
X100989240Y-63597587D01*
X100968125Y-63543897D01*
X100962523Y-63531758D01*
X100922399Y-63421691D01*
X100894212Y-63289527D01*
X100877958Y-63143241D01*
X100873629Y-62990807D01*
X100881222Y-62840204D01*
X100900727Y-62699409D01*
X100932141Y-62576395D01*
X100963317Y-62500982D01*
X100989664Y-62444884D01*
X101016861Y-62379931D01*
X101024426Y-62360188D01*
X101055994Y-62301781D01*
X101109015Y-62231776D01*
X101177435Y-62155827D01*
X101255192Y-62079591D01*
X101336231Y-62008720D01*
X101414493Y-61948872D01*
X101483921Y-61905700D01*
X101532230Y-61886151D01*
X101573003Y-61873649D01*
X101586375Y-61868454D01*
X101696419Y-61827652D01*
X101802780Y-61802869D01*
X101919404Y-61791462D01*
X102000507Y-61789939D01*
X102085877Y-61792050D01*
X102165678Y-61797351D01*
X102229734Y-61804984D01*
X102262224Y-61812006D01*
X102322500Y-61830945D01*
X102381231Y-61848976D01*
X102387783Y-61850948D01*
X102451365Y-61875479D01*
X102535051Y-61915863D01*
X102631419Y-61968219D01*
X102733049Y-62028668D01*
X102759681Y-62045399D01*
X102839139Y-62104592D01*
X102927431Y-62184495D01*
X103093700Y-62018226D01*
X103080661Y-61995877D01*
X103080956Y-61988394D01*
X103100005Y-61973141D01*
X103139274Y-61943285D01*
X103191646Y-61904212D01*
X103215151Y-61886852D01*
X103368607Y-61753182D01*
X103499587Y-61596061D01*
X103604440Y-61420189D01*
X103641636Y-61337401D01*
X103695168Y-61188867D01*
X103728994Y-61056372D01*
X103738940Y-60989101D01*
X103748677Y-60890350D01*
X103895324Y-60877004D01*
X103959556Y-60873005D01*
X104049276Y-60869973D01*
X104156117Y-60868059D01*
X104271711Y-60867417D01*
X104384135Y-60868149D01*
X104501729Y-60869357D01*
X104590591Y-60869139D01*
X104655842Y-60866998D01*
X104702601Y-60862436D01*
X104735990Y-60854954D01*
X104761131Y-60844055D01*
X104782977Y-60829369D01*
X104828749Y-60798881D01*
X104853912Y-60791815D01*
X104856711Y-60807659D01*
X104836157Y-60844799D01*
X104793197Y-60892017D01*
X104726528Y-60946329D01*
X104643770Y-61001985D01*
X104576135Y-61040933D01*
X104521146Y-61077634D01*
X104498828Y-61112404D01*
X104508225Y-61147371D01*
X104521585Y-61162808D01*
X104555515Y-61182793D01*
X104607691Y-61190015D01*
X104658394Y-61188396D01*
X104953684Y-61183826D01*
X105255337Y-61210817D01*
X105559077Y-61268780D01*
X105847274Y-61352540D01*
X105911912Y-61376339D01*
X105978652Y-61403791D01*
X106040028Y-61431447D01*
X106088574Y-61455855D01*
X106116824Y-61473568D01*
X106286238Y-61304153D01*
X106285989Y-61303990D01*
X106197704Y-61259577D01*
X106087821Y-61212879D01*
X105962127Y-61166159D01*
X105826407Y-61121687D01*
X105686448Y-61081729D01*
X105660715Y-61075054D01*
X105589368Y-61056239D01*
X105531003Y-61039698D01*
X105492971Y-61027583D01*
X105482355Y-61022859D01*
X105459983Y-61016739D01*
X105440511Y-61016936D01*
X105404731Y-61011604D01*
X105390831Y-61003177D01*
X105367215Y-60994027D01*
X105318712Y-60984113D01*
X105254213Y-60975115D01*
X105227372Y-60972288D01*
X105080728Y-60958212D01*
X105103216Y-60913986D01*
X105132840Y-60831650D01*
X105143731Y-60744757D01*
X105136533Y-60662161D01*
X105111891Y-60592718D01*
X105076743Y-60549880D01*
X105053318Y-60538277D01*
X105019940Y-60535683D01*
X104971649Y-60542964D01*
X104903488Y-60560989D01*
X104810495Y-60590623D01*
X104774791Y-60602663D01*
X104706033Y-60622467D01*
X104629228Y-60636828D01*
X104538222Y-60646357D01*
X104426857Y-60651657D01*
X104288980Y-60653339D01*
X104261772Y-60653307D01*
X104161180Y-60653761D01*
X104059921Y-60655482D01*
X103969066Y-60658204D01*
X103899690Y-60661666D01*
X103893407Y-60662112D01*
X103830647Y-60665162D01*
X103781540Y-60664536D01*
X103755372Y-60660410D01*
X103753937Y-60659440D01*
X103746203Y-60637274D01*
X103738314Y-60591857D01*
X103732884Y-60542598D01*
X103725556Y-60484607D01*
X103715525Y-60439855D01*
X103706788Y-60420712D01*
X103692045Y-60392377D01*
X103682540Y-60353466D01*
X103669284Y-60306927D01*
X103641853Y-60240471D01*
X103604486Y-60162606D01*
X103561424Y-60081837D01*
X103516906Y-60006670D01*
X103488113Y-59963310D01*
X103419232Y-59879533D01*
X103329089Y-59789980D01*
X103316611Y-59779360D01*
X103165617Y-59930353D01*
X103233583Y-60001224D01*
X103296636Y-60071215D01*
X103341666Y-60126054D01*
X103374691Y-60174441D01*
X103401733Y-60225074D01*
X103425285Y-60278217D01*
X103490174Y-60452855D01*
X103530611Y-60612928D01*
X103547756Y-60766032D01*
X103542764Y-60919763D01*
X103533776Y-60990069D01*
X103490683Y-61163370D01*
X103417622Y-61331835D01*
X103318465Y-61489321D01*
X103197086Y-61629682D01*
X103057356Y-61746775D01*
X103056326Y-61747495D01*
X102980263Y-61798788D01*
X102925440Y-61830526D01*
X102886921Y-61844645D01*
X102859769Y-61843078D01*
X102842374Y-61831297D01*
X102812045Y-61809112D01*
X102759113Y-61777837D01*
X102692075Y-61741802D01*
X102619422Y-61705337D01*
X102549649Y-61672767D01*
X102491251Y-61648423D01*
X102467446Y-61640224D01*
X102405126Y-61624005D01*
X102341539Y-61610915D01*
X102340424Y-61610728D01*
X102296667Y-61601680D01*
X102269466Y-61592800D01*
X102266872Y-61591057D01*
X102244323Y-61583770D01*
X102196175Y-61576418D01*
X102130685Y-61569781D01*
X102056108Y-61564636D01*
X101980703Y-61561761D01*
X101952312Y-61561421D01*
X101854297Y-61565414D01*
X101755783Y-61576773D01*
X101668690Y-61593738D01*
X101611136Y-61611833D01*
X101570018Y-61623776D01*
X101551083Y-61612894D01*
X101549067Y-61579699D01*
X101546451Y-61546935D01*
X101540815Y-61535526D01*
X101531285Y-61512806D01*
X101521725Y-61470497D01*
X101519675Y-61457820D01*
X101502105Y-61391489D01*
X101468304Y-61306703D01*
X101422539Y-61211976D01*
X101369073Y-61115817D01*
X101312166Y-61026738D01*
X101284813Y-60988906D01*
X101239303Y-60926612D01*
X101211527Y-60880790D01*
X101197099Y-60842267D01*
X101194947Y-60826367D01*
X101022091Y-60999222D01*
X101143025Y-61150602D01*
X101242402Y-61325459D01*
X101318709Y-61522317D01*
X101347128Y-61625980D01*
X101351023Y-61674682D01*
X101332214Y-61706706D01*
X101329037Y-61709357D01*
X101263685Y-61764110D01*
X101189780Y-61830512D01*
X101113134Y-61902849D01*
X101039555Y-61975405D01*
X100974853Y-62042463D01*
X100924839Y-62098309D01*
X100897260Y-62134144D01*
X100834456Y-62238687D01*
X100778777Y-62346033D01*
X100735473Y-62445476D01*
X100715013Y-62505775D01*
X100698868Y-62562349D01*
X100684804Y-62610621D01*
X100679975Y-62626732D01*
X100665234Y-62686389D01*
X100652610Y-62756936D01*
X100644879Y-62821390D01*
X100643721Y-62848508D01*
X100639723Y-62882945D01*
X100623193Y-62908598D01*
X100588442Y-62929319D01*
X100529779Y-62948961D01*
X100473865Y-62963536D01*
X100279595Y-62994870D01*
X100086402Y-62994124D01*
X99898048Y-62962439D01*
X99718291Y-62900955D01*
X99550896Y-62810811D01*
X99399619Y-62693149D01*
X99322161Y-62614332D01*
X99245048Y-62523488D01*
X99187036Y-62442665D01*
X99141286Y-62360116D01*
X99100955Y-62264095D01*
X99074377Y-62188803D01*
X99027428Y-61998218D01*
X99012686Y-61804572D01*
X99029866Y-61612281D01*
X99078688Y-61425760D01*
X99131424Y-61301218D01*
X99160902Y-61244153D01*
X99189032Y-61197103D01*
X99221456Y-61152770D01*
X99263819Y-61103852D01*
X99321763Y-61043052D01*
X99364548Y-60999653D01*
X99432093Y-60932076D01*
X99483165Y-60883392D01*
X99524935Y-60848251D01*
X99564577Y-60821301D01*
X99609264Y-60797192D01*
X99666168Y-60770571D01*
X99680000Y-60764316D01*
X99755058Y-60732535D01*
X99828518Y-60704988D01*
X99888394Y-60686043D01*
X99906218Y-60681781D01*
X99960662Y-60670548D01*
X100005456Y-60660677D01*
X100016690Y-60657975D01*
X100094457Y-60646671D01*
X100194665Y-60644784D01*
X100307226Y-60652317D01*
X100353044Y-60657912D01*
X100545078Y-60700661D01*
X100721605Y-60772778D01*
X100881113Y-60872789D01*
X101022091Y-60999222D01*
X101194947Y-60826367D01*
X101191632Y-60801871D01*
X101191246Y-60793256D01*
X101193939Y-60730546D01*
X101204081Y-60647202D01*
X101219586Y-60555084D01*
X101238373Y-60466056D01*
X101258358Y-60391983D01*
X101265260Y-60371760D01*
X101319491Y-60256804D01*
X101396046Y-60138108D01*
X101489086Y-60021868D01*
X101592774Y-59914278D01*
X101701267Y-59821534D01*
X101808729Y-59749832D01*
X101885848Y-59713324D01*
X102096619Y-59649456D01*
X102299533Y-59618523D01*
X102494617Y-59620526D01*
X102681893Y-59655462D01*
X102746395Y-59675749D01*
X102871778Y-59724710D01*
X102976812Y-59779035D01*
X103071444Y-59845368D01*
X103165617Y-59930353D01*
X103316611Y-59779360D01*
X103227113Y-59703191D01*
X103122732Y-59627709D01*
X103105193Y-59616468D01*
X103035664Y-59576628D01*
X102955454Y-59536512D01*
X102873461Y-59499969D01*
X102798588Y-59470852D01*
X102739732Y-59453012D01*
X102719433Y-59449553D01*
X102686606Y-59442854D01*
X102675078Y-59436897D01*
X102649452Y-59428043D01*
X102597237Y-59421336D01*
X102525644Y-59416767D01*
X102441882Y-59414331D01*
X102353160Y-59414018D01*
X102266688Y-59415825D01*
X102189677Y-59419742D01*
X102129335Y-59425763D01*
X102092873Y-59433881D01*
X102086826Y-59437466D01*
X102065917Y-59445235D01*
X102024971Y-59453614D01*
X102013337Y-59455395D01*
X101967570Y-59467516D01*
X101902287Y-59491757D01*
X101825984Y-59524162D01*
X101747163Y-59560777D01*
X101674323Y-59597651D01*
X101615963Y-59630827D01*
X101580584Y-59656351D01*
X101579890Y-59657034D01*
X101539732Y-59688940D01*
X101496163Y-59714659D01*
X101453981Y-59744687D01*
X101399710Y-59797175D01*
X101338660Y-59865527D01*
X101276140Y-59943145D01*
X101217460Y-60023434D01*
X101167931Y-60099799D01*
X101132861Y-60165642D01*
X101132533Y-60166379D01*
X101076340Y-60301829D01*
X101036446Y-60420160D01*
X101009473Y-60531814D01*
X101003352Y-60565833D01*
X100984767Y-60677321D01*
X100831530Y-60599164D01*
X100627596Y-60512682D01*
X100420846Y-60459891D01*
X100211103Y-60440782D01*
X99998189Y-60455354D01*
X99781927Y-60503602D01*
X99603198Y-60567776D01*
X99489841Y-60626257D01*
X99371754Y-60706407D01*
X99256208Y-60801665D01*
X99150472Y-60905469D01*
X99061815Y-61011258D01*
G36*
X99251915Y-65694636D02*
G01*
X99234255Y-65768727D01*
X99238712Y-65859898D01*
X99268638Y-66025778D01*
X99307602Y-66161391D01*
X99356652Y-66269377D01*
X99416837Y-66352382D01*
X99444949Y-66379784D01*
X99500799Y-66418033D01*
X99543675Y-66426210D01*
X99571144Y-66406428D01*
X99580767Y-66360801D01*
X99570108Y-66291443D01*
X99565434Y-66275250D01*
X99548001Y-66211614D01*
X99533675Y-66147595D01*
X99531322Y-66134606D01*
X99520229Y-66068656D01*
X99579731Y-66078239D01*
X99710629Y-66091271D01*
X99850805Y-66088406D01*
X99979658Y-66074251D01*
X100050328Y-66063585D01*
X100107580Y-66053687D01*
X100143660Y-66045967D01*
X100151923Y-66042964D01*
X100185182Y-66031770D01*
X100239316Y-66031985D01*
X100304106Y-66041605D01*
X100369328Y-66058627D01*
X100424764Y-66081043D01*
X100456410Y-66102696D01*
X100486969Y-66118433D01*
X100494861Y-66119440D01*
X100521215Y-66128189D01*
X100571751Y-66152080D01*
X100641827Y-66188477D01*
X100726800Y-66234747D01*
X100822027Y-66288255D01*
X100922865Y-66346364D01*
X101024671Y-66406438D01*
X101122803Y-66465843D01*
X101212619Y-66521945D01*
X101273187Y-66561233D01*
X101323982Y-66593410D01*
X101366676Y-66617854D01*
X101387350Y-66627460D01*
X101420246Y-66642692D01*
X101462403Y-66667493D01*
X101465219Y-66669328D01*
X101526200Y-66707485D01*
X101598581Y-66749998D01*
X101672898Y-66791600D01*
X101739688Y-66827024D01*
X101789489Y-66851002D01*
X101797803Y-66854445D01*
X101842127Y-66875752D01*
X101874166Y-66897831D01*
X101874764Y-66898418D01*
X101904955Y-66918339D01*
X101919403Y-66922002D01*
X101947382Y-66930024D01*
X101990241Y-66948980D01*
X102003954Y-66955991D01*
X102080160Y-66990793D01*
X102180507Y-67028721D01*
X102295791Y-67066973D01*
X102416809Y-67102746D01*
X102534356Y-67133237D01*
X102639231Y-67155645D01*
X102683176Y-67162820D01*
X102928217Y-67185872D01*
X103162335Y-67183402D01*
X103391174Y-67154455D01*
X103620372Y-67098078D01*
X103855569Y-67013316D01*
X104030489Y-66934803D01*
X104193311Y-66849112D01*
X104349974Y-66753031D01*
X104494812Y-66650753D01*
X104622164Y-66546475D01*
X104726368Y-66444390D01*
X104780290Y-66379474D01*
X104802909Y-66349163D01*
X104838453Y-66301623D01*
X104879543Y-66246727D01*
X104882744Y-66242453D01*
X104944730Y-66152236D01*
X105007688Y-66047841D01*
X105065011Y-65941136D01*
X105110094Y-65843990D01*
X105123215Y-65810478D01*
X105180591Y-65646469D01*
X105224925Y-65506113D01*
X105243047Y-65441309D01*
X105258455Y-65374734D01*
X105277044Y-65281786D01*
X105297633Y-65169676D01*
X105319039Y-65045616D01*
X105340078Y-64916816D01*
X105359570Y-64790489D01*
X105376333Y-64673846D01*
X105389184Y-64574097D01*
X105396274Y-64506529D01*
X105401664Y-64455351D01*
X105410171Y-64387299D01*
X105420722Y-64309652D01*
X105432240Y-64229693D01*
X105443650Y-64154702D01*
X105453877Y-64091961D01*
X105461845Y-64048750D01*
X105466289Y-64032471D01*
X105473583Y-64012112D01*
X105481769Y-63971542D01*
X105483571Y-63959886D01*
X105493808Y-63909599D01*
X105511161Y-63842738D01*
X105529511Y-63781368D01*
X105566052Y-63667552D01*
X105684695Y-63613262D01*
X105755524Y-63577602D01*
X105825561Y-63537050D01*
X105877795Y-63501718D01*
X105961533Y-63422079D01*
X106038583Y-63321044D01*
X106100503Y-63211038D01*
X106133242Y-63125713D01*
X106164577Y-63018150D01*
X106221167Y-63090898D01*
X106258412Y-63134955D01*
X106286018Y-63156130D01*
X106311988Y-63160453D01*
X106313352Y-63160339D01*
X106348709Y-63142434D01*
X106366136Y-63099249D01*
X106365658Y-63034222D01*
X106347300Y-62950786D01*
X106311097Y-62852400D01*
X106275577Y-62791235D01*
X106221667Y-62722969D01*
X106157281Y-62655510D01*
X106090330Y-62596763D01*
X106028728Y-62554636D01*
X105999796Y-62541347D01*
X105932200Y-62530421D01*
X105873197Y-62543292D01*
X105831243Y-62577320D01*
X105820751Y-62597257D01*
X105815010Y-62622704D01*
X105821398Y-62646796D01*
X105844024Y-62674890D01*
X105886998Y-62712339D01*
X105941688Y-62754835D01*
X105982081Y-62787736D01*
X106000622Y-62812478D01*
X106003512Y-62839870D01*
X106000993Y-62858146D01*
X105979574Y-62943926D01*
X105945467Y-63037249D01*
X105905058Y-63121898D01*
X105882788Y-63158404D01*
X105840454Y-63209465D01*
X105783694Y-63264111D01*
X105722017Y-63314437D01*
X105664931Y-63352532D01*
X105630072Y-63368561D01*
X105588193Y-63388587D01*
X105567053Y-63404865D01*
X105531364Y-63427965D01*
X105470002Y-63454902D01*
X105390548Y-63483110D01*
X105300582Y-63510018D01*
X105207686Y-63533056D01*
X105159949Y-63542803D01*
X105092215Y-63557909D01*
X105036861Y-63574812D01*
X105002775Y-63590622D01*
X104997294Y-63595674D01*
X104989552Y-63629842D01*
X105011908Y-63659663D01*
X105060627Y-63682197D01*
X105121955Y-63693632D01*
X105174794Y-63699759D01*
X105211860Y-63705716D01*
X105223055Y-63709083D01*
X105220689Y-63727278D01*
X105202213Y-63757020D01*
X105176449Y-63786939D01*
X105152224Y-63805667D01*
X105146753Y-63807380D01*
X105119173Y-63816096D01*
X105071656Y-63835557D01*
X105016113Y-63860795D01*
X104949271Y-63887115D01*
X104864274Y-63913054D01*
X104776573Y-63934052D01*
X104752220Y-63938676D01*
X104662572Y-63957349D01*
X104605407Y-63976678D01*
X104579341Y-63997774D01*
X104582996Y-64021748D01*
X104614483Y-64049373D01*
X104660594Y-64068794D01*
X104718471Y-64079355D01*
X104731504Y-64079933D01*
X104775636Y-64082322D01*
X104801283Y-64087371D01*
X104803911Y-64089818D01*
X104789280Y-64101331D01*
X104752694Y-64117151D01*
X104705114Y-64133609D01*
X104657501Y-64147040D01*
X104620814Y-64153778D01*
X104612439Y-64153863D01*
X104580685Y-64156657D01*
X104570592Y-64161852D01*
X104549723Y-64167915D01*
X104503214Y-64174943D01*
X104439245Y-64182155D01*
X104365999Y-64188774D01*
X104291653Y-64194019D01*
X104224393Y-64197112D01*
X104195071Y-64197611D01*
X104145980Y-64199657D01*
X104118145Y-64210403D01*
X104098982Y-64237265D01*
X104087969Y-64260726D01*
X104080176Y-64299465D01*
X104100059Y-64334062D01*
X104105149Y-64339334D01*
X104141366Y-64375552D01*
X104060067Y-64456851D01*
X103960615Y-64541770D01*
X103849772Y-64612071D01*
X103739646Y-64660229D01*
X103725950Y-64664490D01*
X103665606Y-64680105D01*
X103581825Y-64698946D01*
X103484635Y-64719046D01*
X103384061Y-64738438D01*
X103290134Y-64755152D01*
X103212882Y-64767222D01*
X103183686Y-64770896D01*
X103083101Y-64794893D01*
X102972772Y-64843791D01*
X102860221Y-64913349D01*
X102752969Y-64999337D01*
X102716782Y-65033821D01*
X102647076Y-65099140D01*
X102568190Y-65165917D01*
X102485603Y-65230262D01*
X102404793Y-65288281D01*
X102331241Y-65336085D01*
X102270422Y-65369780D01*
X102227815Y-65385474D01*
X102220875Y-65386130D01*
X102189284Y-65397271D01*
X102173452Y-65409521D01*
X102142339Y-65429270D01*
X102087522Y-65453804D01*
X102018145Y-65479682D01*
X101943358Y-65503463D01*
X101879432Y-65520126D01*
X101826799Y-65527852D01*
X101794812Y-65524062D01*
X101788354Y-65509945D01*
X101795798Y-65499807D01*
X101808933Y-65470299D01*
X101816911Y-65421701D01*
X101819116Y-65367372D01*
X101814931Y-65320675D01*
X101805198Y-65296222D01*
X101786226Y-65284910D01*
X101761240Y-65286203D01*
X101727338Y-65302147D01*
X101681620Y-65334792D01*
X101621186Y-65386184D01*
X101543132Y-65458372D01*
X101454249Y-65543956D01*
X101365628Y-65629479D01*
X101296006Y-65694503D01*
X101240833Y-65742868D01*
X101195556Y-65778410D01*
X101155623Y-65804967D01*
X101123499Y-65822823D01*
X101073507Y-65847833D01*
X101048862Y-65857193D01*
X101045131Y-65851380D01*
X101057884Y-65830870D01*
X101058637Y-65829803D01*
X101075798Y-65793154D01*
X101065248Y-65760365D01*
X101058230Y-65750878D01*
X101032753Y-65725207D01*
X101003924Y-65714228D01*
X100964915Y-65718462D01*
X100908905Y-65738431D01*
X100844921Y-65767186D01*
X100758713Y-65805839D01*
X100691737Y-65830823D01*
X100633775Y-65845199D01*
X100574611Y-65852024D01*
X100558763Y-65852895D01*
X100494794Y-65855851D01*
X100521036Y-65803195D01*
X100535342Y-65757199D01*
X100523495Y-65720624D01*
X100519668Y-65715464D01*
X100475042Y-65677765D01*
X100421908Y-65670637D01*
X100362935Y-65689771D01*
X100189109Y-65764981D01*
X100024400Y-65821883D01*
X99873142Y-65859344D01*
X99739666Y-65876227D01*
X99655941Y-65874907D01*
X99578783Y-65862254D01*
X99530372Y-65839852D01*
X99506295Y-65804846D01*
X99501637Y-65775077D01*
X99491684Y-65716459D01*
X99469559Y-65657290D01*
X99441897Y-65615024D01*
X99416465Y-65608356D01*
X99373050Y-65611683D01*
X99358824Y-65614606D01*
X99293261Y-65643622D01*
X99251915Y-65694636D01*
G37*
X99251915Y-65694636D02*
X99234255Y-65768727D01*
X99238712Y-65859898D01*
X99268638Y-66025778D01*
X99307602Y-66161391D01*
X99356652Y-66269377D01*
X99416837Y-66352382D01*
X99444949Y-66379784D01*
X99500799Y-66418033D01*
X99543675Y-66426210D01*
X99571144Y-66406428D01*
X99580767Y-66360801D01*
X99570108Y-66291443D01*
X99565434Y-66275250D01*
X99548001Y-66211614D01*
X99533675Y-66147595D01*
X99531322Y-66134606D01*
X99520229Y-66068656D01*
X99579731Y-66078239D01*
X99710629Y-66091271D01*
X99850805Y-66088406D01*
X99979658Y-66074251D01*
X100050328Y-66063585D01*
X100107580Y-66053687D01*
X100143660Y-66045967D01*
X100151923Y-66042964D01*
X100185182Y-66031770D01*
X100239316Y-66031985D01*
X100304106Y-66041605D01*
X100369328Y-66058627D01*
X100424764Y-66081043D01*
X100456410Y-66102696D01*
X100486969Y-66118433D01*
X100494861Y-66119440D01*
X100521215Y-66128189D01*
X100571751Y-66152080D01*
X100641827Y-66188477D01*
X100726800Y-66234747D01*
X100822027Y-66288255D01*
X100922865Y-66346364D01*
X101024671Y-66406438D01*
X101122803Y-66465843D01*
X101212619Y-66521945D01*
X101273187Y-66561233D01*
X101323982Y-66593410D01*
X101366676Y-66617854D01*
X101387350Y-66627460D01*
X101420246Y-66642692D01*
X101462403Y-66667493D01*
X101465219Y-66669328D01*
X101526200Y-66707485D01*
X101598581Y-66749998D01*
X101672898Y-66791600D01*
X101739688Y-66827024D01*
X101789489Y-66851002D01*
X101797803Y-66854445D01*
X101842127Y-66875752D01*
X101874166Y-66897831D01*
X101874764Y-66898418D01*
X101904955Y-66918339D01*
X101919403Y-66922002D01*
X101947382Y-66930024D01*
X101990241Y-66948980D01*
X102003954Y-66955991D01*
X102080160Y-66990793D01*
X102180507Y-67028721D01*
X102295791Y-67066973D01*
X102416809Y-67102746D01*
X102534356Y-67133237D01*
X102639231Y-67155645D01*
X102683176Y-67162820D01*
X102928217Y-67185872D01*
X103162335Y-67183402D01*
X103391174Y-67154455D01*
X103620372Y-67098078D01*
X103855569Y-67013316D01*
X104030489Y-66934803D01*
X104193311Y-66849112D01*
X104349974Y-66753031D01*
X104494812Y-66650753D01*
X104622164Y-66546475D01*
X104726368Y-66444390D01*
X104780290Y-66379474D01*
X104802909Y-66349163D01*
X104838453Y-66301623D01*
X104879543Y-66246727D01*
X104882744Y-66242453D01*
X104944730Y-66152236D01*
X105007688Y-66047841D01*
X105065011Y-65941136D01*
X105110094Y-65843990D01*
X105123215Y-65810478D01*
X105180591Y-65646469D01*
X105224925Y-65506113D01*
X105243047Y-65441309D01*
X105258455Y-65374734D01*
X105277044Y-65281786D01*
X105297633Y-65169676D01*
X105319039Y-65045616D01*
X105340078Y-64916816D01*
X105359570Y-64790489D01*
X105376333Y-64673846D01*
X105389184Y-64574097D01*
X105396274Y-64506529D01*
X105401664Y-64455351D01*
X105410171Y-64387299D01*
X105420722Y-64309652D01*
X105432240Y-64229693D01*
X105443650Y-64154702D01*
X105453877Y-64091961D01*
X105461845Y-64048750D01*
X105466289Y-64032471D01*
X105473583Y-64012112D01*
X105481769Y-63971542D01*
X105483571Y-63959886D01*
X105493808Y-63909599D01*
X105511161Y-63842738D01*
X105529511Y-63781368D01*
X105566052Y-63667552D01*
X105684695Y-63613262D01*
X105755524Y-63577602D01*
X105825561Y-63537050D01*
X105877795Y-63501718D01*
X105961533Y-63422079D01*
X106038583Y-63321044D01*
X106100503Y-63211038D01*
X106133242Y-63125713D01*
X106164577Y-63018150D01*
X106221167Y-63090898D01*
X106258412Y-63134955D01*
X106286018Y-63156130D01*
X106311988Y-63160453D01*
X106313352Y-63160339D01*
X106348709Y-63142434D01*
X106366136Y-63099249D01*
X106365658Y-63034222D01*
X106347300Y-62950786D01*
X106311097Y-62852400D01*
X106275577Y-62791235D01*
X106221667Y-62722969D01*
X106157281Y-62655510D01*
X106090330Y-62596763D01*
X106028728Y-62554636D01*
X105999796Y-62541347D01*
X105932200Y-62530421D01*
X105873197Y-62543292D01*
X105831243Y-62577320D01*
X105820751Y-62597257D01*
X105815010Y-62622704D01*
X105821398Y-62646796D01*
X105844024Y-62674890D01*
X105886998Y-62712339D01*
X105941688Y-62754835D01*
X105982081Y-62787736D01*
X106000622Y-62812478D01*
X106003512Y-62839870D01*
X106000993Y-62858146D01*
X105979574Y-62943926D01*
X105945467Y-63037249D01*
X105905058Y-63121898D01*
X105882788Y-63158404D01*
X105840454Y-63209465D01*
X105783694Y-63264111D01*
X105722017Y-63314437D01*
X105664931Y-63352532D01*
X105630072Y-63368561D01*
X105588193Y-63388587D01*
X105567053Y-63404865D01*
X105531364Y-63427965D01*
X105470002Y-63454902D01*
X105390548Y-63483110D01*
X105300582Y-63510018D01*
X105207686Y-63533056D01*
X105159949Y-63542803D01*
X105092215Y-63557909D01*
X105036861Y-63574812D01*
X105002775Y-63590622D01*
X104997294Y-63595674D01*
X104989552Y-63629842D01*
X105011908Y-63659663D01*
X105060627Y-63682197D01*
X105121955Y-63693632D01*
X105174794Y-63699759D01*
X105211860Y-63705716D01*
X105223055Y-63709083D01*
X105220689Y-63727278D01*
X105202213Y-63757020D01*
X105176449Y-63786939D01*
X105152224Y-63805667D01*
X105146753Y-63807380D01*
X105119173Y-63816096D01*
X105071656Y-63835557D01*
X105016113Y-63860795D01*
X104949271Y-63887115D01*
X104864274Y-63913054D01*
X104776573Y-63934052D01*
X104752220Y-63938676D01*
X104662572Y-63957349D01*
X104605407Y-63976678D01*
X104579341Y-63997774D01*
X104582996Y-64021748D01*
X104614483Y-64049373D01*
X104660594Y-64068794D01*
X104718471Y-64079355D01*
X104731504Y-64079933D01*
X104775636Y-64082322D01*
X104801283Y-64087371D01*
X104803911Y-64089818D01*
X104789280Y-64101331D01*
X104752694Y-64117151D01*
X104705114Y-64133609D01*
X104657501Y-64147040D01*
X104620814Y-64153778D01*
X104612439Y-64153863D01*
X104580685Y-64156657D01*
X104570592Y-64161852D01*
X104549723Y-64167915D01*
X104503214Y-64174943D01*
X104439245Y-64182155D01*
X104365999Y-64188774D01*
X104291653Y-64194019D01*
X104224393Y-64197112D01*
X104195071Y-64197611D01*
X104145980Y-64199657D01*
X104118145Y-64210403D01*
X104098982Y-64237265D01*
X104087969Y-64260726D01*
X104080176Y-64299465D01*
X104100059Y-64334062D01*
X104105149Y-64339334D01*
X104141366Y-64375552D01*
X104060067Y-64456851D01*
X103960615Y-64541770D01*
X103849772Y-64612071D01*
X103739646Y-64660229D01*
X103725950Y-64664490D01*
X103665606Y-64680105D01*
X103581825Y-64698946D01*
X103484635Y-64719046D01*
X103384061Y-64738438D01*
X103290134Y-64755152D01*
X103212882Y-64767222D01*
X103183686Y-64770896D01*
X103083101Y-64794893D01*
X102972772Y-64843791D01*
X102860221Y-64913349D01*
X102752969Y-64999337D01*
X102716782Y-65033821D01*
X102647076Y-65099140D01*
X102568190Y-65165917D01*
X102485603Y-65230262D01*
X102404793Y-65288281D01*
X102331241Y-65336085D01*
X102270422Y-65369780D01*
X102227815Y-65385474D01*
X102220875Y-65386130D01*
X102189284Y-65397271D01*
X102173452Y-65409521D01*
X102142339Y-65429270D01*
X102087522Y-65453804D01*
X102018145Y-65479682D01*
X101943358Y-65503463D01*
X101879432Y-65520126D01*
X101826799Y-65527852D01*
X101794812Y-65524062D01*
X101788354Y-65509945D01*
X101795798Y-65499807D01*
X101808933Y-65470299D01*
X101816911Y-65421701D01*
X101819116Y-65367372D01*
X101814931Y-65320675D01*
X101805198Y-65296222D01*
X101786226Y-65284910D01*
X101761240Y-65286203D01*
X101727338Y-65302147D01*
X101681620Y-65334792D01*
X101621186Y-65386184D01*
X101543132Y-65458372D01*
X101454249Y-65543956D01*
X101365628Y-65629479D01*
X101296006Y-65694503D01*
X101240833Y-65742868D01*
X101195556Y-65778410D01*
X101155623Y-65804967D01*
X101123499Y-65822823D01*
X101073507Y-65847833D01*
X101048862Y-65857193D01*
X101045131Y-65851380D01*
X101057884Y-65830870D01*
X101058637Y-65829803D01*
X101075798Y-65793154D01*
X101065248Y-65760365D01*
X101058230Y-65750878D01*
X101032753Y-65725207D01*
X101003924Y-65714228D01*
X100964915Y-65718462D01*
X100908905Y-65738431D01*
X100844921Y-65767186D01*
X100758713Y-65805839D01*
X100691737Y-65830823D01*
X100633775Y-65845199D01*
X100574611Y-65852024D01*
X100558763Y-65852895D01*
X100494794Y-65855851D01*
X100521036Y-65803195D01*
X100535342Y-65757199D01*
X100523495Y-65720624D01*
X100519668Y-65715464D01*
X100475042Y-65677765D01*
X100421908Y-65670637D01*
X100362935Y-65689771D01*
X100189109Y-65764981D01*
X100024400Y-65821883D01*
X99873142Y-65859344D01*
X99739666Y-65876227D01*
X99655941Y-65874907D01*
X99578783Y-65862254D01*
X99530372Y-65839852D01*
X99506295Y-65804846D01*
X99501637Y-65775077D01*
X99491684Y-65716459D01*
X99469559Y-65657290D01*
X99441897Y-65615024D01*
X99416465Y-65608356D01*
X99373050Y-65611683D01*
X99358824Y-65614606D01*
X99293261Y-65643622D01*
X99251915Y-65694636D01*
G36*
X101819523Y-60556731D02*
G01*
X101761637Y-60653737D01*
X101722614Y-60765864D01*
X101706789Y-60875751D01*
X101713769Y-60983287D01*
X101746150Y-61089205D01*
X101806195Y-61199776D01*
X101842948Y-61252863D01*
X101916041Y-61325352D01*
X102011413Y-61378970D01*
X102122328Y-61412307D01*
X102242049Y-61423957D01*
X102363838Y-61412512D01*
X102465554Y-61382943D01*
X102509321Y-61357540D01*
X102564856Y-61314394D01*
X102623703Y-61261442D01*
X102677405Y-61206619D01*
X102717503Y-61157859D01*
X102732634Y-61132333D01*
X102746368Y-61091547D01*
X102760750Y-61035269D01*
X102773975Y-60972930D01*
X102784237Y-60913966D01*
X102789731Y-60867811D01*
X102788650Y-60843895D01*
X102788023Y-60842998D01*
X102780103Y-60822713D01*
X102769741Y-60781118D01*
X102765192Y-60758857D01*
X102727591Y-60652204D01*
X102657156Y-60552345D01*
X102554362Y-60459930D01*
X102539283Y-60448949D01*
X102472891Y-60405418D01*
X102413796Y-60377900D01*
X102350421Y-60363093D01*
X102271184Y-60357695D01*
X102218728Y-60357520D01*
X102107670Y-60374127D01*
X101992162Y-60420360D01*
X101892266Y-60483327D01*
X101819523Y-60556731D01*
G37*
X101819523Y-60556731D02*
X101761637Y-60653737D01*
X101722614Y-60765864D01*
X101706789Y-60875751D01*
X101713769Y-60983287D01*
X101746150Y-61089205D01*
X101806195Y-61199776D01*
X101842948Y-61252863D01*
X101916041Y-61325352D01*
X102011413Y-61378970D01*
X102122328Y-61412307D01*
X102242049Y-61423957D01*
X102363838Y-61412512D01*
X102465554Y-61382943D01*
X102509321Y-61357540D01*
X102564856Y-61314394D01*
X102623703Y-61261442D01*
X102677405Y-61206619D01*
X102717503Y-61157859D01*
X102732634Y-61132333D01*
X102746368Y-61091547D01*
X102760750Y-61035269D01*
X102773975Y-60972930D01*
X102784237Y-60913966D01*
X102789731Y-60867811D01*
X102788650Y-60843895D01*
X102788023Y-60842998D01*
X102780103Y-60822713D01*
X102769741Y-60781118D01*
X102765192Y-60758857D01*
X102727591Y-60652204D01*
X102657156Y-60552345D01*
X102554362Y-60459930D01*
X102539283Y-60448949D01*
X102472891Y-60405418D01*
X102413796Y-60377900D01*
X102350421Y-60363093D01*
X102271184Y-60357695D01*
X102218728Y-60357520D01*
X102107670Y-60374127D01*
X101992162Y-60420360D01*
X101892266Y-60483327D01*
X101819523Y-60556731D01*
G36*
X99932687Y-61479563D02*
G01*
X99889654Y-61562979D01*
X99878452Y-61592401D01*
X99848694Y-61723789D01*
X99852731Y-61856474D01*
X99890538Y-61990013D01*
X99903801Y-62020356D01*
X99934033Y-62082742D01*
X99959276Y-62124308D01*
X99987822Y-62155387D01*
X100027963Y-62186313D01*
X100048207Y-62200329D01*
X100175195Y-62270205D01*
X100302953Y-62307236D01*
X100429776Y-62311224D01*
X100553961Y-62281976D01*
X100597484Y-62263373D01*
X100681448Y-62213437D01*
X100762155Y-62148581D01*
X100830088Y-62077525D01*
X100875726Y-62008983D01*
X100876068Y-62008278D01*
X100902764Y-61927894D01*
X100917282Y-61830782D01*
X100919064Y-61730081D01*
X100907551Y-61638932D01*
X100893683Y-61593446D01*
X100857833Y-61528581D01*
X100803631Y-61455969D01*
X100740300Y-61386145D01*
X100677061Y-61329642D01*
X100642090Y-61306004D01*
X100542385Y-61266964D01*
X100428111Y-61249721D01*
X100309195Y-61253711D01*
X100195562Y-61278369D01*
X100097138Y-61323128D01*
X100074813Y-61338321D01*
X99991637Y-61408261D01*
X99932687Y-61479563D01*
G37*
X99932687Y-61479563D02*
X99889654Y-61562979D01*
X99878452Y-61592401D01*
X99848694Y-61723789D01*
X99852731Y-61856474D01*
X99890538Y-61990013D01*
X99903801Y-62020356D01*
X99934033Y-62082742D01*
X99959276Y-62124308D01*
X99987822Y-62155387D01*
X100027963Y-62186313D01*
X100048207Y-62200329D01*
X100175195Y-62270205D01*
X100302953Y-62307236D01*
X100429776Y-62311224D01*
X100553961Y-62281976D01*
X100597484Y-62263373D01*
X100681448Y-62213437D01*
X100762155Y-62148581D01*
X100830088Y-62077525D01*
X100875726Y-62008983D01*
X100876068Y-62008278D01*
X100902764Y-61927894D01*
X100917282Y-61830782D01*
X100919064Y-61730081D01*
X100907551Y-61638932D01*
X100893683Y-61593446D01*
X100857833Y-61528581D01*
X100803631Y-61455969D01*
X100740300Y-61386145D01*
X100677061Y-61329642D01*
X100642090Y-61306004D01*
X100542385Y-61266964D01*
X100428111Y-61249721D01*
X100309195Y-61253711D01*
X100195562Y-61278369D01*
X100097138Y-61323128D01*
X100074813Y-61338321D01*
X99991637Y-61408261D01*
X99932687Y-61479563D01*
%TD*%
M02*
