M48
; DRILL file {KiCad (5.1.9)-1} date 05/29/21 15:52:22
; FORMAT={-:-/ absolute / inch / decimal}
; #@! TF.CreationDate,2021-05-29T15:52:22+02:00
; #@! TF.GenerationSoftware,Kicad,Pcbnew,(5.1.9)-1
; #@! TF.FileFunction,Plated,1,2,PTH
FMAT,2
INCH
T1C0.0236
T2C0.0315
T3C0.0354
T4C0.0362
T5C0.0394
T6C0.0917
%
G90
G05
T1
X4.474Y-2.654
X4.474Y-2.7327
T2
X3.946Y-2.808
X3.946Y-3.0049
X3.946Y-3.1031
X3.946Y-3.3
X4.158Y-2.9579
X4.158Y-3.15
X4.42Y-2.92
X4.42Y-3.22
X4.52Y-2.92
X4.52Y-3.22
X4.62Y-2.92
X4.62Y-3.22
X4.72Y-2.92
X4.72Y-3.22
X4.82Y-2.92
X4.82Y-3.22
X4.92Y-2.92
X4.92Y-3.22
X4.9675Y-3.63
X4.9675Y-4.03
X4.9716Y-2.796
X4.978Y-3.34
X5.009Y-4.374
X5.009Y-5.004
X5.02Y-2.92
X5.02Y-3.22
X5.07Y-2.796
X5.0764Y-3.34
X5.1075Y-3.6295
X5.1075Y-4.0295
X5.109Y-4.594
X5.109Y-4.7861
X5.12Y-2.92
X5.12Y-3.22
X5.2059Y-4.374
X5.2059Y-5.004
X5.22Y-2.92
X5.22Y-3.22
X5.2475Y-3.6295
X5.2475Y-4.0295
X5.32Y-2.92
X5.32Y-3.22
X5.42Y-2.92
X5.42Y-3.22
X5.43Y-2.409
X5.43Y-2.709
X5.52Y-2.92
X5.52Y-3.22
X5.5445Y-2.409
X5.5445Y-2.709
X5.62Y-2.92
X5.62Y-3.22
X5.67Y-2.365
X5.67Y-2.765
X5.72Y-2.92
X5.72Y-3.22
X5.8Y-2.365
X5.8Y-2.765
X5.9325Y-2.365
X5.9325Y-2.765
X6.0625Y-2.365
X6.0625Y-2.765
T3
X5.598Y-3.548
X5.698Y-3.548
X5.934Y-3.548
X6.034Y-3.548
T4
X4.942Y-2.4693
X4.942Y-2.548
X5.0404Y-2.4693
X5.0404Y-2.548
T5
X3.9525Y-3.68
X3.9525Y-3.78
X3.9525Y-3.88
X3.9525Y-3.98
X3.9525Y-4.08
X3.9525Y-4.18
X3.9525Y-4.28
X3.9525Y-4.38
X3.9525Y-4.48
X3.9525Y-4.58
X3.9525Y-4.68
X3.9525Y-4.78
X3.9525Y-4.88
X3.9525Y-4.98
X3.9525Y-5.08
X3.9525Y-5.18
X3.9525Y-5.28
X3.9525Y-5.38
X3.9525Y-5.48
X3.9525Y-5.58
X4.368Y-2.462
X4.5525Y-3.68
X4.5525Y-3.78
X4.5525Y-3.88
X4.5525Y-3.98
X4.5525Y-4.08
X4.5525Y-4.18
X4.5525Y-4.28
X4.5525Y-4.38
X4.5525Y-4.48
X4.5525Y-4.58
X4.5525Y-4.68
X4.5525Y-4.78
X4.5525Y-4.88
X4.5525Y-4.98
X4.5525Y-5.08
X4.5525Y-5.18
X4.5525Y-5.28
X4.5525Y-5.38
X4.5525Y-5.48
X4.5525Y-5.58
X4.568Y-2.4624
X4.9375Y-5.685
X4.9375Y-5.785
X5.0375Y-5.685
X5.0375Y-5.785
X5.1375Y-5.685
X5.1375Y-5.785
X5.2375Y-5.685
X5.2375Y-5.785
X5.3375Y-5.685
X5.3375Y-5.785
X5.72Y-4.24
X5.72Y-4.34
X5.72Y-4.44
X5.72Y-4.54
X5.72Y-4.64
X5.72Y-4.74
X5.72Y-4.84
X5.72Y-4.94
X5.72Y-5.04
X5.72Y-5.14
X5.72Y-5.24
X5.72Y-5.34
X5.72Y-5.44
X5.72Y-5.54
X5.946Y-2.97
X5.948Y-3.144
X6.02Y-4.24
X6.02Y-4.34
X6.02Y-4.44
X6.02Y-4.54
X6.02Y-4.64
X6.02Y-4.74
X6.02Y-4.84
X6.02Y-4.94
X6.02Y-5.04
X6.02Y-5.14
X6.02Y-5.24
X6.02Y-5.34
X6.02Y-5.44
X6.02Y-5.54
X6.046Y-2.97
X6.048Y-3.144
T6
X4.7542Y-2.3626
X5.2282Y-2.3626
T0
M30
