%TF.GenerationSoftware,KiCad,Pcbnew,(5.1.9)-1*%
%TF.CreationDate,2021-05-05T00:24:41+02:00*%
%TF.ProjectId,flashpad,666c6173-6870-4616-942e-6b696361645f,rev?*%
%TF.SameCoordinates,Original*%
%TF.FileFunction,Legend,Bot*%
%TF.FilePolarity,Positive*%
%FSLAX46Y46*%
G04 Gerber Fmt 4.6, Leading zero omitted, Abs format (unit mm)*
G04 Created by KiCad (PCBNEW (5.1.9)-1) date 2021-05-05 00:24:41*
%MOMM*%
%LPD*%
G01*
G04 APERTURE LIST*
%ADD10C,0.200000*%
%ADD11C,0.010000*%
G04 APERTURE END LIST*
D10*
X114929466Y-144919980D02*
X114929466Y-145729504D01*
X114881847Y-145824742D01*
X114834228Y-145872361D01*
X114738990Y-145919980D01*
X114548514Y-145919980D01*
X114453276Y-145872361D01*
X114405657Y-145824742D01*
X114358038Y-145729504D01*
X114358038Y-144919980D01*
X113929466Y-145872361D02*
X113786609Y-145919980D01*
X113548514Y-145919980D01*
X113453276Y-145872361D01*
X113405657Y-145824742D01*
X113358038Y-145729504D01*
X113358038Y-145634266D01*
X113405657Y-145539028D01*
X113453276Y-145491409D01*
X113548514Y-145443790D01*
X113738990Y-145396171D01*
X113834228Y-145348552D01*
X113881847Y-145300933D01*
X113929466Y-145205695D01*
X113929466Y-145110457D01*
X113881847Y-145015219D01*
X113834228Y-144967600D01*
X113738990Y-144919980D01*
X113500895Y-144919980D01*
X113358038Y-144967600D01*
X112596133Y-145396171D02*
X112453276Y-145443790D01*
X112405657Y-145491409D01*
X112358038Y-145586647D01*
X112358038Y-145729504D01*
X112405657Y-145824742D01*
X112453276Y-145872361D01*
X112548514Y-145919980D01*
X112929466Y-145919980D01*
X112929466Y-144919980D01*
X112596133Y-144919980D01*
X112500895Y-144967600D01*
X112453276Y-145015219D01*
X112405657Y-145110457D01*
X112405657Y-145205695D01*
X112453276Y-145300933D01*
X112500895Y-145348552D01*
X112596133Y-145396171D01*
X112929466Y-145396171D01*
X111500895Y-145919980D02*
X111500895Y-145396171D01*
X111548514Y-145300933D01*
X111643752Y-145253314D01*
X111834228Y-145253314D01*
X111929466Y-145300933D01*
X111500895Y-145872361D02*
X111596133Y-145919980D01*
X111834228Y-145919980D01*
X111929466Y-145872361D01*
X111977085Y-145777123D01*
X111977085Y-145681885D01*
X111929466Y-145586647D01*
X111834228Y-145539028D01*
X111596133Y-145539028D01*
X111500895Y-145491409D01*
X111072323Y-145872361D02*
X110977085Y-145919980D01*
X110786609Y-145919980D01*
X110691371Y-145872361D01*
X110643752Y-145777123D01*
X110643752Y-145729504D01*
X110691371Y-145634266D01*
X110786609Y-145586647D01*
X110929466Y-145586647D01*
X111024704Y-145539028D01*
X111072323Y-145443790D01*
X111072323Y-145396171D01*
X111024704Y-145300933D01*
X110929466Y-145253314D01*
X110786609Y-145253314D01*
X110691371Y-145300933D01*
X110215180Y-145253314D02*
X110215180Y-146253314D01*
X110215180Y-145300933D02*
X110119942Y-145253314D01*
X109929466Y-145253314D01*
X109834228Y-145300933D01*
X109786609Y-145348552D01*
X109738990Y-145443790D01*
X109738990Y-145729504D01*
X109786609Y-145824742D01*
X109834228Y-145872361D01*
X109929466Y-145919980D01*
X110119942Y-145919980D01*
X110215180Y-145872361D01*
X108548514Y-145919980D02*
X108548514Y-144919980D01*
X108215180Y-145634266D01*
X107881847Y-144919980D01*
X107881847Y-145919980D01*
X106977085Y-145253314D02*
X106977085Y-145919980D01*
X107405657Y-145253314D02*
X107405657Y-145777123D01*
X107358038Y-145872361D01*
X107262800Y-145919980D01*
X107119942Y-145919980D01*
X107024704Y-145872361D01*
X106977085Y-145824742D01*
X106358038Y-145919980D02*
X106453276Y-145872361D01*
X106500895Y-145777123D01*
X106500895Y-144919980D01*
X106119942Y-145253314D02*
X105738990Y-145253314D01*
X105977085Y-144919980D02*
X105977085Y-145777123D01*
X105929466Y-145872361D01*
X105834228Y-145919980D01*
X105738990Y-145919980D01*
X105405657Y-145919980D02*
X105405657Y-145253314D01*
X105405657Y-144919980D02*
X105453276Y-144967600D01*
X105405657Y-145015219D01*
X105358038Y-144967600D01*
X105405657Y-144919980D01*
X105405657Y-145015219D01*
X104929466Y-145919980D02*
X104929466Y-144919980D01*
X104548514Y-144919980D01*
X104453276Y-144967600D01*
X104405657Y-145015219D01*
X104358038Y-145110457D01*
X104358038Y-145253314D01*
X104405657Y-145348552D01*
X104453276Y-145396171D01*
X104548514Y-145443790D01*
X104929466Y-145443790D01*
X103500895Y-145919980D02*
X103500895Y-145396171D01*
X103548514Y-145300933D01*
X103643752Y-145253314D01*
X103834228Y-145253314D01*
X103929466Y-145300933D01*
X103500895Y-145872361D02*
X103596133Y-145919980D01*
X103834228Y-145919980D01*
X103929466Y-145872361D01*
X103977085Y-145777123D01*
X103977085Y-145681885D01*
X103929466Y-145586647D01*
X103834228Y-145539028D01*
X103596133Y-145539028D01*
X103500895Y-145491409D01*
X102596133Y-145919980D02*
X102596133Y-144919980D01*
X102596133Y-145872361D02*
X102691371Y-145919980D01*
X102881847Y-145919980D01*
X102977085Y-145872361D01*
X103024704Y-145824742D01*
X103072323Y-145729504D01*
X103072323Y-145443790D01*
X103024704Y-145348552D01*
X102977085Y-145300933D01*
X102881847Y-145253314D01*
X102691371Y-145253314D01*
X102596133Y-145300933D01*
X113024704Y-147619980D02*
X113024704Y-146619980D01*
X113024704Y-147000933D02*
X112929466Y-146953314D01*
X112738990Y-146953314D01*
X112643752Y-147000933D01*
X112596133Y-147048552D01*
X112548514Y-147143790D01*
X112548514Y-147429504D01*
X112596133Y-147524742D01*
X112643752Y-147572361D01*
X112738990Y-147619980D01*
X112929466Y-147619980D01*
X113024704Y-147572361D01*
X112215180Y-146953314D02*
X111977085Y-147619980D01*
X111738990Y-146953314D02*
X111977085Y-147619980D01*
X112072323Y-147858076D01*
X112119942Y-147905695D01*
X112215180Y-147953314D01*
X110596133Y-147619980D02*
X110596133Y-146619980D01*
X110500895Y-147239028D02*
X110215180Y-147619980D01*
X110215180Y-146953314D02*
X110596133Y-147334266D01*
X109786609Y-147619980D02*
X109786609Y-146619980D01*
X109786609Y-147000933D02*
X109691371Y-146953314D01*
X109500895Y-146953314D01*
X109405657Y-147000933D01*
X109358038Y-147048552D01*
X109310419Y-147143790D01*
X109310419Y-147429504D01*
X109358038Y-147524742D01*
X109405657Y-147572361D01*
X109500895Y-147619980D01*
X109691371Y-147619980D01*
X109786609Y-147572361D01*
X108881847Y-147239028D02*
X108119942Y-147239028D01*
X107262800Y-147572361D02*
X107358038Y-147619980D01*
X107548514Y-147619980D01*
X107643752Y-147572361D01*
X107691371Y-147477123D01*
X107691371Y-147096171D01*
X107643752Y-147000933D01*
X107548514Y-146953314D01*
X107358038Y-146953314D01*
X107262800Y-147000933D01*
X107215180Y-147096171D01*
X107215180Y-147191409D01*
X107691371Y-147286647D01*
X106643752Y-147619980D02*
X106738990Y-147572361D01*
X106786609Y-147477123D01*
X106786609Y-146619980D01*
X106262800Y-147619980D02*
X106262800Y-146953314D01*
X106262800Y-147048552D02*
X106215180Y-147000933D01*
X106119942Y-146953314D01*
X105977085Y-146953314D01*
X105881847Y-147000933D01*
X105834228Y-147096171D01*
X105834228Y-147619980D01*
X105834228Y-147096171D02*
X105786609Y-147000933D01*
X105691371Y-146953314D01*
X105548514Y-146953314D01*
X105453276Y-147000933D01*
X105405657Y-147096171D01*
X105405657Y-147619980D01*
X104786609Y-147619980D02*
X104881847Y-147572361D01*
X104929466Y-147524742D01*
X104977085Y-147429504D01*
X104977085Y-147143790D01*
X104929466Y-147048552D01*
X104881847Y-147000933D01*
X104786609Y-146953314D01*
X104643752Y-146953314D01*
X104548514Y-147000933D01*
X104500895Y-147048552D01*
X104453276Y-147143790D01*
X104453276Y-147429504D01*
X104500895Y-147524742D01*
X104548514Y-147572361D01*
X104643752Y-147619980D01*
X104786609Y-147619980D01*
X116024704Y-148653314D02*
X116024704Y-149462838D01*
X116072323Y-149558076D01*
X116119942Y-149605695D01*
X116215180Y-149653314D01*
X116358038Y-149653314D01*
X116453276Y-149605695D01*
X116024704Y-149272361D02*
X116119942Y-149319980D01*
X116310419Y-149319980D01*
X116405657Y-149272361D01*
X116453276Y-149224742D01*
X116500895Y-149129504D01*
X116500895Y-148843790D01*
X116453276Y-148748552D01*
X116405657Y-148700933D01*
X116310419Y-148653314D01*
X116119942Y-148653314D01*
X116024704Y-148700933D01*
X115548514Y-149319980D02*
X115548514Y-148653314D01*
X115548514Y-148319980D02*
X115596133Y-148367600D01*
X115548514Y-148415219D01*
X115500895Y-148367600D01*
X115548514Y-148319980D01*
X115548514Y-148415219D01*
X115215180Y-148653314D02*
X114834228Y-148653314D01*
X115072323Y-148319980D02*
X115072323Y-149177123D01*
X115024704Y-149272361D01*
X114929466Y-149319980D01*
X114834228Y-149319980D01*
X114500895Y-149319980D02*
X114500895Y-148319980D01*
X114072323Y-149319980D02*
X114072323Y-148796171D01*
X114119942Y-148700933D01*
X114215180Y-148653314D01*
X114358038Y-148653314D01*
X114453276Y-148700933D01*
X114500895Y-148748552D01*
X113167561Y-148653314D02*
X113167561Y-149319980D01*
X113596133Y-148653314D02*
X113596133Y-149177123D01*
X113548514Y-149272361D01*
X113453276Y-149319980D01*
X113310419Y-149319980D01*
X113215180Y-149272361D01*
X113167561Y-149224742D01*
X112691371Y-149319980D02*
X112691371Y-148319980D01*
X112691371Y-148700933D02*
X112596133Y-148653314D01*
X112405657Y-148653314D01*
X112310419Y-148700933D01*
X112262800Y-148748552D01*
X112215180Y-148843790D01*
X112215180Y-149129504D01*
X112262800Y-149224742D01*
X112310419Y-149272361D01*
X112405657Y-149319980D01*
X112596133Y-149319980D01*
X112691371Y-149272361D01*
X111786609Y-149224742D02*
X111738990Y-149272361D01*
X111786609Y-149319980D01*
X111834228Y-149272361D01*
X111786609Y-149224742D01*
X111786609Y-149319980D01*
X110881847Y-149272361D02*
X110977085Y-149319980D01*
X111167561Y-149319980D01*
X111262800Y-149272361D01*
X111310419Y-149224742D01*
X111358038Y-149129504D01*
X111358038Y-148843790D01*
X111310419Y-148748552D01*
X111262800Y-148700933D01*
X111167561Y-148653314D01*
X110977085Y-148653314D01*
X110881847Y-148700933D01*
X110310419Y-149319980D02*
X110405657Y-149272361D01*
X110453276Y-149224742D01*
X110500895Y-149129504D01*
X110500895Y-148843790D01*
X110453276Y-148748552D01*
X110405657Y-148700933D01*
X110310419Y-148653314D01*
X110167561Y-148653314D01*
X110072323Y-148700933D01*
X110024704Y-148748552D01*
X109977085Y-148843790D01*
X109977085Y-149129504D01*
X110024704Y-149224742D01*
X110072323Y-149272361D01*
X110167561Y-149319980D01*
X110310419Y-149319980D01*
X109548514Y-149319980D02*
X109548514Y-148653314D01*
X109548514Y-148748552D02*
X109500895Y-148700933D01*
X109405657Y-148653314D01*
X109262800Y-148653314D01*
X109167561Y-148700933D01*
X109119942Y-148796171D01*
X109119942Y-149319980D01*
X109119942Y-148796171D02*
X109072323Y-148700933D01*
X108977085Y-148653314D01*
X108834228Y-148653314D01*
X108738990Y-148700933D01*
X108691371Y-148796171D01*
X108691371Y-149319980D01*
X107500895Y-148272361D02*
X108358038Y-149558076D01*
X107167561Y-149319980D02*
X107167561Y-148319980D01*
X107072323Y-148939028D02*
X106786609Y-149319980D01*
X106786609Y-148653314D02*
X107167561Y-149034266D01*
X106358038Y-149319980D02*
X106358038Y-148319980D01*
X106358038Y-148700933D02*
X106262800Y-148653314D01*
X106072323Y-148653314D01*
X105977085Y-148700933D01*
X105929466Y-148748552D01*
X105881847Y-148843790D01*
X105881847Y-149129504D01*
X105929466Y-149224742D01*
X105977085Y-149272361D01*
X106072323Y-149319980D01*
X106262800Y-149319980D01*
X106358038Y-149272361D01*
X105453276Y-148939028D02*
X104691371Y-148939028D01*
X103834228Y-149272361D02*
X103929466Y-149319980D01*
X104119942Y-149319980D01*
X104215180Y-149272361D01*
X104262800Y-149177123D01*
X104262800Y-148796171D01*
X104215180Y-148700933D01*
X104119942Y-148653314D01*
X103929466Y-148653314D01*
X103834228Y-148700933D01*
X103786609Y-148796171D01*
X103786609Y-148891409D01*
X104262800Y-148986647D01*
X103215180Y-149319980D02*
X103310419Y-149272361D01*
X103358038Y-149177123D01*
X103358038Y-148319980D01*
X102834228Y-149319980D02*
X102834228Y-148653314D01*
X102834228Y-148748552D02*
X102786609Y-148700933D01*
X102691371Y-148653314D01*
X102548514Y-148653314D01*
X102453276Y-148700933D01*
X102405657Y-148796171D01*
X102405657Y-149319980D01*
X102405657Y-148796171D02*
X102358038Y-148700933D01*
X102262800Y-148653314D01*
X102119942Y-148653314D01*
X102024704Y-148700933D01*
X101977085Y-148796171D01*
X101977085Y-149319980D01*
X101358038Y-149319980D02*
X101453276Y-149272361D01*
X101500895Y-149224742D01*
X101548514Y-149129504D01*
X101548514Y-148843790D01*
X101500895Y-148748552D01*
X101453276Y-148700933D01*
X101358038Y-148653314D01*
X101215180Y-148653314D01*
X101119942Y-148700933D01*
X101072323Y-148748552D01*
X101024704Y-148843790D01*
X101024704Y-149129504D01*
X101072323Y-149224742D01*
X101119942Y-149272361D01*
X101215180Y-149319980D01*
X101358038Y-149319980D01*
D11*
%TO.C,G\u002A\u002A\u002A*%
G36*
X99704087Y-60984263D02*
G01*
X99661054Y-61067679D01*
X99649852Y-61097101D01*
X99620094Y-61228489D01*
X99624131Y-61361174D01*
X99661938Y-61494713D01*
X99675201Y-61525056D01*
X99705433Y-61587442D01*
X99730676Y-61629008D01*
X99759222Y-61660087D01*
X99799363Y-61691013D01*
X99819607Y-61705029D01*
X99946595Y-61774905D01*
X100074353Y-61811936D01*
X100201176Y-61815924D01*
X100325361Y-61786676D01*
X100368884Y-61768073D01*
X100452848Y-61718137D01*
X100533555Y-61653281D01*
X100601488Y-61582225D01*
X100647126Y-61513683D01*
X100647468Y-61512978D01*
X100674164Y-61432594D01*
X100688682Y-61335482D01*
X100690464Y-61234781D01*
X100678951Y-61143632D01*
X100665083Y-61098146D01*
X100629233Y-61033281D01*
X100575031Y-60960669D01*
X100511700Y-60890845D01*
X100448461Y-60834342D01*
X100413490Y-60810704D01*
X100313785Y-60771664D01*
X100199511Y-60754421D01*
X100080595Y-60758411D01*
X99966962Y-60783069D01*
X99868538Y-60827828D01*
X99846213Y-60843021D01*
X99763037Y-60912961D01*
X99704087Y-60984263D01*
G37*
X99704087Y-60984263D02*
X99661054Y-61067679D01*
X99649852Y-61097101D01*
X99620094Y-61228489D01*
X99624131Y-61361174D01*
X99661938Y-61494713D01*
X99675201Y-61525056D01*
X99705433Y-61587442D01*
X99730676Y-61629008D01*
X99759222Y-61660087D01*
X99799363Y-61691013D01*
X99819607Y-61705029D01*
X99946595Y-61774905D01*
X100074353Y-61811936D01*
X100201176Y-61815924D01*
X100325361Y-61786676D01*
X100368884Y-61768073D01*
X100452848Y-61718137D01*
X100533555Y-61653281D01*
X100601488Y-61582225D01*
X100647126Y-61513683D01*
X100647468Y-61512978D01*
X100674164Y-61432594D01*
X100688682Y-61335482D01*
X100690464Y-61234781D01*
X100678951Y-61143632D01*
X100665083Y-61098146D01*
X100629233Y-61033281D01*
X100575031Y-60960669D01*
X100511700Y-60890845D01*
X100448461Y-60834342D01*
X100413490Y-60810704D01*
X100313785Y-60771664D01*
X100199511Y-60754421D01*
X100080595Y-60758411D01*
X99966962Y-60783069D01*
X99868538Y-60827828D01*
X99846213Y-60843021D01*
X99763037Y-60912961D01*
X99704087Y-60984263D01*
G36*
X101590923Y-60061431D02*
G01*
X101533037Y-60158437D01*
X101494014Y-60270564D01*
X101478189Y-60380451D01*
X101485169Y-60487987D01*
X101517550Y-60593905D01*
X101577595Y-60704476D01*
X101614348Y-60757563D01*
X101687441Y-60830052D01*
X101782813Y-60883670D01*
X101893728Y-60917007D01*
X102013449Y-60928657D01*
X102135238Y-60917212D01*
X102236954Y-60887643D01*
X102280721Y-60862240D01*
X102336256Y-60819094D01*
X102395103Y-60766142D01*
X102448805Y-60711319D01*
X102488903Y-60662559D01*
X102504034Y-60637033D01*
X102517768Y-60596247D01*
X102532150Y-60539969D01*
X102545375Y-60477630D01*
X102555637Y-60418666D01*
X102561131Y-60372511D01*
X102560050Y-60348595D01*
X102559423Y-60347698D01*
X102551503Y-60327413D01*
X102541141Y-60285818D01*
X102536592Y-60263557D01*
X102498991Y-60156904D01*
X102428556Y-60057045D01*
X102325762Y-59964630D01*
X102310683Y-59953649D01*
X102244291Y-59910118D01*
X102185196Y-59882600D01*
X102121821Y-59867793D01*
X102042584Y-59862395D01*
X101990128Y-59862220D01*
X101879070Y-59878827D01*
X101763562Y-59925060D01*
X101663666Y-59988027D01*
X101590923Y-60061431D01*
G37*
X101590923Y-60061431D02*
X101533037Y-60158437D01*
X101494014Y-60270564D01*
X101478189Y-60380451D01*
X101485169Y-60487987D01*
X101517550Y-60593905D01*
X101577595Y-60704476D01*
X101614348Y-60757563D01*
X101687441Y-60830052D01*
X101782813Y-60883670D01*
X101893728Y-60917007D01*
X102013449Y-60928657D01*
X102135238Y-60917212D01*
X102236954Y-60887643D01*
X102280721Y-60862240D01*
X102336256Y-60819094D01*
X102395103Y-60766142D01*
X102448805Y-60711319D01*
X102488903Y-60662559D01*
X102504034Y-60637033D01*
X102517768Y-60596247D01*
X102532150Y-60539969D01*
X102545375Y-60477630D01*
X102555637Y-60418666D01*
X102561131Y-60372511D01*
X102560050Y-60348595D01*
X102559423Y-60347698D01*
X102551503Y-60327413D01*
X102541141Y-60285818D01*
X102536592Y-60263557D01*
X102498991Y-60156904D01*
X102428556Y-60057045D01*
X102325762Y-59964630D01*
X102310683Y-59953649D01*
X102244291Y-59910118D01*
X102185196Y-59882600D01*
X102121821Y-59867793D01*
X102042584Y-59862395D01*
X101990128Y-59862220D01*
X101879070Y-59878827D01*
X101763562Y-59925060D01*
X101663666Y-59988027D01*
X101590923Y-60061431D01*
G36*
X99023315Y-65199336D02*
G01*
X99005655Y-65273427D01*
X99010112Y-65364598D01*
X99040038Y-65530478D01*
X99079002Y-65666091D01*
X99128052Y-65774077D01*
X99188237Y-65857082D01*
X99216349Y-65884484D01*
X99272199Y-65922733D01*
X99315075Y-65930910D01*
X99342544Y-65911128D01*
X99352167Y-65865501D01*
X99341508Y-65796143D01*
X99336834Y-65779950D01*
X99319401Y-65716314D01*
X99305075Y-65652295D01*
X99302722Y-65639306D01*
X99291629Y-65573356D01*
X99351131Y-65582939D01*
X99482029Y-65595971D01*
X99622205Y-65593106D01*
X99751058Y-65578951D01*
X99821728Y-65568285D01*
X99878980Y-65558387D01*
X99915060Y-65550667D01*
X99923323Y-65547664D01*
X99956582Y-65536470D01*
X100010716Y-65536685D01*
X100075506Y-65546305D01*
X100140728Y-65563327D01*
X100196164Y-65585743D01*
X100227810Y-65607396D01*
X100258369Y-65623133D01*
X100266261Y-65624140D01*
X100292615Y-65632889D01*
X100343151Y-65656780D01*
X100413227Y-65693177D01*
X100498200Y-65739447D01*
X100593427Y-65792955D01*
X100694265Y-65851064D01*
X100796071Y-65911138D01*
X100894203Y-65970543D01*
X100984019Y-66026645D01*
X101044587Y-66065933D01*
X101095382Y-66098110D01*
X101138076Y-66122554D01*
X101158750Y-66132160D01*
X101191646Y-66147392D01*
X101233803Y-66172193D01*
X101236619Y-66174028D01*
X101297600Y-66212185D01*
X101369981Y-66254698D01*
X101444298Y-66296300D01*
X101511088Y-66331724D01*
X101560889Y-66355702D01*
X101569203Y-66359145D01*
X101613527Y-66380452D01*
X101645566Y-66402531D01*
X101646164Y-66403118D01*
X101676355Y-66423039D01*
X101690803Y-66426702D01*
X101718782Y-66434724D01*
X101761641Y-66453680D01*
X101775354Y-66460691D01*
X101851560Y-66495493D01*
X101951907Y-66533421D01*
X102067191Y-66571673D01*
X102188209Y-66607446D01*
X102305756Y-66637937D01*
X102410631Y-66660345D01*
X102454576Y-66667520D01*
X102699617Y-66690572D01*
X102933735Y-66688102D01*
X103162574Y-66659155D01*
X103391772Y-66602778D01*
X103626969Y-66518016D01*
X103801889Y-66439503D01*
X103964711Y-66353812D01*
X104121374Y-66257731D01*
X104266212Y-66155453D01*
X104393564Y-66051175D01*
X104497768Y-65949090D01*
X104551690Y-65884174D01*
X104574309Y-65853863D01*
X104609853Y-65806323D01*
X104650943Y-65751427D01*
X104654144Y-65747153D01*
X104716130Y-65656936D01*
X104779088Y-65552541D01*
X104836411Y-65445836D01*
X104881494Y-65348690D01*
X104894615Y-65315178D01*
X104951991Y-65151169D01*
X104996325Y-65010813D01*
X105014447Y-64946009D01*
X105029855Y-64879434D01*
X105048444Y-64786486D01*
X105069033Y-64674376D01*
X105090439Y-64550316D01*
X105111478Y-64421516D01*
X105130970Y-64295189D01*
X105147733Y-64178546D01*
X105160584Y-64078797D01*
X105167674Y-64011229D01*
X105173064Y-63960051D01*
X105181571Y-63891999D01*
X105192122Y-63814352D01*
X105203640Y-63734393D01*
X105215050Y-63659402D01*
X105225277Y-63596661D01*
X105233245Y-63553450D01*
X105237689Y-63537171D01*
X105244983Y-63516812D01*
X105253169Y-63476242D01*
X105254971Y-63464586D01*
X105265208Y-63414299D01*
X105282561Y-63347438D01*
X105300911Y-63286068D01*
X105337452Y-63172252D01*
X105456095Y-63117962D01*
X105526924Y-63082302D01*
X105596961Y-63041750D01*
X105649195Y-63006418D01*
X105732933Y-62926779D01*
X105809983Y-62825744D01*
X105871903Y-62715738D01*
X105904642Y-62630413D01*
X105935977Y-62522850D01*
X105992567Y-62595598D01*
X106029812Y-62639655D01*
X106057418Y-62660830D01*
X106083388Y-62665153D01*
X106084752Y-62665039D01*
X106120109Y-62647134D01*
X106137536Y-62603949D01*
X106137058Y-62538922D01*
X106118700Y-62455486D01*
X106082497Y-62357100D01*
X106046977Y-62295935D01*
X105993067Y-62227669D01*
X105928681Y-62160210D01*
X105861730Y-62101463D01*
X105800128Y-62059336D01*
X105771196Y-62046047D01*
X105703600Y-62035121D01*
X105644597Y-62047992D01*
X105602643Y-62082020D01*
X105592151Y-62101957D01*
X105586410Y-62127404D01*
X105592798Y-62151496D01*
X105615424Y-62179590D01*
X105658398Y-62217039D01*
X105713088Y-62259535D01*
X105753481Y-62292436D01*
X105772022Y-62317178D01*
X105774912Y-62344570D01*
X105772393Y-62362846D01*
X105750974Y-62448626D01*
X105716867Y-62541949D01*
X105676458Y-62626598D01*
X105654188Y-62663104D01*
X105611854Y-62714165D01*
X105555094Y-62768811D01*
X105493417Y-62819137D01*
X105436331Y-62857232D01*
X105401472Y-62873261D01*
X105359593Y-62893287D01*
X105338453Y-62909565D01*
X105302764Y-62932665D01*
X105241402Y-62959602D01*
X105161948Y-62987810D01*
X105071982Y-63014718D01*
X104979086Y-63037756D01*
X104931349Y-63047503D01*
X104863615Y-63062609D01*
X104808261Y-63079512D01*
X104774175Y-63095322D01*
X104768694Y-63100374D01*
X104760952Y-63134542D01*
X104783308Y-63164363D01*
X104832027Y-63186897D01*
X104893355Y-63198332D01*
X104946194Y-63204459D01*
X104983260Y-63210416D01*
X104994455Y-63213783D01*
X104992089Y-63231978D01*
X104973613Y-63261720D01*
X104947849Y-63291639D01*
X104923624Y-63310367D01*
X104918153Y-63312080D01*
X104890573Y-63320796D01*
X104843056Y-63340257D01*
X104787513Y-63365495D01*
X104720671Y-63391815D01*
X104635674Y-63417754D01*
X104547973Y-63438752D01*
X104523620Y-63443376D01*
X104433972Y-63462049D01*
X104376807Y-63481378D01*
X104350741Y-63502474D01*
X104354396Y-63526448D01*
X104385883Y-63554073D01*
X104431994Y-63573494D01*
X104489871Y-63584055D01*
X104502904Y-63584633D01*
X104547036Y-63587022D01*
X104572683Y-63592071D01*
X104575311Y-63594518D01*
X104560680Y-63606031D01*
X104524094Y-63621851D01*
X104476514Y-63638309D01*
X104428901Y-63651740D01*
X104392214Y-63658478D01*
X104383839Y-63658563D01*
X104352085Y-63661357D01*
X104341992Y-63666552D01*
X104321123Y-63672615D01*
X104274614Y-63679643D01*
X104210645Y-63686855D01*
X104137399Y-63693474D01*
X104063053Y-63698719D01*
X103995793Y-63701812D01*
X103966471Y-63702311D01*
X103917380Y-63704357D01*
X103889545Y-63715103D01*
X103870382Y-63741965D01*
X103859369Y-63765426D01*
X103851576Y-63804165D01*
X103871459Y-63838762D01*
X103876549Y-63844034D01*
X103912766Y-63880252D01*
X103831467Y-63961551D01*
X103732015Y-64046470D01*
X103621172Y-64116771D01*
X103511046Y-64164929D01*
X103497350Y-64169190D01*
X103437006Y-64184805D01*
X103353225Y-64203646D01*
X103256035Y-64223746D01*
X103155461Y-64243138D01*
X103061534Y-64259852D01*
X102984282Y-64271922D01*
X102955086Y-64275596D01*
X102854501Y-64299593D01*
X102744172Y-64348491D01*
X102631621Y-64418049D01*
X102524369Y-64504037D01*
X102488182Y-64538521D01*
X102418476Y-64603840D01*
X102339590Y-64670617D01*
X102257003Y-64734962D01*
X102176193Y-64792981D01*
X102102641Y-64840785D01*
X102041822Y-64874480D01*
X101999215Y-64890174D01*
X101992275Y-64890830D01*
X101960684Y-64901971D01*
X101944852Y-64914221D01*
X101913739Y-64933970D01*
X101858922Y-64958504D01*
X101789545Y-64984382D01*
X101714758Y-65008163D01*
X101650832Y-65024826D01*
X101598199Y-65032552D01*
X101566212Y-65028762D01*
X101559754Y-65014645D01*
X101567198Y-65004507D01*
X101580333Y-64974999D01*
X101588311Y-64926401D01*
X101590516Y-64872072D01*
X101586331Y-64825375D01*
X101576598Y-64800922D01*
X101557626Y-64789610D01*
X101532640Y-64790903D01*
X101498738Y-64806847D01*
X101453020Y-64839492D01*
X101392586Y-64890884D01*
X101314532Y-64963072D01*
X101225649Y-65048656D01*
X101137028Y-65134179D01*
X101067406Y-65199203D01*
X101012233Y-65247568D01*
X100966956Y-65283110D01*
X100927023Y-65309667D01*
X100894899Y-65327523D01*
X100844907Y-65352533D01*
X100820262Y-65361893D01*
X100816531Y-65356080D01*
X100829284Y-65335570D01*
X100830037Y-65334503D01*
X100847198Y-65297854D01*
X100836648Y-65265065D01*
X100829630Y-65255578D01*
X100804153Y-65229907D01*
X100775324Y-65218928D01*
X100736315Y-65223162D01*
X100680305Y-65243131D01*
X100616321Y-65271886D01*
X100530113Y-65310539D01*
X100463137Y-65335523D01*
X100405175Y-65349899D01*
X100346011Y-65356724D01*
X100330163Y-65357595D01*
X100266194Y-65360551D01*
X100292436Y-65307895D01*
X100306742Y-65261899D01*
X100294895Y-65225324D01*
X100291068Y-65220164D01*
X100246442Y-65182465D01*
X100193308Y-65175337D01*
X100134335Y-65194471D01*
X99960509Y-65269681D01*
X99795800Y-65326583D01*
X99644542Y-65364044D01*
X99511066Y-65380927D01*
X99427341Y-65379607D01*
X99350183Y-65366954D01*
X99301772Y-65344552D01*
X99277695Y-65309546D01*
X99273037Y-65279777D01*
X99263084Y-65221159D01*
X99240959Y-65161990D01*
X99213297Y-65119724D01*
X99187865Y-65113056D01*
X99144450Y-65116383D01*
X99130224Y-65119306D01*
X99064661Y-65148322D01*
X99023315Y-65199336D01*
G37*
X99023315Y-65199336D02*
X99005655Y-65273427D01*
X99010112Y-65364598D01*
X99040038Y-65530478D01*
X99079002Y-65666091D01*
X99128052Y-65774077D01*
X99188237Y-65857082D01*
X99216349Y-65884484D01*
X99272199Y-65922733D01*
X99315075Y-65930910D01*
X99342544Y-65911128D01*
X99352167Y-65865501D01*
X99341508Y-65796143D01*
X99336834Y-65779950D01*
X99319401Y-65716314D01*
X99305075Y-65652295D01*
X99302722Y-65639306D01*
X99291629Y-65573356D01*
X99351131Y-65582939D01*
X99482029Y-65595971D01*
X99622205Y-65593106D01*
X99751058Y-65578951D01*
X99821728Y-65568285D01*
X99878980Y-65558387D01*
X99915060Y-65550667D01*
X99923323Y-65547664D01*
X99956582Y-65536470D01*
X100010716Y-65536685D01*
X100075506Y-65546305D01*
X100140728Y-65563327D01*
X100196164Y-65585743D01*
X100227810Y-65607396D01*
X100258369Y-65623133D01*
X100266261Y-65624140D01*
X100292615Y-65632889D01*
X100343151Y-65656780D01*
X100413227Y-65693177D01*
X100498200Y-65739447D01*
X100593427Y-65792955D01*
X100694265Y-65851064D01*
X100796071Y-65911138D01*
X100894203Y-65970543D01*
X100984019Y-66026645D01*
X101044587Y-66065933D01*
X101095382Y-66098110D01*
X101138076Y-66122554D01*
X101158750Y-66132160D01*
X101191646Y-66147392D01*
X101233803Y-66172193D01*
X101236619Y-66174028D01*
X101297600Y-66212185D01*
X101369981Y-66254698D01*
X101444298Y-66296300D01*
X101511088Y-66331724D01*
X101560889Y-66355702D01*
X101569203Y-66359145D01*
X101613527Y-66380452D01*
X101645566Y-66402531D01*
X101646164Y-66403118D01*
X101676355Y-66423039D01*
X101690803Y-66426702D01*
X101718782Y-66434724D01*
X101761641Y-66453680D01*
X101775354Y-66460691D01*
X101851560Y-66495493D01*
X101951907Y-66533421D01*
X102067191Y-66571673D01*
X102188209Y-66607446D01*
X102305756Y-66637937D01*
X102410631Y-66660345D01*
X102454576Y-66667520D01*
X102699617Y-66690572D01*
X102933735Y-66688102D01*
X103162574Y-66659155D01*
X103391772Y-66602778D01*
X103626969Y-66518016D01*
X103801889Y-66439503D01*
X103964711Y-66353812D01*
X104121374Y-66257731D01*
X104266212Y-66155453D01*
X104393564Y-66051175D01*
X104497768Y-65949090D01*
X104551690Y-65884174D01*
X104574309Y-65853863D01*
X104609853Y-65806323D01*
X104650943Y-65751427D01*
X104654144Y-65747153D01*
X104716130Y-65656936D01*
X104779088Y-65552541D01*
X104836411Y-65445836D01*
X104881494Y-65348690D01*
X104894615Y-65315178D01*
X104951991Y-65151169D01*
X104996325Y-65010813D01*
X105014447Y-64946009D01*
X105029855Y-64879434D01*
X105048444Y-64786486D01*
X105069033Y-64674376D01*
X105090439Y-64550316D01*
X105111478Y-64421516D01*
X105130970Y-64295189D01*
X105147733Y-64178546D01*
X105160584Y-64078797D01*
X105167674Y-64011229D01*
X105173064Y-63960051D01*
X105181571Y-63891999D01*
X105192122Y-63814352D01*
X105203640Y-63734393D01*
X105215050Y-63659402D01*
X105225277Y-63596661D01*
X105233245Y-63553450D01*
X105237689Y-63537171D01*
X105244983Y-63516812D01*
X105253169Y-63476242D01*
X105254971Y-63464586D01*
X105265208Y-63414299D01*
X105282561Y-63347438D01*
X105300911Y-63286068D01*
X105337452Y-63172252D01*
X105456095Y-63117962D01*
X105526924Y-63082302D01*
X105596961Y-63041750D01*
X105649195Y-63006418D01*
X105732933Y-62926779D01*
X105809983Y-62825744D01*
X105871903Y-62715738D01*
X105904642Y-62630413D01*
X105935977Y-62522850D01*
X105992567Y-62595598D01*
X106029812Y-62639655D01*
X106057418Y-62660830D01*
X106083388Y-62665153D01*
X106084752Y-62665039D01*
X106120109Y-62647134D01*
X106137536Y-62603949D01*
X106137058Y-62538922D01*
X106118700Y-62455486D01*
X106082497Y-62357100D01*
X106046977Y-62295935D01*
X105993067Y-62227669D01*
X105928681Y-62160210D01*
X105861730Y-62101463D01*
X105800128Y-62059336D01*
X105771196Y-62046047D01*
X105703600Y-62035121D01*
X105644597Y-62047992D01*
X105602643Y-62082020D01*
X105592151Y-62101957D01*
X105586410Y-62127404D01*
X105592798Y-62151496D01*
X105615424Y-62179590D01*
X105658398Y-62217039D01*
X105713088Y-62259535D01*
X105753481Y-62292436D01*
X105772022Y-62317178D01*
X105774912Y-62344570D01*
X105772393Y-62362846D01*
X105750974Y-62448626D01*
X105716867Y-62541949D01*
X105676458Y-62626598D01*
X105654188Y-62663104D01*
X105611854Y-62714165D01*
X105555094Y-62768811D01*
X105493417Y-62819137D01*
X105436331Y-62857232D01*
X105401472Y-62873261D01*
X105359593Y-62893287D01*
X105338453Y-62909565D01*
X105302764Y-62932665D01*
X105241402Y-62959602D01*
X105161948Y-62987810D01*
X105071982Y-63014718D01*
X104979086Y-63037756D01*
X104931349Y-63047503D01*
X104863615Y-63062609D01*
X104808261Y-63079512D01*
X104774175Y-63095322D01*
X104768694Y-63100374D01*
X104760952Y-63134542D01*
X104783308Y-63164363D01*
X104832027Y-63186897D01*
X104893355Y-63198332D01*
X104946194Y-63204459D01*
X104983260Y-63210416D01*
X104994455Y-63213783D01*
X104992089Y-63231978D01*
X104973613Y-63261720D01*
X104947849Y-63291639D01*
X104923624Y-63310367D01*
X104918153Y-63312080D01*
X104890573Y-63320796D01*
X104843056Y-63340257D01*
X104787513Y-63365495D01*
X104720671Y-63391815D01*
X104635674Y-63417754D01*
X104547973Y-63438752D01*
X104523620Y-63443376D01*
X104433972Y-63462049D01*
X104376807Y-63481378D01*
X104350741Y-63502474D01*
X104354396Y-63526448D01*
X104385883Y-63554073D01*
X104431994Y-63573494D01*
X104489871Y-63584055D01*
X104502904Y-63584633D01*
X104547036Y-63587022D01*
X104572683Y-63592071D01*
X104575311Y-63594518D01*
X104560680Y-63606031D01*
X104524094Y-63621851D01*
X104476514Y-63638309D01*
X104428901Y-63651740D01*
X104392214Y-63658478D01*
X104383839Y-63658563D01*
X104352085Y-63661357D01*
X104341992Y-63666552D01*
X104321123Y-63672615D01*
X104274614Y-63679643D01*
X104210645Y-63686855D01*
X104137399Y-63693474D01*
X104063053Y-63698719D01*
X103995793Y-63701812D01*
X103966471Y-63702311D01*
X103917380Y-63704357D01*
X103889545Y-63715103D01*
X103870382Y-63741965D01*
X103859369Y-63765426D01*
X103851576Y-63804165D01*
X103871459Y-63838762D01*
X103876549Y-63844034D01*
X103912766Y-63880252D01*
X103831467Y-63961551D01*
X103732015Y-64046470D01*
X103621172Y-64116771D01*
X103511046Y-64164929D01*
X103497350Y-64169190D01*
X103437006Y-64184805D01*
X103353225Y-64203646D01*
X103256035Y-64223746D01*
X103155461Y-64243138D01*
X103061534Y-64259852D01*
X102984282Y-64271922D01*
X102955086Y-64275596D01*
X102854501Y-64299593D01*
X102744172Y-64348491D01*
X102631621Y-64418049D01*
X102524369Y-64504037D01*
X102488182Y-64538521D01*
X102418476Y-64603840D01*
X102339590Y-64670617D01*
X102257003Y-64734962D01*
X102176193Y-64792981D01*
X102102641Y-64840785D01*
X102041822Y-64874480D01*
X101999215Y-64890174D01*
X101992275Y-64890830D01*
X101960684Y-64901971D01*
X101944852Y-64914221D01*
X101913739Y-64933970D01*
X101858922Y-64958504D01*
X101789545Y-64984382D01*
X101714758Y-65008163D01*
X101650832Y-65024826D01*
X101598199Y-65032552D01*
X101566212Y-65028762D01*
X101559754Y-65014645D01*
X101567198Y-65004507D01*
X101580333Y-64974999D01*
X101588311Y-64926401D01*
X101590516Y-64872072D01*
X101586331Y-64825375D01*
X101576598Y-64800922D01*
X101557626Y-64789610D01*
X101532640Y-64790903D01*
X101498738Y-64806847D01*
X101453020Y-64839492D01*
X101392586Y-64890884D01*
X101314532Y-64963072D01*
X101225649Y-65048656D01*
X101137028Y-65134179D01*
X101067406Y-65199203D01*
X101012233Y-65247568D01*
X100966956Y-65283110D01*
X100927023Y-65309667D01*
X100894899Y-65327523D01*
X100844907Y-65352533D01*
X100820262Y-65361893D01*
X100816531Y-65356080D01*
X100829284Y-65335570D01*
X100830037Y-65334503D01*
X100847198Y-65297854D01*
X100836648Y-65265065D01*
X100829630Y-65255578D01*
X100804153Y-65229907D01*
X100775324Y-65218928D01*
X100736315Y-65223162D01*
X100680305Y-65243131D01*
X100616321Y-65271886D01*
X100530113Y-65310539D01*
X100463137Y-65335523D01*
X100405175Y-65349899D01*
X100346011Y-65356724D01*
X100330163Y-65357595D01*
X100266194Y-65360551D01*
X100292436Y-65307895D01*
X100306742Y-65261899D01*
X100294895Y-65225324D01*
X100291068Y-65220164D01*
X100246442Y-65182465D01*
X100193308Y-65175337D01*
X100134335Y-65194471D01*
X99960509Y-65269681D01*
X99795800Y-65326583D01*
X99644542Y-65364044D01*
X99511066Y-65380927D01*
X99427341Y-65379607D01*
X99350183Y-65366954D01*
X99301772Y-65344552D01*
X99277695Y-65309546D01*
X99273037Y-65279777D01*
X99263084Y-65221159D01*
X99240959Y-65161990D01*
X99213297Y-65119724D01*
X99187865Y-65113056D01*
X99144450Y-65116383D01*
X99130224Y-65119306D01*
X99064661Y-65148322D01*
X99023315Y-65199336D01*
G36*
X98833215Y-60515958D02*
G01*
X98768908Y-60617170D01*
X98767044Y-60620833D01*
X98734856Y-60687176D01*
X98705017Y-60752745D01*
X98686441Y-60797214D01*
X98664522Y-60850511D01*
X98643256Y-60896651D01*
X98638805Y-60905236D01*
X98624378Y-60939508D01*
X98612868Y-60986699D01*
X98602928Y-61053902D01*
X98593707Y-61142784D01*
X98587409Y-61201262D01*
X98580417Y-61252325D01*
X98577999Y-61266255D01*
X98575737Y-61305300D01*
X98577719Y-61367360D01*
X98583083Y-61441966D01*
X98590967Y-61518656D01*
X98600508Y-61586960D01*
X98607378Y-61622737D01*
X98661015Y-61797198D01*
X98739844Y-61970138D01*
X98837912Y-62129670D01*
X98903764Y-62214309D01*
X98949495Y-62267631D01*
X98976581Y-62305086D01*
X98984738Y-62335384D01*
X98973687Y-62367242D01*
X98943144Y-62409371D01*
X98895577Y-62467138D01*
X98840001Y-62536599D01*
X98777041Y-62618210D01*
X98712498Y-62704155D01*
X98652174Y-62786617D01*
X98601870Y-62857779D01*
X98569136Y-62907012D01*
X98485146Y-63013707D01*
X98372879Y-63113189D01*
X98252029Y-63192561D01*
X98187821Y-63229463D01*
X98128371Y-63264305D01*
X98085224Y-63290310D01*
X98080997Y-63292951D01*
X98036047Y-63320277D01*
X97997899Y-63341935D01*
X97996629Y-63342606D01*
X97973912Y-63365986D01*
X97964449Y-63410004D01*
X97963693Y-63435394D01*
X97969327Y-63492439D01*
X97991182Y-63537468D01*
X98017551Y-63568959D01*
X98090246Y-63642386D01*
X98149953Y-63690820D01*
X98201686Y-63717956D01*
X98229903Y-63725373D01*
X98266960Y-63732865D01*
X98283524Y-63738742D01*
X98283534Y-63739317D01*
X98274288Y-63754954D01*
X98252155Y-63793291D01*
X98221011Y-63847597D01*
X98201977Y-63880904D01*
X98159392Y-63955342D01*
X98115749Y-64031365D01*
X98078873Y-64095346D01*
X98070930Y-64109068D01*
X98042241Y-64162797D01*
X98021812Y-64209027D01*
X98014995Y-64232739D01*
X98005980Y-64269995D01*
X97988203Y-64317644D01*
X97985740Y-64323219D01*
X97957536Y-64407586D01*
X97941335Y-64503392D01*
X97936630Y-64603396D01*
X97942913Y-64700359D01*
X97959678Y-64787038D01*
X97986414Y-64856192D01*
X98022615Y-64900581D01*
X98026415Y-64903175D01*
X98067962Y-64922393D01*
X98100957Y-64927818D01*
X98132475Y-64930118D01*
X98142500Y-64934978D01*
X98146393Y-64955054D01*
X98149114Y-65001579D01*
X98150370Y-65067148D01*
X98150127Y-65128198D01*
X98148018Y-65213021D01*
X98142668Y-65275186D01*
X98131521Y-65325899D01*
X98112020Y-65376362D01*
X98081609Y-65437780D01*
X98077824Y-65445041D01*
X98042049Y-65520725D01*
X98018217Y-65586117D01*
X98009509Y-65632407D01*
X98009531Y-65634181D01*
X98027128Y-65695396D01*
X98072056Y-65748643D01*
X98137787Y-65786628D01*
X98149752Y-65790788D01*
X98211288Y-65806058D01*
X98286939Y-65818923D01*
X98362820Y-65827556D01*
X98425042Y-65830137D01*
X98442059Y-65829167D01*
X98464405Y-65827991D01*
X98478017Y-65834582D01*
X98485114Y-65855467D01*
X98487915Y-65897171D01*
X98488638Y-65966177D01*
X98498927Y-66111799D01*
X98526718Y-66254065D01*
X98569563Y-66384686D01*
X98625013Y-66495376D01*
X98659351Y-66543965D01*
X98716313Y-66599417D01*
X98772391Y-66622129D01*
X98830738Y-66612982D01*
X98857286Y-66599491D01*
X98895987Y-66579700D01*
X98918236Y-66580632D01*
X98931527Y-66597092D01*
X98984649Y-66689948D01*
X99029954Y-66760871D01*
X99073716Y-66818725D01*
X99122202Y-66872375D01*
X99136411Y-66886785D01*
X99223540Y-66962649D01*
X99316131Y-67023838D01*
X99405034Y-67064783D01*
X99448344Y-67076528D01*
X99492429Y-67087987D01*
X99552439Y-67107481D01*
X99597547Y-67124005D01*
X99656859Y-67144312D01*
X99699672Y-67148151D01*
X99739248Y-67133412D01*
X99788846Y-67097983D01*
X99795837Y-67092452D01*
X99814339Y-67080615D01*
X99832735Y-67080664D01*
X99858269Y-67095936D01*
X99898189Y-67129768D01*
X99920433Y-67149810D01*
X99986728Y-67219186D01*
X100042241Y-67294908D01*
X100081438Y-67368249D01*
X100098779Y-67430490D01*
X100098804Y-67430794D01*
X100109148Y-67490068D01*
X100128764Y-67556682D01*
X100153235Y-67618391D01*
X100178148Y-67662950D01*
X100185703Y-67671794D01*
X100239092Y-67701785D01*
X100306902Y-67707910D01*
X100381631Y-67692114D01*
X100455778Y-67656349D01*
X100521844Y-67602560D01*
X100542168Y-67579206D01*
X100574896Y-67536845D01*
X100599535Y-67503463D01*
X100605695Y-67494402D01*
X100623020Y-67488359D01*
X100657742Y-67502784D01*
X100703810Y-67532234D01*
X100753372Y-67565557D01*
X100794298Y-67591460D01*
X100813464Y-67602186D01*
X100843718Y-67616953D01*
X100888300Y-67639701D01*
X100901031Y-67646328D01*
X101004483Y-67692225D01*
X101127780Y-67734273D01*
X101256905Y-67768434D01*
X101377836Y-67790670D01*
X101417260Y-67795029D01*
X101492575Y-67797458D01*
X101577611Y-67794000D01*
X101662078Y-67785731D01*
X101735688Y-67773726D01*
X101788152Y-67759063D01*
X101796268Y-67755366D01*
X101829616Y-67749450D01*
X101883131Y-67751228D01*
X101933625Y-67758329D01*
X102062886Y-67775703D01*
X102206566Y-67782764D01*
X102359416Y-67780315D01*
X102516190Y-67769164D01*
X102671638Y-67750111D01*
X102820514Y-67723961D01*
X102957569Y-67691520D01*
X103077555Y-67653590D01*
X103175226Y-67610978D01*
X103245332Y-67564485D01*
X103254457Y-67555928D01*
X103294196Y-67532696D01*
X103343231Y-67522728D01*
X103450971Y-67514469D01*
X103561842Y-67494212D01*
X103668568Y-67464397D01*
X103763872Y-67427459D01*
X103840480Y-67385837D01*
X103891118Y-67341966D01*
X103893986Y-67338218D01*
X103929644Y-67300905D01*
X103978063Y-67273547D01*
X104046984Y-67252681D01*
X104114295Y-67239622D01*
X104167555Y-67229497D01*
X104205775Y-67220007D01*
X104218133Y-67214882D01*
X104237941Y-67206510D01*
X104281099Y-67193240D01*
X104334596Y-67178896D01*
X104419862Y-67151144D01*
X104523825Y-67107557D01*
X104637857Y-67052302D01*
X104753332Y-66989548D01*
X104856967Y-66926488D01*
X104940530Y-66863724D01*
X105029835Y-66782233D01*
X105116666Y-66690783D01*
X105192804Y-66598140D01*
X105250033Y-66513072D01*
X105258072Y-66498524D01*
X105285041Y-66450086D01*
X105308071Y-66421781D01*
X105338560Y-66403545D01*
X105385253Y-66386231D01*
X105460357Y-66348211D01*
X105542895Y-66286096D01*
X105625687Y-66206343D01*
X105701552Y-66115407D01*
X105727692Y-66078334D01*
X105772010Y-66009077D01*
X105818445Y-65932062D01*
X105843399Y-65888317D01*
X105873383Y-65835929D01*
X105894055Y-65807309D01*
X105911427Y-65796029D01*
X105930183Y-65795496D01*
X105989277Y-65786158D01*
X106053699Y-65747871D01*
X106120864Y-65684613D01*
X106188188Y-65600365D01*
X106253086Y-65499108D01*
X106312975Y-65384819D01*
X106365268Y-65261479D01*
X106407383Y-65133068D01*
X106433794Y-65019991D01*
X106445104Y-64969101D01*
X106456520Y-64932873D01*
X106461729Y-64923392D01*
X106469682Y-64897812D01*
X106468552Y-64886636D01*
X106465983Y-64851629D01*
X106468342Y-64802548D01*
X106474314Y-64748571D01*
X106482582Y-64698876D01*
X106491829Y-64662643D01*
X106500738Y-64649049D01*
X106502499Y-64649985D01*
X106540790Y-64666309D01*
X106590657Y-64654942D01*
X106646718Y-64617511D01*
X106664388Y-64600996D01*
X106717362Y-64533534D01*
X106769085Y-64441888D01*
X106815317Y-64335608D01*
X106851823Y-64224243D01*
X106871933Y-64133367D01*
X106876945Y-64084920D01*
X106880216Y-64016597D01*
X106881840Y-63935465D01*
X106881906Y-63848595D01*
X106880506Y-63763054D01*
X106877730Y-63685912D01*
X106873671Y-63624239D01*
X106868420Y-63585102D01*
X106864732Y-63575377D01*
X106865307Y-63562330D01*
X106891565Y-63544044D01*
X106946786Y-63518275D01*
X106950412Y-63516732D01*
X107049974Y-63462872D01*
X107151848Y-63386755D01*
X107157362Y-63382004D01*
X107211848Y-63333162D01*
X107245900Y-63294529D01*
X107258826Y-63260023D01*
X107249931Y-63223567D01*
X107218525Y-63179080D01*
X107163911Y-63120482D01*
X107122839Y-63079142D01*
X107063178Y-63018500D01*
X107022599Y-62973480D01*
X106995636Y-62936377D01*
X106976822Y-62899481D01*
X106960692Y-62855086D01*
X106957952Y-62846643D01*
X106937282Y-62782868D01*
X106917837Y-62723696D01*
X106907687Y-62693357D01*
X106892719Y-62646973D01*
X106882365Y-62610916D01*
X106868167Y-62562335D01*
X106846811Y-62499085D01*
X106822350Y-62432149D01*
X106798836Y-62372513D01*
X106780326Y-62331157D01*
X106776634Y-62324422D01*
X106760034Y-62283559D01*
X106756715Y-62255669D01*
X106751280Y-62221176D01*
X106743782Y-62209165D01*
X106731638Y-62181135D01*
X106749774Y-62157843D01*
X106782412Y-62146719D01*
X106837200Y-62124286D01*
X106875443Y-62084236D01*
X106888490Y-62035636D01*
X106888487Y-62035561D01*
X106880471Y-62002868D01*
X106860690Y-61949155D01*
X106832683Y-61883618D01*
X106817209Y-61850353D01*
X106784932Y-61785718D01*
X106753897Y-61732181D01*
X106718128Y-61681434D01*
X106671649Y-61625170D01*
X106608484Y-61555079D01*
X106591995Y-61537236D01*
X106501054Y-61442574D01*
X106421146Y-61367746D01*
X106343698Y-61304968D01*
X106305913Y-61277556D01*
X106247127Y-61235760D01*
X106198191Y-61200024D01*
X106166292Y-61175640D01*
X106158962Y-61169346D01*
X106155892Y-61145453D01*
X106167903Y-61104854D01*
X106176928Y-61085535D01*
X106198334Y-61011489D01*
X106187090Y-60939052D01*
X106144296Y-60872663D01*
X106118288Y-60848548D01*
X106057638Y-60808853D01*
X105888224Y-60978268D01*
X105892415Y-60983726D01*
X105876801Y-61005097D01*
X105834291Y-61019558D01*
X105771375Y-61025854D01*
X105694548Y-61022736D01*
X105691659Y-61022437D01*
X105611591Y-61017665D01*
X105559658Y-61024597D01*
X105531644Y-61044929D01*
X105523332Y-61080356D01*
X105523697Y-61089915D01*
X105539871Y-61147582D01*
X105581603Y-61201228D01*
X105651408Y-61253093D01*
X105751810Y-61305417D01*
X105780401Y-61318145D01*
X105947939Y-61395543D01*
X106090394Y-61472491D01*
X106216084Y-61554135D01*
X106333327Y-61645617D01*
X106388701Y-61694221D01*
X106451819Y-61753105D01*
X106507385Y-61807942D01*
X106549474Y-61852683D01*
X106572158Y-61881282D01*
X106572405Y-61881701D01*
X106597823Y-61925590D01*
X106545998Y-61905572D01*
X106501333Y-61883986D01*
X106469105Y-61861566D01*
X106439144Y-61848101D01*
X106388178Y-61838553D01*
X106345391Y-61835610D01*
X106273861Y-61838225D01*
X106231126Y-61850909D01*
X106216875Y-61875774D01*
X106230799Y-61914930D01*
X106272585Y-61970490D01*
X106318241Y-62020266D01*
X106390005Y-62104663D01*
X106454544Y-62202265D01*
X106513784Y-62317247D01*
X106569648Y-62453781D01*
X106624062Y-62616040D01*
X106675179Y-62794154D01*
X106709768Y-62915042D01*
X106742029Y-63009544D01*
X106775081Y-63084697D01*
X106812047Y-63147542D01*
X106856048Y-63205117D01*
X106858844Y-63208398D01*
X106941332Y-63304740D01*
X106887275Y-63293370D01*
X106843870Y-63277187D01*
X106805198Y-63243604D01*
X106783620Y-63217230D01*
X106728365Y-63159353D01*
X106671560Y-63124528D01*
X106618899Y-63114968D01*
X106576071Y-63132881D01*
X106573252Y-63135554D01*
X106555744Y-63159599D01*
X106548684Y-63191699D01*
X106551325Y-63240748D01*
X106559696Y-63296839D01*
X106588652Y-63500168D01*
X106605604Y-63691502D01*
X106610317Y-63865332D01*
X106602551Y-64016149D01*
X106593678Y-64082613D01*
X106580206Y-64152544D01*
X106564165Y-64221356D01*
X106547942Y-64280086D01*
X106533926Y-64319771D01*
X106527626Y-64330653D01*
X106515854Y-64320723D01*
X106488791Y-64291162D01*
X106455925Y-64252683D01*
X106416877Y-64207702D01*
X106388735Y-64183489D01*
X106361688Y-64174021D01*
X106326495Y-64173254D01*
X106265070Y-64175492D01*
X106238441Y-64261309D01*
X106224249Y-64325408D01*
X106214636Y-64404009D01*
X106211930Y-64464960D01*
X106210010Y-64553619D01*
X106204622Y-64651320D01*
X106196577Y-64749685D01*
X106186685Y-64840336D01*
X106175752Y-64914894D01*
X106164590Y-64964981D01*
X106163266Y-64968966D01*
X106148294Y-65021801D01*
X106135565Y-65083390D01*
X106133855Y-65094216D01*
X106124959Y-65140991D01*
X106115381Y-65172090D01*
X106112413Y-65176919D01*
X106099817Y-65199002D01*
X106083504Y-65238473D01*
X106081732Y-65243362D01*
X106060912Y-65291794D01*
X106031092Y-65350293D01*
X106016694Y-65375763D01*
X105971504Y-65452554D01*
X105956830Y-65405851D01*
X105936010Y-65357169D01*
X105905462Y-65331006D01*
X105861739Y-65317853D01*
X105822489Y-65315523D01*
X105795753Y-65334573D01*
X105783194Y-65352424D01*
X105760315Y-65399328D01*
X105741202Y-65456615D01*
X105738860Y-65466236D01*
X105723609Y-65520770D01*
X105705864Y-65567425D01*
X105702509Y-65574204D01*
X105683653Y-65614241D01*
X105660996Y-65668308D01*
X105652949Y-65688933D01*
X105632130Y-65731290D01*
X105596194Y-65792666D01*
X105550449Y-65865069D01*
X105500207Y-65940506D01*
X105450779Y-66010986D01*
X105407476Y-66068519D01*
X105377866Y-66102886D01*
X105343595Y-66117131D01*
X105322191Y-66110824D01*
X105288898Y-66105155D01*
X105271237Y-66113885D01*
X105254529Y-66134325D01*
X105224305Y-66174534D01*
X105185081Y-66228172D01*
X105141379Y-66288903D01*
X105097713Y-66350389D01*
X105058604Y-66406291D01*
X105028567Y-66450273D01*
X105012122Y-66475995D01*
X105010354Y-66479854D01*
X104998669Y-66494362D01*
X104967168Y-66526543D01*
X104921183Y-66571388D01*
X104866044Y-66623888D01*
X104807084Y-66679033D01*
X104749632Y-66731810D01*
X104699020Y-66777212D01*
X104660580Y-66810228D01*
X104648898Y-66819538D01*
X104573396Y-66867842D01*
X104473159Y-66918887D01*
X104356689Y-66969527D01*
X104232486Y-67016614D01*
X104109050Y-67056999D01*
X103994881Y-67087535D01*
X103898482Y-67105075D01*
X103871223Y-67107520D01*
X103802707Y-67116279D01*
X103732663Y-67132966D01*
X103672574Y-67154187D01*
X103633921Y-67176549D01*
X103632219Y-67178167D01*
X103612436Y-67212366D01*
X103611192Y-67238027D01*
X103611948Y-67255357D01*
X103598051Y-67268155D01*
X103562880Y-67280044D01*
X103512885Y-67291791D01*
X103453947Y-67300809D01*
X103371904Y-67308116D01*
X103277500Y-67312981D01*
X103181482Y-67314664D01*
X103179124Y-67314659D01*
X103036391Y-67317123D01*
X102923257Y-67325262D01*
X102840772Y-67338924D01*
X102789981Y-67357952D01*
X102773794Y-67374498D01*
X102776659Y-67404002D01*
X102800034Y-67436616D01*
X102833725Y-67461163D01*
X102858684Y-67467565D01*
X102883066Y-67474328D01*
X102887022Y-67481313D01*
X102871230Y-67494473D01*
X102828352Y-67508045D01*
X102765134Y-67520946D01*
X102688325Y-67532093D01*
X102604673Y-67540402D01*
X102520924Y-67544791D01*
X102488983Y-67545207D01*
X102404481Y-67543903D01*
X102319047Y-67540389D01*
X102239893Y-67535216D01*
X102174235Y-67528936D01*
X102129284Y-67522101D01*
X102112911Y-67516444D01*
X102094519Y-67510370D01*
X102052740Y-67500520D01*
X102008993Y-67491493D01*
X101928067Y-67467993D01*
X101832994Y-67428542D01*
X101735758Y-67378734D01*
X101648337Y-67324166D01*
X101643521Y-67320761D01*
X101591790Y-67296327D01*
X101536190Y-67286770D01*
X101534593Y-67286806D01*
X101492203Y-67294413D01*
X101470446Y-67316917D01*
X101468073Y-67358817D01*
X101483840Y-67424609D01*
X101490576Y-67445636D01*
X101520571Y-67536239D01*
X101465151Y-67539948D01*
X101342537Y-67533868D01*
X101210483Y-67499425D01*
X101067799Y-67436074D01*
X100913298Y-67343268D01*
X100745790Y-67220461D01*
X100713758Y-67194797D01*
X100647710Y-67143356D01*
X100585273Y-67098471D01*
X100534400Y-67065657D01*
X100507633Y-67051900D01*
X100453565Y-67043845D01*
X100414607Y-67065394D01*
X100391984Y-67115254D01*
X100386520Y-67178995D01*
X100384592Y-67244841D01*
X100377827Y-67310044D01*
X100367725Y-67366048D01*
X100355785Y-67404298D01*
X100344926Y-67416476D01*
X100331140Y-67401963D01*
X100320580Y-67370570D01*
X100309158Y-67332116D01*
X100288300Y-67274981D01*
X100262467Y-67211363D01*
X100261811Y-67209832D01*
X100243159Y-67167347D01*
X100225660Y-67132865D01*
X100205044Y-67101230D01*
X100177035Y-67067288D01*
X100137359Y-67025884D01*
X100081744Y-66971861D01*
X100005913Y-66900066D01*
X100001677Y-66896071D01*
X99895849Y-66799005D01*
X99809103Y-66726249D01*
X99738560Y-66676335D01*
X99681340Y-66647792D01*
X99634563Y-66639150D01*
X99595351Y-66648940D01*
X99563857Y-66672584D01*
X99542646Y-66702779D01*
X99543344Y-66737626D01*
X99553578Y-66766679D01*
X99566859Y-66807476D01*
X99569049Y-66833742D01*
X99567618Y-66836454D01*
X99549611Y-66832384D01*
X99512413Y-66810624D01*
X99462289Y-66775822D01*
X99405509Y-66732621D01*
X99348341Y-66685667D01*
X99297051Y-66639602D01*
X99281643Y-66624544D01*
X99213913Y-66543960D01*
X99145734Y-66440740D01*
X99083424Y-66325434D01*
X99034676Y-66212310D01*
X99003188Y-66134413D01*
X98976064Y-66085257D01*
X98949849Y-66060634D01*
X98921090Y-66056336D01*
X98908980Y-66059094D01*
X98878847Y-66070883D01*
X98860603Y-66088970D01*
X98851167Y-66121136D01*
X98847458Y-66175161D01*
X98846751Y-66216271D01*
X98842466Y-66293211D01*
X98832045Y-66343554D01*
X98816313Y-66364817D01*
X98799523Y-66358317D01*
X98785358Y-66327031D01*
X98773983Y-66268508D01*
X98765605Y-66189282D01*
X98760430Y-66095883D01*
X98758664Y-65994844D01*
X98760518Y-65892696D01*
X98766194Y-65795971D01*
X98775901Y-65711202D01*
X98778528Y-65695209D01*
X98793202Y-65596427D01*
X98797173Y-65525089D01*
X98790342Y-65476479D01*
X98773222Y-65446497D01*
X98748034Y-65433647D01*
X98712997Y-65440913D01*
X98663699Y-65470094D01*
X98605564Y-65514882D01*
X98528399Y-65567199D01*
X98452077Y-65599515D01*
X98384461Y-65608988D01*
X98357199Y-65604527D01*
X98338822Y-65593626D01*
X98335868Y-65571090D01*
X98347863Y-65528317D01*
X98352304Y-65515773D01*
X98370623Y-65468177D01*
X98385475Y-65435182D01*
X98390334Y-65427425D01*
X98404393Y-65398195D01*
X98417599Y-65345271D01*
X98428478Y-65278818D01*
X98435555Y-65209004D01*
X98437355Y-65145995D01*
X98435412Y-65116677D01*
X98427277Y-65025340D01*
X98423431Y-64926002D01*
X98423731Y-64827700D01*
X98428030Y-64739470D01*
X98436186Y-64670349D01*
X98443011Y-64641371D01*
X98466511Y-64553199D01*
X98476295Y-64478592D01*
X98472832Y-64421705D01*
X98456590Y-64386694D01*
X98428040Y-64377716D01*
X98413793Y-64382113D01*
X98388802Y-64404295D01*
X98353145Y-64450327D01*
X98311238Y-64513734D01*
X98267498Y-64588041D01*
X98245460Y-64628908D01*
X98222297Y-64670091D01*
X98205046Y-64695035D01*
X98200621Y-64698453D01*
X98196668Y-64683188D01*
X98195558Y-64643897D01*
X98196682Y-64607658D01*
X98208740Y-64524274D01*
X98235248Y-64423179D01*
X98272491Y-64315251D01*
X98316757Y-64211364D01*
X98359805Y-64129853D01*
X98392168Y-64073438D01*
X98417875Y-64024418D01*
X98431126Y-63994014D01*
X98437759Y-63977508D01*
X98450565Y-63953660D01*
X98471597Y-63919373D01*
X98502902Y-63871552D01*
X98546533Y-63807100D01*
X98604539Y-63722922D01*
X98678970Y-63615921D01*
X98727545Y-63546372D01*
X98776993Y-63474164D01*
X98818514Y-63410718D01*
X98848565Y-63361664D01*
X98863602Y-63332636D01*
X98864665Y-63328398D01*
X98852471Y-63302659D01*
X98827344Y-63277097D01*
X98788278Y-63261838D01*
X98739470Y-63272024D01*
X98678574Y-63308771D01*
X98603247Y-63373195D01*
X98581613Y-63394022D01*
X98531984Y-63439844D01*
X98487398Y-63476041D01*
X98456379Y-63495777D01*
X98453206Y-63496962D01*
X98420155Y-63499094D01*
X98372020Y-63494490D01*
X98323291Y-63485440D01*
X98288456Y-63474232D01*
X98281905Y-63469912D01*
X98291738Y-63459378D01*
X98323886Y-63439428D01*
X98350759Y-63425016D01*
X98410913Y-63386094D01*
X98483401Y-63326965D01*
X98560867Y-63254972D01*
X98635952Y-63177462D01*
X98701300Y-63101779D01*
X98749552Y-63035269D01*
X98761185Y-63015244D01*
X98816671Y-62923617D01*
X98894835Y-62814489D01*
X98992446Y-62692162D01*
X99082185Y-62587889D01*
X99191938Y-62464156D01*
X99223231Y-62495449D01*
X99276162Y-62533970D01*
X99355470Y-62573457D01*
X99453820Y-62611684D01*
X99563870Y-62646427D01*
X99678284Y-62675458D01*
X99789724Y-62696551D01*
X99890851Y-62707481D01*
X99925658Y-62708508D01*
X100023631Y-62705298D01*
X100126839Y-62696305D01*
X100223341Y-62682949D01*
X100301196Y-62666653D01*
X100317624Y-62661883D01*
X100364394Y-62649133D01*
X100396203Y-62644293D01*
X100403149Y-62645631D01*
X100409296Y-62666050D01*
X100415293Y-62708102D01*
X100417393Y-62730744D01*
X100422615Y-62778726D01*
X100428821Y-62810707D01*
X100431376Y-62816570D01*
X100439099Y-62837262D01*
X100449340Y-62879112D01*
X100453811Y-62901098D01*
X100487446Y-63028144D01*
X100540962Y-63170336D01*
X100610219Y-63318942D01*
X100691080Y-63465231D01*
X100779407Y-63600470D01*
X100796147Y-63623462D01*
X100935917Y-63786507D01*
X101098868Y-63932618D01*
X101279436Y-64058309D01*
X101472054Y-64160098D01*
X101671157Y-64234500D01*
X101832566Y-64272165D01*
X101933882Y-64284579D01*
X102044901Y-64290479D01*
X102157860Y-64290212D01*
X102264993Y-64284125D01*
X102358543Y-64272564D01*
X102430743Y-64255878D01*
X102459472Y-64244151D01*
X102502967Y-64227347D01*
X102530489Y-64222059D01*
X102570648Y-64210606D01*
X102630602Y-64182831D01*
X102703235Y-64142970D01*
X102781428Y-64095259D01*
X102858066Y-64043934D01*
X102926031Y-63993232D01*
X102953777Y-63970104D01*
X103065301Y-63858946D01*
X103169025Y-63730160D01*
X103253886Y-63597695D01*
X103264079Y-63578800D01*
X103303175Y-63493233D01*
X103342848Y-63387643D01*
X103378668Y-63275501D01*
X103406200Y-63170277D01*
X103417436Y-63112723D01*
X103432062Y-62965505D01*
X103433260Y-62805420D01*
X103421769Y-62644501D01*
X103398326Y-62494787D01*
X103373728Y-62398328D01*
X103354561Y-62335240D01*
X103339632Y-62283166D01*
X103331721Y-62251863D01*
X103331260Y-62249216D01*
X103321516Y-62219317D01*
X103299366Y-62167473D01*
X103268574Y-62101493D01*
X103232904Y-62029190D01*
X103196119Y-61958374D01*
X103161983Y-61896859D01*
X103159107Y-61891940D01*
X103125262Y-61841453D01*
X103075482Y-61775939D01*
X103017202Y-61704884D01*
X102972354Y-61653627D01*
X102910479Y-61582840D01*
X102869976Y-61531280D01*
X102865100Y-61522926D01*
X102698831Y-61689195D01*
X102787819Y-61781212D01*
X102869365Y-61876747D01*
X102935331Y-61967201D01*
X102953136Y-61995905D01*
X102997038Y-62074693D01*
X103037549Y-62154277D01*
X103071152Y-62227068D01*
X103094336Y-62285478D01*
X103103498Y-62320619D01*
X103112978Y-62356757D01*
X103122034Y-62371098D01*
X103136741Y-62399193D01*
X103152953Y-62450516D01*
X103167877Y-62514703D01*
X103178725Y-62581390D01*
X103178794Y-62581954D01*
X103185113Y-62634560D01*
X103192715Y-62698571D01*
X103195200Y-62719659D01*
X103202786Y-62910975D01*
X103182014Y-63101174D01*
X103134640Y-63284785D01*
X103062415Y-63456336D01*
X102967093Y-63610356D01*
X102875548Y-63717110D01*
X102811809Y-63777370D01*
X102741537Y-63838013D01*
X102678315Y-63887400D01*
X102669171Y-63893892D01*
X102535100Y-63968957D01*
X102380382Y-64024577D01*
X102213276Y-64058955D01*
X102042037Y-64070299D01*
X101901323Y-64060750D01*
X101771016Y-64031744D01*
X101625884Y-63979203D01*
X101472492Y-63905850D01*
X101337090Y-63827001D01*
X101262633Y-63772363D01*
X101179089Y-63698855D01*
X101093349Y-63613798D01*
X101012313Y-63524515D01*
X100942877Y-63438325D01*
X100891936Y-63362551D01*
X100881502Y-63343362D01*
X100851295Y-63286916D01*
X100823483Y-63240552D01*
X100805115Y-63215538D01*
X100783547Y-63180202D01*
X100773148Y-63146580D01*
X100760640Y-63102287D01*
X100739525Y-63048597D01*
X100733923Y-63036458D01*
X100693799Y-62926391D01*
X100665612Y-62794227D01*
X100649358Y-62647941D01*
X100645029Y-62495507D01*
X100652622Y-62344904D01*
X100672127Y-62204109D01*
X100703541Y-62081095D01*
X100734717Y-62005682D01*
X100761064Y-61949584D01*
X100788261Y-61884631D01*
X100795826Y-61864888D01*
X100827394Y-61806481D01*
X100880415Y-61736476D01*
X100948835Y-61660527D01*
X101026592Y-61584291D01*
X101107631Y-61513420D01*
X101185893Y-61453572D01*
X101255321Y-61410400D01*
X101303630Y-61390851D01*
X101344403Y-61378349D01*
X101357775Y-61373154D01*
X101467819Y-61332352D01*
X101574180Y-61307569D01*
X101690804Y-61296162D01*
X101771907Y-61294639D01*
X101857277Y-61296750D01*
X101937078Y-61302051D01*
X102001134Y-61309684D01*
X102033624Y-61316706D01*
X102093900Y-61335645D01*
X102152631Y-61353676D01*
X102159183Y-61355648D01*
X102222765Y-61380179D01*
X102306451Y-61420563D01*
X102402819Y-61472919D01*
X102504449Y-61533368D01*
X102531081Y-61550099D01*
X102610539Y-61609292D01*
X102698831Y-61689195D01*
X102865100Y-61522926D01*
X102852061Y-61500577D01*
X102852356Y-61493094D01*
X102871405Y-61477841D01*
X102910674Y-61447985D01*
X102963046Y-61408912D01*
X102986551Y-61391552D01*
X103140007Y-61257882D01*
X103270987Y-61100761D01*
X103375840Y-60924889D01*
X103413036Y-60842101D01*
X103466568Y-60693567D01*
X103500394Y-60561072D01*
X103510340Y-60493801D01*
X103520077Y-60395050D01*
X103666724Y-60381704D01*
X103730956Y-60377705D01*
X103820676Y-60374673D01*
X103927517Y-60372759D01*
X104043111Y-60372117D01*
X104155535Y-60372849D01*
X104273129Y-60374057D01*
X104361991Y-60373839D01*
X104427242Y-60371698D01*
X104474001Y-60367136D01*
X104507390Y-60359654D01*
X104532531Y-60348755D01*
X104554377Y-60334069D01*
X104600149Y-60303581D01*
X104625312Y-60296515D01*
X104628111Y-60312359D01*
X104607557Y-60349499D01*
X104564597Y-60396717D01*
X104497928Y-60451029D01*
X104415170Y-60506685D01*
X104347535Y-60545633D01*
X104292546Y-60582334D01*
X104270228Y-60617104D01*
X104279625Y-60652071D01*
X104292985Y-60667508D01*
X104326915Y-60687493D01*
X104379091Y-60694715D01*
X104429794Y-60693096D01*
X104725084Y-60688526D01*
X105026737Y-60715517D01*
X105330477Y-60773480D01*
X105618674Y-60857240D01*
X105683312Y-60881039D01*
X105750052Y-60908491D01*
X105811428Y-60936147D01*
X105859974Y-60960555D01*
X105888224Y-60978268D01*
X106057638Y-60808853D01*
X106057389Y-60808690D01*
X105969104Y-60764277D01*
X105859221Y-60717579D01*
X105733527Y-60670859D01*
X105597807Y-60626387D01*
X105457848Y-60586429D01*
X105432115Y-60579754D01*
X105360768Y-60560939D01*
X105302403Y-60544398D01*
X105264371Y-60532283D01*
X105253755Y-60527559D01*
X105231383Y-60521439D01*
X105211911Y-60521636D01*
X105176131Y-60516304D01*
X105162231Y-60507877D01*
X105138615Y-60498727D01*
X105090112Y-60488813D01*
X105025613Y-60479815D01*
X104998772Y-60476988D01*
X104852128Y-60462912D01*
X104874616Y-60418686D01*
X104904240Y-60336350D01*
X104915131Y-60249457D01*
X104907933Y-60166861D01*
X104883291Y-60097418D01*
X104848143Y-60054580D01*
X104824718Y-60042977D01*
X104791340Y-60040383D01*
X104743049Y-60047664D01*
X104674888Y-60065689D01*
X104581895Y-60095323D01*
X104546191Y-60107363D01*
X104477433Y-60127167D01*
X104400628Y-60141528D01*
X104309622Y-60151057D01*
X104198257Y-60156357D01*
X104060380Y-60158039D01*
X104033172Y-60158007D01*
X103932580Y-60158461D01*
X103831321Y-60160182D01*
X103740466Y-60162904D01*
X103671090Y-60166366D01*
X103664807Y-60166812D01*
X103602047Y-60169862D01*
X103552940Y-60169236D01*
X103526772Y-60165110D01*
X103525337Y-60164140D01*
X103517603Y-60141974D01*
X103509714Y-60096557D01*
X103504284Y-60047298D01*
X103496956Y-59989307D01*
X103486925Y-59944555D01*
X103478188Y-59925412D01*
X103463445Y-59897077D01*
X103453940Y-59858166D01*
X103440684Y-59811627D01*
X103413253Y-59745171D01*
X103375886Y-59667306D01*
X103332824Y-59586537D01*
X103288306Y-59511370D01*
X103259513Y-59468010D01*
X103190632Y-59384233D01*
X103100489Y-59294680D01*
X103088011Y-59284060D01*
X102937017Y-59435053D01*
X103004983Y-59505924D01*
X103068036Y-59575915D01*
X103113066Y-59630754D01*
X103146091Y-59679141D01*
X103173133Y-59729774D01*
X103196685Y-59782917D01*
X103261574Y-59957555D01*
X103302011Y-60117628D01*
X103319156Y-60270732D01*
X103314164Y-60424463D01*
X103305176Y-60494769D01*
X103262083Y-60668070D01*
X103189022Y-60836535D01*
X103089865Y-60994021D01*
X102968486Y-61134382D01*
X102828756Y-61251475D01*
X102827726Y-61252195D01*
X102751663Y-61303488D01*
X102696840Y-61335226D01*
X102658321Y-61349345D01*
X102631169Y-61347778D01*
X102613774Y-61335997D01*
X102583445Y-61313812D01*
X102530513Y-61282537D01*
X102463475Y-61246502D01*
X102390822Y-61210037D01*
X102321049Y-61177467D01*
X102262651Y-61153123D01*
X102238846Y-61144924D01*
X102176526Y-61128705D01*
X102112939Y-61115615D01*
X102111824Y-61115428D01*
X102068067Y-61106380D01*
X102040866Y-61097500D01*
X102038272Y-61095757D01*
X102015723Y-61088470D01*
X101967575Y-61081118D01*
X101902085Y-61074481D01*
X101827508Y-61069336D01*
X101752103Y-61066461D01*
X101723712Y-61066121D01*
X101625697Y-61070114D01*
X101527183Y-61081473D01*
X101440090Y-61098438D01*
X101382536Y-61116533D01*
X101341418Y-61128476D01*
X101322483Y-61117594D01*
X101320467Y-61084399D01*
X101317851Y-61051635D01*
X101312215Y-61040226D01*
X101302685Y-61017506D01*
X101293125Y-60975197D01*
X101291075Y-60962520D01*
X101273505Y-60896189D01*
X101239704Y-60811403D01*
X101193939Y-60716676D01*
X101140473Y-60620517D01*
X101083566Y-60531438D01*
X101056213Y-60493606D01*
X101010703Y-60431312D01*
X100982927Y-60385490D01*
X100968499Y-60346967D01*
X100966347Y-60331067D01*
X100793491Y-60503922D01*
X100914425Y-60655302D01*
X101013802Y-60830159D01*
X101090109Y-61027017D01*
X101118528Y-61130680D01*
X101122423Y-61179382D01*
X101103614Y-61211406D01*
X101100437Y-61214057D01*
X101035085Y-61268810D01*
X100961180Y-61335212D01*
X100884534Y-61407549D01*
X100810955Y-61480105D01*
X100746253Y-61547163D01*
X100696239Y-61603009D01*
X100668660Y-61638844D01*
X100605856Y-61743387D01*
X100550177Y-61850733D01*
X100506873Y-61950176D01*
X100486413Y-62010475D01*
X100470268Y-62067049D01*
X100456204Y-62115321D01*
X100451375Y-62131432D01*
X100436634Y-62191089D01*
X100424010Y-62261636D01*
X100416279Y-62326090D01*
X100415121Y-62353208D01*
X100411123Y-62387645D01*
X100394593Y-62413298D01*
X100359842Y-62434019D01*
X100301179Y-62453661D01*
X100245265Y-62468236D01*
X100050995Y-62499570D01*
X99857802Y-62498824D01*
X99669448Y-62467139D01*
X99489691Y-62405655D01*
X99322296Y-62315511D01*
X99171019Y-62197849D01*
X99093561Y-62119032D01*
X99016448Y-62028188D01*
X98958436Y-61947365D01*
X98912686Y-61864816D01*
X98872355Y-61768795D01*
X98845777Y-61693503D01*
X98798828Y-61502918D01*
X98784086Y-61309272D01*
X98801266Y-61116981D01*
X98850088Y-60930460D01*
X98902824Y-60805918D01*
X98932302Y-60748853D01*
X98960432Y-60701803D01*
X98992856Y-60657470D01*
X99035219Y-60608552D01*
X99093163Y-60547752D01*
X99135948Y-60504353D01*
X99203493Y-60436776D01*
X99254565Y-60388092D01*
X99296335Y-60352951D01*
X99335977Y-60326001D01*
X99380664Y-60301892D01*
X99437568Y-60275271D01*
X99451400Y-60269016D01*
X99526458Y-60237235D01*
X99599918Y-60209688D01*
X99659794Y-60190743D01*
X99677618Y-60186481D01*
X99732062Y-60175248D01*
X99776856Y-60165377D01*
X99788090Y-60162675D01*
X99865857Y-60151371D01*
X99966065Y-60149484D01*
X100078626Y-60157017D01*
X100124444Y-60162612D01*
X100316478Y-60205361D01*
X100493005Y-60277478D01*
X100652513Y-60377489D01*
X100793491Y-60503922D01*
X100966347Y-60331067D01*
X100963032Y-60306571D01*
X100962646Y-60297956D01*
X100965339Y-60235246D01*
X100975481Y-60151902D01*
X100990986Y-60059784D01*
X101009773Y-59970756D01*
X101029758Y-59896683D01*
X101036660Y-59876460D01*
X101090891Y-59761504D01*
X101167446Y-59642808D01*
X101260486Y-59526568D01*
X101364174Y-59418978D01*
X101472667Y-59326234D01*
X101580129Y-59254532D01*
X101657248Y-59218024D01*
X101868019Y-59154156D01*
X102070933Y-59123223D01*
X102266017Y-59125226D01*
X102453293Y-59160162D01*
X102517795Y-59180449D01*
X102643178Y-59229410D01*
X102748212Y-59283735D01*
X102842844Y-59350068D01*
X102937017Y-59435053D01*
X103088011Y-59284060D01*
X102998513Y-59207891D01*
X102894132Y-59132409D01*
X102876593Y-59121168D01*
X102807064Y-59081328D01*
X102726854Y-59041212D01*
X102644861Y-59004669D01*
X102569988Y-58975552D01*
X102511132Y-58957712D01*
X102490833Y-58954253D01*
X102458006Y-58947554D01*
X102446478Y-58941597D01*
X102420852Y-58932743D01*
X102368637Y-58926036D01*
X102297044Y-58921467D01*
X102213282Y-58919031D01*
X102124560Y-58918718D01*
X102038088Y-58920525D01*
X101961077Y-58924442D01*
X101900735Y-58930463D01*
X101864273Y-58938581D01*
X101858226Y-58942166D01*
X101837317Y-58949935D01*
X101796371Y-58958314D01*
X101784737Y-58960095D01*
X101738970Y-58972216D01*
X101673687Y-58996457D01*
X101597384Y-59028862D01*
X101518563Y-59065477D01*
X101445723Y-59102351D01*
X101387363Y-59135527D01*
X101351984Y-59161051D01*
X101351290Y-59161734D01*
X101311132Y-59193640D01*
X101267563Y-59219359D01*
X101225381Y-59249387D01*
X101171110Y-59301875D01*
X101110060Y-59370227D01*
X101047540Y-59447845D01*
X100988860Y-59528134D01*
X100939331Y-59604499D01*
X100904261Y-59670342D01*
X100903933Y-59671079D01*
X100847740Y-59806529D01*
X100807846Y-59924860D01*
X100780873Y-60036514D01*
X100774752Y-60070533D01*
X100756167Y-60182021D01*
X100602930Y-60103864D01*
X100398996Y-60017382D01*
X100192246Y-59964591D01*
X99982503Y-59945482D01*
X99769589Y-59960054D01*
X99553327Y-60008302D01*
X99374598Y-60072476D01*
X99261241Y-60130957D01*
X99143154Y-60211107D01*
X99027608Y-60306365D01*
X98921872Y-60410169D01*
X98833215Y-60515958D01*
G37*
X98833215Y-60515958D02*
X98768908Y-60617170D01*
X98767044Y-60620833D01*
X98734856Y-60687176D01*
X98705017Y-60752745D01*
X98686441Y-60797214D01*
X98664522Y-60850511D01*
X98643256Y-60896651D01*
X98638805Y-60905236D01*
X98624378Y-60939508D01*
X98612868Y-60986699D01*
X98602928Y-61053902D01*
X98593707Y-61142784D01*
X98587409Y-61201262D01*
X98580417Y-61252325D01*
X98577999Y-61266255D01*
X98575737Y-61305300D01*
X98577719Y-61367360D01*
X98583083Y-61441966D01*
X98590967Y-61518656D01*
X98600508Y-61586960D01*
X98607378Y-61622737D01*
X98661015Y-61797198D01*
X98739844Y-61970138D01*
X98837912Y-62129670D01*
X98903764Y-62214309D01*
X98949495Y-62267631D01*
X98976581Y-62305086D01*
X98984738Y-62335384D01*
X98973687Y-62367242D01*
X98943144Y-62409371D01*
X98895577Y-62467138D01*
X98840001Y-62536599D01*
X98777041Y-62618210D01*
X98712498Y-62704155D01*
X98652174Y-62786617D01*
X98601870Y-62857779D01*
X98569136Y-62907012D01*
X98485146Y-63013707D01*
X98372879Y-63113189D01*
X98252029Y-63192561D01*
X98187821Y-63229463D01*
X98128371Y-63264305D01*
X98085224Y-63290310D01*
X98080997Y-63292951D01*
X98036047Y-63320277D01*
X97997899Y-63341935D01*
X97996629Y-63342606D01*
X97973912Y-63365986D01*
X97964449Y-63410004D01*
X97963693Y-63435394D01*
X97969327Y-63492439D01*
X97991182Y-63537468D01*
X98017551Y-63568959D01*
X98090246Y-63642386D01*
X98149953Y-63690820D01*
X98201686Y-63717956D01*
X98229903Y-63725373D01*
X98266960Y-63732865D01*
X98283524Y-63738742D01*
X98283534Y-63739317D01*
X98274288Y-63754954D01*
X98252155Y-63793291D01*
X98221011Y-63847597D01*
X98201977Y-63880904D01*
X98159392Y-63955342D01*
X98115749Y-64031365D01*
X98078873Y-64095346D01*
X98070930Y-64109068D01*
X98042241Y-64162797D01*
X98021812Y-64209027D01*
X98014995Y-64232739D01*
X98005980Y-64269995D01*
X97988203Y-64317644D01*
X97985740Y-64323219D01*
X97957536Y-64407586D01*
X97941335Y-64503392D01*
X97936630Y-64603396D01*
X97942913Y-64700359D01*
X97959678Y-64787038D01*
X97986414Y-64856192D01*
X98022615Y-64900581D01*
X98026415Y-64903175D01*
X98067962Y-64922393D01*
X98100957Y-64927818D01*
X98132475Y-64930118D01*
X98142500Y-64934978D01*
X98146393Y-64955054D01*
X98149114Y-65001579D01*
X98150370Y-65067148D01*
X98150127Y-65128198D01*
X98148018Y-65213021D01*
X98142668Y-65275186D01*
X98131521Y-65325899D01*
X98112020Y-65376362D01*
X98081609Y-65437780D01*
X98077824Y-65445041D01*
X98042049Y-65520725D01*
X98018217Y-65586117D01*
X98009509Y-65632407D01*
X98009531Y-65634181D01*
X98027128Y-65695396D01*
X98072056Y-65748643D01*
X98137787Y-65786628D01*
X98149752Y-65790788D01*
X98211288Y-65806058D01*
X98286939Y-65818923D01*
X98362820Y-65827556D01*
X98425042Y-65830137D01*
X98442059Y-65829167D01*
X98464405Y-65827991D01*
X98478017Y-65834582D01*
X98485114Y-65855467D01*
X98487915Y-65897171D01*
X98488638Y-65966177D01*
X98498927Y-66111799D01*
X98526718Y-66254065D01*
X98569563Y-66384686D01*
X98625013Y-66495376D01*
X98659351Y-66543965D01*
X98716313Y-66599417D01*
X98772391Y-66622129D01*
X98830738Y-66612982D01*
X98857286Y-66599491D01*
X98895987Y-66579700D01*
X98918236Y-66580632D01*
X98931527Y-66597092D01*
X98984649Y-66689948D01*
X99029954Y-66760871D01*
X99073716Y-66818725D01*
X99122202Y-66872375D01*
X99136411Y-66886785D01*
X99223540Y-66962649D01*
X99316131Y-67023838D01*
X99405034Y-67064783D01*
X99448344Y-67076528D01*
X99492429Y-67087987D01*
X99552439Y-67107481D01*
X99597547Y-67124005D01*
X99656859Y-67144312D01*
X99699672Y-67148151D01*
X99739248Y-67133412D01*
X99788846Y-67097983D01*
X99795837Y-67092452D01*
X99814339Y-67080615D01*
X99832735Y-67080664D01*
X99858269Y-67095936D01*
X99898189Y-67129768D01*
X99920433Y-67149810D01*
X99986728Y-67219186D01*
X100042241Y-67294908D01*
X100081438Y-67368249D01*
X100098779Y-67430490D01*
X100098804Y-67430794D01*
X100109148Y-67490068D01*
X100128764Y-67556682D01*
X100153235Y-67618391D01*
X100178148Y-67662950D01*
X100185703Y-67671794D01*
X100239092Y-67701785D01*
X100306902Y-67707910D01*
X100381631Y-67692114D01*
X100455778Y-67656349D01*
X100521844Y-67602560D01*
X100542168Y-67579206D01*
X100574896Y-67536845D01*
X100599535Y-67503463D01*
X100605695Y-67494402D01*
X100623020Y-67488359D01*
X100657742Y-67502784D01*
X100703810Y-67532234D01*
X100753372Y-67565557D01*
X100794298Y-67591460D01*
X100813464Y-67602186D01*
X100843718Y-67616953D01*
X100888300Y-67639701D01*
X100901031Y-67646328D01*
X101004483Y-67692225D01*
X101127780Y-67734273D01*
X101256905Y-67768434D01*
X101377836Y-67790670D01*
X101417260Y-67795029D01*
X101492575Y-67797458D01*
X101577611Y-67794000D01*
X101662078Y-67785731D01*
X101735688Y-67773726D01*
X101788152Y-67759063D01*
X101796268Y-67755366D01*
X101829616Y-67749450D01*
X101883131Y-67751228D01*
X101933625Y-67758329D01*
X102062886Y-67775703D01*
X102206566Y-67782764D01*
X102359416Y-67780315D01*
X102516190Y-67769164D01*
X102671638Y-67750111D01*
X102820514Y-67723961D01*
X102957569Y-67691520D01*
X103077555Y-67653590D01*
X103175226Y-67610978D01*
X103245332Y-67564485D01*
X103254457Y-67555928D01*
X103294196Y-67532696D01*
X103343231Y-67522728D01*
X103450971Y-67514469D01*
X103561842Y-67494212D01*
X103668568Y-67464397D01*
X103763872Y-67427459D01*
X103840480Y-67385837D01*
X103891118Y-67341966D01*
X103893986Y-67338218D01*
X103929644Y-67300905D01*
X103978063Y-67273547D01*
X104046984Y-67252681D01*
X104114295Y-67239622D01*
X104167555Y-67229497D01*
X104205775Y-67220007D01*
X104218133Y-67214882D01*
X104237941Y-67206510D01*
X104281099Y-67193240D01*
X104334596Y-67178896D01*
X104419862Y-67151144D01*
X104523825Y-67107557D01*
X104637857Y-67052302D01*
X104753332Y-66989548D01*
X104856967Y-66926488D01*
X104940530Y-66863724D01*
X105029835Y-66782233D01*
X105116666Y-66690783D01*
X105192804Y-66598140D01*
X105250033Y-66513072D01*
X105258072Y-66498524D01*
X105285041Y-66450086D01*
X105308071Y-66421781D01*
X105338560Y-66403545D01*
X105385253Y-66386231D01*
X105460357Y-66348211D01*
X105542895Y-66286096D01*
X105625687Y-66206343D01*
X105701552Y-66115407D01*
X105727692Y-66078334D01*
X105772010Y-66009077D01*
X105818445Y-65932062D01*
X105843399Y-65888317D01*
X105873383Y-65835929D01*
X105894055Y-65807309D01*
X105911427Y-65796029D01*
X105930183Y-65795496D01*
X105989277Y-65786158D01*
X106053699Y-65747871D01*
X106120864Y-65684613D01*
X106188188Y-65600365D01*
X106253086Y-65499108D01*
X106312975Y-65384819D01*
X106365268Y-65261479D01*
X106407383Y-65133068D01*
X106433794Y-65019991D01*
X106445104Y-64969101D01*
X106456520Y-64932873D01*
X106461729Y-64923392D01*
X106469682Y-64897812D01*
X106468552Y-64886636D01*
X106465983Y-64851629D01*
X106468342Y-64802548D01*
X106474314Y-64748571D01*
X106482582Y-64698876D01*
X106491829Y-64662643D01*
X106500738Y-64649049D01*
X106502499Y-64649985D01*
X106540790Y-64666309D01*
X106590657Y-64654942D01*
X106646718Y-64617511D01*
X106664388Y-64600996D01*
X106717362Y-64533534D01*
X106769085Y-64441888D01*
X106815317Y-64335608D01*
X106851823Y-64224243D01*
X106871933Y-64133367D01*
X106876945Y-64084920D01*
X106880216Y-64016597D01*
X106881840Y-63935465D01*
X106881906Y-63848595D01*
X106880506Y-63763054D01*
X106877730Y-63685912D01*
X106873671Y-63624239D01*
X106868420Y-63585102D01*
X106864732Y-63575377D01*
X106865307Y-63562330D01*
X106891565Y-63544044D01*
X106946786Y-63518275D01*
X106950412Y-63516732D01*
X107049974Y-63462872D01*
X107151848Y-63386755D01*
X107157362Y-63382004D01*
X107211848Y-63333162D01*
X107245900Y-63294529D01*
X107258826Y-63260023D01*
X107249931Y-63223567D01*
X107218525Y-63179080D01*
X107163911Y-63120482D01*
X107122839Y-63079142D01*
X107063178Y-63018500D01*
X107022599Y-62973480D01*
X106995636Y-62936377D01*
X106976822Y-62899481D01*
X106960692Y-62855086D01*
X106957952Y-62846643D01*
X106937282Y-62782868D01*
X106917837Y-62723696D01*
X106907687Y-62693357D01*
X106892719Y-62646973D01*
X106882365Y-62610916D01*
X106868167Y-62562335D01*
X106846811Y-62499085D01*
X106822350Y-62432149D01*
X106798836Y-62372513D01*
X106780326Y-62331157D01*
X106776634Y-62324422D01*
X106760034Y-62283559D01*
X106756715Y-62255669D01*
X106751280Y-62221176D01*
X106743782Y-62209165D01*
X106731638Y-62181135D01*
X106749774Y-62157843D01*
X106782412Y-62146719D01*
X106837200Y-62124286D01*
X106875443Y-62084236D01*
X106888490Y-62035636D01*
X106888487Y-62035561D01*
X106880471Y-62002868D01*
X106860690Y-61949155D01*
X106832683Y-61883618D01*
X106817209Y-61850353D01*
X106784932Y-61785718D01*
X106753897Y-61732181D01*
X106718128Y-61681434D01*
X106671649Y-61625170D01*
X106608484Y-61555079D01*
X106591995Y-61537236D01*
X106501054Y-61442574D01*
X106421146Y-61367746D01*
X106343698Y-61304968D01*
X106305913Y-61277556D01*
X106247127Y-61235760D01*
X106198191Y-61200024D01*
X106166292Y-61175640D01*
X106158962Y-61169346D01*
X106155892Y-61145453D01*
X106167903Y-61104854D01*
X106176928Y-61085535D01*
X106198334Y-61011489D01*
X106187090Y-60939052D01*
X106144296Y-60872663D01*
X106118288Y-60848548D01*
X106057638Y-60808853D01*
X105888224Y-60978268D01*
X105892415Y-60983726D01*
X105876801Y-61005097D01*
X105834291Y-61019558D01*
X105771375Y-61025854D01*
X105694548Y-61022736D01*
X105691659Y-61022437D01*
X105611591Y-61017665D01*
X105559658Y-61024597D01*
X105531644Y-61044929D01*
X105523332Y-61080356D01*
X105523697Y-61089915D01*
X105539871Y-61147582D01*
X105581603Y-61201228D01*
X105651408Y-61253093D01*
X105751810Y-61305417D01*
X105780401Y-61318145D01*
X105947939Y-61395543D01*
X106090394Y-61472491D01*
X106216084Y-61554135D01*
X106333327Y-61645617D01*
X106388701Y-61694221D01*
X106451819Y-61753105D01*
X106507385Y-61807942D01*
X106549474Y-61852683D01*
X106572158Y-61881282D01*
X106572405Y-61881701D01*
X106597823Y-61925590D01*
X106545998Y-61905572D01*
X106501333Y-61883986D01*
X106469105Y-61861566D01*
X106439144Y-61848101D01*
X106388178Y-61838553D01*
X106345391Y-61835610D01*
X106273861Y-61838225D01*
X106231126Y-61850909D01*
X106216875Y-61875774D01*
X106230799Y-61914930D01*
X106272585Y-61970490D01*
X106318241Y-62020266D01*
X106390005Y-62104663D01*
X106454544Y-62202265D01*
X106513784Y-62317247D01*
X106569648Y-62453781D01*
X106624062Y-62616040D01*
X106675179Y-62794154D01*
X106709768Y-62915042D01*
X106742029Y-63009544D01*
X106775081Y-63084697D01*
X106812047Y-63147542D01*
X106856048Y-63205117D01*
X106858844Y-63208398D01*
X106941332Y-63304740D01*
X106887275Y-63293370D01*
X106843870Y-63277187D01*
X106805198Y-63243604D01*
X106783620Y-63217230D01*
X106728365Y-63159353D01*
X106671560Y-63124528D01*
X106618899Y-63114968D01*
X106576071Y-63132881D01*
X106573252Y-63135554D01*
X106555744Y-63159599D01*
X106548684Y-63191699D01*
X106551325Y-63240748D01*
X106559696Y-63296839D01*
X106588652Y-63500168D01*
X106605604Y-63691502D01*
X106610317Y-63865332D01*
X106602551Y-64016149D01*
X106593678Y-64082613D01*
X106580206Y-64152544D01*
X106564165Y-64221356D01*
X106547942Y-64280086D01*
X106533926Y-64319771D01*
X106527626Y-64330653D01*
X106515854Y-64320723D01*
X106488791Y-64291162D01*
X106455925Y-64252683D01*
X106416877Y-64207702D01*
X106388735Y-64183489D01*
X106361688Y-64174021D01*
X106326495Y-64173254D01*
X106265070Y-64175492D01*
X106238441Y-64261309D01*
X106224249Y-64325408D01*
X106214636Y-64404009D01*
X106211930Y-64464960D01*
X106210010Y-64553619D01*
X106204622Y-64651320D01*
X106196577Y-64749685D01*
X106186685Y-64840336D01*
X106175752Y-64914894D01*
X106164590Y-64964981D01*
X106163266Y-64968966D01*
X106148294Y-65021801D01*
X106135565Y-65083390D01*
X106133855Y-65094216D01*
X106124959Y-65140991D01*
X106115381Y-65172090D01*
X106112413Y-65176919D01*
X106099817Y-65199002D01*
X106083504Y-65238473D01*
X106081732Y-65243362D01*
X106060912Y-65291794D01*
X106031092Y-65350293D01*
X106016694Y-65375763D01*
X105971504Y-65452554D01*
X105956830Y-65405851D01*
X105936010Y-65357169D01*
X105905462Y-65331006D01*
X105861739Y-65317853D01*
X105822489Y-65315523D01*
X105795753Y-65334573D01*
X105783194Y-65352424D01*
X105760315Y-65399328D01*
X105741202Y-65456615D01*
X105738860Y-65466236D01*
X105723609Y-65520770D01*
X105705864Y-65567425D01*
X105702509Y-65574204D01*
X105683653Y-65614241D01*
X105660996Y-65668308D01*
X105652949Y-65688933D01*
X105632130Y-65731290D01*
X105596194Y-65792666D01*
X105550449Y-65865069D01*
X105500207Y-65940506D01*
X105450779Y-66010986D01*
X105407476Y-66068519D01*
X105377866Y-66102886D01*
X105343595Y-66117131D01*
X105322191Y-66110824D01*
X105288898Y-66105155D01*
X105271237Y-66113885D01*
X105254529Y-66134325D01*
X105224305Y-66174534D01*
X105185081Y-66228172D01*
X105141379Y-66288903D01*
X105097713Y-66350389D01*
X105058604Y-66406291D01*
X105028567Y-66450273D01*
X105012122Y-66475995D01*
X105010354Y-66479854D01*
X104998669Y-66494362D01*
X104967168Y-66526543D01*
X104921183Y-66571388D01*
X104866044Y-66623888D01*
X104807084Y-66679033D01*
X104749632Y-66731810D01*
X104699020Y-66777212D01*
X104660580Y-66810228D01*
X104648898Y-66819538D01*
X104573396Y-66867842D01*
X104473159Y-66918887D01*
X104356689Y-66969527D01*
X104232486Y-67016614D01*
X104109050Y-67056999D01*
X103994881Y-67087535D01*
X103898482Y-67105075D01*
X103871223Y-67107520D01*
X103802707Y-67116279D01*
X103732663Y-67132966D01*
X103672574Y-67154187D01*
X103633921Y-67176549D01*
X103632219Y-67178167D01*
X103612436Y-67212366D01*
X103611192Y-67238027D01*
X103611948Y-67255357D01*
X103598051Y-67268155D01*
X103562880Y-67280044D01*
X103512885Y-67291791D01*
X103453947Y-67300809D01*
X103371904Y-67308116D01*
X103277500Y-67312981D01*
X103181482Y-67314664D01*
X103179124Y-67314659D01*
X103036391Y-67317123D01*
X102923257Y-67325262D01*
X102840772Y-67338924D01*
X102789981Y-67357952D01*
X102773794Y-67374498D01*
X102776659Y-67404002D01*
X102800034Y-67436616D01*
X102833725Y-67461163D01*
X102858684Y-67467565D01*
X102883066Y-67474328D01*
X102887022Y-67481313D01*
X102871230Y-67494473D01*
X102828352Y-67508045D01*
X102765134Y-67520946D01*
X102688325Y-67532093D01*
X102604673Y-67540402D01*
X102520924Y-67544791D01*
X102488983Y-67545207D01*
X102404481Y-67543903D01*
X102319047Y-67540389D01*
X102239893Y-67535216D01*
X102174235Y-67528936D01*
X102129284Y-67522101D01*
X102112911Y-67516444D01*
X102094519Y-67510370D01*
X102052740Y-67500520D01*
X102008993Y-67491493D01*
X101928067Y-67467993D01*
X101832994Y-67428542D01*
X101735758Y-67378734D01*
X101648337Y-67324166D01*
X101643521Y-67320761D01*
X101591790Y-67296327D01*
X101536190Y-67286770D01*
X101534593Y-67286806D01*
X101492203Y-67294413D01*
X101470446Y-67316917D01*
X101468073Y-67358817D01*
X101483840Y-67424609D01*
X101490576Y-67445636D01*
X101520571Y-67536239D01*
X101465151Y-67539948D01*
X101342537Y-67533868D01*
X101210483Y-67499425D01*
X101067799Y-67436074D01*
X100913298Y-67343268D01*
X100745790Y-67220461D01*
X100713758Y-67194797D01*
X100647710Y-67143356D01*
X100585273Y-67098471D01*
X100534400Y-67065657D01*
X100507633Y-67051900D01*
X100453565Y-67043845D01*
X100414607Y-67065394D01*
X100391984Y-67115254D01*
X100386520Y-67178995D01*
X100384592Y-67244841D01*
X100377827Y-67310044D01*
X100367725Y-67366048D01*
X100355785Y-67404298D01*
X100344926Y-67416476D01*
X100331140Y-67401963D01*
X100320580Y-67370570D01*
X100309158Y-67332116D01*
X100288300Y-67274981D01*
X100262467Y-67211363D01*
X100261811Y-67209832D01*
X100243159Y-67167347D01*
X100225660Y-67132865D01*
X100205044Y-67101230D01*
X100177035Y-67067288D01*
X100137359Y-67025884D01*
X100081744Y-66971861D01*
X100005913Y-66900066D01*
X100001677Y-66896071D01*
X99895849Y-66799005D01*
X99809103Y-66726249D01*
X99738560Y-66676335D01*
X99681340Y-66647792D01*
X99634563Y-66639150D01*
X99595351Y-66648940D01*
X99563857Y-66672584D01*
X99542646Y-66702779D01*
X99543344Y-66737626D01*
X99553578Y-66766679D01*
X99566859Y-66807476D01*
X99569049Y-66833742D01*
X99567618Y-66836454D01*
X99549611Y-66832384D01*
X99512413Y-66810624D01*
X99462289Y-66775822D01*
X99405509Y-66732621D01*
X99348341Y-66685667D01*
X99297051Y-66639602D01*
X99281643Y-66624544D01*
X99213913Y-66543960D01*
X99145734Y-66440740D01*
X99083424Y-66325434D01*
X99034676Y-66212310D01*
X99003188Y-66134413D01*
X98976064Y-66085257D01*
X98949849Y-66060634D01*
X98921090Y-66056336D01*
X98908980Y-66059094D01*
X98878847Y-66070883D01*
X98860603Y-66088970D01*
X98851167Y-66121136D01*
X98847458Y-66175161D01*
X98846751Y-66216271D01*
X98842466Y-66293211D01*
X98832045Y-66343554D01*
X98816313Y-66364817D01*
X98799523Y-66358317D01*
X98785358Y-66327031D01*
X98773983Y-66268508D01*
X98765605Y-66189282D01*
X98760430Y-66095883D01*
X98758664Y-65994844D01*
X98760518Y-65892696D01*
X98766194Y-65795971D01*
X98775901Y-65711202D01*
X98778528Y-65695209D01*
X98793202Y-65596427D01*
X98797173Y-65525089D01*
X98790342Y-65476479D01*
X98773222Y-65446497D01*
X98748034Y-65433647D01*
X98712997Y-65440913D01*
X98663699Y-65470094D01*
X98605564Y-65514882D01*
X98528399Y-65567199D01*
X98452077Y-65599515D01*
X98384461Y-65608988D01*
X98357199Y-65604527D01*
X98338822Y-65593626D01*
X98335868Y-65571090D01*
X98347863Y-65528317D01*
X98352304Y-65515773D01*
X98370623Y-65468177D01*
X98385475Y-65435182D01*
X98390334Y-65427425D01*
X98404393Y-65398195D01*
X98417599Y-65345271D01*
X98428478Y-65278818D01*
X98435555Y-65209004D01*
X98437355Y-65145995D01*
X98435412Y-65116677D01*
X98427277Y-65025340D01*
X98423431Y-64926002D01*
X98423731Y-64827700D01*
X98428030Y-64739470D01*
X98436186Y-64670349D01*
X98443011Y-64641371D01*
X98466511Y-64553199D01*
X98476295Y-64478592D01*
X98472832Y-64421705D01*
X98456590Y-64386694D01*
X98428040Y-64377716D01*
X98413793Y-64382113D01*
X98388802Y-64404295D01*
X98353145Y-64450327D01*
X98311238Y-64513734D01*
X98267498Y-64588041D01*
X98245460Y-64628908D01*
X98222297Y-64670091D01*
X98205046Y-64695035D01*
X98200621Y-64698453D01*
X98196668Y-64683188D01*
X98195558Y-64643897D01*
X98196682Y-64607658D01*
X98208740Y-64524274D01*
X98235248Y-64423179D01*
X98272491Y-64315251D01*
X98316757Y-64211364D01*
X98359805Y-64129853D01*
X98392168Y-64073438D01*
X98417875Y-64024418D01*
X98431126Y-63994014D01*
X98437759Y-63977508D01*
X98450565Y-63953660D01*
X98471597Y-63919373D01*
X98502902Y-63871552D01*
X98546533Y-63807100D01*
X98604539Y-63722922D01*
X98678970Y-63615921D01*
X98727545Y-63546372D01*
X98776993Y-63474164D01*
X98818514Y-63410718D01*
X98848565Y-63361664D01*
X98863602Y-63332636D01*
X98864665Y-63328398D01*
X98852471Y-63302659D01*
X98827344Y-63277097D01*
X98788278Y-63261838D01*
X98739470Y-63272024D01*
X98678574Y-63308771D01*
X98603247Y-63373195D01*
X98581613Y-63394022D01*
X98531984Y-63439844D01*
X98487398Y-63476041D01*
X98456379Y-63495777D01*
X98453206Y-63496962D01*
X98420155Y-63499094D01*
X98372020Y-63494490D01*
X98323291Y-63485440D01*
X98288456Y-63474232D01*
X98281905Y-63469912D01*
X98291738Y-63459378D01*
X98323886Y-63439428D01*
X98350759Y-63425016D01*
X98410913Y-63386094D01*
X98483401Y-63326965D01*
X98560867Y-63254972D01*
X98635952Y-63177462D01*
X98701300Y-63101779D01*
X98749552Y-63035269D01*
X98761185Y-63015244D01*
X98816671Y-62923617D01*
X98894835Y-62814489D01*
X98992446Y-62692162D01*
X99082185Y-62587889D01*
X99191938Y-62464156D01*
X99223231Y-62495449D01*
X99276162Y-62533970D01*
X99355470Y-62573457D01*
X99453820Y-62611684D01*
X99563870Y-62646427D01*
X99678284Y-62675458D01*
X99789724Y-62696551D01*
X99890851Y-62707481D01*
X99925658Y-62708508D01*
X100023631Y-62705298D01*
X100126839Y-62696305D01*
X100223341Y-62682949D01*
X100301196Y-62666653D01*
X100317624Y-62661883D01*
X100364394Y-62649133D01*
X100396203Y-62644293D01*
X100403149Y-62645631D01*
X100409296Y-62666050D01*
X100415293Y-62708102D01*
X100417393Y-62730744D01*
X100422615Y-62778726D01*
X100428821Y-62810707D01*
X100431376Y-62816570D01*
X100439099Y-62837262D01*
X100449340Y-62879112D01*
X100453811Y-62901098D01*
X100487446Y-63028144D01*
X100540962Y-63170336D01*
X100610219Y-63318942D01*
X100691080Y-63465231D01*
X100779407Y-63600470D01*
X100796147Y-63623462D01*
X100935917Y-63786507D01*
X101098868Y-63932618D01*
X101279436Y-64058309D01*
X101472054Y-64160098D01*
X101671157Y-64234500D01*
X101832566Y-64272165D01*
X101933882Y-64284579D01*
X102044901Y-64290479D01*
X102157860Y-64290212D01*
X102264993Y-64284125D01*
X102358543Y-64272564D01*
X102430743Y-64255878D01*
X102459472Y-64244151D01*
X102502967Y-64227347D01*
X102530489Y-64222059D01*
X102570648Y-64210606D01*
X102630602Y-64182831D01*
X102703235Y-64142970D01*
X102781428Y-64095259D01*
X102858066Y-64043934D01*
X102926031Y-63993232D01*
X102953777Y-63970104D01*
X103065301Y-63858946D01*
X103169025Y-63730160D01*
X103253886Y-63597695D01*
X103264079Y-63578800D01*
X103303175Y-63493233D01*
X103342848Y-63387643D01*
X103378668Y-63275501D01*
X103406200Y-63170277D01*
X103417436Y-63112723D01*
X103432062Y-62965505D01*
X103433260Y-62805420D01*
X103421769Y-62644501D01*
X103398326Y-62494787D01*
X103373728Y-62398328D01*
X103354561Y-62335240D01*
X103339632Y-62283166D01*
X103331721Y-62251863D01*
X103331260Y-62249216D01*
X103321516Y-62219317D01*
X103299366Y-62167473D01*
X103268574Y-62101493D01*
X103232904Y-62029190D01*
X103196119Y-61958374D01*
X103161983Y-61896859D01*
X103159107Y-61891940D01*
X103125262Y-61841453D01*
X103075482Y-61775939D01*
X103017202Y-61704884D01*
X102972354Y-61653627D01*
X102910479Y-61582840D01*
X102869976Y-61531280D01*
X102865100Y-61522926D01*
X102698831Y-61689195D01*
X102787819Y-61781212D01*
X102869365Y-61876747D01*
X102935331Y-61967201D01*
X102953136Y-61995905D01*
X102997038Y-62074693D01*
X103037549Y-62154277D01*
X103071152Y-62227068D01*
X103094336Y-62285478D01*
X103103498Y-62320619D01*
X103112978Y-62356757D01*
X103122034Y-62371098D01*
X103136741Y-62399193D01*
X103152953Y-62450516D01*
X103167877Y-62514703D01*
X103178725Y-62581390D01*
X103178794Y-62581954D01*
X103185113Y-62634560D01*
X103192715Y-62698571D01*
X103195200Y-62719659D01*
X103202786Y-62910975D01*
X103182014Y-63101174D01*
X103134640Y-63284785D01*
X103062415Y-63456336D01*
X102967093Y-63610356D01*
X102875548Y-63717110D01*
X102811809Y-63777370D01*
X102741537Y-63838013D01*
X102678315Y-63887400D01*
X102669171Y-63893892D01*
X102535100Y-63968957D01*
X102380382Y-64024577D01*
X102213276Y-64058955D01*
X102042037Y-64070299D01*
X101901323Y-64060750D01*
X101771016Y-64031744D01*
X101625884Y-63979203D01*
X101472492Y-63905850D01*
X101337090Y-63827001D01*
X101262633Y-63772363D01*
X101179089Y-63698855D01*
X101093349Y-63613798D01*
X101012313Y-63524515D01*
X100942877Y-63438325D01*
X100891936Y-63362551D01*
X100881502Y-63343362D01*
X100851295Y-63286916D01*
X100823483Y-63240552D01*
X100805115Y-63215538D01*
X100783547Y-63180202D01*
X100773148Y-63146580D01*
X100760640Y-63102287D01*
X100739525Y-63048597D01*
X100733923Y-63036458D01*
X100693799Y-62926391D01*
X100665612Y-62794227D01*
X100649358Y-62647941D01*
X100645029Y-62495507D01*
X100652622Y-62344904D01*
X100672127Y-62204109D01*
X100703541Y-62081095D01*
X100734717Y-62005682D01*
X100761064Y-61949584D01*
X100788261Y-61884631D01*
X100795826Y-61864888D01*
X100827394Y-61806481D01*
X100880415Y-61736476D01*
X100948835Y-61660527D01*
X101026592Y-61584291D01*
X101107631Y-61513420D01*
X101185893Y-61453572D01*
X101255321Y-61410400D01*
X101303630Y-61390851D01*
X101344403Y-61378349D01*
X101357775Y-61373154D01*
X101467819Y-61332352D01*
X101574180Y-61307569D01*
X101690804Y-61296162D01*
X101771907Y-61294639D01*
X101857277Y-61296750D01*
X101937078Y-61302051D01*
X102001134Y-61309684D01*
X102033624Y-61316706D01*
X102093900Y-61335645D01*
X102152631Y-61353676D01*
X102159183Y-61355648D01*
X102222765Y-61380179D01*
X102306451Y-61420563D01*
X102402819Y-61472919D01*
X102504449Y-61533368D01*
X102531081Y-61550099D01*
X102610539Y-61609292D01*
X102698831Y-61689195D01*
X102865100Y-61522926D01*
X102852061Y-61500577D01*
X102852356Y-61493094D01*
X102871405Y-61477841D01*
X102910674Y-61447985D01*
X102963046Y-61408912D01*
X102986551Y-61391552D01*
X103140007Y-61257882D01*
X103270987Y-61100761D01*
X103375840Y-60924889D01*
X103413036Y-60842101D01*
X103466568Y-60693567D01*
X103500394Y-60561072D01*
X103510340Y-60493801D01*
X103520077Y-60395050D01*
X103666724Y-60381704D01*
X103730956Y-60377705D01*
X103820676Y-60374673D01*
X103927517Y-60372759D01*
X104043111Y-60372117D01*
X104155535Y-60372849D01*
X104273129Y-60374057D01*
X104361991Y-60373839D01*
X104427242Y-60371698D01*
X104474001Y-60367136D01*
X104507390Y-60359654D01*
X104532531Y-60348755D01*
X104554377Y-60334069D01*
X104600149Y-60303581D01*
X104625312Y-60296515D01*
X104628111Y-60312359D01*
X104607557Y-60349499D01*
X104564597Y-60396717D01*
X104497928Y-60451029D01*
X104415170Y-60506685D01*
X104347535Y-60545633D01*
X104292546Y-60582334D01*
X104270228Y-60617104D01*
X104279625Y-60652071D01*
X104292985Y-60667508D01*
X104326915Y-60687493D01*
X104379091Y-60694715D01*
X104429794Y-60693096D01*
X104725084Y-60688526D01*
X105026737Y-60715517D01*
X105330477Y-60773480D01*
X105618674Y-60857240D01*
X105683312Y-60881039D01*
X105750052Y-60908491D01*
X105811428Y-60936147D01*
X105859974Y-60960555D01*
X105888224Y-60978268D01*
X106057638Y-60808853D01*
X106057389Y-60808690D01*
X105969104Y-60764277D01*
X105859221Y-60717579D01*
X105733527Y-60670859D01*
X105597807Y-60626387D01*
X105457848Y-60586429D01*
X105432115Y-60579754D01*
X105360768Y-60560939D01*
X105302403Y-60544398D01*
X105264371Y-60532283D01*
X105253755Y-60527559D01*
X105231383Y-60521439D01*
X105211911Y-60521636D01*
X105176131Y-60516304D01*
X105162231Y-60507877D01*
X105138615Y-60498727D01*
X105090112Y-60488813D01*
X105025613Y-60479815D01*
X104998772Y-60476988D01*
X104852128Y-60462912D01*
X104874616Y-60418686D01*
X104904240Y-60336350D01*
X104915131Y-60249457D01*
X104907933Y-60166861D01*
X104883291Y-60097418D01*
X104848143Y-60054580D01*
X104824718Y-60042977D01*
X104791340Y-60040383D01*
X104743049Y-60047664D01*
X104674888Y-60065689D01*
X104581895Y-60095323D01*
X104546191Y-60107363D01*
X104477433Y-60127167D01*
X104400628Y-60141528D01*
X104309622Y-60151057D01*
X104198257Y-60156357D01*
X104060380Y-60158039D01*
X104033172Y-60158007D01*
X103932580Y-60158461D01*
X103831321Y-60160182D01*
X103740466Y-60162904D01*
X103671090Y-60166366D01*
X103664807Y-60166812D01*
X103602047Y-60169862D01*
X103552940Y-60169236D01*
X103526772Y-60165110D01*
X103525337Y-60164140D01*
X103517603Y-60141974D01*
X103509714Y-60096557D01*
X103504284Y-60047298D01*
X103496956Y-59989307D01*
X103486925Y-59944555D01*
X103478188Y-59925412D01*
X103463445Y-59897077D01*
X103453940Y-59858166D01*
X103440684Y-59811627D01*
X103413253Y-59745171D01*
X103375886Y-59667306D01*
X103332824Y-59586537D01*
X103288306Y-59511370D01*
X103259513Y-59468010D01*
X103190632Y-59384233D01*
X103100489Y-59294680D01*
X103088011Y-59284060D01*
X102937017Y-59435053D01*
X103004983Y-59505924D01*
X103068036Y-59575915D01*
X103113066Y-59630754D01*
X103146091Y-59679141D01*
X103173133Y-59729774D01*
X103196685Y-59782917D01*
X103261574Y-59957555D01*
X103302011Y-60117628D01*
X103319156Y-60270732D01*
X103314164Y-60424463D01*
X103305176Y-60494769D01*
X103262083Y-60668070D01*
X103189022Y-60836535D01*
X103089865Y-60994021D01*
X102968486Y-61134382D01*
X102828756Y-61251475D01*
X102827726Y-61252195D01*
X102751663Y-61303488D01*
X102696840Y-61335226D01*
X102658321Y-61349345D01*
X102631169Y-61347778D01*
X102613774Y-61335997D01*
X102583445Y-61313812D01*
X102530513Y-61282537D01*
X102463475Y-61246502D01*
X102390822Y-61210037D01*
X102321049Y-61177467D01*
X102262651Y-61153123D01*
X102238846Y-61144924D01*
X102176526Y-61128705D01*
X102112939Y-61115615D01*
X102111824Y-61115428D01*
X102068067Y-61106380D01*
X102040866Y-61097500D01*
X102038272Y-61095757D01*
X102015723Y-61088470D01*
X101967575Y-61081118D01*
X101902085Y-61074481D01*
X101827508Y-61069336D01*
X101752103Y-61066461D01*
X101723712Y-61066121D01*
X101625697Y-61070114D01*
X101527183Y-61081473D01*
X101440090Y-61098438D01*
X101382536Y-61116533D01*
X101341418Y-61128476D01*
X101322483Y-61117594D01*
X101320467Y-61084399D01*
X101317851Y-61051635D01*
X101312215Y-61040226D01*
X101302685Y-61017506D01*
X101293125Y-60975197D01*
X101291075Y-60962520D01*
X101273505Y-60896189D01*
X101239704Y-60811403D01*
X101193939Y-60716676D01*
X101140473Y-60620517D01*
X101083566Y-60531438D01*
X101056213Y-60493606D01*
X101010703Y-60431312D01*
X100982927Y-60385490D01*
X100968499Y-60346967D01*
X100966347Y-60331067D01*
X100793491Y-60503922D01*
X100914425Y-60655302D01*
X101013802Y-60830159D01*
X101090109Y-61027017D01*
X101118528Y-61130680D01*
X101122423Y-61179382D01*
X101103614Y-61211406D01*
X101100437Y-61214057D01*
X101035085Y-61268810D01*
X100961180Y-61335212D01*
X100884534Y-61407549D01*
X100810955Y-61480105D01*
X100746253Y-61547163D01*
X100696239Y-61603009D01*
X100668660Y-61638844D01*
X100605856Y-61743387D01*
X100550177Y-61850733D01*
X100506873Y-61950176D01*
X100486413Y-62010475D01*
X100470268Y-62067049D01*
X100456204Y-62115321D01*
X100451375Y-62131432D01*
X100436634Y-62191089D01*
X100424010Y-62261636D01*
X100416279Y-62326090D01*
X100415121Y-62353208D01*
X100411123Y-62387645D01*
X100394593Y-62413298D01*
X100359842Y-62434019D01*
X100301179Y-62453661D01*
X100245265Y-62468236D01*
X100050995Y-62499570D01*
X99857802Y-62498824D01*
X99669448Y-62467139D01*
X99489691Y-62405655D01*
X99322296Y-62315511D01*
X99171019Y-62197849D01*
X99093561Y-62119032D01*
X99016448Y-62028188D01*
X98958436Y-61947365D01*
X98912686Y-61864816D01*
X98872355Y-61768795D01*
X98845777Y-61693503D01*
X98798828Y-61502918D01*
X98784086Y-61309272D01*
X98801266Y-61116981D01*
X98850088Y-60930460D01*
X98902824Y-60805918D01*
X98932302Y-60748853D01*
X98960432Y-60701803D01*
X98992856Y-60657470D01*
X99035219Y-60608552D01*
X99093163Y-60547752D01*
X99135948Y-60504353D01*
X99203493Y-60436776D01*
X99254565Y-60388092D01*
X99296335Y-60352951D01*
X99335977Y-60326001D01*
X99380664Y-60301892D01*
X99437568Y-60275271D01*
X99451400Y-60269016D01*
X99526458Y-60237235D01*
X99599918Y-60209688D01*
X99659794Y-60190743D01*
X99677618Y-60186481D01*
X99732062Y-60175248D01*
X99776856Y-60165377D01*
X99788090Y-60162675D01*
X99865857Y-60151371D01*
X99966065Y-60149484D01*
X100078626Y-60157017D01*
X100124444Y-60162612D01*
X100316478Y-60205361D01*
X100493005Y-60277478D01*
X100652513Y-60377489D01*
X100793491Y-60503922D01*
X100966347Y-60331067D01*
X100963032Y-60306571D01*
X100962646Y-60297956D01*
X100965339Y-60235246D01*
X100975481Y-60151902D01*
X100990986Y-60059784D01*
X101009773Y-59970756D01*
X101029758Y-59896683D01*
X101036660Y-59876460D01*
X101090891Y-59761504D01*
X101167446Y-59642808D01*
X101260486Y-59526568D01*
X101364174Y-59418978D01*
X101472667Y-59326234D01*
X101580129Y-59254532D01*
X101657248Y-59218024D01*
X101868019Y-59154156D01*
X102070933Y-59123223D01*
X102266017Y-59125226D01*
X102453293Y-59160162D01*
X102517795Y-59180449D01*
X102643178Y-59229410D01*
X102748212Y-59283735D01*
X102842844Y-59350068D01*
X102937017Y-59435053D01*
X103088011Y-59284060D01*
X102998513Y-59207891D01*
X102894132Y-59132409D01*
X102876593Y-59121168D01*
X102807064Y-59081328D01*
X102726854Y-59041212D01*
X102644861Y-59004669D01*
X102569988Y-58975552D01*
X102511132Y-58957712D01*
X102490833Y-58954253D01*
X102458006Y-58947554D01*
X102446478Y-58941597D01*
X102420852Y-58932743D01*
X102368637Y-58926036D01*
X102297044Y-58921467D01*
X102213282Y-58919031D01*
X102124560Y-58918718D01*
X102038088Y-58920525D01*
X101961077Y-58924442D01*
X101900735Y-58930463D01*
X101864273Y-58938581D01*
X101858226Y-58942166D01*
X101837317Y-58949935D01*
X101796371Y-58958314D01*
X101784737Y-58960095D01*
X101738970Y-58972216D01*
X101673687Y-58996457D01*
X101597384Y-59028862D01*
X101518563Y-59065477D01*
X101445723Y-59102351D01*
X101387363Y-59135527D01*
X101351984Y-59161051D01*
X101351290Y-59161734D01*
X101311132Y-59193640D01*
X101267563Y-59219359D01*
X101225381Y-59249387D01*
X101171110Y-59301875D01*
X101110060Y-59370227D01*
X101047540Y-59447845D01*
X100988860Y-59528134D01*
X100939331Y-59604499D01*
X100904261Y-59670342D01*
X100903933Y-59671079D01*
X100847740Y-59806529D01*
X100807846Y-59924860D01*
X100780873Y-60036514D01*
X100774752Y-60070533D01*
X100756167Y-60182021D01*
X100602930Y-60103864D01*
X100398996Y-60017382D01*
X100192246Y-59964591D01*
X99982503Y-59945482D01*
X99769589Y-59960054D01*
X99553327Y-60008302D01*
X99374598Y-60072476D01*
X99261241Y-60130957D01*
X99143154Y-60211107D01*
X99027608Y-60306365D01*
X98921872Y-60410169D01*
X98833215Y-60515958D01*
%TD*%
M02*
