%TF.GenerationSoftware,KiCad,Pcbnew,(5.1.9)-1*%
%TF.CreationDate,2021-05-19T15:48:15+02:00*%
%TF.ProjectId,flashpad,666c6173-6870-4616-942e-6b696361645f,rev?*%
%TF.SameCoordinates,Original*%
%TF.FileFunction,Soldermask,Top*%
%TF.FilePolarity,Negative*%
%FSLAX46Y46*%
G04 Gerber Fmt 4.6, Leading zero omitted, Abs format (unit mm)*
G04 Created by KiCad (PCBNEW (5.1.9)-1) date 2021-05-19 15:48:15*
%MOMM*%
%LPD*%
G01*
G04 APERTURE LIST*
%ADD10O,2.000000X1.600000*%
%ADD11R,2.000000X1.600000*%
%ADD12C,1.700000*%
%ADD13C,1.600000*%
%ADD14O,1.600000X1.600000*%
%ADD15R,1.700000X1.700000*%
%ADD16C,3.500000*%
%ADD17C,1.500000*%
%ADD18R,1.600000X1.600000*%
%ADD19C,1.800000*%
%ADD20R,1.800000X1.800000*%
%ADD21O,1.700000X1.700000*%
%ADD22C,2.000000*%
%ADD23R,1.200000X1.200000*%
%ADD24C,1.200000*%
G04 APERTURE END LIST*
D10*
%TO.C,U3*%
X152908000Y-110236000D03*
X145288000Y-140716000D03*
X152908000Y-107696000D03*
X145288000Y-138176000D03*
X152908000Y-128016000D03*
X152908000Y-140716000D03*
X152908000Y-117856000D03*
X145288000Y-133096000D03*
X152908000Y-115316000D03*
X152908000Y-133096000D03*
X145288000Y-128016000D03*
X145288000Y-135636000D03*
X152908000Y-135636000D03*
X152908000Y-130556000D03*
X152908000Y-112776000D03*
D11*
X145288000Y-107696000D03*
D10*
X145288000Y-120396000D03*
X152908000Y-138176000D03*
X145288000Y-122936000D03*
X145288000Y-110236000D03*
X145288000Y-115316000D03*
X145288000Y-125476000D03*
X145288000Y-112776000D03*
X152908000Y-122936000D03*
X145288000Y-117856000D03*
X152908000Y-120396000D03*
X145288000Y-130556000D03*
X152908000Y-125476000D03*
%TD*%
%TO.C,U2*%
X100393500Y-118872000D03*
X115633500Y-113792000D03*
X100393500Y-121412000D03*
X115633500Y-126492000D03*
X115633500Y-123952000D03*
D11*
X115633500Y-141732000D03*
D10*
X115633500Y-139192000D03*
X100393500Y-96012000D03*
X100393500Y-98552000D03*
X115633500Y-131572000D03*
X115633500Y-129032000D03*
X100393500Y-106172000D03*
X100393500Y-93472000D03*
X115633500Y-136652000D03*
X100393500Y-101092000D03*
X100393500Y-108712000D03*
X115633500Y-134112000D03*
X100393500Y-103632000D03*
X100393500Y-111252000D03*
X115633500Y-121412000D03*
X100393500Y-113792000D03*
X115633500Y-116332000D03*
X115633500Y-118872000D03*
X100393500Y-116332000D03*
X100393500Y-126492000D03*
X100393500Y-131572000D03*
X100393500Y-134112000D03*
X100393500Y-136652000D03*
X115633500Y-98552000D03*
X115633500Y-93472000D03*
X100393500Y-129032000D03*
X115633500Y-108712000D03*
X115633500Y-103632000D03*
X115633500Y-106172000D03*
X100393500Y-139192000D03*
X115633500Y-111252000D03*
X115633500Y-101092000D03*
X100393500Y-123952000D03*
X115633500Y-96012000D03*
X100393500Y-141732000D03*
%TD*%
%TO.C,AVR*%
G36*
G01*
X134972500Y-143549000D02*
X136172500Y-143549000D01*
G75*
G02*
X136422500Y-143799000I0J-250000D01*
G01*
X136422500Y-144999000D01*
G75*
G02*
X136172500Y-145249000I-250000J0D01*
G01*
X134972500Y-145249000D01*
G75*
G02*
X134722500Y-144999000I0J250000D01*
G01*
X134722500Y-143799000D01*
G75*
G02*
X134972500Y-143549000I250000J0D01*
G01*
G37*
D12*
X133032500Y-144399000D03*
X130492500Y-144399000D03*
X127952500Y-144399000D03*
X125412500Y-144399000D03*
X135572500Y-146939000D03*
X133032500Y-146939000D03*
X130492500Y-146939000D03*
X127952500Y-146939000D03*
X125412500Y-146939000D03*
%TD*%
D13*
%TO.C,R10*%
X136334500Y-92252800D03*
D14*
X136334500Y-102412800D03*
%TD*%
D13*
%TO.C,R9*%
X132969000Y-92252800D03*
D14*
X132969000Y-102412800D03*
%TD*%
D13*
%TO.C,R7*%
X147320000Y-60071000D03*
D14*
X147320000Y-70231000D03*
%TD*%
D13*
%TO.C,R6*%
X150685500Y-60071000D03*
D14*
X150685500Y-70231000D03*
%TD*%
D13*
%TO.C,R5*%
X144018000Y-70231000D03*
D14*
X144018000Y-60071000D03*
%TD*%
D13*
%TO.C,R4*%
X126288800Y-92252800D03*
D14*
X126288800Y-102412800D03*
%TD*%
D13*
%TO.C,R3*%
X129641600Y-92252800D03*
D14*
X129641600Y-102412800D03*
%TD*%
D13*
%TO.C,R2*%
X122936000Y-92252800D03*
D14*
X122936000Y-102412800D03*
%TD*%
D13*
%TO.C,R1*%
X153987500Y-60071000D03*
D14*
X153987500Y-70231000D03*
%TD*%
D15*
%TO.C,USB1*%
X125526800Y-64719200D03*
D12*
X128026800Y-64719200D03*
X128026800Y-62719200D03*
X125526800Y-62719200D03*
D16*
X120756800Y-60009200D03*
X132796800Y-60009200D03*
%TD*%
D17*
%TO.C,X1*%
X105613200Y-80010000D03*
X105613200Y-75130000D03*
%TD*%
D18*
%TO.C,U1*%
X145288000Y-74168000D03*
D14*
X112268000Y-81788000D03*
X142748000Y-74168000D03*
X114808000Y-81788000D03*
X140208000Y-74168000D03*
X117348000Y-81788000D03*
X137668000Y-74168000D03*
X119888000Y-81788000D03*
X135128000Y-74168000D03*
X122428000Y-81788000D03*
X132588000Y-74168000D03*
X124968000Y-81788000D03*
X130048000Y-74168000D03*
X127508000Y-81788000D03*
X127508000Y-74168000D03*
X130048000Y-81788000D03*
X124968000Y-74168000D03*
X132588000Y-81788000D03*
X122428000Y-74168000D03*
X135128000Y-81788000D03*
X119888000Y-74168000D03*
X137668000Y-81788000D03*
X117348000Y-74168000D03*
X140208000Y-81788000D03*
X114808000Y-74168000D03*
X142748000Y-81788000D03*
X112268000Y-74168000D03*
X145288000Y-81788000D03*
%TD*%
D19*
%TO.C,ACT*%
X153263600Y-90119200D03*
D20*
X150723600Y-90119200D03*
%TD*%
%TO.C,PWR*%
X142189200Y-90119200D03*
D19*
X144729200Y-90119200D03*
%TD*%
D15*
%TO.C,JP2*%
X151028400Y-75438000D03*
D21*
X153568400Y-75438000D03*
%TD*%
D15*
%TO.C,JP1*%
X151079200Y-79857600D03*
D21*
X153619200Y-79857600D03*
%TD*%
D13*
%TO.C,C9*%
X128941200Y-84836000D03*
X126441200Y-84836000D03*
%TD*%
%TO.C,C8*%
X126278000Y-71018400D03*
X128778000Y-71018400D03*
%TD*%
%TO.C,C2*%
X100228400Y-71323200D03*
X100228400Y-76323200D03*
%TD*%
%TO.C,C1*%
X100228400Y-83820000D03*
X100228400Y-78820000D03*
%TD*%
D17*
%TO.C,X2*%
X129768600Y-116687600D03*
X129768600Y-121567600D03*
%TD*%
D22*
%TO.C,F1*%
X110947200Y-62534800D03*
X116027200Y-62544800D03*
%TD*%
D18*
%TO.C,D2*%
X140830300Y-68808600D03*
D14*
X140830300Y-61188600D03*
%TD*%
D18*
%TO.C,D1*%
X137922000Y-68808600D03*
D14*
X137922000Y-61188600D03*
%TD*%
D13*
%TO.C,C11*%
X127228600Y-127101600D03*
X132228600Y-127101600D03*
%TD*%
%TO.C,C10*%
X127228600Y-111099600D03*
X132228600Y-111099600D03*
%TD*%
D23*
%TO.C,C3*%
X113639600Y-67411600D03*
D24*
X113639600Y-69411600D03*
%TD*%
M02*
