%TF.GenerationSoftware,KiCad,Pcbnew,(5.1.9)-1*%
%TF.CreationDate,2021-05-05T00:24:41+02:00*%
%TF.ProjectId,flashpad,666c6173-6870-4616-942e-6b696361645f,rev?*%
%TF.SameCoordinates,Original*%
%TF.FileFunction,Soldermask,Top*%
%TF.FilePolarity,Negative*%
%FSLAX46Y46*%
G04 Gerber Fmt 4.6, Leading zero omitted, Abs format (unit mm)*
G04 Created by KiCad (PCBNEW (5.1.9)-1) date 2021-05-05 00:24:41*
%MOMM*%
%LPD*%
G01*
G04 APERTURE LIST*
%ADD10C,3.500000*%
%ADD11C,1.700000*%
%ADD12R,1.700000X1.700000*%
%ADD13O,2.000000X1.440000*%
%ADD14R,2.000000X1.440000*%
%ADD15C,1.500000*%
%ADD16O,1.600000X1.600000*%
%ADD17R,1.600000X1.600000*%
%ADD18O,1.400000X1.400000*%
%ADD19C,1.400000*%
%ADD20C,1.800000*%
%ADD21R,1.800000X1.800000*%
%ADD22O,1.700000X1.700000*%
%ADD23C,1.600000*%
%ADD24C,2.000000*%
%ADD25C,1.200000*%
%ADD26R,1.200000X1.200000*%
G04 APERTURE END LIST*
D10*
%TO.C,USB1*%
X132796800Y-60009200D03*
X120756800Y-60009200D03*
D11*
X125526800Y-62719200D03*
X128026800Y-62719200D03*
X128026800Y-64719200D03*
D12*
X125526800Y-64719200D03*
%TD*%
D13*
%TO.C,U3*%
X152806400Y-138734800D03*
X142646400Y-138734800D03*
X152806400Y-136194800D03*
X142646400Y-136194800D03*
X152806400Y-133654800D03*
X142646400Y-133654800D03*
X152806400Y-131114800D03*
X142646400Y-131114800D03*
X152806400Y-128574800D03*
X142646400Y-128574800D03*
X152806400Y-126034800D03*
X142646400Y-126034800D03*
X152806400Y-123494800D03*
X142646400Y-123494800D03*
X152806400Y-120954800D03*
X142646400Y-120954800D03*
X152806400Y-118414800D03*
X142646400Y-118414800D03*
X152806400Y-115874800D03*
X142646400Y-115874800D03*
X152806400Y-113334800D03*
X142646400Y-113334800D03*
X152806400Y-110794800D03*
X142646400Y-110794800D03*
X152806400Y-108254800D03*
X142646400Y-108254800D03*
X152806400Y-105714800D03*
D14*
X142646400Y-105714800D03*
%TD*%
D15*
%TO.C,X1*%
X105613200Y-75130000D03*
X105613200Y-80010000D03*
%TD*%
D16*
%TO.C,U1*%
X145288000Y-81788000D03*
X112268000Y-74168000D03*
X142748000Y-81788000D03*
X114808000Y-74168000D03*
X140208000Y-81788000D03*
X117348000Y-74168000D03*
X137668000Y-81788000D03*
X119888000Y-74168000D03*
X135128000Y-81788000D03*
X122428000Y-74168000D03*
X132588000Y-81788000D03*
X124968000Y-74168000D03*
X130048000Y-81788000D03*
X127508000Y-74168000D03*
X127508000Y-81788000D03*
X130048000Y-74168000D03*
X124968000Y-81788000D03*
X132588000Y-74168000D03*
X122428000Y-81788000D03*
X135128000Y-74168000D03*
X119888000Y-81788000D03*
X137668000Y-74168000D03*
X117348000Y-81788000D03*
X140208000Y-74168000D03*
X114808000Y-81788000D03*
X142748000Y-74168000D03*
X112268000Y-81788000D03*
D17*
X145288000Y-74168000D03*
%TD*%
D13*
%TO.C,U2*%
X100939600Y-93472000D03*
X116179600Y-93472000D03*
X100939600Y-96012000D03*
X116179600Y-96012000D03*
X100939600Y-98552000D03*
X116179600Y-98552000D03*
X100939600Y-101092000D03*
X116179600Y-101092000D03*
X100939600Y-103632000D03*
X116179600Y-103632000D03*
X100939600Y-106172000D03*
X116179600Y-106172000D03*
X100939600Y-108712000D03*
X116179600Y-108712000D03*
X100939600Y-111252000D03*
X116179600Y-111252000D03*
X100939600Y-113792000D03*
X116179600Y-113792000D03*
X100939600Y-116332000D03*
X116179600Y-116332000D03*
X100939600Y-118872000D03*
X116179600Y-118872000D03*
X100939600Y-121412000D03*
X116179600Y-121412000D03*
X100939600Y-123952000D03*
X116179600Y-123952000D03*
X100939600Y-126492000D03*
X116179600Y-126492000D03*
X100939600Y-129032000D03*
X116179600Y-129032000D03*
X100939600Y-131572000D03*
X116179600Y-131572000D03*
X100939600Y-134112000D03*
X116179600Y-134112000D03*
X100939600Y-136652000D03*
X116179600Y-136652000D03*
X100939600Y-139192000D03*
X116179600Y-139192000D03*
X100939600Y-141732000D03*
D14*
X116179600Y-141732000D03*
%TD*%
D18*
%TO.C,R10*%
X135585200Y-99872800D03*
D19*
X135585200Y-92252800D03*
%TD*%
D20*
%TO.C,ACT*%
X153263600Y-90119200D03*
D21*
X150723600Y-90119200D03*
%TD*%
D22*
%TO.C,AVR*%
X124561600Y-145694400D03*
X124561600Y-143154400D03*
X127101600Y-145694400D03*
X127101600Y-143154400D03*
X129641600Y-145694400D03*
X129641600Y-143154400D03*
X132181600Y-145694400D03*
X132181600Y-143154400D03*
X134721600Y-145694400D03*
D12*
X134721600Y-143154400D03*
%TD*%
D20*
%TO.C,PWR*%
X144729200Y-90119200D03*
D21*
X142189200Y-90119200D03*
%TD*%
D22*
%TO.C,JP2*%
X153568400Y-75438000D03*
D12*
X151028400Y-75438000D03*
%TD*%
D22*
%TO.C,JP1*%
X153619200Y-79857600D03*
D12*
X151079200Y-79857600D03*
%TD*%
D19*
%TO.C,R9*%
X132689600Y-92252800D03*
D18*
X132689600Y-99872800D03*
%TD*%
D19*
%TO.C,R4*%
X126796800Y-92252800D03*
D18*
X126796800Y-99872800D03*
%TD*%
D19*
%TO.C,R3*%
X129641600Y-92252800D03*
D18*
X129641600Y-99872800D03*
%TD*%
D19*
%TO.C,R2*%
X123901200Y-92252800D03*
D18*
X123901200Y-99872800D03*
%TD*%
D19*
%TO.C,R1*%
X153263600Y-60960000D03*
D18*
X153263600Y-68580000D03*
%TD*%
D23*
%TO.C,C9*%
X126441200Y-84836000D03*
X128941200Y-84836000D03*
%TD*%
%TO.C,C8*%
X128778000Y-71018400D03*
X126278000Y-71018400D03*
%TD*%
%TO.C,C2*%
X100228400Y-76323200D03*
X100228400Y-71323200D03*
%TD*%
%TO.C,C1*%
X100228400Y-78820000D03*
X100228400Y-83820000D03*
%TD*%
D15*
%TO.C,X2*%
X129387600Y-121567600D03*
X129387600Y-116687600D03*
%TD*%
D18*
%TO.C,R7*%
X147726400Y-68580000D03*
D19*
X147726400Y-60960000D03*
%TD*%
D18*
%TO.C,R6*%
X150520400Y-68580000D03*
D19*
X150520400Y-60960000D03*
%TD*%
D18*
%TO.C,R5*%
X145034000Y-60960000D03*
D19*
X145034000Y-68580000D03*
%TD*%
D24*
%TO.C,F1*%
X116027200Y-62544800D03*
X110947200Y-62534800D03*
%TD*%
D16*
%TO.C,D2*%
X142036800Y-61061600D03*
D17*
X142036800Y-68681600D03*
%TD*%
D16*
%TO.C,D1*%
X138785600Y-61061600D03*
D17*
X138785600Y-68681600D03*
%TD*%
D23*
%TO.C,C11*%
X131847600Y-127101600D03*
X126847600Y-127101600D03*
%TD*%
%TO.C,C10*%
X131847600Y-111099600D03*
X126847600Y-111099600D03*
%TD*%
D25*
%TO.C,C3*%
X113639600Y-69411600D03*
D26*
X113639600Y-67411600D03*
%TD*%
M02*
